<?xml version="1.0" standalone="no"?> <!DOCTYPE svg PUBLIC "-//W3C//DTD SVG 1.0//EN" "http://www.w3.org/TR/2001/REC-SVG-20010904/DTD/svg10.dtd" > <svg xmlns="http://www.w3.org/2000/svg" width="100%" height="100%">
<defs >
<font horiz-adv-x="563" ><font-face
    font-family=""
    units-per-em="1000"
    panose-1="0 0 0 0 0 0 0 0 0 0"
    ascent="787"
    descent="-213"
    alphabetic="0" />
<missing-glyph horiz-adv-x="1000" />
<glyph unicode=" " glyph-name="space" horiz-adv-x="170" />
<glyph unicode="!" glyph-name="exclam" horiz-adv-x="324" d="M341 570Q341 552 332 528T306 476T270 417T229 353Q201 309 178 269T142 202H125Q126 216 126 229V258Q126 275 126 298T125 356Q125 392 124 419T121 468T118 508T117 543Q117 568 124 591T147
632T185 659T241 670Q288 670 314 641T341 570ZM167 64Q167 32 145 8T87 -16Q51 -16 30 8T8 64Q8 96 29 120T87 144Q123 144 145 120T167 64Z" />
<glyph unicode="&quot;" glyph-name="quotedbl" horiz-adv-x="367" d="M413 610Q413 586 398 559T366 502Q349 471 329 441T290 378H275Q275 409 274 449T270 522Q270 534 270 548T269 575T269 600T271 616Q279 648 300 660T348 673Q374 673 393 657T413 610ZM233
610Q233 586 218 559T186 502Q169 471 149 441T110 378H95Q95 409 94 449T90 522Q90 534 90 548T89 575T89 600T91 616Q99 648 120 660T168 673Q194 673 213 657T233 610Z" />
<glyph unicode="#" glyph-name="numbersign" horiz-adv-x="566" d="M443 426L392 235H531V202H383L330 0H304L357 202H177Q173 188 167 166T154 116T139 59T124 0H97L151 202H6V235H160L210 426H57V459H219L271 656H297L245 459H425L477 656H503L451 459H581V426H443ZM236
426L186 235H366L417 426H236Z" />
<glyph unicode="$" glyph-name="dollar" horiz-adv-x="534" d="M549 545Q549 497 525 474T469 450Q438 450 414 469T390 527Q390 543 394 556T404 582T413 603T418 622Q418 633 404 640T366 650L315 439Q346 414 376 394T431 350T469 295T484 217Q484 172 464
130T407 54T319 2T205 -17L183 -108H159L181 -15Q138 -11 105 3T50 37T16 80T4 125Q4 173 28 196T84 219Q115 219 137 197T160 130Q160 114 155 100T145 75T134 54T129 38Q129 29 145 20T186 7L242 237Q209 262 183 286T137 336T108 391T97 456Q97 501 115 540T167
609T246 655T347 673L363 738H386L371 672Q414 670 447 658T503 628T537 588T549 545ZM342 651Q324 650 307 643T277 624T255 595T247 556Q247 525 258 502T295 455L342 651ZM348 100Q348 121 344 136T330 163T304 189T263 222L210 5Q249 5 275 13T318 35T341 66T348
100Z" />
<glyph unicode="%" glyph-name="percent" horiz-adv-x="740" d="M384 545Q384 486 363 444T309 374T238 335T167 322Q135 322 111 332T70 360T45 400T36 448Q36 507 57 549T112 619T183 658T254 671Q285 671 309 661T350 633T375 593T384 545ZM275 615Q275 628
271 639T251 651Q240 651 226 645T201 620Q189 600 179 572T161 511T149 444T145 378Q145 364 149 353T170 341Q181 341 195 347T220 373Q232 393 242 421T259 482T271 549T275 615ZM140 -20L120 -6L591 663L611 649L140 -20ZM717 204Q717 145 696 103T641 33T570
-6T499 -19Q467 -19 443 -9T403 19T378 59T369 107Q369 166 390 208T444 278T515 317T586 330Q617 330 641 320T683 292T708 252T717 204ZM608 274Q608 287 604 298T584 310Q573 310 559 304T534 279Q522 259 512 231T494 170T482 103T478 37Q478 23 482 12T502
0Q513 0 527 6T552 32Q564 52 574 80T591 141T603 208T608 274Z" />
<glyph unicode="&amp;" glyph-name="ampersand" horiz-adv-x="790" d="M820 535Q820 505 811 475T785 419T743 378T687 362Q679 362 664 363T631 367T594 372T557 380Q578 368 593 350Q609 331 619 310T633 269T637 234Q637 196 617 153T556 72T454 11T310 -14Q238
-14 185 3T96 51T44 125T26 221Q26 257 41 288T80 343T131 385T183 411Q174 420 165 433T150 462T139 494T135 524Q135 587 174 629T294 671Q362 671 396 642T431 564Q431 552 426 538T412 512T393 489T371 474L365 481Q377 496 377 524Q377 543 359 558T303 573Q248
573 223 543T198 459Q198 448 201 438T207 422Q216 430 232 435T260 441Q288 441 299 430T311 397Q311 382 299 373T269 363Q247 363 231 372T197 394Q182 380 168 363T154 311Q154 226 203 181T352 136Q401 136 443 149T516 183T564 230T582 285Q582 321 570 342T538
376T498 391T461 395Q418 395 394 372T370 317Q370 302 375 292T389 274T405 262T419 257Q416 265 414 273T411 293Q411 328 431 343T479 359Q513 359 529 336T546 283Q546 254 526 232T464 210Q440 210 419 220T381 249T355 294T345 351Q345 393 364 424T411 476T472
506T531 516Q551 516 577 514T620 510Q630 509 644 507T674 504T701 501T719 500Q759 500 776 517T793 567Q793 589 777 598T743 609Q741 580 726 558T684 535Q655 535 639 551T622 598Q622 627 644 643T695 660Q717 660 739 652T780 628T809 589T820 535Z" />
<glyph unicode="&apos;" glyph-name="quotesingle" horiz-adv-x="204" d="M233 607Q233 583 218 556T186 499Q169 468 149 438T110 375H95Q95 406 94 446T90 519Q90 531 90 545T89 572T89 597T91 613Q99 645 120 658T168 671Q194 671 213 655T233 607Z" />
<glyph unicode="(" glyph-name="parenleft" horiz-adv-x="328" d="M191 -106Q160 -89 129 -60T72 9T30 99T13 209Q13 272 30 329T78 434T148 523T232 594T321 647T409 679H426Q368 640 320 576T236 433T181 269T161 103Q160 42 172 -10T208 -106H191Z" />
<glyph unicode=")" glyph-name="parenright" horiz-adv-x="328" d="M117 679Q148 662 179 633T236 564T278 474T295 364Q295 301 277 244T229 139T159 50T75 -21T-14 -74T-101 -106H-119Q-61 -67 -12 -3T72 140T127 304T147 470Q147 531 135 583T100 679H117Z" />
<glyph unicode="*" glyph-name="asterisk" horiz-adv-x="414" d="M237 297Q217 297 206 308T195 336Q195 346 200 362T211 397T224 438T234 477Q222 462 212 443T193 406T177 373T162 350Q151 339 135 339T105 352Q91 366 91 382T103 409Q110 416 125 424T158
441T195 460T229 482Q209 480 189 474T150 461T115 449T88 443Q72 443 61 453T50 484Q50 504 61 515T88 526Q98 526 114 521T150 509T189 496T229 487Q214 499 195 509T158 528T125 544T102 559Q91 570 91 586T104 616Q118 630 134 630T161 618Q168 611 176 596T193
563T212 526T234 492Q232 511 226 531T212 570T200 605T195 631Q195 647 206 658T237 670Q257 670 267 659T278 631Q278 621 273 605T261 571T248 532T239 492Q251 507 261 525T280 562T297 596T312 618Q323 629 339 629T369 616Q383 602 383 586T371 559Q364 552
349 545T315 528T278 509T244 487Q249 488 268 494T309 507T353 520T384 526Q400 526 411 515T423 484Q423 464 412 453T384 442Q374 442 358 447T323 460T284 473T244 482Q259 470 277 460T314 441T348 424T370 409Q381 398 381 383T368 353Q354 339 338 339T311
351Q304 358 297 373T281 407T262 444T239 477Q242 459 248 438T261 398T273 362T278 336Q278 320 268 309T237 297Z" />
<glyph unicode="+" glyph-name="plus" horiz-adv-x="463" d="M245 250V76H221V250H48V273H221V449H245V273H420V250H245Z" />
<glyph unicode="," glyph-name="comma" horiz-adv-x="237" d="M158 57Q158 25 138 -5T85 -62T12 -109T-69 -141L-72 -124Q-51 -118 -27 -107T18 -82T51 -55T65 -31Q65 -23 62 -20T53 -14Q42 -12 31 -5T10 12T-6 34T-12 61Q-12 85 -4 101T18 127T46 142T74 147Q111
147 134 123T158 57Z" />
<glyph unicode="-" glyph-name="hyphen" horiz-adv-x="307" d="M247 213H31L52 303H268L247 213Z" />
<glyph unicode="." glyph-name="period" horiz-adv-x="236" d="M162 66Q162 34 140 10T82 -14Q46 -14 24 10T2 66Q2 98 24 122T82 146Q118 146 140 122T162 66Z" />
<glyph unicode="/" glyph-name="slash" horiz-adv-x="292" d="M-72 -102L-107 -85L338 690L373 672L-72 -102Z" />
<glyph unicode="0" glyph-name="zero" horiz-adv-x="626" d="M411 671Q469 671 508 650T572 594T606 516T616 430Q616 331 584 249T497 109T374 18T231 -14Q172 -14 133 7T69 63T35 141T24 227Q24 326 57 408T144 548T267 639T411 671ZM234 8Q256 8 273 22T307
68Q328 108 352 174T398 313T432 459T446 583Q446 610 438 629T407 648Q386 648 369 635T335 590Q321 564 305 525T274 440T244 344T218 245T201 152T194 73Q194 46 202 27T234 8Z" />
<glyph unicode="1" glyph-name="one" horiz-adv-x="409" d="M170 534Q174 548 179 568T186 600Q190 617 187 623T177 634Q174 636 166 637T148 640T130 643T118 644L121 656Q130 656 150 657T194 659T244 662T289 665Q299 665 314 666L345 668Q361 669 373 670T389
671Q396 671 394 663Q392 657 390 646T384 622T377 595T370 572L277 207Q255 120 255 86Q255 61 264 46T291 23Q305 18 313 16L329 12L327 0H-60L-57 12Q-49 14 -36 16T-14 22Q0 28 13 38T37 65Q46 80 52 94T65 124T77 159T89 204L170 534Z" />
<glyph unicode="2" glyph-name="two" horiz-adv-x="570" d="M78 148Q123 193 174 241T268 341T341 447T369 559Q368 604 348 623T298 643Q278 643 257 634T219 608T190 564T179 502Q179 473 191 455T225 437Q246 437 258 448T285 480L297 475Q291 454 278 434T246
398T201 371T145 361Q104 361 75 387T46 460Q46 508 69 546T132 613T226 656T345 671Q414 671 458 655T529 615T565 563T576 512Q576 481 565 454T531 402T476 351T400 298Q369 278 341 263T283 234T217 205T136 169V164H329Q348 164 367 169T402 181T433 196T457
212Q469 221 481 231T505 253T524 275T538 294H555L421 0H-72Q-65 6 -45 26T-2 70T44 116T78 148Z" />
<glyph unicode="3" glyph-name="three" horiz-adv-x="544" d="M541 541Q541 475 480 427T293 357V353Q342 355 381 348T449 324T492 281T508 219Q508 159 482 115T409 43T301 0T169 -14Q113 -14 75 -1T14 32T-20 78T-31 128Q-31 164 -9 190T49 216Q93 216 114
194T135 135Q135 116 130 100T115 67Q111 60 107 52T102 34Q102 22 116 18T144 13Q186 13 215 33T264 87T292 163T301 249Q301 287 282 304T228 322Q212 322 195 315L161 302L154 320L223 348Q307 381 343 440T380 583Q380 615 362 630T314 645Q294 645 275 639T239
618T212 579T202 517Q202 491 214 477T243 463Q261 463 274 472T297 491L307 485Q301 471 291 457T266 430T232 411T187 403Q140 403 114 430T87 498Q87 532 104 563T154 619T230 657T329 671Q436 671 488 635T541 541Z" />
<glyph unicode="4" glyph-name="four" horiz-adv-x="580" d="M200 236L270 519H268L-3 236H200ZM431 0H49L51 12Q62 14 72 16T90 22Q106 29 118 38T141 65Q155 88 165 111T185 174L196 216H-32L-25 241L365 658H494Q496 658 496 655Q493 644 488 629T478 593L388
236H417Q436 236 448 238T468 243T481 251T493 262Q507 276 521 299T545 346H558L493 103H480Q482 129 480 152T470 189Q467 195 464 199T455 207T439 213T412 215H383L373 179Q367 156 363 129T359 86Q359 61 368 47T395 24Q409 19 417 17T433 12L431 0Z" />
<glyph unicode="5" glyph-name="five" horiz-adv-x="520" d="M179 -14Q123 -14 83 -1T18 32T-20 78T-32 128Q-32 167 -7 193T55 219Q99 219 119 195T139 137Q139 116 133 100T120 70Q117 64 113 56T108 39Q108 27 121 22T149 16Q182 16 207 34T248 86T272 164T280
264Q280 314 257 339T192 365Q156 365 129 346T85 301L63 311L198 655H211Q221 646 238 639T276 628T321 621T369 618Q404 618 430 625T474 643T505 666T524 691L537 688Q517 638 493 598T437 531T365 489T274 474Q245 474 214 477T158 489L105 355L109 354Q138
383 178 397T275 411Q332 411 372 397T436 360T472 306T484 244Q484 193 464 146T404 64T308 7T179 -14Z" />
<glyph unicode="6" glyph-name="six" horiz-adv-x="588" d="M631 560Q631 515 608 492T546 468Q505 468 488 488T470 540Q470 557 475 570T484 591Q487 599 491 610T495 626Q495 634 491 641T466 648Q438 648 410 631T355 581T306 505T269 406H273Q281 413 294
419T321 428T351 434T379 436Q422 436 453 421T504 383T533 330T542 271Q542 216 521 165T459 74T360 10T227 -14Q167 -14 128 6T65 59T32 133T22 216Q22 286 41 347T94 458T172 548T265 615T366 656T465 671Q516 671 548 661T599 634T624 599T631 560ZM364 360Q364
386 353 394T327 402Q308 402 292 391T263 353Q255 335 246 310T229 255T213 195T199 136T190 86T186 50Q186 26 198 17T227 8Q248 8 261 19T284 50Q297 79 311 124T337 215T356 301T364 360Z" />
<glyph unicode="7" glyph-name="seven" horiz-adv-x="475" d="M153 -14Q125 -14 107 -5T79 18T64 49T60 84Q60 108 70 130T96 173T132 213T172 250Q203 277 238 309T308 372T376 433T434 486L435 489H215Q201 489 179 487T136 477Q113 467 93 453T51 404H35L159
693H172Q176 679 191 668T237 657H595L591 645Q526 577 479 505T398 362T339 228T293 113Q268 53 237 20T153 -14Z" />
<glyph unicode="8" glyph-name="eight" horiz-adv-x="548" d="M9 129Q9 157 23 181T60 224T115 257T180 279Q159 294 142 311T112 348T92 393T84 449Q84 500 107 541T167 611T253 655T353 671Q444 671 491 637T539 547Q539 523 528 501T498 461T456 429T408 407Q430
392 450 375T485 337T508 291T517 232Q517 180 493 135T429 57T337 5T228 -14Q184 -14 145 -7T75 16T27 60T9 129ZM388 419Q410 432 423 449T444 485T453 520T455 549Q455 598 429 624T352 650Q296 650 270 623T243 561Q243 538 253 521T280 489T321 460T371 430Q372
430 379 425T388 419ZM199 265Q183 259 166 249T133 222T109 182T99 130Q99 70 134 39T227 8Q285 8 321 32T358 105Q358 130 351 146T327 178T282 210T213 256Q209 258 206 260T199 265Z" />
<glyph unicode="9" glyph-name="nine" horiz-adv-x="603" d="M254 297Q254 271 265 263T291 254Q331 254 355 304Q367 330 380 373T405 462T424 547T432 607Q432 630 420 639T391 648Q370 648 357 637T334 607Q321 578 307 533T281 442T262 356T254 297ZM-6 97Q-6
141 17 165T79 189Q120 189 136 168T152 116Q152 101 149 90T141 69Q137 59 134 50T130 30Q130 22 134 15T159 8Q223 8 270 72T349 251H345Q337 243 324 238T297 229T267 223T239 221Q195 221 165 236T114 274T85 327T76 386Q76 441 97 492T159 583T258 647T391
671Q451 671 490 651T553 599T586 526T596 443Q596 338 558 254T458 110T318 18T159 -14Q113 -14 82 -4T31 23T3 58T-6 97Z" />
<glyph unicode=":" glyph-name="colon" horiz-adv-x="266" d="M245 378Q245 346 223 322T165 298Q128 298 107 322T85 378Q85 410 107 434T165 458Q200 458 222 434T245 378ZM155 66Q155 34 133 10T75 -14Q39 -14 17 10T-5 66Q-5 98 17 122T75 146Q111 146 133
122T155 66Z" />
<glyph unicode=";" glyph-name="semicolon" horiz-adv-x="267" d="M155 61Q155 29 135 -1T82 -58T9 -104T-72 -136L-75 -119Q-54 -113 -30 -102T15 -77T48 -50T62 -26Q62 -18 59 -15T50 -9Q39 -7 28 0T7 17T-9 39T-15 66Q-15 90 -7 106T15 132T43 147T71 152Q108
152 131 128T155 61ZM238 378Q238 346 216 322T158 298Q122 298 100 322T78 378Q78 410 100 434T158 458Q194 458 216 434T238 378Z" />
<glyph unicode="&lt;" glyph-name="less" horiz-adv-x="381" d="M35 251V274L334 427V401L58 262L334 123V98L35 251Z" />
<glyph unicode="=" glyph-name="equal" horiz-adv-x="435" d="M47 333V354H378V333H47ZM47 163V184H378V163H47Z" />
<glyph unicode="&gt;" glyph-name="greater" horiz-adv-x="374" d="M40 98V123L316 262L40 401V427L339 274V251L40 98Z" />
<glyph unicode="?" glyph-name="question" horiz-adv-x="478" d="M501 509Q501 459 486 420T443 351T377 300T291 267Q259 259 237 252T201 238T181 223T174 202Q174 191 183 183T207 175Q225 175 241 185T266 209L275 199Q265 176 242 158T170 140Q116 140 80
171T44 260Q44 294 57 319T94 361T152 391T230 414Q279 426 308 440T353 472T374 509T379 553Q379 593 355 620T269 647Q247 647 226 640T189 620T162 587T152 542Q152 521 158 507T173 485T194 473T217 469Q228 469 237 477T247 494Q233 498 219 510T205 547Q205
572 221 587T260 602Q286 602 300 587T315 545Q315 530 306 513T280 479T237 453T178 442Q156 442 138 449T107 469T86 497T78 531Q78 561 93 586T137 631T204 660T292 671Q393 671 447 627T501 509ZM191 54Q191 26 172 6T122 -14Q92 -14 74 6T55 54Q55 82 73 101T122
121Q152 121 171 102T191 54Z" />
<glyph unicode="@" glyph-name="at" horiz-adv-x="796" d="M766 278Q766 223 747 171T692 77T608 11T503 -14Q472 -14 447 4T421 57Q421 70 422 80T426 101H422Q413 80 405 65T382 33Q360 10 336 -2T281 -14Q177 -14 177 113Q177 165 201 216T264 308T351 374T450
400Q482 400 494 388T508 360H513Q519 370 523 376T534 391H668Q657 355 640 303T604 194Q594 163 588 143T577 110T572 87T570 67Q570 56 575 50T587 43Q617 43 645 64T696 118T732 194T746 278Q746 335 726 382T666 462T572 515T446 534Q362 534 296 505T183
425T113 302T88 148Q88 70 110 13T172 -83T271 -140T400 -159Q446 -159 490 -150T573 -128T644 -99T699 -70L707 -86Q686 -100 652 -116T577 -145T490 -168T400 -177Q317 -177 247 -156T124 -93T43 9T14 148Q14 259 52 336T153 461T291 530T445 552Q523 552 583
531T683 473T745 386T766 278ZM492 340Q492 375 474 375Q466 375 454 367T423 324Q407 296 391 260T362 189T340 123T331 77Q331 59 337 52T352 44Q363 44 373 55T393 83Q402 98 408 109T420 131T429 152T438 176Q449 207 459 230T476 273T488 308T492 340Z" />
<glyph unicode="A" glyph-name="A" horiz-adv-x="658" d="M199 275H356L420 528H414L199 275ZM349 248H175L90 148Q72 126 63 108T54 71Q54 41 79 27Q103 15 132 12L130 0H-140L-137 12Q-126 14 -111 18T-86 28Q-50 45 -18 73T47 139L489 657H646L531 207Q519
162 515 133T510 86Q510 61 519 47T545 24Q572 13 587 12L584 0H204L207 12Q217 13 228 16T246 22Q263 29 272 38T293 65Q307 88 317 120T339 204L349 248Z" />
<glyph unicode="B" glyph-name="B" horiz-adv-x="678" d="M646 515Q646 478 631 451T589 404T522 372T435 354L434 350Q470 345 504 335T566 306T609 261T625 200Q625 153 605 116T548 53T461 14T350 0H-70L-68 12Q-57 13 -46 16T-26 22Q6 32 28 65Q42 88 53 120T77
204L139 450Q151 495 155 524T160 571Q160 596 151 610T125 633Q98 644 83 645L86 657H405Q531 657 588 621T646 515ZM429 258Q429 275 426 289T413 315T385 332T339 339H302L246 115Q242 99 242 81Q242 52 255 39Q269 24 293 24H305Q332 24 355 44T394 97T420
172T429 258ZM479 562Q479 632 421 632H411Q399 632 390 627Q370 616 364 590L308 364H347Q380 364 400 372T434 399Q457 428 468 471T479 562Z" />
<glyph unicode="C" glyph-name="C" horiz-adv-x="615" d="M586 402H573Q574 465 563 511T532 588T486 633T432 648Q391 648 366 626T319 569Q305 547 285 498T247 385T216 254T203 126Q203 100 211 79T235 44Q254 26 289 26Q329 26 368 42T442 87T504 151T550
225L566 216Q546 170 515 128T445 55T361 5T267 -14Q203 -14 156 8T77 67T31 147T15 236Q15 327 44 406T128 544T257 637T425 671Q454 671 478 665T522 648T554 626T574 602H578L636 647H648L586 402Z" />
<glyph unicode="D" glyph-name="D" horiz-adv-x="715" d="M696 407Q696 362 685 314T653 222T605 140T545 78Q503 48 443 24T317 0H-70L-68 12Q-57 13 -46 16T-26 22Q6 32 28 65Q42 88 53 120T78 204L139 451Q150 496 155 524T160 571Q160 596 151 610T125 633Q98
644 83 645L86 657H437Q509 657 558 636T638 580T682 500T696 407ZM503 523Q503 584 483 610Q466 632 430 632H413Q394 632 382 621T361 577L259 167L246 115Q242 99 242 81Q242 53 254 39Q261 31 270 28T291 24H305Q337 24 359 43T405 102Q420 127 437 172T468
275T493 396T503 523Z" />
<glyph unicode="E" glyph-name="E" horiz-adv-x="642" d="M622 432H609Q604 469 589 508T557 573Q538 601 514 616T456 632H427Q398 632 384 617T359 564L306 353H330Q373 353 394 362T433 387Q456 408 474 438T502 492H515L437 183H425Q426 196 426 212T423 244T417
274T406 298Q397 311 378 319T324 328H300L259 167Q250 132 246 112T241 77Q241 48 256 36T302 24H321Q351 24 383 42T455 97Q503 142 533 181T576 240H588L521 0H-70L-68 12Q-57 13 -45 16T-25 22Q-7 28 5 38T28 65Q42 88 53 120T78 204L139 451Q150 496 155 524T161
571Q161 596 152 610T125 633Q99 643 83 645L86 657H644L622 432Z" />
<glyph unicode="F" glyph-name="F" horiz-adv-x="603" d="M622 398H608Q606 419 600 442T586 489T568 531T550 564Q531 592 509 612T452 633H428Q396 633 382 617T360 565L310 365H329Q372 365 393 374T431 400Q454 420 473 450T500 505H513L435 196H422Q424 209
424 225T421 257T415 287T404 311Q396 324 377 332T324 341H304L270 207Q258 162 253 133T248 86Q248 61 257 46T284 24Q298 18 308 16T327 12L325 0H-70L-68 12Q-57 13 -45 15T-25 22Q-7 29 5 39T28 65Q42 88 54 120T78 204L139 450Q150 495 155 524T160 571Q160
596 151 610T125 633Q98 644 83 645L86 657H642L622 398Z" />
<glyph unicode="G" glyph-name="G" horiz-adv-x="671" d="M684 289Q667 287 651 283Q640 279 631 275T613 262Q599 250 590 229T570 168L534 18H523Q515 24 502 31T469 39Q461 39 450 36T426 29T403 19T385 11Q365 1 332 -6T271 -14Q208 -14 160 7T80 64T32 145T15
239Q15 325 43 403T125 541T253 636T424 671Q481 671 520 650T574 602H579L636 647H648L586 402H573Q575 463 564 509T534 586T488 632T431 648Q391 648 366 626T318 567Q305 546 286 498T248 387T216 255T203 126Q203 74 230 42Q252 18 285 18Q309 18 327 22T358
42Q371 57 379 77T392 120L402 163Q406 180 408 196T410 221Q410 244 404 254T384 273Q374 279 365 282T337 289L341 301H687L684 289Z" />
<glyph unicode="H" glyph-name="H" horiz-adv-x="792" d="M861 645Q850 643 838 641T818 635Q786 625 765 592Q751 569 740 537T715 453L654 207Q643 162 638 133T632 86Q632 61 641 47T668 24Q695 13 710 12L707 0H329L332 12Q342 14 351 16T369 22Q386 29 395
38T416 64Q429 87 438 118T461 200L489 315H297L269 204Q258 158 252 130T245 84Q245 57 252 44T275 23Q284 18 293 16T310 12L308 0H-70L-68 12Q-57 13 -45 15T-25 22Q-7 29 5 39T28 65Q42 88 53 120T78 204L139 450Q150 495 155 524T161 571Q161 596 152 610T125
633Q99 643 83 645L86 657H463L460 645Q445 642 428 636Q411 628 401 619T379 593Q365 571 356 540T332 457L304 345H497L524 454Q535 499 540 526T546 572Q546 593 540 609T518 634Q508 639 500 641T483 645L485 657H863L861 645Z" />
<glyph unicode="I" glyph-name="I" horiz-adv-x="409" d="M477 645L454 640Q442 638 434 635Q417 630 405 620T381 592Q367 569 356 537T331 453L270 207Q259 162 254 133T248 86Q248 61 257 47T284 24Q309 13 326 12L323 0H-70L-68 12Q-57 13 -45 16T-25 22Q-8
27 4 38T28 65Q42 88 53 120T78 204L139 450Q150 495 155 524T161 571Q161 596 152 610T125 633Q99 643 83 645L86 657H480L477 645Z" />
<glyph unicode="J" glyph-name="J" horiz-adv-x="513" d="M603 645Q593 643 581 641T560 635Q543 630 531 620T507 592Q493 569 482 537T457 453L399 221Q387 172 361 129T298 55T211 5T102 -14Q54 -14 21 -1T-33 32T-63 77T-72 126Q-72 150 -64 168T-42 199T-10
218T27 225Q42 225 58 220T87 204T108 176T117 135Q117 106 106 88T89 62Q84 54 75 45T66 27Q66 17 74 13T90 8Q108 8 120 14T145 35Q161 54 170 79T191 150L266 450Q277 495 282 524T287 571Q287 596 278 610T252 633Q225 644 209 645L212 657H606L603 645Z" />
<glyph unicode="K" glyph-name="K" horiz-adv-x="710" d="M514 -14Q467 -14 439 2T397 44T377 99T371 156Q369 183 369 200T368 229V251Q368 262 367 275Q365 299 356 307T331 316Q320 316 312 313T293 299L270 207Q259 162 252 132T245 84Q245 57 252 44T275
23Q284 18 294 16T312 12L309 0H-70L-68 12Q-57 13 -45 16T-25 22Q-8 27 4 38T28 65Q42 88 53 120T78 204L139 450Q150 495 155 524T161 571Q161 596 152 610T125 633Q99 643 83 645L86 657H465L461 645Q443 642 428 635Q411 627 401 618T379 593Q365 570 355 538T331
453L302 335L492 510Q521 537 538 558T556 600Q556 613 550 621T530 636Q519 641 511 642T493 645L496 657H763L760 645Q742 641 717 634T671 617Q659 611 646 604T615 582T572 546T508 489L358 357V352Q369 358 390 363T426 369Q453 369 477 362T521 337T552 285T566
198Q567 154 572 128T584 87T603 68T628 63Q647 63 660 75T685 106L698 100Q692 82 678 62T641 25T587 -3T514 -14Z" />
<glyph unicode="L" glyph-name="L" horiz-adv-x="597" d="M-68 12Q-57 13 -45 16T-25 22Q-7 28 5 38T28 65Q42 88 53 120T78 204L139 450Q150 495 155 524T161 571Q161 596 152 610T125 633Q99 643 83 645L86 657H474L471 645Q462 643 448 639T425 631Q412 626
400 616T379 593Q365 570 355 537T331 453L259 167Q251 138 246 115T241 77Q241 52 253 40Q267 24 300 24H313Q344 24 374 42T444 97Q492 142 522 181T565 240H578L510 0H-70L-68 12Z" />
<glyph unicode="M" glyph-name="M" horiz-adv-x="862" d="M239 -4L204 567H200L104 179Q97 152 93 123T88 80Q88 54 98 39T126 18Q134 16 143 15T164 12L161 0H-70L-67 12Q-60 13 -50 14T-32 18Q-18 22 -5 31T21 56Q32 70 46 101T73 181L141 452Q148 479 152 497T159
530T163 556T164 579Q164 601 156 615T126 638Q119 640 108 642T89 645L92 657H384L406 270H411L634 657H930L926 645Q916 644 905 642T884 636Q867 631 855 620T831 592Q817 569 806 537T781 454L720 207Q709 162 704 133T698 86Q698 61 707 46T734 24Q748 18
758 16T776 12L773 0H396L400 12Q410 13 420 16T438 22Q455 29 464 38T484 64Q496 86 505 118T526 199L619 567H612L292 -4H239Z" />
<glyph unicode="N" glyph-name="N" horiz-adv-x="652" d="M727 645Q722 644 713 643T696 639Q683 634 671 627T647 602Q637 590 625 561T600 478L479 -8H440L197 535H192L104 179Q96 148 93 121T89 79Q89 29 126 18Q134 16 144 15T165 12L162 0H-70L-67 12Q-60
13 -50 14T-32 18Q-18 22 -5 31T21 56Q32 70 47 101T73 181L141 453Q147 477 151 494T157 524T161 548T162 571Q162 591 148 610T113 637Q106 639 95 641T75 645L77 657H355L519 288H522L567 473Q576 508 580 534T585 575Q585 600 574 615T544 638Q537 641 527
642T505 645L508 657H730L727 645Z" />
<glyph unicode="O" glyph-name="O" horiz-adv-x="678" d="M664 412Q664 360 653 308T619 208T562 120T483 49Q440 20 386 3T267 -14Q208 -14 162 5T83 59T33 141T15 245Q15 297 26 349T60 448T117 537T196 608Q239 636 294 653T413 671Q471 671 518 652T597 598T646
516T664 412ZM477 543Q477 564 475 583T467 616T449 639T418 648Q356 648 316 566Q305 545 286 495T249 380T217 245T203 113Q203 92 206 73T216 40T235 17T266 8Q296 8 320 28T364 90Q375 111 394 161T431 276T463 411T477 543Z" />
<glyph unicode="P" glyph-name="P" horiz-adv-x="632" d="M664 505Q664 479 653 453T624 402T582 358T532 326Q501 312 454 303T334 294H292L270 207Q259 162 254 134T248 87Q248 62 257 47T284 24Q297 19 309 16T329 12L326 0H-70L-68 12Q-57 13 -45 16T-25 22Q-8
27 4 38T28 65Q42 88 53 120T77 204L139 451Q150 496 155 524T160 570Q160 617 125 633Q98 644 82 645L86 657H446Q511 657 553 646T620 614T654 565T664 505ZM482 574Q482 599 470 615T432 632H414Q390 632 377 615Q372 610 370 602T363 577L298 319H338Q370 319
389 330T426 367Q439 385 449 411T467 465T478 522T482 574Z" />
<glyph unicode="Q" glyph-name="Q" horiz-adv-x="680" d="M529 -264Q497 -264 468 -254T409 -226T345 -184T272 -130Q218 -91 181 -73T108 -55Q99 -55 87 -60T75 -76Q75 -82 84 -89T99 -103Q107 -111 112 -120T118 -148Q118 -178 99 -193T55 -209Q29 -209 10 -194T-10
-141Q-10 -112 8 -91T49 -56T97 -34L133 -22Q155 -14 174 -8T224 6V10Q127 24 73 88T19 254Q19 307 30 358T65 456T123 542T205 612Q247 638 300 654T415 671Q473 671 520 652T599 599T649 518T667 415Q667 324 632 242T528 101Q495 72 454 51T368 17Q321 4 270
-8T158 -39V-41Q214 -43 256 -45T331 -52T391 -61T448 -72Q504 -84 549 -95T635 -106Q659 -106 677 -98T709 -77T733 -46T752 -11L767 -16Q755 -70 734 -118T687 -200Q666 -226 625 -245T529 -264ZM479 546Q479 567 476 585T466 618T446 640T414 648Q384 648 362
628T319 566Q312 552 301 526T278 466T253 392T230 308T214 221T207 136Q207 115 210 96T220 61T240 37T271 28Q301 28 323 48T366 110Q377 131 396 179T433 288T465 416T479 546Z" />
<glyph unicode="R" glyph-name="R" horiz-adv-x="688" d="M516 -13Q469 -13 439 2T393 42T370 95T364 152Q364 188 364 217T361 276Q358 320 319 320H298L270 207Q259 162 254 134T248 87Q248 62 257 47T284 24Q297 19 311 16T334 12L331 0H-70L-68 12Q-57 13
-45 16T-25 22Q-8 27 4 38T28 65Q42 88 53 120T77 204L139 451Q150 496 155 524T160 570Q160 617 125 633Q98 644 82 645L86 657H427Q492 657 535 646T604 616T640 569T651 509Q651 458 619 420T533 359Q509 349 481 343T418 332V328Q445 326 468 318T508 296Q531
278 545 251T561 184Q563 142 568 118T580 80T598 63T622 59Q638 59 651 71T676 106L690 99Q683 82 670 62T636 26T586 -2T516 -13ZM470 574Q470 599 462 615T429 632H410Q396 632 386 625Q373 615 367 592L304 344H342Q364 344 381 351T418 382Q431 400 441 423T457
473T467 525T470 574Z" />
<glyph unicode="S" glyph-name="S" horiz-adv-x="544" d="M490 438H476Q476 492 467 535T432 609Q418 628 395 639T340 650Q295 650 273 624T251 558Q251 523 274 494T345 431Q388 400 417 375T465 324T491 271T499 207Q499 163 480 124T426 53T342 4T232 -14Q181
-14 138 6T62 71H56L-3 2H-13L39 262H53Q58 209 70 163T104 82T157 28T231 8Q282 8 312 30T342 98Q342 119 337 134T317 166T277 204T212 255Q183 277 161 299T122 346T98 397T90 456Q90 500 106 539T155 607T235 654T342 671Q372 671 396 664T437 647T467 624T485
602H487L529 653H543L490 438Z" />
<glyph unicode="T" glyph-name="T" horiz-adv-x="651" d="M678 415H665Q649 507 604 569Q582 598 558 615T503 632H487L382 207Q371 162 366 133T361 86Q361 61 370 47T397 24Q423 13 438 12L436 0H42L45 12Q55 13 67 16T87 22Q104 27 116 38T140 65Q154 88 165
120T190 204L296 632H283Q250 632 220 616T161 569Q132 540 103 503T36 415H23L102 657H709L678 415Z" />
<glyph unicode="U" glyph-name="U" horiz-adv-x="681" d="M756 645Q750 644 741 643T724 639Q711 634 699 627T675 602Q666 590 653 558T626 471L562 214Q549 160 529 118T477 47T403 2T300 -14Q238 -14 195 0T123 41T83 105T70 187Q70 197 72 214T78 250T86 290T95
327L126 451Q137 496 142 525T147 572Q147 597 138 611T112 634Q98 639 88 641T69 645L72 657H451L448 645Q431 644 413 636Q396 628 386 619T365 593Q354 577 344 550T321 470L260 218Q254 194 251 172T248 126Q248 82 272 53T347 23Q414 23 462 72T533 215L597
469Q605 504 609 532T614 575Q614 600 603 615T573 638Q566 641 556 642T534 645L538 657H758L756 645Z" />
<glyph unicode="V" glyph-name="V" horiz-adv-x="672" d="M810 645Q799 643 784 639T758 629Q723 612 692 585T628 519L188 0H30L145 450Q156 495 161 524T167 571Q167 596 157 610T130 633Q104 644 89 645L91 657H471L469 645Q458 644 448 641T430 635Q413 628
403 619T383 593Q369 570 360 537T337 453L257 133H263L583 509Q602 532 611 549T620 587Q620 616 595 630Q571 642 542 645L544 657H812L810 645Z" />
<glyph unicode="W" glyph-name="W" horiz-adv-x="1030" d="M418 0L528 421H526L179 0H30L145 450Q156 495 161 524T167 571Q167 596 157 610T130 633Q104 644 89 645L91 657H467L465 645Q454 644 445 642T428 636Q411 628 402 620T382 594Q369 571 359 538T337
456L267 157H273L539 476Q544 500 549 528T555 571Q555 596 545 610T518 633Q505 638 499 641T484 645L487 657H855L853 645Q843 644 833 642T816 636Q799 628 790 620T770 594Q756 571 747 538T725 456L655 157H661L941 509Q959 532 968 549T978 587Q978 616 953
630Q929 642 900 645L902 657H1172L1170 645Q1159 643 1144 639T1118 629Q1083 612 1051 585T988 519L567 0H418Z" />
<glyph unicode="X" glyph-name="X" horiz-adv-x="657" d="M258 248L154 151Q118 117 106 96T94 55Q94 45 99 36T115 20Q123 16 131 15T146 12L144 0H-90L-88 12Q-80 14 -74 16T-60 20Q-49 25 -39 30T-23 39Q24 70 54 97T116 153L250 279L191 512Q184 541 176 561T158
596Q147 612 138 620T113 636Q104 640 94 642T75 645L78 657H454L450 645Q436 644 421 639Q398 631 391 619T384 584Q384 573 386 556T396 504L417 418L503 506Q538 541 550 561T562 602Q562 613 557 622T541 637Q533 641 525 642T510 645L513 657H753L751 645Q743
644 736 642L722 638Q709 633 698 628T681 620Q661 609 640 592T599 558T564 527T541 505L425 387L484 151Q491 122 500 99T519 62Q530 46 539 38T564 22Q574 17 583 15T601 12L598 0H221L224 12Q235 13 243 15T260 19Q280 27 287 40T295 75Q295 86 292 102T281
153L258 248Z" />
<glyph unicode="Y" glyph-name="Y" horiz-adv-x="612" d="M731 645Q703 641 674 625Q651 612 619 584T544 494L388 274L373 207Q362 162 357 133T351 86Q351 61 360 47T387 24Q412 13 429 12L426 0H32L35 12Q45 13 57 16T78 22Q95 27 107 38T131 65Q145 88 157
123T180 203L196 265L126 536Q112 587 88 612T31 645L33 657H397L395 645Q387 644 375 642T354 636Q343 631 333 621T322 590Q322 575 327 556T338 514L385 325H390L520 506Q548 545 557 565T566 602Q566 615 559 623T544 635Q538 638 529 641T511 645L514 657H734L731
645Z" />
<glyph unicode="Z" glyph-name="Z" horiz-adv-x="576" d="M639 645L186 24H242Q258 24 278 28T319 41T362 63T404 94Q455 139 488 177T533 236H545L479 0H-58L-56 12L393 633H357Q325 633 285 620T191 571Q176 560 158 544T124 511T93 478T72 450H59L119 657H641L639
645Z" />
<glyph unicode="[" glyph-name="bracketleft" horiz-adv-x="407" d="M473 637Q473 609 463 586T436 546T396 519T345 509Q294 509 254 541T194 626L18 -73Q59 -12 106 16T207 44Q259 45 284 22T310 -43Q310 -69 299 -89T274 -122T247 -144T230 -154H218Q223 -145
226 -133T230 -114Q230 -93 219 -78T171 -62Q115 -62 68 -80T-27 -119L170 669Q209 650 261 637T369 623Q394 624 413 637T432 682Q432 688 431 692T428 705H439Q442 703 447 698T458 685T468 665T473 637Z" />
<glyph unicode="\" glyph-name="backslash" horiz-adv-x="249" d="M244 -102L-3 678L33 690L281 -88L244 -102Z" />
<glyph unicode="]" glyph-name="bracketright" horiz-adv-x="407" d="M223 -119Q183 -100 131 -87T24 -73Q-1 -73 -20 -86T-40 -131Q-40 -137 -39 -141T-36 -154H-47Q-50 -152 -55 -147T-66 -134T-76 -114T-81 -86Q-81 -58 -71 -35T-44 5T-4 31T47 41Q98 41 139
9T199 -76L374 623Q333 562 287 534T186 506Q134 506 109 529T83 594Q83 620 94 640T119 673T145 695T162 705H174Q169 696 166 684T162 665Q162 644 174 628T222 612Q278 612 325 630T420 669L223 -119Z" />
<glyph unicode="^" glyph-name="asciicircum" horiz-adv-x="348" d="M188 657H215L342 409H313L202 627L91 409H61L188 657Z" />
<glyph unicode="_" glyph-name="underscore" horiz-adv-x="329" d="M-82 -165L-75 -135H236L229 -165H-82Z" />
<glyph unicode="`" glyph-name="grave" horiz-adv-x="348" d="M135 681Q175 681 211 635Q232 608 257 573T311 500L304 490Q275 498 239 510T165 536Q121 552 100 574T79 619Q79 650 96 665T135 681Z" />
<glyph unicode="a" glyph-name="a" horiz-adv-x="566" d="M436 79Q436 66 441 61T454 56Q470 56 497 78T548 136L561 129Q543 99 520 74T468 31T408 2T342 -9Q310 -9 290 9T269 64Q269 78 271 92T275 115H272L261 94Q257 85 252 78T241 63T226 45Q204 20 174 6T117
-9Q65 -9 35 20T4 123Q4 185 31 245T101 352T199 428T308 457Q341 457 357 444T375 415H382Q388 426 392 432T402 447H548Q536 409 519 356T482 244Q461 181 449 142T436 79ZM352 395Q352 417 347 424T332 432Q324 432 311 423T278 379Q262 350 244 307T209 219T183
138T172 84Q172 61 178 56T191 51Q203 51 215 63T239 92Q249 108 255 119T266 141T275 162T284 187Q296 216 308 246T329 303T345 354T352 395Z" />
<glyph unicode="b" glyph-name="b" horiz-adv-x="533" d="M522 312Q522 287 514 255T493 190T461 128T422 79Q397 56 373 40T323 12T265 -4T193 -9Q141 -9 108 5T55 42T27 90T19 142Q19 166 26 206T49 292L142 570Q149 590 151 603T154 628Q154 649 141 660Q136
665 125 668T102 674L106 684H346Q352 684 352 679Q352 675 348 665T338 640Q334 630 331 622T325 603T317 581T308 553L254 384H260Q283 420 317 438T385 457Q413 457 437 448T481 421T511 375T522 312ZM357 391Q357 402 351 411T333 421Q318 421 308 413T285
390Q270 373 261 358T241 320Q230 296 217 259T193 182T175 105T167 45Q167 10 193 10Q214 10 230 27T269 92Q277 111 292 149T321 230T346 317T357 391Z" />
<glyph unicode="c" glyph-name="c" horiz-adv-x="481" d="M483 356Q483 325 463 307T413 288Q383 288 366 305T348 349Q348 359 350 368T355 387Q357 396 359 404T361 420Q361 437 342 437Q316 437 294 413T254 351Q242 321 232 291T214 233T203 180T199 136Q199
97 214 72T270 46Q290 46 311 55T352 79T389 111T418 146L429 138Q410 106 385 80T327 33T254 2T166 -9Q131 -9 104 3T57 36T27 88T16 156Q16 192 26 225T55 287T96 341T144 384Q195 421 248 439T344 457Q380 457 406 448T449 425T475 392T483 356Z" />
<glyph unicode="d" glyph-name="d" horiz-adv-x="569" d="M271 115Q265 102 261 93T251 77T240 62T225 44Q203 19 173 5T116 -9Q58 -9 31 26T4 123Q4 185 34 245T112 352T216 428T328 457Q348 457 359 453T376 445H379L419 570Q426 590 428 603T431 628Q431 649
418 660Q413 665 403 668T380 674L383 684H624Q630 684 630 679Q630 675 626 665T616 640Q612 630 609 621T603 603T596 581T586 553Q555 463 535 404T503 309Q489 267 481 244Q461 185 450 142T438 75Q438 56 453 56Q469 56 496 78T547 136L560 129Q525 69 470
30T347 -9Q316 -9 293 9T269 64Q269 78 271 92T275 115H271ZM353 398Q353 420 348 426T332 433Q323 433 310 424T277 380Q261 351 243 309T209 222T183 140T172 84Q172 64 178 58T191 51Q203 51 215 62T238 91Q248 107 254 119T266 141T275 162T284 187L308 249Q320
280 330 308T346 359T353 398Z" />
<glyph unicode="e" glyph-name="e" horiz-adv-x="471" d="M428 138Q412 110 389 84T334 37T263 4T174 -9Q141 -9 112 1T61 34T27 89T14 166Q14 206 25 241T57 306T103 360T159 402Q205 430 251 443T335 457Q407 457 438 431T470 363Q470 339 460 320T426 283Q414
274 393 264T343 244T280 223T208 204Q203 176 201 149T198 97Q198 69 210 51T248 32Q281 32 307 44T353 73T388 110T416 146L428 138ZM211 224Q240 232 262 241T298 261Q313 272 324 290T341 328T351 367T355 398Q355 416 350 426T331 437Q312 437 294 420T260
373T232 306T211 224Z" />
<glyph unicode="f" glyph-name="f" horiz-adv-x="333" d="M301 417Q267 286 228 172T138 -28T21 -163T-136 -213Q-158 -213 -179 -208T-216 -190T-243 -161T-253 -119Q-253 -88 -233 -73T-193 -57Q-161 -57 -147 -72T-132 -108Q-130 -124 -135 -143T-139 -171Q-136
-191 -116 -191Q-93 -191 -78 -180T-48 -141Q-31 -110 -16 -59T16 60T52 212T96 392Q98 399 99 405T103 417H35L44 447H112Q134 516 167 561T238 634T317 673T397 684Q433 684 460 676T504 655T530 625T539 589Q539 566 523 547T475 527Q445 527 428 541T411 582Q411
596 414 614T418 645Q418 665 398 665Q391 665 380 660T360 634Q355 621 351 606T340 569T327 518T309 447H407L398 417H301Z" />
<glyph unicode="g" glyph-name="g" horiz-adv-x="483" d="M273 439Q260 439 250 429T232 403Q226 388 219 364T206 313T196 258T192 212Q192 195 199 185T220 175Q235 175 244 184T260 209Q266 224 273 249T286 301T296 356T300 403Q300 420 293 429T273 439ZM129
-213Q87 -213 48 -208T-22 -190T-71 -159T-90 -110Q-90 -75 -50 -52T56 -26V-23Q16 -7 0 17T-17 78Q-17 103 -5 121T27 152T72 172T121 184Q92 202 75 231T57 297Q57 343 78 374T132 423T203 449T274 457Q317 457 349 443T402 403H406Q408 435 432 454T488 473Q516
473 537 459T559 412Q559 385 544 375T511 364Q494 364 483 371T461 394Q454 405 448 415T437 425Q432 425 426 418T420 387Q420 376 423 367T429 351Q431 343 433 333T436 314Q436 268 415 238T362 190T292 165T221 158Q189 158 170 164T137 171Q124 171 114 167T103
150Q103 135 132 129T223 112Q281 102 318 90T377 62T407 25T416 -24Q416 -69 392 -104T327 -163T235 -200T129 -213ZM130 -196Q169 -196 200 -189T254 -171T289 -144T301 -112Q301 -87 265 -76T152 -50Q137 -47 121 -44T91 -38Q74 -38 57 -41T25 -54T1 -77T-9
-114Q-9 -156 28 -176T130 -196Z" />
<glyph unicode="h" glyph-name="h" horiz-adv-x="602" d="M176 570Q183 590 186 603T189 628Q189 648 175 660Q170 665 160 668T137 674L141 684H381Q386 684 386 679Q386 675 382 665T373 640Q369 630 366 622T360 603T352 581T343 553L260 296H267Q290 341 314
372T363 421T410 448T454 457Q511 457 533 431T555 360Q555 328 543 294T508 205Q487 154 478 123T468 76Q468 56 482 56Q489 56 500 62T525 79T553 105T578 137L590 130Q572 100 548 75T493 31T430 2T363 -9Q330 -9 308 9T285 64Q285 90 301 135T339 231Q362 286
375 318T388 367Q388 380 383 384T368 389Q348 389 312 338T230 171Q223 155 215 133T199 88T182 41T168 0H-10L176 570Z" />
<glyph unicode="i" glyph-name="i" horiz-adv-x="346" d="M353 580Q353 546 330 522T270 497Q234 497 211 521T188 580Q188 597 194 612T211 638T237 657T270 664Q288 664 303 657T329 639T346 612T353 580ZM127 374Q127 388 122 391T108 394Q96 394 72 374T23
313L8 321Q49 390 106 423T224 457Q259 457 278 436T298 381Q298 372 295 357T285 320T271 275T252 224Q232 172 220 132T207 75Q207 56 223 56Q230 56 241 62T266 79T294 104T319 137L331 129Q313 99 289 74T234 30T171 1T104 -10Q71 -10 49 8T27 63Q27 76 32
95T44 136T61 181T78 228Q84 243 92 263T108 304T121 343T127 374Z" />
<glyph unicode="j" glyph-name="j" horiz-adv-x="314" d="M364 583Q364 549 341 525T281 500Q245 500 222 524T199 583Q199 600 205 615T222 641T248 660T281 667Q299 667 314 660T340 642T357 615T364 583ZM232 136Q209 79 190 38T153 -33T117 -86T77 -130Q61
-145 40 -160T-5 -187T-57 -206T-115 -213Q-142 -213 -167 -206T-211 -186T-243 -153T-255 -107Q-255 -70 -233 -47T-175 -23Q-155 -23 -141 -30T-117 -47T-103 -71T-98 -96Q-98 -115 -103 -127T-117 -152Q-122 -159 -126 -165T-131 -177Q-131 -185 -125 -188T-112
-192Q-96 -192 -82 -183T-52 -148Q-41 -131 -25 -90T9 -3T41 88T65 155Q71 171 82 204T106 272T127 337T136 374Q136 388 131 391T117 394Q105 394 81 374T31 313L17 321Q58 390 114 423T231 457Q273 457 291 436T309 381Q309 369 302 340T283 276T258 203T232
136Z" />
<glyph unicode="k" glyph-name="k" horiz-adv-x="594" d="M382 -9Q367 -9 352 -5T325 9T305 32T297 64Q297 93 303 117T316 163Q321 178 324 190T327 213Q327 229 322 241T288 254H250L170 0H-9L178 570Q185 590 187 603T190 628Q190 649 177 660Q172 665 162
668T139 674L142 684H383Q388 684 388 679Q388 675 385 665T376 640L369 622Q366 615 363 606T355 584T344 553L256 273H290Q315 273 333 281T363 303T384 329T399 354Q413 379 424 397T449 429Q462 442 480 449T519 457Q559 457 581 434T603 375Q603 335 581 314T531
292Q503 292 484 307T465 355Q465 359 467 369T473 388Q478 398 483 405T488 415Q488 422 481 422Q466 422 454 402T418 344Q404 320 385 297T339 266V262Q395 256 432 228T472 145Q473 136 473 128V113Q474 102 474 94T476 78Q479 57 495 57Q502 57 512 63T535
79T559 105T582 137L594 129Q577 100 555 75T505 31T447 2T382 -9Z" />
<glyph unicode="l" glyph-name="l" horiz-adv-x="320" d="M222 224Q204 171 192 132T179 75Q179 56 195 56Q204 56 216 62T242 79T269 104T295 137L307 130Q289 100 265 75T212 31T150 2T81 -9Q43 -9 23 9T2 64Q2 76 8 99T22 149T40 202T55 245Q62 266 75 307T105
397T136 492T161 570Q164 578 168 595T173 628Q173 649 160 660Q155 665 145 668T122 674L125 684H367Q372 684 372 679Q372 675 368 665T359 640Q355 630 352 621T345 603T337 581T327 553Q319 529 304 482T273 383T242 287T222 224Z" />
<glyph unicode="m" glyph-name="m" horiz-adv-x="906" d="M589 64Q589 90 605 135T643 231Q666 286 677 317T689 365Q689 377 685 381T671 386Q660 386 642 367T602 311T554 222T503 106L467 0H286L392 318Q402 348 402 365Q402 377 398 381T384 386Q375 386 362
373T330 331T288 256T238 141Q225 109 212 73T186 0H11Q22 33 35 72T60 149T83 216T99 263Q110 295 116 318T122 367Q122 398 101 398Q88 398 66 376T18 313L3 321Q42 389 92 423T198 457Q242 457 262 436T282 380Q282 357 278 326T265 266H272Q297 323 324 359T379
418T431 448T478 457Q534 457 553 431T572 360Q572 344 567 321T554 266H558Q583 320 609 356T662 415T712 447T758 457Q815 457 836 431T858 360Q858 328 846 294T812 205Q791 154 782 123T772 76Q772 56 785 56Q792 56 803 62T828 79T856 105T881 137L894 130Q876
100 852 75T797 31T734 2T666 -9Q634 -9 612 9T589 64Z" />
<glyph unicode="n" glyph-name="n" horiz-adv-x="619" d="M607 130Q589 100 564 75T510 31T447 2T379 -9Q346 -9 324 9T302 64Q302 90 318 135T355 231Q378 286 391 317T404 365Q404 377 399 381T385 386Q375 386 361 373T329 331T287 256T237 141Q224 109 211
73T185 0H11Q22 33 35 72T60 149T82 216T98 263Q109 295 115 318T122 367Q122 398 101 398Q88 398 66 376T18 313L3 321Q42 389 92 423T198 457Q242 457 262 436T282 380Q282 357 278 326T265 266H272Q297 320 323 356T376 415T426 447T472 457Q529 457 550 431T572
360Q572 328 560 294T525 205Q484 105 484 76Q484 56 498 56Q505 56 516 62T541 79T569 105T594 137L607 130Z" />
<glyph unicode="o" glyph-name="o" horiz-adv-x="514" d="M203 -9Q160 -9 125 5T66 44T28 104T15 180Q15 240 42 295T113 388Q149 420 200 438T308 457Q351 457 385 443T444 404T482 343T495 267Q495 207 468 152T397 59Q361 27 310 9T203 -9ZM313 439Q304 439
292 431T263 389Q251 365 236 319T206 221T181 121T171 43Q171 31 176 20T197 9Q206 9 219 16T247 55Q259 81 275 126T305 222T329 324T339 411Q339 423 332 431T313 439Z" />
<glyph unicode="p" glyph-name="p" horiz-adv-x="595" d="M287 328Q314 385 353 421T444 457Q471 457 496 450T539 424T569 377T581 304Q581 241 551 180T472 69Q437 34 388 13T283 -9Q251 -9 230 -4T198 8L168 -80Q162 -97 158 -115T153 -148Q153 -161 158 -173T178
-193Q184 -197 195 -200T218 -206L215 -217H-120L-117 -206Q-102 -204 -87 -199T-62 -185Q-51 -175 -43 -162T-25 -118Q9 -17 35 65Q46 100 57 133T77 194T92 240T100 263Q110 295 116 318T122 367Q122 398 101 398Q88 398 66 376T18 313L3 321Q42 389 92 423T198
457Q242 457 264 436T286 380Q286 372 285 357T281 328H287ZM417 390Q417 401 411 410T395 420Q379 420 369 412T345 388Q330 370 314 342T289 288Q282 269 271 235T248 163T226 93T210 44Q212 32 224 24T252 15Q262 15 270 18T287 31T305 54T326 91Q337 112 352
150T382 231T407 317T417 390Z" />
<glyph unicode="q" glyph-name="q" horiz-adv-x="546" d="M385 -80Q379 -97 375 -115T370 -149Q370 -163 375 -174T394 -194Q405 -199 415 -201T434 -206L431 -217H83L87 -206Q106 -202 125 -195T154 -179Q169 -166 180 -144T202 -92L269 101H263Q257 90 253 82T243
67T231 53T215 36Q193 13 166 2T114 -9Q56 -9 30 26T4 123Q4 185 34 245T112 352T218 428T334 457Q365 457 386 449T419 430T438 407T447 386H454L545 457H563L385 -80ZM353 397Q353 419 347 426T331 433Q323 433 310 424T277 378Q262 349 244 306T210 220T184
139T173 85Q173 65 178 58T191 51Q204 51 216 63T239 91Q255 117 264 137T283 185Q295 217 307 248T329 308T346 359T353 397Z" />
<glyph unicode="r" glyph-name="r" horiz-adv-x="493" d="M267 259Q287 319 306 357T345 418T385 448T427 457Q468 457 491 435T515 367Q515 327 497 301T441 275Q387 275 367 323Q359 343 356 353T344 363Q339 363 332 353T312 316T280 246T234 133Q221 101 209
69T185 0H11Q22 33 35 72T60 149T82 216T98 263Q109 295 115 318T122 367Q122 398 101 398Q88 398 66 376T18 313L3 321Q42 389 92 423T198 457Q242 457 261 436T280 380Q280 353 274 321T260 259H267Z" />
<glyph unicode="s" glyph-name="s" horiz-adv-x="407" d="M395 362Q395 336 379 320T335 303Q309 303 293 318T275 354Q273 374 274 385T272 410Q270 423 259 430T232 437Q209 437 197 425T185 393Q185 368 206 347T273 297Q321 268 348 233T375 151Q375 116 358
87T312 36T245 3T167 -9Q131 -9 101 -2T49 19T15 52T2 98Q2 130 20 146T62 163Q115 163 121 109Q123 92 121 76T121 46Q123 28 139 20T175 11Q208 11 229 24T250 67Q250 78 246 87T230 106T199 130T148 166Q111 192 90 223T69 302Q69 343 84 372T124 420T179 448T240
457Q271 457 299 452T348 436T382 406T395 362Z" />
<glyph unicode="t" glyph-name="t" horiz-adv-x="347" d="M182 72Q182 54 197 54Q206 54 219 61T248 79T277 106T304 137L317 130Q299 100 274 75T219 31T156 2T86 -9Q54 -9 31 9T8 64Q8 77 13 97T25 140T40 186T56 228L129 417H57L68 447H140L188 577H354L309
447H410L399 417H299L230 224Q207 159 195 124T182 72Z" />
<glyph unicode="u" glyph-name="u" horiz-adv-x="626" d="M493 76Q493 54 511 54Q526 54 553 78T603 137L616 129Q598 99 576 74T529 31T474 2T412 -9Q372 -9 349 13T326 80Q326 100 332 126T347 180H339Q310 120 284 83T232 26T182 -2T131 -9Q94 -9 67 16T40
87Q40 105 43 121T53 155T67 194T87 242Q108 293 117 321T127 369Q127 398 106 398Q93 398 71 376T23 313L10 321Q49 389 99 423T205 457Q257 457 282 433T307 373Q307 347 293 307T258 216Q235 161 223 131T211 83Q211 70 216 66T230 61Q240 61 254 75T287 119T329
197T379 313Q392 345 405 378T430 447H605Q594 414 581 374T555 296T532 227T516 179Q505 147 499 124T493 76Z" />
<glyph unicode="v" glyph-name="v" horiz-adv-x="481" d="M85 242Q106 293 115 321T124 369Q124 398 104 398Q91 398 69 376T21 313L7 321Q46 389 96 423T202 457Q228 457 247 449T278 428T296 398T302 364Q302 338 289 303T255 216Q232 161 220 130T208 82Q208
67 216 57T239 47Q263 47 294 69T353 126T401 203T421 286Q421 306 416 321T397 360Q388 374 383 387T378 408Q378 434 393 445T423 457Q476 457 476 379Q476 355 469 325T451 262T424 199T393 144Q374 115 348 88T290 39T220 4T136 -9Q94 -9 67 16T39 88Q39 106
42 122T51 155T65 194T85 242Z" />
<glyph unicode="w" glyph-name="w" horiz-adv-x="802" d="M508 -9Q470 -9 441 3T392 35Q353 15 309 3T216 -9Q154 -9 115 26T75 127Q75 160 90 187T128 237T176 274T220 299Q208 305 186 318T144 346Q121 362 107 371T76 380Q73 380 69 377T65 370Q65 365 74 358T90
346Q95 340 102 331T109 310Q109 287 96 271T56 255Q29 255 17 272T5 310Q5 333 21 354T53 390Q64 402 78 413T107 435T139 451T171 457Q194 457 213 444T250 419Q270 404 285 396T315 387Q328 387 337 397T354 425Q361 442 367 449T384 457Q392 457 397 452T403
438Q403 429 393 421T375 406Q369 401 362 393T347 373Q333 354 319 328T291 271T270 203T262 124Q262 94 277 72T325 50Q346 50 372 58Q358 78 351 100T343 146Q343 188 354 226T384 299T425 362T473 411Q499 434 524 445T566 457Q592 457 610 437T629 369Q629
312 603 253T531 143Q545 101 568 87T620 72Q646 72 663 84T695 118Q719 154 729 198T740 287Q740 307 729 324T706 365Q698 380 696 388T694 405Q694 423 706 439T741 455Q763 455 778 435T793 377Q793 355 789 322T775 251T751 175T715 106Q682 56 633 24T508
-9ZM560 422Q552 422 544 417T528 398T517 362T512 307Q512 265 514 235T522 175Q559 222 579 270T599 362Q599 395 587 408T560 422Z" />
<glyph unicode="x" glyph-name="x" horiz-adv-x="580" d="M597 386Q597 351 576 318T529 265L518 269Q529 292 536 323T543 376Q543 399 537 413T512 427Q499 427 480 413T443 375Q423 346 409 308T381 221Q375 197 371 182T366 157T364 139T363 125Q363 90 370
72T407 54Q422 54 436 62T463 84T486 111T504 137L516 130Q503 105 484 80T441 36T388 4T325 -9Q291 -9 269 0T235 25T217 64T212 114Q212 123 213 133T216 153H211Q198 125 179 96T138 44T91 6T41 -9Q12 -9 -6 9T-25 63Q-25 98 -5 130T42 182L54 177Q43 154 36
123T29 69Q29 46 36 33T61 19Q76 19 94 32T130 70Q150 99 164 137T192 225Q198 249 202 264T207 290T209 307T210 322Q210 358 201 374T166 391Q152 391 138 383T111 362T88 336T71 311L59 318Q72 343 91 368T136 413T189 445T249 457Q285 457 307 448T341 422T357
382T361 331Q361 322 360 312T357 292H362Q375 320 394 349T437 403T484 442T532 457Q560 457 578 440T597 386Z" />
<glyph unicode="y" glyph-name="y" horiz-adv-x="456" d="M77 379Q64 379 47 365T9 312L-6 320Q28 388 71 422T178 457Q223 457 250 425T292 345Q297 326 302 298T310 238T316 176T319 120H323Q355 173 371 215T388 296Q388 316 384 334T369 369Q363 378 358 387T352
407Q352 434 366 445T397 457Q418 457 430 442T443 404Q443 349 427 294T385 186T326 85T258 -6T190 -82T131 -138Q96 -170 55 -191T-25 -213Q-70 -213 -92 -191T-114 -142Q-114 -126 -109 -114T-95 -95T-76 -84T-57 -80Q-30 -80 -18 -88T8 -114Q16 -123 29 -136T59
-149Q68 -149 82 -142T110 -123Q126 -109 142 -95T176 -60Q176 -31 172 15T162 113T146 215T125 301Q114 339 106 359T77 379Z" />
<glyph unicode="z" glyph-name="z" horiz-adv-x="513" d="M527 421Q527 407 517 395T494 376Q490 374 478 366T451 349T424 332T406 320Q386 306 358 287T300 247T242 206T192 171Q201 173 210 174T232 175Q248 175 272 173T318 165Q341 160 362 154T398 148Q421
148 436 154T463 178Q471 190 475 198T485 218L500 212Q488 172 475 133T441 62T390 11T316 -9Q278 -9 253 4T204 45Q177 75 160 93T123 112Q112 112 102 103T84 80T69 51T60 26Q55 12 44 2T16 -9Q0 -9 -7 1T-14 23Q-14 37 -5 47T19 69Q23 72 33 79T56 96T78 113T94
125L355 313Q346 309 329 308T300 306Q282 306 269 307T242 310T215 317T183 330Q163 338 142 347T108 357Q87 357 72 343T56 302Q56 292 60 287T69 280Q75 301 90 313T125 326Q147 326 164 311T181 270Q181 246 165 228T122 210Q87 210 62 237T36 319Q36 350 47
375T78 419T122 447T175 457Q215 457 239 444T284 408Q293 398 302 386T322 362T343 343T365 335Q380 335 392 342T415 361T433 388T445 419Q450 436 462 446T489 457Q509 457 518 445T527 421Z" />
<glyph unicode="{" glyph-name="braceleft" horiz-adv-x="400" d="M297 -143Q52 -140 52 9Q52 24 60 51T78 109T96 166T105 205Q105 223 101 234T88 252T65 262T29 268L33 285Q50 285 67 287T97 299Q114 313 126 340T147 402Q151 417 153 427T157 448T161 469T166
497Q177 545 204 579T273 636T369 668T490 679L486 664Q435 663 405 629T353 519Q345 490 340 469T330 425Q316 362 257 322T99 277L97 274Q148 271 181 258T233 226T261 184T269 136Q269 124 262 98T246 43T230 -12T223 -51Q223 -89 243 -107T300 -129L297 -143Z"
/>
<glyph unicode="|" glyph-name="bar" horiz-adv-x="208" d="M86 -99V687H121V-99H86Z" />
<glyph unicode="}" glyph-name="braceright" horiz-adv-x="356" d="M-122 -128Q-71 -127 -41 -92T11 18Q19 47 24 67T34 110Q48 173 107 213T266 258L267 262Q216 265 183 277T130 309T103 351T95 399Q95 411 102 437T118 493T134 548T141 587Q141 625 121 642T64
664L67 679Q191 677 250 644T310 534Q310 519 302 490T285 430T268 370T260 330Q260 294 277 283T336 268L332 250Q315 250 297 248T267 236Q250 222 238 195T218 133Q214 118 212 108T208 88T204 67T198 40Q187 -8 160 -42T91 -99T-5 -132T-126 -143L-122 -128Z"
/>
<glyph unicode="~" glyph-name="asciitilde" horiz-adv-x="374" d="M242 194Q228 194 211 198T175 206T140 215T110 219Q81 219 63 208T36 168L14 170Q19 194 28 221T52 270T88 308T142 323Q151 323 168 319T204 311T241 302T272 298Q331 298 348 349L369 347Q363
321 354 294T331 244T295 208T242 194Z" />
<glyph unicode="&#xa0;" glyph-name="uni00A0" horiz-adv-x="200" />
<glyph unicode="&#xa1;" glyph-name="exclamdown" horiz-adv-x="310" d="M107 -15Q60 -15 34 14T7 85Q7 103 16 127T42 179T78 238T119 302Q147 346 170 386T206 453H223Q222 439 222 426V396Q222 380 222 357T223 299Q223 263 224 236T226 187T229 147T231 112Q231
86 224 63T201 23T163 -4T107 -15ZM340 591Q340 559 319 535T261 510Q225 510 203 534T181 591Q181 623 202 647T261 671Q297 671 318 647T340 591Z" />
<glyph unicode="&#xa2;" glyph-name="cent" horiz-adv-x="489" d="M491 356Q491 325 471 307T421 288Q391 288 374 305T356 349Q356 359 358 368T363 389Q365 397 367 404T369 420Q369 428 362 431T347 436L243 51Q255 46 271 46Q291 46 312 55T352 79T389 111T419
146L430 138Q397 84 349 45T227 -5L201 -100L178 -93L201 -8Q190 -9 179 -9T157 -6Q96 -1 56 43T16 156Q16 192 26 225T55 287T96 341T144 384Q189 418 238 435T328 456L350 536L373 530L353 456Q387 455 412 446T455 422T482 390T491 356ZM199 136Q199 113 204
94T221 64L322 432Q303 424 287 405T257 358Q243 331 233 300T215 237T203 180T199 136Z" />
<glyph unicode="&#xa3;" glyph-name="sterling" horiz-adv-x="678" d="M735 554Q735 523 724 501T695 464T653 442T605 435Q562 435 528 458T483 513L497 520Q505 502 527 491T570 479Q601 479 625 503T649 570Q649 606 633 627T582 648Q546 648 515 621T469 538Q458
492 444 436T411 322H516L509 294H402Q392 265 381 238T357 184Q377 182 394 181T428 179Q508 179 555 197T629 262L646 258Q646 209 628 159T575 67T492 0T386 -26Q329 -26 293 -6T235 35Q202 12 162 -1T72 -15Q48 -15 25 -10T-16 8T-45 40T-57 89Q-57 115 -45
138T-10 178T44 205T114 215Q132 215 156 213T208 206Q203 228 199 250T192 294H106L112 322H192Q192 343 194 362T201 400Q213 448 236 487T291 556T359 608T433 644T506 664T572 671Q653 671 694 643T735 554ZM200 71Q182 88 165 104T129 132T90 151T47 159Q18
159 -5 143T-28 88Q-28 53 -2 31T71 8Q112 8 146 26T200 71Z" />
<glyph unicode="&#xa5;" glyph-name="yen" horiz-adv-x="538" d="M2 194L10 222H150L169 300H29L36 328H160L96 536Q82 587 58 612T1 645L4 657H362L359 645Q352 645 343 644T326 639Q311 635 299 624T286 590Q286 575 290 556T301 514L349 351H355L480 506Q509
544 517 565T526 602Q526 618 517 626T497 639Q491 641 484 643T471 645L474 657H694L691 645Q679 643 669 640T647 631Q621 620 588 589T505 494L370 328H510L502 300H357L338 222H483L475 194H332Q322 152 317 128T312 86Q312 58 325 44T355 21Q366 16 376 15T393
12L390 0H-5L-3 12Q23 14 41 21Q59 28 72 38T97 66Q111 86 122 119T143 194H2Z" />
<glyph unicode="&#xa7;" glyph-name="section" horiz-adv-x="510" d="M533 575Q533 549 518 529T468 509Q439 509 424 526T408 567Q408 581 411 596T414 624Q414 636 400 643T360 650Q332 650 316 632T300 592Q300 574 305 560T320 533T343 506L375 475Q400 449
418 429T449 388T467 343T473 285Q473 256 461 231T429 184T380 146T318 118Q340 88 349 59T358 3Q358 -43 336 -78T281 -137T209 -173T133 -185Q52 -185 9 -157T-34 -87Q-34 -61 -17 -41T32 -21Q61 -21 76 -38T92 -79Q92 -93 89 -107T85 -133Q85 -145 99 -154T139
-164Q157 -164 170 -158T190 -143T201 -122T205 -99Q205 -75 198 -57T180 -25T153 3T122 32Q95 57 77 77T47 118T30 163T25 220Q25 250 37 276T71 325T120 363T181 389Q162 415 155 439T148 489Q148 535 168 569T220 625T290 659T364 671Q445 671 489 644T533 575ZM173
313Q173 291 179 276T196 246T224 216T264 181Q285 161 302 140Q312 148 318 160T325 189Q325 211 319 226T300 256T271 287T232 326Q221 337 213 346T196 366Q187 358 180 346T173 313Z" />
<glyph unicode="&#xa8;" glyph-name="dieresis" horiz-adv-x="436" d="M59 570Q59 601 80 623T133 645Q165 645 186 623T208 570Q208 541 187 519T133 497Q101 497 80 519T59 570ZM253 570Q253 601 274 623T327 645Q359 645 380 623T402 570Q402 541 381 519T327
497Q294 497 274 519T253 570Z" />
<glyph unicode="&#xa9;" glyph-name="copyright" horiz-adv-x="882" d="M863 260Q863 174 831 99T742 -33T610 -122T450 -155Q364 -155 289 -122T157 -33T67 98T34 260Q34 345 67 420T156 551T288 640T450 673Q535 673 610 641T741 552T830 420T863 260ZM838 260Q838
342 807 413T722 537T599 620T450 651Q372 651 301 621T177 537T91 413T59 260Q59 177 91 105T176 -20T301 -103T450 -134Q528 -134 598 -104T722 -20T806 105T838 260ZM643 191Q637 162 622 133T584 79T528 40T454 25Q388 25 343 42T270 89Q239 122 221 166T202
265Q202 322 223 365T279 437T362 481T461 496Q515 496 550 480T605 440H608L629 475H638V293H622Q614 324 604 356T578 414T538 456T477 473Q460 473 444 464T417 438Q402 412 397 372T391 271Q391 238 393 213T401 168T412 133T426 103Q435 86 450 78T485 70Q515
70 537 79T576 106T605 147T627 197L643 191Z" />
<glyph unicode="&#xaa;" glyph-name="ordfeminine" horiz-adv-x="506" d="M536 391Q506 339 456 305T346 271Q317 271 298 287T279 335Q279 346 281 359T286 380H282Q277 369 273 361T265 347T255 334T242 318Q223 296 197 284T144 271Q98 271 72 296T45 386Q45
440 69 492T132 585T219 652T314 678Q344 678 357 666T372 640H379Q388 656 397 669H525Q514 637 499 590T467 491Q448 436 438 403T427 348Q427 328 443 328Q457 328 481 347T524 398L536 391ZM351 623Q351 642 347 648T334 654Q327 654 316 647T287 609Q273 584
257 547T228 471T205 401T196 354Q196 334 201 330T212 325Q222 325 232 335T253 361Q262 375 267 385T277 404T284 422T292 443Q302 468 313 494T332 543T345 587T351 623Z" />
<glyph unicode="&#xab;" glyph-name="guillemotleft" horiz-adv-x="459" d="M346 243L410 85L398 74L230 238L234 252L458 417L468 404L346 243ZM149 243L213 85L201 74L33 238L37 252L261 417L271 404L149 243Z" />
<glyph unicode="&#xae;" glyph-name="registered" horiz-adv-x="541" d="M538 421Q538 370 518 325T464 245T385 191T287 171Q235 171 190 191T110 245T56 324T36 421Q36 472 56 517T110 597T189 651T287 671Q339 671 384 651T464 597T518 518T538 421ZM514 421Q514
467 496 508T448 581T376 631T287 650Q240 650 199 632T127 582T78 509T60 421Q60 374 78 333T126 260T198 210T287 191Q334 191 375 209T447 259T496 332T514 421ZM326 290Q319 301 315 316T309 351Q307 371 306 385T298 412Q288 430 270 430H259V336Q259 327
261 322Q263 317 265 313T273 307Q277 305 284 304T296 303V290H130V303Q134 303 140 304T151 307Q161 311 164 322Q166 327 166 336V527Q166 536 164 541Q161 552 151 556Q147 558 141 559T130 560V573H298Q355 573 381 555T408 504Q408 477 385 459T314 438V436Q336
434 352 430T378 418T396 397T407 363Q412 334 417 324T431 308Q433 306 439 305T450 303V290H326ZM307 504Q307 533 301 544T275 556H259V444H274Q296 444 301 459T307 504Z" />
<glyph unicode="&#xaf;" glyph-name="macron" horiz-adv-x="397" d="M98 536L114 598H364L348 536H98Z" />
<glyph unicode="&#xb0;" glyph-name="degree" horiz-adv-x="301" d="M318 544Q318 515 308 492T280 452T240 426T192 416Q167 416 144 425T104 451T77 491T66 544Q66 572 76 596T104 636T144 662T192 672Q217 672 239 663T279 637T307 596T318 544ZM273 544Q273
597 251 625T192 653Q154 653 132 625T110 544Q110 491 132 463T192 435Q229 435 251 463T273 544Z" />
<glyph unicode="&#xb4;" glyph-name="acute" horiz-adv-x="330" d="M324 618Q324 589 304 573T256 546Q227 535 175 520T65 491L62 502Q101 547 128 577T180 631Q203 653 222 666T262 680Q288 680 306 667T324 618Z" />
<glyph unicode="&#xb6;" glyph-name="paragraph" horiz-adv-x="529" d="M612 635H530L334 -151H306L502 635H396L200 -151H173L267 226H247Q201 226 163 240T98 278T56 334T41 405Q41 462 62 508T122 588T214 639T333 657H618L612 635Z" />
<glyph unicode="&#xb7;" glyph-name="periodcentered" horiz-adv-x="315" d="M249 278Q249 243 224 217T161 191Q123 191 99 217T74 278Q74 314 98 340T161 367Q179 367 195 360T223 341T242 312T249 278Z" />
<glyph unicode="&#xb8;" glyph-name="cedilla" horiz-adv-x="360" d="M233 -109Q233 -126 226 -141T203 -168T158 -187T87 -194Q66 -194 47 -188T15 -175L22 -162Q32 -167 46 -170T75 -173Q110 -173 128 -156T147 -108Q147 -88 137 -74T110 -60Q94 -60 81 -71L66
-63L103 1H125L95 -50Q103 -45 118 -41T151 -37Q186 -37 209 -53T233 -109Z" />
<glyph unicode="&#xba;" glyph-name="ordmasculine" horiz-adv-x="453" d="M473 507Q473 456 450 408T388 327Q356 299 312 282T216 265Q178 265 148 277T96 311T62 363T50 430Q50 481 73 529T135 611Q167 638 211 655T307 672Q344 672 375 660T427 626T461 574T473
507ZM334 631Q334 641 329 648T312 655Q304 655 294 649T269 612Q259 591 245 551T219 467T198 380T189 312Q189 302 193 293T211 283Q220 283 230 289T254 322Q264 344 278 383T304 467T325 555T334 631Z" />
<glyph unicode="&#xbb;" glyph-name="guillemotright" horiz-adv-x="466" d="M438 239L213 74L203 87L326 248L261 406L273 417L441 253L438 239ZM241 239L16 74L6 87L129 248L64 406L76 417L244 253L241 239Z" />
<glyph unicode="&#xbf;" glyph-name="questiondown" horiz-adv-x="467" d="M446 602Q446 574 427 554T379 534Q349 534 329 554T309 602Q309 630 329 650T379 670Q408 670 427 650T446 602ZM457 394Q457 359 444 335T407 293T349 263T271 240Q222 228 193 214T147
183T126 145T121 102Q121 62 147 36T234 9Q255 9 275 16T311 37T338 70T348 113Q348 134 342 148T327 170T306 182T283 186Q272 186 264 177T254 160Q267 156 281 144T295 108Q295 83 279 68T240 53Q214 53 200 68T186 110Q186 125 197 142T228 175T274 201T332
212Q377 212 400 186T423 124Q423 94 405 69T356 25T287 -4T208 -15Q160 -15 122 -4T56 29T15 80T0 146Q0 195 15 234T58 304T124 355T210 388Q274 404 300 416T327 453Q327 464 317 471T293 479Q276 479 260 469T235 446L226 455Q236 478 259 496T330 514Q384
514 420 484T457 394Z" />
<glyph unicode="&#xc0;" glyph-name="Agrave" horiz-adv-x="658" d="M199 275H356L420 528H414L199 275ZM349 248H175L90 148Q72 126 63 108T54 71Q54 41 79 27Q103 15 132 12L130 0H-140L-137 12Q-126 14 -111 18T-86 28Q-50 45 -18 73T47 139L489 657H646L531
207Q519 162 515 133T510 86Q510 61 519 47T545 24Q572 13 587 12L584 0H204L207 12Q217 13 228 16T246 22Q263 29 272 38T293 65Q307 88 317 120T339 204L349 248ZM680 692Q643 698 603 705T524 719Q482 725 454 741T425 788Q425 819 441 836T481 853Q505 853
523 843T564 812Q587 792 617 765T686 703L680 692Z" />
<glyph unicode="&#xc1;" glyph-name="Aacute" horiz-adv-x="658" d="M199 275H356L420 528H414L199 275ZM349 248H175L90 148Q72 126 63 108T54 71Q54 41 79 27Q103 15 132 12L130 0H-140L-137 12Q-126 14 -111 18T-86 28Q-50 45 -18 73T47 139L489 657H646L531
207Q519 162 515 133T510 86Q510 61 519 47T545 24Q572 13 587 12L584 0H204L207 12Q217 13 228 16T246 22Q263 29 272 38T293 65Q307 88 317 120T339 204L349 248ZM465 702Q510 739 541 765T596 814Q619 835 637 843T678 852Q701 852 718 836T736 788Q736 761
716 747T672 726Q657 722 635 718T585 710T529 701T470 691L465 702Z" />
<glyph unicode="&#xc2;" glyph-name="Acircumflex" horiz-adv-x="658" d="M199 275H356L420 528H414L199 275ZM349 248H175L90 148Q72 126 63 108T54 71Q54 41 79 27Q103 15 132 12L130 0H-140L-137 12Q-126 14 -111 18T-86 28Q-50 45 -18 73T47 139L489 657H646L531
207Q519 162 515 133T510 86Q510 61 519 47T545 24Q572 13 587 12L584 0H204L207 12Q217 13 228 16T246 22Q263 29 272 38T293 65Q307 88 317 120T339 204L349 248ZM712 703L590 762L422 702L418 711L573 848H638L720 711L712 703Z" />
<glyph unicode="&#xc3;" glyph-name="Atilde" horiz-adv-x="658" d="M199 275H356L420 528H414L199 275ZM349 248H175L90 148Q72 126 63 108T54 71Q54 41 79 27Q103 15 132 12L130 0H-140L-137 12Q-126 14 -111 18T-86 28Q-50 45 -18 73T47 139L489 657H646L531
207Q519 162 515 133T510 86Q510 61 519 47T545 24Q572 13 587 12L584 0H204L207 12Q217 13 228 16T246 22Q263 29 272 38T293 65Q307 88 317 120T339 204L349 248ZM771 852Q764 824 752 800T723 757T685 729T636 719Q620 719 603 723T568 732T535 741T507 745Q484
745 464 740T429 708L412 710Q428 772 462 805T555 838Q567 838 581 834T611 826T644 818T678 814Q704 814 722 819T755 854L771 852Z" />
<glyph unicode="&#xc4;" glyph-name="Adieresis" horiz-adv-x="658" d="M199 275H356L420 528H414L199 275ZM349 248H175L90 148Q72 126 63 108T54 71Q54 41 79 27Q103 15 132 12L130 0H-140L-137 12Q-126 14 -111 18T-86 28Q-50 45 -18 73T47 139L489 657H646L531
207Q519 162 515 133T510 86Q510 61 519 47T545 24Q572 13 587 12L584 0H204L207 12Q217 13 228 16T246 22Q263 29 272 38T293 65Q307 88 317 120T339 204L349 248ZM387 775Q387 806 408 829T462 852Q478 852 492 846T516 829T533 804T539 775Q539 745 517 723T462
700Q429 700 408 722T387 775ZM622 775Q622 806 643 829T697 852Q713 852 727 846T751 829T768 804T774 775Q774 745 752 723T697 700Q664 700 643 722T622 775Z" />
<glyph unicode="&#xc5;" glyph-name="Aring" horiz-adv-x="658" d="M199 275H356L420 528H414L199 275ZM349 248H175L90 148Q72 126 63 108T54 71Q54 41 79 27Q103 15 132 12L130 0H-140L-137 12Q-126 14 -111 18T-86 28Q-50 45 -18 73T47 139L489 657H646L531
207Q519 162 515 133T510 86Q510 61 519 47T545 24Q572 13 587 12L584 0H204L207 12Q217 13 228 16T246 22Q263 29 272 38T293 65Q307 88 317 120T339 204L349 248ZM691 793Q691 773 684 757T663 728T633 708T596 701Q556 701 529 726T501 793Q501 834 528 860T595
886Q636 886 663 861T691 793ZM655 793Q655 822 639 838T595 855Q567 855 551 839T535 793Q535 765 551 749T594 732Q622 732 638 748T655 793Z" />
<glyph unicode="&#xc6;" glyph-name="AE" horiz-adv-x="944" d="M487 608H481Q472 598 454 576T412 525T359 461T303 394T250 330T205 276H401L487 608ZM923 432H910Q908 450 903 469T890 507T875 543T858 573Q839 601 816 616T757 632H732Q705 632 690 620Q680
612 675 598T664 564L610 353H632Q675 353 696 362T734 387Q756 408 775 438T803 492H816L739 183H726Q728 196 728 212T725 244T718 274T707 298Q699 311 680 319T626 328H604L563 167Q554 132 550 112T545 77Q545 54 555 41Q563 32 577 28T607 24H622Q683 24
761 97Q809 141 837 180T878 240H890L823 0H234L237 12Q247 13 259 16T280 22Q298 28 310 38T333 65Q347 88 358 120T383 204L394 248H182Q173 237 159 220T131 187Q115 169 99 148Q79 125 71 108T62 71Q62 41 87 27Q111 15 141 12L138 0H-135L-132 12Q-121 14
-106 18T-81 28Q-45 45 -13 73T50 139L453 617Q448 621 437 626T414 635T392 642T379 645L381 657H945L923 432Z" />
<glyph unicode="&#xc7;" glyph-name="Ccedilla" horiz-adv-x="615" d="M319 -110Q319 -127 312 -142T289 -169T244 -188T173 -195Q152 -195 133 -189T101 -176L108 -163Q118 -168 132 -171T161 -174Q196 -174 214 -157T233 -109Q233 -89 223 -75T196 -61Q180 -61
167 -72L152 -64L187 -3Q170 1 155 8Q108 31 77 67T31 147T15 236Q15 327 44 406T128 544T257 637T425 671Q454 671 478 665T522 648T554 626T574 602H578L636 647H648L586 402H573Q574 465 563 511T532 588T486 633T432 648Q391 648 366 626T319 569Q305 547 285
498T247 385T216 254T203 126Q203 100 211 79T235 44Q254 26 289 26Q329 26 368 42T442 87T504 151T550 225L566 216Q546 170 515 128T445 55T361 5T267 -14Q234 -14 206 -8L181 -51Q189 -46 204 -42T237 -38Q272 -38 295 -54T319 -110Z" />
<glyph unicode="&#xc8;" glyph-name="Egrave" horiz-adv-x="642" d="M517 692Q480 698 440 705T361 719Q319 725 291 741T262 788Q262 819 278 836T318 853Q342 853 360 843T401 812Q424 792 454 765T523 703L517 692ZM622 432H609Q604 469 589 508T557 573Q538
601 514 616T456 632H427Q398 632 384 617T359 564L306 353H330Q373 353 394 362T433 387Q456 408 474 438T502 492H515L437 183H425Q426 196 426 212T423 244T417 274T406 298Q397 311 378 319T324 328H300L259 167Q250 132 246 112T241 77Q241 48 256 36T302
24H321Q351 24 383 42T455 97Q503 142 533 181T576 240H588L521 0H-70L-68 12Q-57 13 -45 16T-25 22Q-7 28 5 38T28 65Q42 88 53 120T78 204L139 451Q150 496 155 524T161 571Q161 596 152 610T125 633Q99 643 83 645L86 657H644L622 432Z" />
<glyph unicode="&#xc9;" glyph-name="Eacute" horiz-adv-x="642" d="M306 702Q351 739 382 765T437 814Q460 835 478 843T519 852Q542 852 559 836T577 788Q577 761 557 747T513 726Q498 722 476 718T426 710T370 701T311 691L306 702ZM622 432H609Q604 469 589
508T557 573Q538 601 514 616T456 632H427Q398 632 384 617T359 564L306 353H330Q373 353 394 362T433 387Q456 408 474 438T502 492H515L437 183H425Q426 196 426 212T423 244T417 274T406 298Q397 311 378 319T324 328H300L259 167Q250 132 246 112T241 77Q241
48 256 36T302 24H321Q351 24 383 42T455 97Q503 142 533 181T576 240H588L521 0H-70L-68 12Q-57 13 -45 16T-25 22Q-7 28 5 38T28 65Q42 88 53 120T78 204L139 451Q150 496 155 524T161 571Q161 596 152 610T125 633Q99 643 83 645L86 657H644L622 432Z" />
<glyph unicode="&#xca;" glyph-name="Ecircumflex" horiz-adv-x="642" d="M551 703L429 762L261 702L257 711L412 848H477L559 711L551 703ZM622 432H609Q604 469 589 508T557 573Q538 601 514 616T456 632H427Q398 632 384 617T359 564L306 353H330Q373 353 394
362T433 387Q456 408 474 438T502 492H515L437 183H425Q426 196 426 212T423 244T417 274T406 298Q397 311 378 319T324 328H300L259 167Q250 132 246 112T241 77Q241 48 256 36T302 24H321Q351 24 383 42T455 97Q503 142 533 181T576 240H588L521 0H-70L-68 12Q-57
13 -45 16T-25 22Q-7 28 5 38T28 65Q42 88 53 120T78 204L139 451Q150 496 155 524T161 571Q161 596 152 610T125 633Q99 643 83 645L86 657H644L622 432Z" />
<glyph unicode="&#xcb;" glyph-name="Edieresis" horiz-adv-x="642" d="M622 432H609Q604 469 589 508T557 573Q538 601 514 616T456 632H427Q398 632 384 617T359 564L306 353H330Q373 353 394 362T433 387Q456 408 474 438T502 492H515L437 183H425Q426 196
426 212T423 244T417 274T406 298Q397 311 378 319T324 328H300L259 167Q250 132 246 112T241 77Q241 48 256 36T302 24H321Q351 24 383 42T455 97Q503 142 533 181T576 240H588L521 0H-70L-68 12Q-57 13 -45 16T-25 22Q-7 28 5 38T28 65Q42 88 53 120T78 204L139
451Q150 496 155 524T161 571Q161 596 152 610T125 633Q99 643 83 645L86 657H644L622 432ZM230 775Q230 806 251 829T305 852Q321 852 335 846T359 829T376 804T382 775Q382 745 360 723T305 700Q272 700 251 722T230 775ZM465 775Q465 806 486 829T540 852Q556
852 570 846T594 829T611 804T617 775Q617 745 595 723T540 700Q507 700 486 722T465 775Z" />
<glyph unicode="&#xcc;" glyph-name="Igrave" horiz-adv-x="409" d="M477 645L454 640Q442 638 434 635Q417 630 405 620T381 592Q367 569 356 537T331 453L270 207Q259 162 254 133T248 86Q248 61 257 47T284 24Q309 13 326 12L323 0H-70L-68 12Q-57 13 -45 16T-25
22Q-8 27 4 38T28 65Q42 88 53 120T78 204L139 450Q150 495 155 524T161 571Q161 596 152 610T125 633Q99 643 83 645L86 657H480L477 645ZM403 692Q366 698 326 705T247 719Q205 725 177 741T148 788Q148 819 164 836T204 853Q228 853 246 843T287 812Q310 792
340 765T409 703L403 692Z" />
<glyph unicode="&#xcd;" glyph-name="Iacute" horiz-adv-x="409" d="M477 645L454 640Q442 638 434 635Q417 630 405 620T381 592Q367 569 356 537T331 453L270 207Q259 162 254 133T248 86Q248 61 257 47T284 24Q309 13 326 12L323 0H-70L-68 12Q-57 13 -45 16T-25
22Q-8 27 4 38T28 65Q42 88 53 120T78 204L139 450Q150 495 155 524T161 571Q161 596 152 610T125 633Q99 643 83 645L86 657H480L477 645ZM192 702Q237 739 268 765T323 814Q346 835 364 843T405 852Q428 852 445 836T463 788Q463 761 443 747T399 726Q384 722
362 718T312 710T256 701T197 691L192 702Z" />
<glyph unicode="&#xce;" glyph-name="Icircumflex" horiz-adv-x="409" d="M477 645L454 640Q442 638 434 635Q417 630 405 620T381 592Q367 569 356 537T331 453L270 207Q259 162 254 133T248 86Q248 61 257 47T284 24Q309 13 326 12L323 0H-70L-68 12Q-57 13
-45 16T-25 22Q-8 27 4 38T28 65Q42 88 53 120T78 204L139 450Q150 495 155 524T161 571Q161 596 152 610T125 633Q99 643 83 645L86 657H480L477 645ZM436 703L314 762L146 702L142 711L297 848H362L444 711L436 703Z" />
<glyph unicode="&#xcf;" glyph-name="Idieresis" horiz-adv-x="409" d="M477 645L454 640Q442 638 434 635Q417 630 405 620T381 592Q367 569 356 537T331 453L270 207Q259 162 254 133T248 86Q248 61 257 47T284 24Q309 13 326 12L323 0H-70L-68 12Q-57 13 -45
16T-25 22Q-8 27 4 38T28 65Q42 88 53 120T78 204L139 450Q150 495 155 524T161 571Q161 596 152 610T125 633Q99 643 83 645L86 657H480L477 645ZM373 775Q373 806 394 829T448 852Q464 852 478 846T502 829T519 804T525 775Q525 745 503 723T448 700Q415 700
394 722T373 775ZM608 775Q608 806 629 829T683 852Q699 852 713 846T737 829T754 804T760 775Q760 745 738 723T683 700Q650 700 629 722T608 775Z" />
<glyph unicode="&#xd0;" glyph-name="Eth" horiz-adv-x="715" d="M24 317L32 348H113L139 451Q150 496 155 524T160 571Q160 596 151 610T125 633Q98 644 83 645L86 657H437Q509 657 558 636T638 580T682 500T696 407Q696 362 685 314T653 222T605 140T545 78Q503
48 443 24T317 0H-70L-68 12Q-57 13 -46 16T-26 22Q6 32 28 65Q42 88 53 120T78 204L106 317H24ZM503 523Q503 582 485 607Q468 632 430 632H413Q394 632 382 621T361 577L304 348H410L403 317H296L246 115Q242 99 242 81Q242 53 254 39Q261 31 270 28T291 24H305Q337
24 359 43T405 102Q420 127 437 172T468 275T493 396T503 523Z" />
<glyph unicode="&#xd1;" glyph-name="Ntilde" horiz-adv-x="652" d="M643 852Q636 824 624 800T595 757T557 729T508 719Q492 719 475 723T440 732T407 741T379 745Q356 745 336 740T301 708L284 710Q300 772 334 805T427 838Q439 838 453 834T483 826T516 818T550
814Q576 814 594 819T627 854L643 852ZM727 645Q722 644 713 643T696 639Q683 634 671 627T647 602Q637 590 625 561T600 478L479 -8H440L197 535H192L104 179Q96 148 93 121T89 79Q89 29 126 18Q134 16 144 15T165 12L162 0H-70L-67 12Q-60 13 -50 14T-32 18Q-18
22 -5 31T21 56Q32 70 47 101T73 181L141 453Q147 477 151 494T157 524T161 548T162 571Q162 591 148 610T113 637Q106 639 95 641T75 645L77 657H355L519 288H522L567 473Q576 508 580 534T585 575Q585 600 574 615T544 638Q537 641 527 642T505 645L508 657H730L727
645Z" />
<glyph unicode="&#xd2;" glyph-name="Ograve" horiz-adv-x="678" d="M532 692Q495 698 455 705T376 719Q334 725 306 741T277 788Q277 819 293 836T333 853Q357 853 375 843T416 812Q439 792 469 765T538 703L532 692ZM664 412Q664 360 653 308T619 208T562 120T483
49Q440 20 386 3T267 -14Q208 -14 162 5T83 59T33 141T15 245Q15 297 26 349T60 448T117 537T196 608Q239 636 294 653T413 671Q471 671 518 652T597 598T646 516T664 412ZM477 543Q477 564 475 583T467 616T449 639T418 648Q356 648 316 566Q305 545 286 495T249
380T217 245T203 113Q203 92 206 73T216 40T235 17T266 8Q296 8 320 28T364 90Q375 111 394 161T431 276T463 411T477 543Z" />
<glyph unicode="&#xd3;" glyph-name="Oacute" horiz-adv-x="678" d="M320 702Q365 739 396 765T451 814Q474 835 492 843T533 852Q556 852 573 836T591 788Q591 761 571 747T527 726Q512 722 490 718T440 710T384 701T325 691L320 702ZM664 412Q664 360 653 308T619
208T562 120T483 49Q440 20 386 3T267 -14Q208 -14 162 5T83 59T33 141T15 245Q15 297 26 349T60 448T117 537T196 608Q239 636 294 653T413 671Q471 671 518 652T597 598T646 516T664 412ZM477 543Q477 564 475 583T467 616T449 639T418 648Q356 648 316 566Q305
545 286 495T249 380T217 245T203 113Q203 92 206 73T216 40T235 17T266 8Q296 8 320 28T364 90Q375 111 394 161T431 276T463 411T477 543Z" />
<glyph unicode="&#xd4;" glyph-name="Ocircumflex" horiz-adv-x="678" d="M563 703L441 762L273 702L269 711L424 848H489L571 711L563 703ZM664 412Q664 360 653 308T619 208T562 120T483 49Q440 20 386 3T267 -14Q208 -14 162 5T83 59T33 141T15 245Q15 297
26 349T60 448T117 537T196 608Q239 636 294 653T413 671Q471 671 518 652T597 598T646 516T664 412ZM477 543Q477 564 475 583T467 616T449 639T418 648Q356 648 316 566Q305 545 286 495T249 380T217 245T203 113Q203 92 206 73T216 40T235 17T266 8Q296 8 320
28T364 90Q375 111 394 161T431 276T463 411T477 543Z" />
<glyph unicode="&#xd5;" glyph-name="Otilde" horiz-adv-x="678" d="M623 852Q616 824 604 800T575 757T537 729T488 719Q472 719 455 723T420 732T387 741T359 745Q336 745 316 740T281 708L264 710Q280 772 314 805T407 838Q419 838 433 834T463 826T496 818T530
814Q556 814 574 819T607 854L623 852ZM664 412Q664 360 653 308T619 208T562 120T483 49Q440 20 386 3T267 -14Q208 -14 162 5T83 59T33 141T15 245Q15 297 26 349T60 448T117 537T196 608Q239 636 294 653T413 671Q471 671 518 652T597 598T646 516T664 412ZM477
543Q477 564 475 583T467 616T449 639T418 648Q356 648 316 566Q305 545 286 495T249 380T217 245T203 113Q203 92 206 73T216 40T235 17T266 8Q296 8 320 28T364 90Q375 111 394 161T431 276T463 411T477 543Z" />
<glyph unicode="&#xd6;" glyph-name="Odieresis" horiz-adv-x="678" d="M243 775Q243 806 264 829T318 852Q334 852 348 846T372 829T389 804T395 775Q395 745 373 723T318 700Q285 700 264 722T243 775ZM478 775Q478 806 499 829T553 852Q569 852 583 846T607
829T624 804T630 775Q630 745 608 723T553 700Q520 700 499 722T478 775ZM664 412Q664 360 653 308T619 208T562 120T483 49Q440 20 386 3T267 -14Q208 -14 162 5T83 59T33 141T15 245Q15 297 26 349T60 448T117 537T196 608Q239 636 294 653T413 671Q471 671 518
652T597 598T646 516T664 412ZM477 543Q477 564 475 583T467 616T449 639T418 648Q356 648 316 566Q305 545 286 495T249 380T217 245T203 113Q203 92 206 73T216 40T235 17T266 8Q296 8 320 28T364 90Q375 111 394 161T431 276T463 411T477 543Z" />
<glyph unicode="&#xd7;" glyph-name="multiply" horiz-adv-x="480" d="M246 263L394 115L376 97L229 245L86 103L69 120L212 262L67 407L84 425L229 279L377 428L394 411L246 263Z" />
<glyph unicode="&#xd8;" glyph-name="Oslash" horiz-adv-x="678" d="M664 412Q664 360 653 308T620 209T564 121T485 50Q441 21 387 4T267 -14Q220 -14 181 -2L149 -65L124 -55L156 7Q113 27 82 59Q50 94 33 141T15 245Q15 293 25 341T54 435T103 519T172 590Q218
626 279 648T413 671Q455 671 491 661L520 717L544 706L516 652L518 651Q565 632 597 598T646 516T664 412ZM477 543Q477 558 476 573L210 54Q212 46 216 39Q223 25 235 17T266 8Q296 8 320 28T364 90Q375 111 394 161T431 276T463 411T477 543ZM466 616Q460 631
449 639T418 648Q356 648 316 566Q305 545 286 495T249 380T217 245T203 113V99L467 614L466 616Z" />
<glyph unicode="&#xd9;" glyph-name="Ugrave" horiz-adv-x="681" d="M573 692Q536 698 496 705T417 719Q375 725 347 741T318 788Q318 819 334 836T374 853Q398 853 416 843T457 812Q480 792 510 765T579 703L573 692ZM756 645Q750 644 741 643T724 639Q711 634
699 627T675 602Q666 590 653 558T626 471L562 214Q549 160 529 118T477 47T403 2T300 -14Q238 -14 195 0T123 41T83 105T70 187Q70 197 72 214T78 250T86 290T95 327L126 451Q137 496 142 525T147 572Q147 597 138 611T112 634Q98 639 88 641T69 645L72 657H451L448
645Q431 644 413 636Q396 628 386 619T365 593Q354 577 344 550T321 470L260 218Q254 194 251 172T248 126Q248 82 272 53T347 23Q414 23 462 72T533 215L597 469Q605 504 609 532T614 575Q614 600 603 615T573 638Q566 641 556 642T534 645L538 657H758L756 645Z"
/>
<glyph unicode="&#xda;" glyph-name="Uacute" horiz-adv-x="681" d="M362 702Q407 739 438 765T493 814Q516 835 534 843T575 852Q598 852 615 836T633 788Q633 761 613 747T569 726Q554 722 532 718T482 710T426 701T367 691L362 702ZM756 645Q750 644 741 643T724
639Q711 634 699 627T675 602Q666 590 653 558T626 471L562 214Q549 160 529 118T477 47T403 2T300 -14Q238 -14 195 0T123 41T83 105T70 187Q70 197 72 214T78 250T86 290T95 327L126 451Q137 496 142 525T147 572Q147 597 138 611T112 634Q98 639 88 641T69 645L72
657H451L448 645Q431 644 413 636Q396 628 386 619T365 593Q354 577 344 550T321 470L260 218Q254 194 251 172T248 126Q248 82 272 53T347 23Q414 23 462 72T533 215L597 469Q605 504 609 532T614 575Q614 600 603 615T573 638Q566 641 556 642T534 645L538 657H758L756
645Z" />
<glyph unicode="&#xdb;" glyph-name="Ucircumflex" horiz-adv-x="681" d="M606 703L484 762L316 702L312 711L467 848H532L614 711L606 703ZM756 645Q750 644 741 643T724 639Q711 634 699 627T675 602Q666 590 653 558T626 471L562 214Q549 160 529 118T477 47T403
2T300 -14Q238 -14 195 0T123 41T83 105T70 187Q70 197 72 214T78 250T86 290T95 327L126 451Q137 496 142 525T147 572Q147 597 138 611T112 634Q98 639 88 641T69 645L72 657H451L448 645Q431 644 413 636Q396 628 386 619T365 593Q354 577 344 550T321 470L260
218Q254 194 251 172T248 126Q248 82 272 53T347 23Q414 23 462 72T533 215L597 469Q605 504 609 532T614 575Q614 600 603 615T573 638Q566 641 556 642T534 645L538 657H758L756 645Z" />
<glyph unicode="&#xdc;" glyph-name="Udieresis" horiz-adv-x="681" d="M756 645Q750 644 741 643T724 639Q711 634 699 627T675 602Q666 590 653 558T626 471L562 214Q549 160 529 118T477 47T403 2T300 -14Q238 -14 195 0T123 41T83 105T70 187Q70 197 72 214T78
250T86 290T95 327L126 451Q137 496 142 525T147 572Q147 597 138 611T112 634Q98 639 88 641T69 645L72 657H451L448 645Q431 644 413 636Q396 628 386 619T365 593Q354 577 344 550T321 470L260 218Q254 194 251 172T248 126Q248 82 272 53T347 23Q414 23 462
72T533 215L597 469Q605 504 609 532T614 575Q614 600 603 615T573 638Q566 641 556 642T534 645L538 657H758L756 645ZM286 775Q286 806 307 829T361 852Q377 852 391 846T415 829T432 804T438 775Q438 745 416 723T361 700Q328 700 307 722T286 775ZM521 775Q521
806 542 829T596 852Q612 852 626 846T650 829T667 804T673 775Q673 745 651 723T596 700Q563 700 542 722T521 775Z" />
<glyph unicode="&#xdd;" glyph-name="Yacute" horiz-adv-x="612" d="M731 645Q703 641 674 625Q651 612 619 584T544 494L388 274L373 207Q362 162 357 133T351 86Q351 61 360 47T387 24Q412 13 429 12L426 0H32L35 12Q45 13 57 16T78 22Q95 27 107 38T131 65Q145
88 157 123T180 203L196 265L126 536Q112 587 88 612T31 645L33 657H397L395 645Q387 644 375 642T354 636Q343 631 333 621T322 590Q322 575 327 556T338 514L385 325H390L520 506Q548 545 557 565T566 602Q566 615 559 623T544 635Q538 638 529 641T511 645L514
657H734L731 645ZM341 702Q386 739 417 765T472 814Q495 835 513 843T554 852Q577 852 594 836T612 788Q612 761 592 747T548 726Q533 722 511 718T461 710T405 701T346 691L341 702Z" />
<glyph unicode="&#xde;" glyph-name="Thorn" horiz-adv-x="636" d="M257 157L249 119Q245 100 245 84Q245 57 254 45T282 23Q292 18 303 16T322 12L319 0H-70L-68 12Q-57 13 -45 15T-25 22Q-7 29 5 39T28 65Q42 88 53 120T78 204L139 450Q150 495 155 524T161
571Q161 596 152 610T125 633Q99 643 83 645L86 657H465L461 645Q444 642 428 636Q410 628 400 620T379 594Q366 573 360 555T348 515L410 516Q475 517 517 506T584 474T618 426T628 366Q628 340 617 314T588 264T545 221T495 189Q464 175 417 166T298 157H257ZM391
229Q404 247 414 272T432 325T442 380T446 431Q446 456 434 473T396 491H381Q357 491 341 471Q336 465 334 458T326 432L264 181H302Q334 181 353 192T391 229Z" />
<glyph unicode="&#xdf;" glyph-name="germandbls" horiz-adv-x="621" d="M579 588Q579 563 568 545T540 512T504 486T468 464T440 442T429 416Q429 400 440 384T467 352T500 322T530 297Q572 260 591 227T611 152Q611 117 597 88T557 37T496 3T421 -9Q350 -9 305
19T260 98Q260 130 278 146T320 162Q372 162 379 111Q381 94 378 77T377 46Q378 36 383 30T396 19T412 13T429 11Q487 11 487 61Q487 71 485 78T473 97T448 124T405 166Q392 179 378 195T351 229T331 268T323 309Q323 337 334 358T363 398T400 433T437 470T465
515T477 574Q477 618 462 642T418 666Q398 666 380 653T350 616Q341 599 334 578T320 533T309 486T298 442Q264 311 224 193T132 -16T12 -159T-146 -212Q-168 -212 -189 -207T-227 -189T-254 -160T-264 -118Q-264 -103 -258 -92T-244 -73T-225 -61T-205 -57Q-171
-57 -158 -73T-143 -109Q-142 -117 -143 -125L-146 -142Q-148 -151 -149 -158T-149 -170Q-148 -181 -142 -185T-127 -190Q-104 -190 -89 -179T-59 -140Q-42 -109 -23 -46T16 98T57 269T100 443Q122 512 158 558T237 633T324 673T408 685Q489 685 534 658T579 588Z"
/>
<glyph unicode="&#xe0;" glyph-name="agrave" horiz-adv-x="566" d="M436 79Q436 66 441 61T454 56Q470 56 497 78T548 136L561 129Q543 99 520 74T468 31T408 2T342 -9Q310 -9 290 9T269 64Q269 78 271 92T275 115H272L261 94Q257 85 252 78T241 63T226 45Q204
20 174 6T117 -9Q65 -9 35 20T4 123Q4 185 31 245T101 352T199 428T308 457Q341 457 357 444T375 415H382Q388 426 392 432T402 447H548Q536 409 519 356T482 244Q461 181 449 142T436 79ZM352 395Q352 417 347 424T332 432Q324 432 311 423T278 379Q262 350 244
307T209 219T183 138T172 84Q172 61 178 56T191 51Q203 51 215 63T239 92Q249 108 255 119T266 141T275 162T284 187Q296 216 308 246T329 303T345 354T352 395ZM273 681Q313 681 349 635Q370 608 395 573T449 500L442 490Q413 498 377 510T303 536Q259 552 238
574T217 619Q217 650 234 665T273 681Z" />
<glyph unicode="&#xe1;" glyph-name="aacute" horiz-adv-x="566" d="M436 79Q436 66 441 61T454 56Q470 56 497 78T548 136L561 129Q543 99 520 74T468 31T408 2T342 -9Q310 -9 290 9T269 64Q269 78 271 92T275 115H272L261 94Q257 85 252 78T241 63T226 45Q204
20 174 6T117 -9Q65 -9 35 20T4 123Q4 185 31 245T101 352T199 428T308 457Q341 457 357 444T375 415H382Q388 426 392 432T402 447H548Q536 409 519 356T482 244Q461 181 449 142T436 79ZM352 395Q352 417 347 424T332 432Q324 432 311 423T278 379Q262 350 244
307T209 219T183 138T172 84Q172 61 178 56T191 51Q203 51 215 63T239 92Q249 108 255 119T266 141T275 162T284 187Q296 216 308 246T329 303T345 354T352 395ZM542 618Q542 589 522 573T474 546Q445 535 393 520T283 491L280 502Q319 547 346 577T398 631Q421
653 440 666T480 680Q506 680 524 667T542 618Z" />
<glyph unicode="&#xe2;" glyph-name="acircumflex" horiz-adv-x="566" d="M436 79Q436 66 441 61T454 56Q470 56 497 78T548 136L561 129Q543 99 520 74T468 31T408 2T342 -9Q310 -9 290 9T269 64Q269 78 271 92T275 115H272L261 94Q257 85 252 78T241 63T226
45Q204 20 174 6T117 -9Q65 -9 35 20T4 123Q4 185 31 245T101 352T199 428T308 457Q341 457 357 444T375 415H382Q388 426 392 432T402 447H548Q536 409 519 356T482 244Q461 181 449 142T436 79ZM352 395Q352 417 347 424T332 432Q324 432 311 423T278 379Q262
350 244 307T209 219T183 138T172 84Q172 61 178 56T191 51Q203 51 215 63T239 92Q249 108 255 119T266 141T275 162T284 187Q296 216 308 246T329 303T345 354T352 395ZM496 485L375 563L207 484L199 494L365 667H429L504 492L496 485Z" />
<glyph unicode="&#xe3;" glyph-name="atilde" horiz-adv-x="566" d="M436 79Q436 66 441 61T454 56Q470 56 497 78T548 136L561 129Q543 99 520 74T468 31T408 2T342 -9Q310 -9 290 9T269 64Q269 78 271 92T275 115H272L261 94Q257 85 252 78T241 63T226 45Q204
20 174 6T117 -9Q65 -9 35 20T4 123Q4 185 31 245T101 352T199 428T308 457Q341 457 357 444T375 415H382Q388 426 392 432T402 447H548Q536 409 519 356T482 244Q461 181 449 142T436 79ZM352 395Q352 417 347 424T332 432Q324 432 311 423T278 379Q262 350 244
307T209 219T183 138T172 84Q172 61 178 56T191 51Q203 51 215 63T239 92Q249 108 255 119T266 141T275 162T284 187Q296 216 308 246T329 303T345 354T352 395ZM557 663Q549 634 537 609T509 564T471 533T422 522Q406 522 389 526T355 535T323 545T296 549Q273
549 252 538T216 498L200 500Q208 531 220 557T249 603T290 634T343 645Q355 645 369 641T398 633T431 624T465 620Q491 620 508 628T541 665L557 663Z" />
<glyph unicode="&#xe4;" glyph-name="adieresis" horiz-adv-x="566" d="M436 79Q436 66 441 61T454 56Q470 56 497 78T548 136L561 129Q543 99 520 74T468 31T408 2T342 -9Q310 -9 290 9T269 64Q269 78 271 92T275 115H272L261 94Q257 85 252 78T241 63T226 45Q204
20 174 6T117 -9Q65 -9 35 20T4 123Q4 185 31 245T101 352T199 428T308 457Q341 457 357 444T375 415H382Q388 426 392 432T402 447H548Q536 409 519 356T482 244Q461 181 449 142T436 79ZM352 395Q352 417 347 424T332 432Q324 432 311 423T278 379Q262 350 244
307T209 219T183 138T172 84Q172 61 178 56T191 51Q203 51 215 63T239 92Q249 108 255 119T266 141T275 162T284 187Q296 216 308 246T329 303T345 354T352 395ZM193 570Q193 601 214 623T267 645Q299 645 320 623T342 570Q342 541 321 519T267 497Q235 497 214
519T193 570ZM387 570Q387 601 408 623T461 645Q493 645 514 623T536 570Q536 541 515 519T461 497Q428 497 408 519T387 570Z" />
<glyph unicode="&#xe5;" glyph-name="aring" horiz-adv-x="566" d="M436 79Q436 66 441 61T454 56Q470 56 497 78T548 136L561 129Q543 99 520 74T468 31T408 2T342 -9Q310 -9 290 9T269 64Q269 78 271 92T275 115H272L261 94Q257 85 252 78T241 63T226 45Q204
20 174 6T117 -9Q65 -9 35 20T4 123Q4 185 31 245T101 352T199 428T308 457Q341 457 357 444T375 415H382Q388 426 392 432T402 447H548Q536 409 519 356T482 244Q461 181 449 142T436 79ZM352 395Q352 417 347 424T332 432Q324 432 311 423T278 379Q262 350 244
307T209 219T183 138T172 84Q172 61 178 56T191 51Q203 51 215 63T239 92Q249 108 255 119T266 141T275 162T284 187Q296 216 308 246T329 303T345 354T352 395ZM465 590Q465 570 457 554T436 524T406 504T369 497Q329 497 302 523T274 590Q274 631 301 656T369
682Q409 682 436 657T465 590ZM428 589Q428 618 412 635T368 652Q340 652 324 635T308 590Q308 562 324 545T367 528Q396 528 412 544T428 589Z" />
<glyph unicode="&#xe6;" glyph-name="ae" horiz-adv-x="770" d="M769 363Q769 315 725 283Q713 274 691 264T639 243T575 222T506 204Q497 148 497 97Q497 69 506 54T541 38Q569 38 595 49T644 76T685 111T715 146L726 138Q708 108 685 82T631 35T561 3T473 -9Q394
-9 355 35T312 154H305Q292 128 275 97T240 45Q218 20 186 6T128 -9Q73 -9 44 24T14 123Q14 185 41 245T111 352T209 428T318 457Q351 457 363 444T378 415H384Q390 426 394 432T405 447H519Q518 445 515 434T510 420H514Q543 435 573 446T633 457Q702 457 735
429T769 363ZM363 395Q363 417 358 424T342 432Q334 432 322 423T289 379Q272 350 254 307T220 219T194 138T183 84Q183 61 189 56T202 51Q214 51 226 63T249 92Q259 108 265 119T276 141L285 162Q290 173 295 187Q307 216 319 246T340 303T356 354T363 395ZM657
398Q657 416 651 426T630 437Q610 437 592 420T559 373T531 305T510 224Q538 232 566 243T609 265Q624 277 633 294T648 331T655 368T657 398Z" />
<glyph unicode="&#xe7;" glyph-name="ccedilla" horiz-adv-x="481" d="M252 -110Q252 -127 245 -142T222 -169T177 -188T106 -195Q85 -195 66 -189T34 -176L41 -163Q51 -168 65 -171T94 -174Q129 -174 147 -157T166 -109Q166 -89 156 -75T129 -61Q113 -61 100
-72L85 -64L120 -3Q111 0 103 3Q76 15 57 36T27 88T16 156Q16 192 26 225T55 287T96 341T144 384Q195 421 248 439T344 457Q380 457 406 448T449 425T475 392T483 356Q483 325 463 307T413 288Q383 288 366 305T348 349Q348 359 350 368T355 387Q357 396 359 404T361
420Q361 437 342 437Q316 437 294 413T254 351Q242 321 232 291T214 233T203 180T199 136Q199 97 214 72T270 46Q290 46 311 55T352 79T389 111T418 146L429 138Q410 106 385 80T327 33T254 2T166 -9Q152 -9 139 -7L114 -51Q122 -46 137 -42T170 -38Q205 -38 228
-54T252 -110Z" />
<glyph unicode="&#xe8;" glyph-name="egrave" horiz-adv-x="471" d="M428 138Q412 110 389 84T334 37T263 4T174 -9Q141 -9 112 1T61 34T27 89T14 166Q14 206 25 241T57 306T103 360T159 402Q205 430 251 443T335 457Q407 457 438 431T470 363Q470 339 460 320T426
283Q414 274 393 264T343 244T280 223T208 204Q203 176 201 149T198 97Q198 69 210 51T248 32Q281 32 307 44T353 73T388 110T416 146L428 138ZM211 224Q240 232 262 241T298 261Q313 272 324 290T341 328T351 367T355 398Q355 416 350 426T331 437Q312 437 294
420T260 373T232 306T211 224ZM237 681Q277 681 313 635Q334 608 359 573T413 500L406 490Q377 498 341 510T267 536Q223 552 202 574T181 619Q181 650 198 665T237 681Z" />
<glyph unicode="&#xe9;" glyph-name="eacute" horiz-adv-x="471" d="M501 618Q501 589 481 573T433 546Q404 535 352 520T242 491L239 502Q278 547 305 577T357 631Q380 653 399 666T439 680Q465 680 483 667T501 618ZM428 138Q412 110 389 84T334 37T263 4T174
-9Q141 -9 112 1T61 34T27 89T14 166Q14 206 25 241T57 306T103 360T159 402Q205 430 251 443T335 457Q407 457 438 431T470 363Q470 339 460 320T426 283Q414 274 393 264T343 244T280 223T208 204Q203 176 201 149T198 97Q198 69 210 51T248 32Q281 32 307 44T353
73T388 110T416 146L428 138ZM211 224Q240 232 262 241T298 261Q313 272 324 290T341 328T351 367T355 398Q355 416 350 426T331 437Q312 437 294 420T260 373T232 306T211 224Z" />
<glyph unicode="&#xea;" glyph-name="ecircumflex" horiz-adv-x="471" d="M457 485L336 563L168 484L160 494L326 667H390L465 492L457 485ZM428 138Q412 110 389 84T334 37T263 4T174 -9Q141 -9 112 1T61 34T27 89T14 166Q14 206 25 241T57 306T103 360T159 402Q205
430 251 443T335 457Q407 457 438 431T470 363Q470 339 460 320T426 283Q414 274 393 264T343 244T280 223T208 204Q203 176 201 149T198 97Q198 69 210 51T248 32Q281 32 307 44T353 73T388 110T416 146L428 138ZM211 224Q240 232 262 241T298 261Q313 272 324
290T341 328T351 367T355 398Q355 416 350 426T331 437Q312 437 294 420T260 373T232 306T211 224Z" />
<glyph unicode="&#xeb;" glyph-name="edieresis" horiz-adv-x="471" d="M154 570Q154 601 175 623T228 645Q260 645 281 623T303 570Q303 541 282 519T228 497Q196 497 175 519T154 570ZM348 570Q348 601 369 623T422 645Q454 645 475 623T497 570Q497 541 476
519T422 497Q389 497 369 519T348 570ZM428 138Q412 110 389 84T334 37T263 4T174 -9Q141 -9 112 1T61 34T27 89T14 166Q14 206 25 241T57 306T103 360T159 402Q205 430 251 443T335 457Q407 457 438 431T470 363Q470 339 460 320T426 283Q414 274 393 264T343
244T280 223T208 204Q203 176 201 149T198 97Q198 69 210 51T248 32Q281 32 307 44T353 73T388 110T416 146L428 138ZM211 224Q240 232 262 241T298 261Q313 272 324 290T341 328T351 367T355 398Q355 416 350 426T331 437Q312 437 294 420T260 373T232 306T211
224Z" />
<glyph unicode="&#xec;" glyph-name="igrave" horiz-adv-x="346" d="M330 129Q312 99 288 74T233 30T170 1T102 -10Q69 -10 47 8T25 63Q25 89 41 133T78 228Q84 243 92 263T108 304T121 343T127 374Q127 388 122 391T108 394Q96 394 72 374T23 313L8 321Q49 390
106 423T224 457Q259 457 278 436T298 381Q298 364 286 321T252 224Q232 172 219 132T206 75Q206 56 222 56Q229 56 240 62T265 79T292 104T317 137L330 129ZM151 681Q191 681 227 635Q248 608 273 573T327 500L320 490Q291 498 255 510T181 536Q137 552 116 574T95
619Q95 650 112 665T151 681Z" />
<glyph unicode="&#xed;" glyph-name="iacute" horiz-adv-x="346" d="M410 618Q410 589 390 573T342 546Q313 535 261 520T151 491L148 502Q187 547 214 577T266 631Q289 653 308 666T348 680Q374 680 392 667T410 618ZM330 129Q312 99 288 74T233 30T170 1T102
-10Q69 -10 47 8T25 63Q25 89 41 133T78 228Q84 243 92 263T108 304T121 343T127 374Q127 388 122 391T108 394Q96 394 72 374T23 313L8 321Q49 390 106 423T224 457Q259 457 278 436T298 381Q298 364 286 321T252 224Q232 172 219 132T206 75Q206 56 222 56Q229
56 240 62T265 79T292 104T317 137L330 129Z" />
<glyph unicode="&#xee;" glyph-name="icircumflex" horiz-adv-x="346" d="M625 485L504 563L336 484L328 494L494 667H558L633 492L625 485ZM330 129Q312 99 288 74T233 30T170 1T102 -10Q69 -10 47 8T25 63Q25 89 41 133T78 228Q84 243 92 263T108 304T121 343T127
374Q127 388 122 391T108 394Q96 394 72 374T23 313L8 321Q49 390 106 423T224 457Q259 457 278 436T298 381Q298 364 286 321T252 224Q232 172 219 132T206 75Q206 56 222 56Q229 56 240 62T265 79T292 104T317 137L330 129Z" />
<glyph unicode="&#xef;" glyph-name="idieresis" horiz-adv-x="346" d="M66 570Q66 601 87 623T140 645Q172 645 193 623T215 570Q215 541 194 519T140 497Q108 497 87 519T66 570ZM260 570Q260 601 281 623T334 645Q366 645 387 623T409 570Q409 541 388 519T334
497Q301 497 281 519T260 570ZM330 129Q312 99 288 74T233 30T170 1T102 -10Q69 -10 47 8T25 63Q25 89 41 133T78 228Q84 243 92 263T108 304T121 343T127 374Q127 388 122 391T108 394Q96 394 72 374T23 313L8 321Q49 390 106 423T224 457Q259 457 278 436T298
381Q298 364 286 321T252 224Q232 172 219 132T206 75Q206 56 222 56Q229 56 240 62T265 79T292 104T317 137L330 129Z" />
<glyph unicode="&#xf0;" glyph-name="eth" horiz-adv-x="510" d="M184 524L274 563Q268 571 262 579Q240 609 216 635T168 684H185Q244 660 299 627Q325 612 347 595L446 638L440 612L366 580Q383 565 398 549Q442 504 468 445T494 308Q494 216 465 156T392 59Q356
27 306 9T199 -9Q156 -9 122 5T64 44T28 104T15 180Q15 240 42 295T113 388Q149 420 198 438T303 457Q313 457 319 456T331 452Q320 485 302 517Q294 531 286 545L178 498L184 524ZM336 410Q336 422 330 430T312 439Q301 439 290 431T263 390Q255 374 245 347T225
288T205 220T187 151T175 90T170 43Q170 31 174 20T194 9Q205 9 216 16T242 53Q254 80 270 125T301 221T326 322T336 410Z" />
<glyph unicode="&#xf1;" glyph-name="ntilde" horiz-adv-x="619" d="M607 130Q589 100 564 75T510 31T447 2T379 -9Q346 -9 324 9T302 64Q302 90 318 135T355 231Q378 286 391 317T404 365Q404 377 399 381T385 386Q375 386 361 373T329 331T287 256T237 141Q224
109 211 73T185 0H11Q22 33 35 72T60 149T82 216T98 263Q109 295 115 318T122 367Q122 398 101 398Q88 398 66 376T18 313L3 321Q42 389 92 423T198 457Q242 457 262 436T282 380Q282 357 278 326T265 266H272Q297 320 323 356T376 415T426 447T472 457Q529 457
550 431T572 360Q572 328 560 294T525 205Q484 105 484 76Q484 56 498 56Q505 56 516 62T541 79T569 105T594 137L607 130ZM569 663Q561 634 549 609T521 564T483 533T434 522Q418 522 401 526T367 535T335 545T308 549Q285 549 264 538T228 498L212 500Q220 531
232 557T261 603T302 634T355 645Q367 645 381 641T410 633T443 624T477 620Q503 620 520 628T553 665L569 663Z" />
<glyph unicode="&#xf2;" glyph-name="ograve" horiz-adv-x="514" d="M203 -9Q160 -9 125 5T66 44T28 104T15 180Q15 240 42 295T113 388Q149 420 200 438T308 457Q351 457 385 443T444 404T482 343T495 267Q495 207 468 152T397 59Q361 27 310 9T203 -9ZM313 439Q304
439 292 431T263 389Q251 365 236 319T206 221T181 121T171 43Q171 31 176 20T197 9Q206 9 219 16T247 55Q259 81 275 126T305 222T329 324T339 411Q339 423 332 431T313 439ZM243 681Q283 681 319 635Q340 608 365 573T419 500L412 490Q383 498 347 510T273 536Q229
552 208 574T187 619Q187 650 204 665T243 681Z" />
<glyph unicode="&#xf3;" glyph-name="oacute" horiz-adv-x="514" d="M504 618Q504 589 484 573T436 546Q407 535 355 520T245 491L242 502Q281 547 308 577T360 631Q383 653 402 666T442 680Q468 680 486 667T504 618ZM203 -9Q160 -9 125 5T66 44T28 104T15 180Q15
240 42 295T113 388Q149 420 200 438T308 457Q351 457 385 443T444 404T482 343T495 267Q495 207 468 152T397 59Q361 27 310 9T203 -9ZM313 439Q304 439 292 431T263 389Q251 365 236 319T206 221T181 121T171 43Q171 31 176 20T197 9Q206 9 219 16T247 55Q259
81 275 126T305 222T329 324T339 411Q339 423 332 431T313 439Z" />
<glyph unicode="&#xf4;" glyph-name="ocircumflex" horiz-adv-x="514" d="M460 485L339 563L171 484L163 494L329 667H393L468 492L460 485ZM203 -9Q160 -9 125 5T66 44T28 104T15 180Q15 240 42 295T113 388Q149 420 200 438T308 457Q351 457 385 443T444 404T482
343T495 267Q495 207 468 152T397 59Q361 27 310 9T203 -9ZM313 439Q304 439 292 431T263 389Q251 365 236 319T206 221T181 121T171 43Q171 31 176 20T197 9Q206 9 219 16T247 55Q259 81 275 126T305 222T329 324T339 411Q339 423 332 431T313 439Z" />
<glyph unicode="&#xf5;" glyph-name="otilde" horiz-adv-x="514" d="M203 -9Q160 -9 125 5T66 44T28 104T15 180Q15 240 42 295T113 388Q149 420 200 438T308 457Q351 457 385 443T444 404T482 343T495 267Q495 207 468 152T397 59Q361 27 310 9T203 -9ZM313 439Q304
439 292 431T263 389Q251 365 236 319T206 221T181 121T171 43Q171 31 176 20T197 9Q206 9 219 16T247 55Q259 81 275 126T305 222T329 324T339 411Q339 423 332 431T313 439ZM522 663Q514 634 502 609T474 564T436 533T387 522Q371 522 354 526T320 535T288 545T261
549Q238 549 217 538T181 498L165 500Q173 531 185 557T214 603T255 634T308 645Q320 645 334 641T363 633T396 624T430 620Q456 620 473 628T506 665L522 663Z" />
<glyph unicode="&#xf6;" glyph-name="odieresis" horiz-adv-x="514" d="M158 570Q158 601 179 623T232 645Q264 645 285 623T307 570Q307 541 286 519T232 497Q200 497 179 519T158 570ZM352 570Q352 601 373 623T426 645Q458 645 479 623T501 570Q501 541 480
519T426 497Q393 497 373 519T352 570ZM203 -9Q160 -9 125 5T66 44T28 104T15 180Q15 240 42 295T113 388Q149 420 200 438T308 457Q351 457 385 443T444 404T482 343T495 267Q495 207 468 152T397 59Q361 27 310 9T203 -9ZM313 439Q304 439 292 431T263 389Q251
365 236 319T206 221T181 121T171 43Q171 31 176 20T197 9Q206 9 219 16T247 55Q259 81 275 126T305 222T329 324T339 411Q339 423 332 431T313 439Z" />
<glyph unicode="&#xf7;" glyph-name="divide" horiz-adv-x="546" d="M27 244V280H501V244H27ZM345 417Q345 398 338 384T320 360T294 345T264 340Q249 340 235 345T210 361T191 385T184 417Q184 435 191 450T209 475T235 492T264 498Q279 498 293 493T319 477T338
451T345 417ZM345 111Q345 92 338 78T320 53T294 38T264 33Q249 33 235 38T210 54T191 79T184 111Q184 129 191 144T209 169T235 186T264 192Q279 192 293 187T319 171T338 145T345 111Z" />
<glyph unicode="&#xf8;" glyph-name="oslash" horiz-adv-x="514" d="M495 267Q495 207 468 152T397 59Q361 27 310 9T203 -9Q170 -9 142 -1L111 -58L91 -47L120 6Q88 20 65 44Q41 69 28 104T15 180Q15 240 42 295T113 388Q149 420 200 438T308 457Q338 457 365
450L402 517L422 507L386 442Q420 428 444 403Q469 378 482 343T495 267ZM176 20Q181 9 197 9Q206 9 219 16T247 55Q259 81 275 126T305 222T329 324Q331 335 333 345L171 51V43Q171 31 176 20ZM339 411Q339 423 332 431T313 439Q304 439 292 431T263 389Q251 365
236 319T206 221T181 120Q180 117 179 113L339 403V411Z" />
<glyph unicode="&#xf9;" glyph-name="ugrave" horiz-adv-x="626" d="M493 76Q493 54 511 54Q526 54 553 78T603 137L616 129Q598 99 576 74T529 31T474 2T412 -9Q372 -9 349 13T326 80Q326 100 332 126T347 180H339Q310 120 284 83T232 26T182 -2T131 -9Q94 -9
67 16T40 87Q40 105 43 121T53 155T67 194T87 242Q108 293 117 321T127 369Q127 398 106 398Q93 398 71 376T23 313L10 321Q49 389 99 423T205 457Q257 457 282 433T307 373Q307 347 293 307T258 216Q235 161 223 131T211 83Q211 70 216 66T230 61Q240 61 254 75T287
119T329 197T379 313Q392 345 405 378T430 447H605Q594 414 581 374T555 296T532 227T516 179Q505 147 499 124T493 76ZM299 681Q339 681 375 635Q396 608 421 573T475 500L468 490Q439 498 403 510T329 536Q285 552 264 574T243 619Q243 650 260 665T299 681Z"
/>
<glyph unicode="&#xfa;" glyph-name="uacute" horiz-adv-x="626" d="M558 618Q558 589 538 573T490 546Q461 535 409 520T299 491L296 502Q335 547 362 577T414 631Q437 653 456 666T496 680Q522 680 540 667T558 618ZM493 76Q493 54 511 54Q526 54 553 78T603
137L616 129Q598 99 576 74T529 31T474 2T412 -9Q372 -9 349 13T326 80Q326 100 332 126T347 180H339Q310 120 284 83T232 26T182 -2T131 -9Q94 -9 67 16T40 87Q40 105 43 121T53 155T67 194T87 242Q108 293 117 321T127 369Q127 398 106 398Q93 398 71 376T23
313L10 321Q49 389 99 423T205 457Q257 457 282 433T307 373Q307 347 293 307T258 216Q235 161 223 131T211 83Q211 70 216 66T230 61Q240 61 254 75T287 119T329 197T379 313Q392 345 405 378T430 447H605Q594 414 581 374T555 296T532 227T516 179Q505 147 499
124T493 76Z" />
<glyph unicode="&#xfb;" glyph-name="ucircumflex" horiz-adv-x="626" d="M517 485L396 563L228 484L220 494L386 667H450L525 492L517 485ZM493 76Q493 54 511 54Q526 54 553 78T603 137L616 129Q598 99 576 74T529 31T474 2T412 -9Q372 -9 349 13T326 80Q326
100 332 126T347 180H339Q310 120 284 83T232 26T182 -2T131 -9Q94 -9 67 16T40 87Q40 105 43 121T53 155T67 194T87 242Q108 293 117 321T127 369Q127 398 106 398Q93 398 71 376T23 313L10 321Q49 389 99 423T205 457Q257 457 282 433T307 373Q307 347 293 307T258
216Q235 161 223 131T211 83Q211 70 216 66T230 61Q240 61 254 75T287 119T329 197T379 313Q392 345 405 378T430 447H605Q594 414 581 374T555 296T532 227T516 179Q505 147 499 124T493 76Z" />
<glyph unicode="&#xfc;" glyph-name="udieresis" horiz-adv-x="626" d="M214 570Q214 601 235 623T288 645Q320 645 341 623T363 570Q363 541 342 519T288 497Q256 497 235 519T214 570ZM408 570Q408 601 429 623T482 645Q514 645 535 623T557 570Q557 541 536
519T482 497Q449 497 429 519T408 570ZM493 76Q493 54 511 54Q526 54 553 78T603 137L616 129Q598 99 576 74T529 31T474 2T412 -9Q372 -9 349 13T326 80Q326 100 332 126T347 180H339Q310 120 284 83T232 26T182 -2T131 -9Q94 -9 67 16T40 87Q40 105 43 121T53
155T67 194T87 242Q108 293 117 321T127 369Q127 398 106 398Q93 398 71 376T23 313L10 321Q49 389 99 423T205 457Q257 457 282 433T307 373Q307 347 293 307T258 216Q235 161 223 131T211 83Q211 70 216 66T230 61Q240 61 254 75T287 119T329 197T379 313Q392
345 405 378T430 447H605Q594 414 581 374T555 296T532 227T516 179Q505 147 499 124T493 76Z" />
<glyph unicode="&#xfd;" glyph-name="yacute" horiz-adv-x="456" d="M77 379Q64 379 47 365T9 312L-6 320Q28 388 71 422T178 457Q223 457 250 425T292 345Q297 326 302 298T310 238T316 176T319 120H323Q355 173 371 215T388 296Q388 316 384 334T369 369Q363
378 358 387T352 407Q352 434 366 445T397 457Q418 457 430 442T443 404Q443 349 427 294T385 186T326 85T258 -6T190 -82T131 -138Q96 -170 55 -191T-25 -213Q-70 -213 -92 -191T-114 -142Q-114 -126 -109 -114T-95 -95T-76 -84T-57 -80Q-30 -80 -18 -88T8 -114Q16
-123 29 -136T59 -149Q68 -149 82 -142T110 -123Q126 -109 142 -95T176 -60Q176 -31 172 15T162 113T146 215T125 301Q114 339 106 359T77 379ZM465 618Q465 589 445 573T397 546Q368 535 316 520T206 491L203 502Q242 547 269 577T321 631Q344 653 363 666T403
680Q429 680 447 667T465 618Z" />
<glyph unicode="&#xfe;" glyph-name="thorn" horiz-adv-x="547" d="M395 457Q422 457 447 450T490 424T520 377T532 304Q532 241 502 180T423 69Q388 34 339 13T234 -9Q202 -9 181 -4T149 8L120 -80Q114 -97 110 -115T105 -148Q105 -161 110 -173T129 -193Q135
-197 147 -200T170 -206L166 -217H-168L-165 -206Q-150 -204 -135 -199T-110 -185Q-99 -175 -91 -162T-73 -118Q-29 14 12 141Q30 195 48 252T85 366T121 475T153 570Q159 590 162 603T165 628Q165 649 152 660Q147 665 136 668T113 674L117 684H357Q363 684 363
679Q363 675 358 665T348 640Q344 630 341 622T335 603T327 581T318 553L264 382H270Q294 417 328 437T395 457ZM368 390Q368 401 362 410T346 420Q330 420 320 412T296 388Q281 370 266 343T240 288Q233 269 222 235T199 163T177 93T161 44Q164 32 176 24T204
15Q214 15 222 18T239 31T257 54T278 91Q289 112 304 150T334 231T358 317T368 390Z" />
<glyph unicode="&#xff;" glyph-name="ydieresis" horiz-adv-x="456" d="M77 379Q64 379 47 365T9 312L-6 320Q28 388 71 422T178 457Q223 457 250 425T292 345Q297 326 302 298T310 238T316 176T319 120H323Q355 173 371 215T388 296Q388 316 384 334T369 369Q363
378 358 387T352 407Q352 434 366 445T397 457Q418 457 430 442T443 404Q443 349 427 294T385 186T326 85T258 -6T190 -82T131 -138Q96 -170 55 -191T-25 -213Q-70 -213 -92 -191T-114 -142Q-114 -126 -109 -114T-95 -95T-76 -84T-57 -80Q-30 -80 -18 -88T8 -114Q16
-123 29 -136T59 -149Q68 -149 82 -142T110 -123Q126 -109 142 -95T176 -60Q176 -31 172 15T162 113T146 215T125 301Q114 339 106 359T77 379ZM109 570Q109 601 130 623T183 645Q215 645 236 623T258 570Q258 541 237 519T183 497Q151 497 130 519T109 570ZM303
570Q303 601 324 623T377 645Q409 645 430 623T452 570Q452 541 431 519T377 497Q344 497 324 519T303 570Z" />
<glyph unicode="&#x100;" glyph-name="Amacron" horiz-adv-x="658" d="M199 275H356L420 528H414L199 275ZM349 248H175L90 148Q72 126 63 108T54 71Q54 41 79 27Q103 15 132 12L130 0H-140L-137 12Q-126 14 -111 18T-86 28Q-50 45 -18 73T47 139L489 657H646L531
207Q519 162 515 133T510 86Q510 61 519 47T545 24Q572 13 587 12L584 0H204L207 12Q217 13 228 16T246 22Q263 29 272 38T293 65Q307 88 317 120T339 204L349 248ZM425 707L441 769H731L715 707H425Z" />
<glyph unicode="&#x101;" glyph-name="amacron" horiz-adv-x="566" d="M436 79Q436 66 441 61T454 56Q470 56 497 78T548 136L561 129Q543 99 520 74T468 31T408 2T342 -9Q310 -9 290 9T269 64Q269 78 271 92T275 115H272L261 94Q257 85 252 78T241 63T226 45Q204
20 174 6T117 -9Q65 -9 35 20T4 123Q4 185 31 245T101 352T199 428T308 457Q341 457 357 444T375 415H382Q388 426 392 432T402 447H548Q536 409 519 356T482 244Q461 181 449 142T436 79ZM352 395Q352 417 347 424T332 432Q324 432 311 423T278 379Q262 350 244
307T209 219T183 138T172 84Q172 61 178 56T191 51Q203 51 215 63T239 92Q249 108 255 119T266 141T275 162T284 187Q296 216 308 246T329 303T345 354T352 395ZM241 536L257 598H507L491 536H241Z" />
<glyph unicode="&#x102;" glyph-name="Abreve" horiz-adv-x="658" d="M199 275H356L420 528H414L199 275ZM349 248H175L90 148Q72 126 63 108T54 71Q54 41 79 27Q103 15 132 12L130 0H-140L-137 12Q-126 14 -111 18T-86 28Q-50 45 -18 73T47 139L489 657H646L531
207Q519 162 515 133T510 86Q510 61 519 47T545 24Q572 13 587 12L584 0H204L207 12Q217 13 228 16T246 22Q263 29 272 38T293 65Q307 88 317 120T339 204L349 248ZM471 856Q482 822 511 802T585 781Q630 781 666 801T725 856L737 849Q723 775 683 737T577 698Q520
698 488 731T455 809Q455 819 456 829T459 851L471 856Z" />
<glyph unicode="&#x103;" glyph-name="abreve" horiz-adv-x="566" d="M436 79Q436 66 441 61T454 56Q470 56 497 78T548 136L561 129Q543 99 520 74T468 31T408 2T342 -9Q310 -9 290 9T269 64Q269 78 271 92T275 115H272L261 94Q257 85 252 78T241 63T226 45Q204
20 174 6T117 -9Q65 -9 35 20T4 123Q4 185 31 245T101 352T199 428T308 457Q341 457 357 444T375 415H382Q388 426 392 432T402 447H548Q536 409 519 356T482 244Q461 181 449 142T436 79ZM352 395Q352 417 347 424T332 432Q324 432 311 423T278 379Q262 350 244
307T209 219T183 138T172 84Q172 61 178 56T191 51Q203 51 215 63T239 92Q249 108 255 119T266 141T275 162T284 187Q296 216 308 246T329 303T345 354T352 395ZM270 672Q281 639 310 618T376 597Q418 597 453 617T509 672L522 665Q508 591 470 553T369 514Q317
514 287 547T255 625Q255 635 255 645T258 667L270 672Z" />
<glyph unicode="&#x104;" glyph-name="Aogonek" horiz-adv-x="658" d="M199 275H356L420 528H414L199 275ZM349 248H175L90 148Q72 126 63 108T54 71Q54 41 79 27Q103 15 132 12L130 0H-140L-137 12Q-126 14 -111 18T-86 28Q-50 45 -18 73T47 139L489 657H646L531
207Q519 162 515 133T510 86Q510 61 519 47T545 24Q572 13 587 12L584 0H390Q349 0 323 -1T279 -6T249 -15T226 -30Q201 -49 188 -81T174 -147Q174 -200 233 -205L229 -217Q141 -219 98 -199T55 -141Q55 -119 68 -103T102 -73T147 -49T193 -28Q232 -11 255 6T290
49Q303 73 314 111T339 204L349 248Z" />
<glyph unicode="&#x105;" glyph-name="aogonek" horiz-adv-x="566" d="M172 -140Q172 -115 191 -96T240 -61T303 -32Q336 -19 364 -7Q358 -9 353 -9H341Q309 -9 289 10T269 64Q269 78 271 92T275 115H272L261 94Q257 85 252 78T241 63T226 45Q204 20 174 6T117
-9Q65 -9 35 20T4 123Q4 185 31 245T101 352T199 428T308 457Q341 457 357 444T375 415H382Q388 426 392 432T402 447H548Q546 441 537 412T516 349T495 284T482 244Q461 181 449 142T436 79Q436 66 441 61T454 56Q470 56 497 78T548 136L561 129Q535 87 501 56T424
7Q400 -4 376 -20T333 -56T303 -100T291 -147Q291 -200 349 -205L346 -217Q258 -219 215 -199T172 -140ZM352 395Q352 417 347 424T332 432Q324 432 311 423T278 379Q262 350 244 307T209 219T183 138T172 84Q172 61 178 56T191 51Q203 51 215 63T239 92Q249 108
255 119T266 141T275 162T284 187Q296 216 308 246T329 303T345 354T352 395Z" />
<glyph unicode="&#x106;" glyph-name="Cacute" horiz-adv-x="615" d="M586 402H573Q574 465 563 511T532 588T486 633T432 648Q391 648 366 626T319 569Q305 547 285 498T247 385T216 254T203 126Q203 100 211 79T235 44Q254 26 289 26Q329 26 368 42T442 87T504
151T550 225L566 216Q546 170 515 128T445 55T361 5T267 -14Q203 -14 156 8T77 67T31 147T15 236Q15 327 44 406T128 544T257 637T425 671Q454 671 478 665T522 648T554 626T574 602H578L636 647H648L586 402ZM328 702Q373 739 404 765T459 814Q482 835 500 843T541
852Q564 852 581 836T599 788Q599 761 579 747T535 726Q520 722 498 718T448 710T392 701T333 691L328 702Z" />
<glyph unicode="&#x107;" glyph-name="cacute" horiz-adv-x="481" d="M512 618Q512 589 492 573T444 546Q415 535 363 520T253 491L250 502Q289 547 316 577T368 631Q391 653 410 666T450 680Q476 680 494 667T512 618ZM483 356Q483 325 463 307T413 288Q383 288
366 305T348 349Q348 359 350 368T355 387Q357 396 359 404T361 420Q361 437 342 437Q316 437 294 413T254 351Q242 321 232 291T214 233T203 180T199 136Q199 97 214 72T270 46Q290 46 311 55T352 79T389 111T418 146L429 138Q410 106 385 80T327 33T254 2T166
-9Q131 -9 104 3T57 36T27 88T16 156Q16 192 26 225T55 287T96 341T144 384Q195 421 248 439T344 457Q380 457 406 448T449 425T475 392T483 356Z" />
<glyph unicode="&#x108;" glyph-name="Ccircumflex" horiz-adv-x="615" d="M574 703L452 762L284 702L280 711L435 848H500L582 711L574 703ZM586 402H573Q574 465 563 511T532 588T486 633T432 648Q391 648 366 626T319 569Q305 547 285 498T247 385T216 254T203
126Q203 100 211 79T235 44Q254 26 289 26Q329 26 368 42T442 87T504 151T550 225L566 216Q546 170 515 128T445 55T361 5T267 -14Q203 -14 156 8T77 67T31 147T15 236Q15 327 44 406T128 544T257 637T425 671Q454 671 478 665T522 648T554 626T574 602H578L636
647H648L586 402Z" />
<glyph unicode="&#x109;" glyph-name="ccircumflex" horiz-adv-x="481" d="M467 485L346 563L178 484L170 494L336 667H400L475 492L467 485ZM483 356Q483 325 463 307T413 288Q383 288 366 305T348 349Q348 359 350 368T355 387Q357 396 359 404T361 420Q361
437 342 437Q316 437 294 413T254 351Q242 321 232 291T214 233T203 180T199 136Q199 97 214 72T270 46Q290 46 311 55T352 79T389 111T418 146L429 138Q410 106 385 80T327 33T254 2T166 -9Q131 -9 104 3T57 36T27 88T16 156Q16 192 26 225T55 287T96 341T144
384Q195 421 248 439T344 457Q380 457 406 448T449 425T475 392T483 356Z" />
<glyph unicode="&#x10a;" glyph-name="Cdotaccent" horiz-adv-x="615" d="M586 402H573Q574 465 563 511T532 588T486 633T432 648Q391 648 366 626T319 569Q305 547 285 498T247 385T216 254T203 126Q203 100 211 79T235 44Q254 26 289 26Q329 26 368 42T442
87T504 151T550 225L566 216Q546 170 515 128T445 55T361 5T267 -14Q203 -14 156 8T77 67T31 147T15 236Q15 327 44 406T128 544T257 637T425 671Q454 671 478 665T522 648T554 626T574 602H578L636 647H648L586 402ZM357 785Q357 803 363 818T381 846T408 865T442
872Q460 872 476 865T503 846T521 819T528 785Q528 750 504 725T442 699Q404 699 381 724T357 785Z" />
<glyph unicode="&#x10b;" glyph-name="cdotaccent" horiz-adv-x="481" d="M483 356Q483 325 463 307T413 288Q383 288 366 305T348 349Q348 359 350 368T355 387Q357 396 359 404T361 420Q361 437 342 437Q316 437 294 413T254 351Q242 321 232 291T214 233T203
180T199 136Q199 97 214 72T270 46Q290 46 311 55T352 79T389 111T418 146L429 138Q410 106 385 80T327 33T254 2T166 -9Q131 -9 104 3T57 36T27 88T16 156Q16 192 26 225T55 287T96 341T144 384Q195 421 248 439T344 457Q380 457 406 448T449 425T475 392T483
356ZM417 580Q417 546 394 522T334 497Q298 497 275 521T252 580Q252 597 258 612T275 638T301 657T334 664Q352 664 367 657T393 639T410 612T417 580Z" />
<glyph unicode="&#x10c;" glyph-name="Ccaron" horiz-adv-x="615" d="M333 847L456 788L623 849L628 839L473 702H408L325 839L333 847ZM586 402H573Q574 465 563 511T532 588T486 633T432 648Q391 648 366 626T319 569Q305 547 285 498T247 385T216 254T203 126Q203
100 211 79T235 44Q254 26 289 26Q329 26 368 42T442 87T504 151T550 225L566 216Q546 170 515 128T445 55T361 5T267 -14Q203 -14 156 8T77 67T31 147T15 236Q15 327 44 406T128 544T257 637T425 671Q454 671 478 665T522 648T554 626T574 602H578L636 647H648L586
402Z" />
<glyph unicode="&#x10d;" glyph-name="ccaron" horiz-adv-x="481" d="M226 665L347 581L515 667L523 656L357 483H293L218 658L226 665ZM483 356Q483 325 463 307T413 288Q383 288 366 305T348 349Q348 359 350 368T355 387Q357 396 359 404T361 420Q361 437 342
437Q316 437 294 413T254 351Q242 321 232 291T214 233T203 180T199 136Q199 97 214 72T270 46Q290 46 311 55T352 79T389 111T418 146L429 138Q410 106 385 80T327 33T254 2T166 -9Q131 -9 104 3T57 36T27 88T16 156Q16 192 26 225T55 287T96 341T144 384Q195
421 248 439T344 457Q380 457 406 448T449 425T475 392T483 356Z" />
<glyph unicode="&#x10e;" glyph-name="Dcaron" horiz-adv-x="715" d="M320 847L443 788L610 849L615 839L460 702H395L312 839L320 847ZM696 407Q696 362 685 314T653 222T605 140T545 78Q503 48 443 24T317 0H-70L-68 12Q-57 13 -46 16T-26 22Q6 32 28 65Q42
88 53 120T78 204L139 451Q150 496 155 524T160 571Q160 596 151 610T125 633Q98 644 83 645L86 657H437Q509 657 558 636T638 580T682 500T696 407ZM503 523Q503 584 483 610Q466 632 430 632H413Q394 632 382 621T361 577L259 167L246 115Q242 99 242 81Q242
53 254 39Q261 31 270 28T291 24H305Q337 24 359 43T405 102Q420 127 437 172T468 275T493 396T503 523Z" />
<glyph unicode="&#x10f;" glyph-name="dcaron" horiz-adv-x="569" d="M677 684H792Q770 658 752 636T715 590T677 542T633 485H617L677 684ZM271 115Q265 102 261 93T251 77T240 62T225 44Q203 19 173 5T116 -9Q58 -9 31 26T4 123Q4 185 34 245T112 352T216 428T328
457Q348 457 359 453T376 445H379L419 570Q426 590 428 603T431 628Q431 649 418 660Q413 665 403 668T380 674L383 684H624Q630 684 630 679Q630 675 626 665T616 640Q612 630 609 621T603 603T596 581T586 553Q555 463 535 404T503 309Q489 267 481 244Q461 185
450 142T438 75Q438 56 453 56Q469 56 496 78T547 136L560 129Q525 69 470 30T347 -9Q316 -9 293 9T269 64Q269 78 271 92T275 115H271ZM353 398Q353 420 348 426T332 433Q323 433 310 424T277 380Q261 351 243 309T209 222T183 140T172 84Q172 64 178 58T191 51Q203
51 215 62T238 91Q248 107 254 119T266 141T275 162T284 187L308 249Q320 280 330 308T346 359T353 398Z" />
<glyph unicode="&#x110;" glyph-name="Dcroat" horiz-adv-x="715" d="M32 348H113L139 451Q150 496 155 524T160 571Q160 596 151 610T125 633Q98 644 83 645L86 657H437Q509 657 558 636T638 580T682 500T696 407Q696 362 685 314T653 222T605 140T545 78Q503
48 443 24T317 0H-70L-68 12Q-57 13 -46 16T-26 22Q6 32 28 65Q42 88 53 120T78 204L106 317H24L32 348ZM405 102Q420 127 437 172T468 275T493 396T503 523Q503 585 483 611Q466 632 430 632H413Q394 632 382 621T361 577L304 348H410L403 317H296L259 167L246
115Q242 99 242 81Q242 53 254 39Q261 31 270 28T291 24H305Q337 24 359 43T405 102Z" />
<glyph unicode="&#x111;" glyph-name="dcroat" horiz-adv-x="569" d="M636 545H287L296 572H645L636 545ZM271 115Q265 102 261 93T251 77T240 62T225 44Q203 19 173 5T116 -9Q58 -9 31 26T4 123Q4 185 34 245T112 352T216 428T328 457Q348 457 359 453T376 445H379L419
570Q426 590 428 603T431 628Q431 649 418 660Q413 665 403 668T380 674L383 684H624Q630 684 630 679Q630 675 626 665T616 640Q612 630 609 621T603 603T596 581T586 553Q555 463 535 404T503 309Q489 267 481 244Q461 185 450 142T438 75Q438 56 453 56Q469
56 496 78T547 136L560 129Q525 69 470 30T347 -9Q316 -9 293 9T269 64Q269 78 271 92T275 115H271ZM353 398Q353 420 348 426T332 433Q323 433 310 424T277 380Q261 351 243 309T209 222T183 140T172 84Q172 64 178 58T191 51Q203 51 215 62T238 91Q248 107 254
119T266 141T275 162T284 187L308 249Q320 280 330 308T346 359T353 398Z" />
<glyph unicode="&#x112;" glyph-name="Emacron" horiz-adv-x="642" d="M622 432H609Q604 469 589 508T557 573Q538 601 514 616T456 632H427Q398 632 384 617T359 564L306 353H330Q373 353 394 362T433 387Q456 408 474 438T502 492H515L437 183H425Q426 196 426
212T423 244T417 274T406 298Q397 311 378 319T324 328H300L259 167Q250 132 246 112T241 77Q241 48 256 36T302 24H321Q351 24 383 42T455 97Q503 142 533 181T576 240H588L521 0H-70L-68 12Q-57 13 -45 16T-25 22Q-7 28 5 38T28 65Q42 88 53 120T78 204L139 451Q150
496 155 524T161 571Q161 596 152 610T125 633Q99 643 83 645L86 657H644L622 432ZM267 707L283 769H573L557 707H267Z" />
<glyph unicode="&#x113;" glyph-name="emacron" horiz-adv-x="471" d="M428 138Q412 110 389 84T334 37T263 4T174 -9Q141 -9 112 1T61 34T27 89T14 166Q14 206 25 241T57 306T103 360T159 402Q205 430 251 443T335 457Q407 457 438 431T470 363Q470 339 460 320T426
283Q414 274 393 264T343 244T280 223T208 204Q203 176 201 149T198 97Q198 69 210 51T248 32Q281 32 307 44T353 73T388 110T416 146L428 138ZM211 224Q240 232 262 241T298 261Q313 272 324 290T341 328T351 367T355 398Q355 416 350 426T331 437Q312 437 294
420T260 373T232 306T211 224ZM203 536L219 598H469L453 536H203Z" />
<glyph unicode="&#x114;" glyph-name="Ebreve" horiz-adv-x="642" d="M622 432H609Q604 469 589 508T557 573Q538 601 514 616T456 632H427Q398 632 384 617T359 564L306 353H330Q373 353 394 362T433 387Q456 408 474 438T502 492H515L437 183H425Q426 196 426
212T423 244T417 274T406 298Q397 311 378 319T324 328H300L259 167Q250 132 246 112T241 77Q241 48 256 36T302 24H321Q351 24 383 42T455 97Q503 142 533 181T576 240H588L521 0H-70L-68 12Q-57 13 -45 16T-25 22Q-7 28 5 38T28 65Q42 88 53 120T78 204L139 451Q150
496 155 524T161 571Q161 596 152 610T125 633Q99 643 83 645L86 657H644L622 432ZM313 856Q324 822 353 802T427 781Q472 781 508 801T567 856L579 849Q565 775 525 737T419 698Q362 698 330 731T297 809Q297 819 298 829T301 851L313 856Z" />
<glyph unicode="&#x115;" glyph-name="ebreve" horiz-adv-x="471" d="M428 138Q412 110 389 84T334 37T263 4T174 -9Q141 -9 112 1T61 34T27 89T14 166Q14 206 25 241T57 306T103 360T159 402Q205 430 251 443T335 457Q407 457 438 431T470 363Q470 339 460 320T426
283Q414 274 393 264T343 244T280 223T208 204Q203 176 201 149T198 97Q198 69 210 51T248 32Q281 32 307 44T353 73T388 110T416 146L428 138ZM211 224Q240 232 262 241T298 261Q313 272 324 290T341 328T351 367T355 398Q355 416 350 426T331 437Q312 437 294
420T260 373T232 306T211 224ZM232 672Q243 639 272 618T338 597Q380 597 415 617T471 672L484 665Q470 591 432 553T331 514Q279 514 249 547T217 625Q217 635 217 645T220 667L232 672Z" />
<glyph unicode="&#x116;" glyph-name="Edotaccent" horiz-adv-x="642" d="M330 785Q330 803 336 818T354 846T381 865T415 872Q433 872 449 865T476 846T494 819T501 785Q501 750 477 725T415 699Q377 699 354 724T330 785ZM622 432H609Q604 469 589 508T557 573Q538
601 514 616T456 632H427Q398 632 384 617T359 564L306 353H330Q373 353 394 362T433 387Q456 408 474 438T502 492H515L437 183H425Q426 196 426 212T423 244T417 274T406 298Q397 311 378 319T324 328H300L259 167Q250 132 246 112T241 77Q241 48 256 36T302
24H321Q351 24 383 42T455 97Q503 142 533 181T576 240H588L521 0H-70L-68 12Q-57 13 -45 16T-25 22Q-7 28 5 38T28 65Q42 88 53 120T78 204L139 451Q150 496 155 524T161 571Q161 596 152 610T125 633Q99 643 83 645L86 657H644L622 432Z" />
<glyph unicode="&#x117;" glyph-name="edotaccent" horiz-adv-x="471" d="M428 138Q412 110 389 84T334 37T263 4T174 -9Q141 -9 112 1T61 34T27 89T14 166Q14 206 25 241T57 306T103 360T159 402Q205 430 251 443T335 457Q407 457 438 431T470 363Q470 339 460
320T426 283Q414 274 393 264T343 244T280 223T208 204Q203 176 201 149T198 97Q198 69 210 51T248 32Q281 32 307 44T353 73T388 110T416 146L428 138ZM211 224Q240 232 262 241T298 261Q313 272 324 290T341 328T351 367T355 398Q355 416 350 426T331 437Q312
437 294 420T260 373T232 306T211 224ZM406 580Q406 546 383 522T323 497Q287 497 264 521T241 580Q241 597 247 612T264 638T290 657T323 664Q341 664 356 657T382 639T399 612T406 580Z" />
<glyph unicode="&#x118;" glyph-name="Eogonek" horiz-adv-x="642" d="M622 432H609Q604 469 589 508T557 573Q538 601 514 616T456 632H427Q398 632 384 617T359 564L306 353H330Q373 353 394 362T433 387Q456 408 474 438T502 492H515L437 183H425Q426 196 426
212T423 244T417 274T406 298Q397 311 378 319T324 328H300L259 167Q250 132 246 112T241 77Q241 48 256 36T302 24H321Q351 24 383 42T455 97Q503 142 533 181T576 240H588L521 0H415Q396 -15 378 -31T344 -66T320 -105T311 -147Q311 -200 370 -205L366 -217Q278
-219 235 -199T192 -140Q192 -113 214 -92T269 -55T336 -25T396 0H-70L-68 12Q-57 13 -45 16T-25 22Q-7 28 5 38T28 65Q42 88 53 120T78 204L139 451Q150 496 155 524T161 571Q161 596 152 610T125 633Q99 643 83 645L86 657H644L622 432Z" />
<glyph unicode="&#x119;" glyph-name="eogonek" horiz-adv-x="471" d="M200 -217Q112 -219 69 -199T26 -140Q26 -115 46 -96T98 -60T163 -31T227 -4Q213 -7 199 -8T174 -9Q141 -9 112 1T61 34T27 89T14 166Q14 206 25 241T57 306T103 360T159 402Q205 430 251
443T335 457Q407 457 438 431T470 363Q470 339 460 320T426 283Q414 274 393 264T343 244T280 223T208 204Q203 176 201 149T198 97Q198 69 210 51T248 32Q281 32 307 44T353 73T388 110T416 146L428 138Q406 103 376 72T307 21Q276 6 247 -11T195 -49T159 -93T145
-147Q145 -200 204 -205L200 -217ZM355 398Q355 416 350 426T331 437Q311 437 293 420T260 373T232 305T211 224Q240 232 262 241T298 261Q313 272 324 290T341 328T351 367T355 398Z" />
<glyph unicode="&#x11a;" glyph-name="Ecaron" horiz-adv-x="642" d="M308 847L431 788L598 849L603 839L448 702H383L300 839L308 847ZM622 432H609Q604 469 589 508T557 573Q538 601 514 616T456 632H427Q398 632 384 617T359 564L306 353H330Q373 353 394 362T433
387Q456 408 474 438T502 492H515L437 183H425Q426 196 426 212T423 244T417 274T406 298Q397 311 378 319T324 328H300L259 167Q250 132 246 112T241 77Q241 48 256 36T302 24H321Q351 24 383 42T455 97Q503 142 533 181T576 240H588L521 0H-70L-68 12Q-57 13
-45 16T-25 22Q-7 28 5 38T28 65Q42 88 53 120T78 204L139 451Q150 496 155 524T161 571Q161 596 152 610T125 633Q99 643 83 645L86 657H644L622 432Z" />
<glyph unicode="&#x11b;" glyph-name="ecaron" horiz-adv-x="471" d="M217 665L338 581L506 667L514 656L348 483H284L209 658L217 665ZM428 138Q412 110 389 84T334 37T263 4T174 -9Q141 -9 112 1T61 34T27 89T14 166Q14 206 25 241T57 306T103 360T159 402Q205
430 251 443T335 457Q407 457 438 431T470 363Q470 339 460 320T426 283Q414 274 393 264T343 244T280 223T208 204Q203 176 201 149T198 97Q198 69 210 51T248 32Q281 32 307 44T353 73T388 110T416 146L428 138ZM211 224Q240 232 262 241T298 261Q313 272 324
290T341 328T351 367T355 398Q355 416 350 426T331 437Q312 437 294 420T260 373T232 306T211 224Z" />
<glyph unicode="&#x11c;" glyph-name="Gcircumflex" horiz-adv-x="671" d="M559 703L437 762L269 702L265 711L420 848H485L567 711L559 703ZM684 289Q667 287 651 283Q640 279 631 275T613 262Q599 250 590 229T570 168L534 18H523Q515 24 502 31T469 39Q461
39 450 36T426 29T403 19T385 11Q365 1 332 -6T271 -14Q208 -14 160 7T80 64T32 145T15 239Q15 325 43 403T125 541T253 636T424 671Q481 671 520 650T574 602H579L636 647H648L586 402H573Q575 463 564 509T534 586T488 632T431 648Q391 648 366 626T318 567Q305
546 286 498T248 387T216 255T203 126Q203 74 230 42Q252 18 285 18Q309 18 327 22T358 42Q371 57 379 77T392 120L402 163Q406 180 408 196T410 221Q410 244 404 254T384 273Q374 279 365 282T337 289L341 301H687L684 289Z" />
<glyph unicode="&#x11d;" glyph-name="gcircumflex" horiz-adv-x="483" d="M436 485L315 563L147 484L139 494L305 667H369L444 492L436 485ZM273 439Q260 439 250 429T232 403Q226 388 219 364T206 313T196 258T192 212Q192 195 199 185T220 175Q235 175 244
184T260 209Q266 224 273 249T286 301T296 356T300 403Q300 420 293 429T273 439ZM129 -213Q87 -213 48 -208T-22 -190T-71 -159T-90 -110Q-90 -75 -50 -52T56 -26V-23Q16 -7 0 17T-17 78Q-17 103 -5 121T27 152T72 172T121 184Q92 202 75 231T57 297Q57 343 78
374T132 423T203 449T274 457Q317 457 349 443T402 403H406Q408 435 432 454T488 473Q516 473 537 459T559 412Q559 385 544 375T511 364Q494 364 483 371T461 394Q454 405 448 415T437 425Q432 425 426 418T420 387Q420 376 423 367T429 351Q431 343 433 333T436
314Q436 268 415 238T362 190T292 165T221 158Q189 158 170 164T137 171Q124 171 114 167T103 150Q103 135 132 129T223 112Q281 102 318 90T377 62T407 25T416 -24Q416 -69 392 -104T327 -163T235 -200T129 -213ZM130 -196Q169 -196 200 -189T254 -171T289 -144T301
-112Q301 -87 265 -76T152 -50Q137 -47 121 -44T91 -38Q74 -38 57 -41T25 -54T1 -77T-9 -114Q-9 -156 28 -176T130 -196Z" />
<glyph unicode="&#x11e;" glyph-name="Gbreve" horiz-adv-x="671" d="M326 856Q337 822 366 802T440 781Q485 781 521 801T580 856L592 849Q578 775 538 737T432 698Q375 698 343 731T310 809Q310 819 311 829T314 851L326 856ZM684 289Q667 287 651 283Q640 279
631 275T613 262Q599 250 590 229T570 168L534 18H523Q515 24 502 31T469 39Q461 39 450 36T426 29T403 19T385 11Q365 1 332 -6T271 -14Q208 -14 160 7T80 64T32 145T15 239Q15 325 43 403T125 541T253 636T424 671Q481 671 520 650T574 602H579L636 647H648L586
402H573Q575 463 564 509T534 586T488 632T431 648Q391 648 366 626T318 567Q305 546 286 498T248 387T216 255T203 126Q203 74 230 42Q252 18 285 18Q309 18 327 22T358 42Q371 57 379 77T392 120L402 163Q406 180 408 196T410 221Q410 244 404 254T384 273Q374
279 365 282T337 289L341 301H687L684 289Z" />
<glyph unicode="&#x11f;" glyph-name="gbreve" horiz-adv-x="483" d="M273 439Q260 439 250 429T232 403Q226 388 219 364T206 313T196 258T192 212Q192 195 199 185T220 175Q235 175 244 184T260 209Q266 224 273 249T286 301T296 356T300 403Q300 420 293 429T273
439ZM129 -213Q87 -213 48 -208T-22 -190T-71 -159T-90 -110Q-90 -75 -50 -52T56 -26V-23Q16 -7 0 17T-17 78Q-17 103 -5 121T27 152T72 172T121 184Q92 202 75 231T57 297Q57 343 78 374T132 423T203 449T274 457Q317 457 349 443T402 403H406Q408 435 432 454T488
473Q516 473 537 459T559 412Q559 385 544 375T511 364Q494 364 483 371T461 394Q454 405 448 415T437 425Q432 425 426 418T420 387Q420 376 423 367T429 351Q431 343 433 333T436 314Q436 268 415 238T362 190T292 165T221 158Q189 158 170 164T137 171Q124 171
114 167T103 150Q103 135 132 129T223 112Q281 102 318 90T377 62T407 25T416 -24Q416 -69 392 -104T327 -163T235 -200T129 -213ZM130 -196Q169 -196 200 -189T254 -171T289 -144T301 -112Q301 -87 265 -76T152 -50Q137 -47 121 -44T91 -38Q74 -38 57 -41T25 -54T1
-77T-9 -114Q-9 -156 28 -176T130 -196ZM210 672Q221 639 250 618T316 597Q358 597 393 617T449 672L462 665Q448 591 410 553T309 514Q257 514 227 547T195 625Q195 635 195 645T198 667L210 672Z" />
<glyph unicode="&#x120;" glyph-name="Gdotaccent" horiz-adv-x="671" d="M341 785Q341 803 347 818T365 846T392 865T426 872Q444 872 460 865T487 846T505 819T512 785Q512 750 488 725T426 699Q388 699 365 724T341 785ZM684 289Q667 287 651 283Q640 279 631
275T613 262Q599 250 590 229T570 168L534 18H523Q515 24 502 31T469 39Q461 39 450 36T426 29T403 19T385 11Q365 1 332 -6T271 -14Q208 -14 160 7T80 64T32 145T15 239Q15 325 43 403T125 541T253 636T424 671Q481 671 520 650T574 602H579L636 647H648L586 402H573Q575
463 564 509T534 586T488 632T431 648Q391 648 366 626T318 567Q305 546 286 498T248 387T216 255T203 126Q203 74 230 42Q252 18 285 18Q309 18 327 22T358 42Q371 57 379 77T392 120L402 163Q406 180 408 196T410 221Q410 244 404 254T384 273Q374 279 365 282T337
289L341 301H687L684 289Z" />
<glyph unicode="&#x121;" glyph-name="gdotaccent" horiz-adv-x="483" d="M273 439Q260 439 250 429T232 403Q226 388 219 364T206 313T196 258T192 212Q192 195 199 185T220 175Q235 175 244 184T260 209Q266 224 273 249T286 301T296 356T300 403Q300 420 293
429T273 439ZM129 -213Q87 -213 48 -208T-22 -190T-71 -159T-90 -110Q-90 -75 -50 -52T56 -26V-23Q16 -7 0 17T-17 78Q-17 103 -5 121T27 152T72 172T121 184Q92 202 75 231T57 297Q57 343 78 374T132 423T203 449T274 457Q317 457 349 443T402 403H406Q408 435
432 454T488 473Q516 473 537 459T559 412Q559 385 544 375T511 364Q494 364 483 371T461 394Q454 405 448 415T437 425Q432 425 426 418T420 387Q420 376 423 367T429 351Q431 343 433 333T436 314Q436 268 415 238T362 190T292 165T221 158Q189 158 170 164T137
171Q124 171 114 167T103 150Q103 135 132 129T223 112Q281 102 318 90T377 62T407 25T416 -24Q416 -69 392 -104T327 -163T235 -200T129 -213ZM130 -196Q169 -196 200 -189T254 -171T289 -144T301 -112Q301 -87 265 -76T152 -50Q137 -47 121 -44T91 -38Q74 -38
57 -41T25 -54T1 -77T-9 -114Q-9 -156 28 -176T130 -196ZM384 580Q384 546 361 522T301 497Q265 497 242 521T219 580Q219 597 225 612T242 638T268 657T301 664Q319 664 334 657T360 639T377 612T384 580Z" />
<glyph unicode="&#x122;" glyph-name="Gcommaaccent" horiz-adv-x="671" d="M332 -116Q332 -177 287 -214T160 -272L156 -254Q177 -248 196 -241T231 -225T255 -209T264 -190Q264 -182 259 -179T240 -171Q219 -164 201 -148T182 -106Q182 -69 205 -52T257 -34Q290
-34 311 -56T332 -116ZM684 289Q667 287 651 283Q640 279 631 275T613 262Q599 250 590 229T570 168L534 18H523Q515 24 502 31T469 39Q461 39 450 36T426 29T403 19T385 11Q365 1 332 -6T271 -14Q208 -14 160 7T80 64T32 145T15 239Q15 325 43 403T125 541T253
636T424 671Q481 671 520 650T574 602H579L636 647H648L586 402H573Q575 463 564 509T534 586T488 632T431 648Q391 648 366 626T318 567Q305 546 286 498T248 387T216 255T203 126Q203 74 230 42Q252 18 285 18Q309 18 327 22T358 42Q371 57 379 77T392 120L402
163Q406 180 408 196T410 221Q410 244 404 254T384 273Q374 279 365 282T337 289L341 301H687L684 289Z" />
<glyph unicode="&#x123;" glyph-name="gcommaaccent" horiz-adv-x="483" d="M239 577Q239 638 284 675T411 733L415 716Q394 710 375 703T340 687T316 670T307 651Q307 643 312 640T331 632Q352 625 370 610T389 567Q389 530 365 513T313 495Q281 495 260 517T239
577ZM273 439Q260 439 250 429T232 403Q226 388 219 364T206 313T196 258T192 212Q192 195 199 185T220 175Q235 175 244 184T260 209Q266 224 273 249T286 301T296 356T300 403Q300 420 293 429T273 439ZM129 -213Q87 -213 48 -208T-22 -190T-71 -159T-90 -110Q-90
-75 -50 -52T56 -26V-23Q16 -7 0 17T-17 78Q-17 103 -5 121T27 152T72 172T121 184Q92 202 75 231T57 297Q57 343 78 374T132 423T203 449T274 457Q317 457 349 443T402 403H406Q408 435 432 454T488 473Q516 473 537 459T559 412Q559 385 544 375T511 364Q494
364 483 371T461 394Q454 405 448 415T437 425Q432 425 426 418T420 387Q420 376 423 367T429 351Q431 343 433 333T436 314Q436 268 415 238T362 190T292 165T221 158Q189 158 170 164T137 171Q124 171 114 167T103 150Q103 135 132 129T223 112Q281 102 318 90T377
62T407 25T416 -24Q416 -69 392 -104T327 -163T235 -200T129 -213ZM130 -196Q169 -196 200 -189T254 -171T289 -144T301 -112Q301 -87 265 -76T152 -50Q137 -47 121 -44T91 -38Q74 -38 57 -41T25 -54T1 -77T-9 -114Q-9 -156 28 -176T130 -196Z" />
<glyph unicode="&#x124;" glyph-name="Hcircumflex" horiz-adv-x="792" d="M861 645Q850 643 838 641T818 635Q786 625 765 592Q751 569 740 537T715 453L654 207Q643 162 638 133T632 86Q632 61 641 47T668 24Q695 13 710 12L707 0H329L332 12Q342 14 351 16T369
22Q386 29 395 38T416 64Q429 87 438 118T461 200L489 315H297L269 204Q258 158 252 130T245 84Q245 57 252 44T275 23Q284 18 293 16T310 12L308 0H-70L-68 12Q-57 13 -45 15T-25 22Q-7 29 5 39T28 65Q42 88 53 120T78 204L139 450Q150 495 155 524T161 571Q161
596 152 610T125 633Q99 643 83 645L86 657H463L460 645Q445 642 428 636Q411 628 401 619T379 593Q365 571 356 540T332 457L304 345H497L524 454Q535 499 540 526T546 572Q546 593 540 609T518 634Q508 639 500 641T483 645L485 657H863L861 645ZM628 703L506
762L338 702L334 711L489 848H554L636 711L628 703Z" />
<glyph unicode="&#x125;" glyph-name="hcircumflex" horiz-adv-x="602" d="M176 570Q183 590 186 603T189 628Q189 648 175 660Q170 665 160 668T137 674L141 684H381Q386 684 386 679Q386 675 382 665T373 640Q369 630 366 622T360 603T352 581T343 553L260 296H267Q290
341 314 372T363 421T410 448T454 457Q511 457 533 431T555 360Q555 328 543 294T508 205Q487 154 478 123T468 76Q468 56 482 56Q489 56 500 62T525 79T553 105T578 137L590 130Q572 100 548 75T493 31T430 2T363 -9Q330 -9 308 9T285 64Q285 90 301 135T339 231Q362
286 375 318T388 367Q388 380 383 384T368 389Q348 389 312 338T230 171Q223 155 215 133T199 88T182 41T168 0H-10L176 570ZM569 716L447 775L279 715L275 724L430 861H495L577 724L569 716Z" />
<glyph unicode="&#x126;" glyph-name="Hbar" horiz-adv-x="792" d="M304 345H497L525 456H332L304 345ZM861 645Q850 643 838 641T818 635Q786 625 765 592Q753 573 744 549T724 486H820L813 456H716Q716 455 713 444T706 416T696 376T684 330Q671 275 654 207Q643
162 638 133T632 86Q632 61 641 47T668 24Q695 13 710 12L707 0H329L332 12Q342 14 351 16T369 22Q386 29 395 38T416 64Q429 87 438 118T461 200L489 315H297L269 204Q258 158 252 130T245 84Q245 57 252 44T275 23Q284 18 293 16T310 12L308 0H-70L-68 12Q-57
13 -45 15T-25 22Q-7 29 5 39T28 65Q42 88 53 120T78 204L141 456H44L51 486H148Q154 515 157 536T161 571Q161 596 152 610T125 633Q99 643 83 645L86 657H463L460 645Q445 642 428 636Q411 628 401 619T379 593Q367 574 359 550T340 486H532Q540 517 543 537T546
572Q546 593 540 609T518 634Q508 639 500 641T483 645L485 657H863L861 645Z" />
<glyph unicode="&#x127;" glyph-name="hbar" horiz-adv-x="602" d="M590 130Q572 100 548 75T493 31T430 2T363 -9Q330 -9 308 9T285 64Q285 90 301 135T339 231Q362 286 375 318T388 367Q388 380 383 384T368 389Q348 389 312 338T230 171Q223 155 215 133T199
88T182 41T168 0H-10L168 545H100L109 572H177Q183 590 186 603T189 628Q189 648 175 660Q170 665 160 668T137 674L141 684H380Q385 684 385 679Q385 675 382 665T373 640Q366 622 360 603Q356 591 349 572H458L449 545H340L260 296H267Q290 341 314 372T363 421T410
448T454 457Q511 457 533 431T555 360Q555 328 543 294T508 205Q487 154 478 123T468 76Q468 56 482 56Q489 56 500 62T525 79T553 105T578 137L590 130Z" />
<glyph unicode="&#x128;" glyph-name="Itilde" horiz-adv-x="409" d="M477 645L454 640Q442 638 434 635Q417 630 405 620T381 592Q367 569 356 537T331 453L270 207Q259 162 254 133T248 86Q248 61 257 47T284 24Q309 13 326 12L323 0H-70L-68 12Q-57 13 -45
16T-25 22Q-8 27 4 38T28 65Q42 88 53 120T78 204L139 450Q150 495 155 524T161 571Q161 596 152 610T125 633Q99 643 83 645L86 657H480L477 645ZM752 852Q745 824 733 800T704 757T666 729T617 719Q601 719 584 723T549 732T516 741T488 745Q465 745 445 740T410
708L393 710Q409 772 443 805T536 838Q548 838 562 834T592 826T625 818T659 814Q685 814 703 819T736 854L752 852Z" />
<glyph unicode="&#x129;" glyph-name="itilde" horiz-adv-x="346" d="M330 129Q312 99 288 74T233 30T170 1T102 -10Q69 -10 47 8T25 63Q25 89 41 133T78 228Q84 243 92 263T108 304T121 343T127 374Q127 388 122 391T108 394Q96 394 72 374T23 313L8 321Q49 390
106 423T224 457Q259 457 278 436T298 381Q298 364 286 321T252 224Q232 172 219 132T206 75Q206 56 222 56Q229 56 240 62T265 79T292 104T317 137L330 129ZM430 663Q422 634 410 609T382 564T344 533T295 522Q279 522 262 526T228 535T196 545T169 549Q146 549
125 538T89 498L73 500Q81 531 93 557T122 603T163 634T216 645Q228 645 242 641T271 633T304 624T338 620Q364 620 381 628T414 665L430 663Z" />
<glyph unicode="&#x12a;" glyph-name="Imacron" horiz-adv-x="409" d="M477 645L454 640Q442 638 434 635Q417 630 405 620T381 592Q367 569 356 537T331 453L270 207Q259 162 254 133T248 86Q248 61 257 47T284 24Q309 13 326 12L323 0H-70L-68 12Q-57 13 -45
16T-25 22Q-8 27 4 38T28 65Q42 88 53 120T78 204L139 450Q150 495 155 524T161 571Q161 596 152 610T125 633Q99 643 83 645L86 657H480L477 645ZM153 707L169 769H459L443 707H153Z" />
<glyph unicode="&#x12b;" glyph-name="imacron" horiz-adv-x="346" d="M98 536L114 598H367L351 536H98ZM330 129Q312 99 288 74T233 30T170 1T102 -10Q69 -10 47 8T25 63Q25 89 41 133T78 228Q84 243 92 263T108 304T121 343T127 374Q127 388 122 391T108 394Q96
394 72 374T23 313L8 321Q49 390 106 423T224 457Q259 457 278 436T298 381Q298 364 286 321T252 224Q232 172 219 132T206 75Q206 56 222 56Q229 56 240 62T265 79T292 104T317 137L330 129Z" />
<glyph unicode="&#x12c;" glyph-name="Ibreve" horiz-adv-x="409" d="M477 645L454 640Q442 638 434 635Q417 630 405 620T381 592Q367 569 356 537T331 453L270 207Q259 162 254 133T248 86Q248 61 257 47T284 24Q309 13 326 12L323 0H-70L-68 12Q-57 13 -45
16T-25 22Q-8 27 4 38T28 65Q42 88 53 120T78 204L139 450Q150 495 155 524T161 571Q161 596 152 610T125 633Q99 643 83 645L86 657H480L477 645ZM199 856Q210 822 239 802T313 781Q358 781 394 801T453 856L465 849Q451 775 411 737T305 698Q248 698 216 731T183
809Q183 819 184 829T187 851L199 856Z" />
<glyph unicode="&#x12d;" glyph-name="ibreve" horiz-adv-x="346" d="M330 129Q312 99 288 74T233 30T170 1T102 -10Q69 -10 47 8T25 63Q25 89 41 133T78 228Q84 243 92 263T108 304T121 343T127 374Q127 388 122 391T108 394Q96 394 72 374T23 313L8 321Q49 390
106 423T224 457Q259 457 278 436T298 381Q298 364 286 321T252 224Q232 172 219 132T206 75Q206 56 222 56Q229 56 240 62T265 79T292 104T317 137L330 129ZM142 672Q153 639 182 618T248 597Q290 597 325 617T381 672L394 665Q380 591 342 553T241 514Q189 514
159 547T127 625Q127 635 127 645T130 667L142 672Z" />
<glyph unicode="&#x12e;" glyph-name="Iogonek" horiz-adv-x="409" d="M477 645L454 640Q442 638 434 635Q417 630 405 620T381 592Q367 569 356 537T331 453L270 207Q259 162 254 133T248 86Q248 61 257 47T284 24Q309 13 326 12L323 0H219Q181 -29 154 -66T127
-147Q127 -200 186 -205L182 -217Q94 -219 51 -199T8 -140Q8 -113 28 -92T79 -55T142 -25T200 0H-70L-68 12Q-57 13 -45 16T-25 22Q-8 27 4 38T28 65Q42 88 53 120T78 204L139 450Q150 495 155 524T161 571Q161 596 152 610T125 633Q99 643 83 645L86 657H480L477
645Z" />
<glyph unicode="&#x12f;" glyph-name="iogonek" horiz-adv-x="346" d="M-48 -140Q-48 -115 -28 -96T21 -61T83 -32T142 -6Q133 -8 124 -9T105 -10Q71 -11 49 8T27 63Q27 76 32 95T44 136T61 181T78 228Q84 243 92 263T108 304T121 343T127 374Q127 388 122 391T108
394Q96 394 72 374T23 313L8 321Q49 390 106 423T224 457Q259 457 278 436T298 381Q298 372 295 357T285 320T271 275T252 224Q232 172 220 132T207 75Q207 56 223 56Q230 56 241 62T266 79T294 104T319 137L331 129Q289 59 212 17Q187 3 162 -14T117 -52T84 -96T71
-147Q71 -200 130 -205L126 -217Q38 -219 -5 -199T-48 -140ZM270 497Q234 497 211 521T188 580Q188 597 194 612T211 638T237 657T270 664Q288 664 303 657T329 639T346 612T353 580Q353 546 330 522T270 497Z" />
<glyph unicode="&#x130;" glyph-name="Idotaccent" horiz-adv-x="409" d="M477 645L454 640Q442 638 434 635Q417 630 405 620T381 592Q367 569 356 537T331 453L270 207Q259 162 254 133T248 86Q248 61 257 47T284 24Q309 13 326 12L323 0H-70L-68 12Q-57 13
-45 16T-25 22Q-8 27 4 38T28 65Q42 88 53 120T78 204L139 450Q150 495 155 524T161 571Q161 596 152 610T125 633Q99 643 83 645L86 657H480L477 645ZM215 785Q215 803 221 818T239 846T266 865T300 872Q318 872 334 865T361 846T379 819T386 785Q386 750 362
725T300 699Q262 699 239 724T215 785Z" />
<glyph unicode="&#x131;" glyph-name="dotlessi" horiz-adv-x="346" d="M330 129Q312 99 288 74T233 30T170 1T102 -10Q69 -10 47 8T25 63Q25 89 41 133T78 228Q84 243 92 263T108 304T121 343T127 374Q127 388 122 391T108 394Q96 394 72 374T23 313L8 321Q49
390 106 423T224 457Q259 457 278 436T298 381Q298 364 286 321T252 224Q232 172 219 132T206 75Q206 56 222 56Q229 56 240 62T265 79T292 104T317 137L330 129Z" />
<glyph unicode="&#x132;" glyph-name="IJ" horiz-adv-x="886" d="M976 645L953 640Q941 638 933 635Q916 630 904 620T880 592Q866 569 855 537T830 453L772 221Q760 172 735 129T673 55T588 5T480 -14Q432 -14 399 -1T346 32T317 77T308 126Q308 150 316 168T338
199T370 218T407 225Q422 225 438 220T467 204T488 176T497 135Q497 106 486 88T469 62Q464 54 455 45T446 27Q446 17 454 13T468 8Q485 8 496 14T520 35Q536 54 544 79T564 150L639 450Q650 495 655 524T660 571Q660 596 651 610T625 633Q598 644 582 645L585
657H979L976 645ZM477 645L454 640Q442 638 434 635Q417 630 405 620T381 592Q367 569 356 537T331 453L270 207Q259 162 254 133T248 86Q248 61 257 47T284 24Q309 13 326 12L323 0H-70L-68 12Q-57 13 -45 16T-25 22Q-8 27 4 38T28 65Q42 88 53 120T78 204L139
450Q150 495 155 524T161 571Q161 596 152 610T125 633Q99 643 83 645L86 657H480L477 645Z" />
<glyph unicode="&#x133;" glyph-name="ij" horiz-adv-x="651" d="M353 580Q353 546 330 522T270 497Q234 497 211 521T188 580Q188 597 194 612T211 638T237 657T270 664Q288 664 303 657T329 639T346 612T353 580ZM127 374Q127 388 122 391T108 394Q96 394 72
374T23 313L8 321Q49 390 106 423T224 457Q259 457 278 436T298 381Q298 372 295 357T285 320T271 275T252 224Q232 172 220 132T207 75Q207 56 223 56Q230 56 241 62T266 79T294 104T319 137L331 129Q313 99 289 74T234 30T171 1T104 -10Q71 -10 49 8T27 63Q27
76 32 95T44 136T61 181T78 228Q84 243 92 263T108 304T121 343T127 374ZM701 583Q701 549 678 525T618 500Q582 500 559 524T536 583Q536 600 542 615T559 641T585 660T618 667Q636 667 651 660T677 642T694 615T701 583ZM569 136Q546 79 527 38T490 -33T454 -86T414
-130Q398 -145 377 -160T332 -187T280 -206T222 -213Q195 -213 170 -206T126 -186T94 -153T82 -107Q82 -70 104 -47T162 -23Q182 -23 196 -30T220 -47T234 -71T239 -96Q239 -115 234 -127T220 -152Q215 -159 211 -165T206 -177Q206 -185 212 -188T225 -192Q241
-192 255 -183T285 -148Q296 -131 312 -90T346 -3T378 88T402 155Q408 171 419 204T443 272T464 337T473 374Q473 388 468 391T454 394Q442 394 418 374T368 313L354 321Q395 390 451 423T568 457Q610 457 628 436T646 381Q646 369 639 340T620 276T595 203T569
136Z" />
<glyph unicode="&#x134;" glyph-name="Jcircumflex" horiz-adv-x="513" d="M566 703L444 762L276 702L272 711L427 848H492L574 711L566 703ZM603 645Q593 643 581 641T560 635Q543 630 531 620T507 592Q493 569 482 537T457 453L399 221Q387 172 361 129T298
55T211 5T102 -14Q54 -14 21 -1T-33 32T-63 77T-72 126Q-72 150 -64 168T-42 199T-10 218T27 225Q42 225 58 220T87 204T108 176T117 135Q117 106 106 88T89 62Q84 54 75 45T66 27Q66 17 74 13T90 8Q108 8 120 14T145 35Q161 54 170 79T191 150L266 450Q277 495
282 524T287 571Q287 596 278 610T252 633Q225 644 209 645L212 657H606L603 645Z" />
<glyph unicode="&#x135;" glyph-name="jcircumflex" horiz-adv-x="314" d="M309 381Q309 369 302 340T283 276T258 203T232 136Q209 79 190 38T153 -33T117 -86T77 -130Q61 -145 40 -160T-5 -187T-57 -206T-115 -213Q-142 -213 -167 -206T-211 -186T-243 -153T-255
-107Q-255 -70 -233 -47T-175 -23Q-155 -23 -141 -30T-117 -47T-103 -71T-98 -96Q-98 -115 -103 -127T-117 -152Q-122 -159 -126 -165T-131 -177Q-131 -185 -125 -188T-112 -192Q-96 -192 -82 -183T-52 -148Q-41 -131 -25 -90T9 -3T41 88T65 155Q71 171 82 204T106
272T127 337T136 374Q136 388 131 391T117 394Q105 394 81 374T31 313L17 321Q58 390 114 423T231 457Q273 457 291 436T309 381ZM379 485L258 563L90 484L82 494L248 667H312L387 492L379 485Z" />
<glyph unicode="&#x136;" glyph-name="Kcommaaccent" horiz-adv-x="710" d="M383 -116Q383 -177 338 -214T211 -272L207 -254Q228 -248 247 -241T282 -225T306 -209T315 -190Q315 -182 310 -179T291 -171Q270 -164 252 -148T233 -106Q233 -69 256 -52T308 -34Q341
-34 362 -56T383 -116ZM514 -14Q467 -14 439 2T397 44T377 99T371 156Q369 183 369 200T368 229V251Q368 262 367 275Q365 299 356 307T331 316Q320 316 312 313T293 299L270 207Q259 162 252 132T245 84Q245 57 252 44T275 23Q284 18 294 16T312 12L309 0H-70L-68
12Q-57 13 -45 16T-25 22Q-8 27 4 38T28 65Q42 88 53 120T78 204L139 450Q150 495 155 524T161 571Q161 596 152 610T125 633Q99 643 83 645L86 657H465L461 645Q443 642 428 635Q411 627 401 618T379 593Q365 570 355 538T331 453L302 335L492 510Q521 537 538
558T556 600Q556 613 550 621T530 636Q519 641 511 642T493 645L496 657H763L760 645Q742 641 717 634T671 617Q659 611 646 604T615 582T572 546T508 489L358 357V352Q369 358 390 363T426 369Q453 369 477 362T521 337T552 285T566 198Q567 154 572 128T584 87T603
68T628 63Q647 63 660 75T685 106L698 100Q692 82 678 62T641 25T587 -3T514 -14Z" />
<glyph unicode="&#x137;" glyph-name="kcommaaccent" horiz-adv-x="594" d="M294 -110Q294 -171 249 -208T122 -266L118 -248Q139 -242 158 -235T193 -219T217 -203T226 -184Q226 -176 221 -173T202 -165Q181 -158 163 -142T144 -100Q144 -63 167 -46T219 -28Q252
-28 273 -50T294 -110ZM382 -9Q367 -9 352 -5T325 9T305 32T297 64Q297 93 303 117T316 163Q321 178 324 190T327 213Q327 229 322 241T288 254H250L170 0H-9L178 570Q185 590 187 603T190 628Q190 649 177 660Q172 665 162 668T139 674L142 684H383Q388 684 388
679Q388 675 385 665T376 640L369 622Q366 615 363 606T355 584T344 553L256 273H290Q315 273 333 281T363 303T384 329T399 354Q413 379 424 397T449 429Q462 442 480 449T519 457Q559 457 581 434T603 375Q603 335 581 314T531 292Q503 292 484 307T465 355Q465
359 467 369T473 388Q478 398 483 405T488 415Q488 422 481 422Q466 422 454 402T418 344Q404 320 385 297T339 266V262Q395 256 432 228T472 145Q473 136 473 128V113Q474 102 474 94T476 78Q479 57 495 57Q502 57 512 63T535 79T559 105T582 137L594 129Q577
100 555 75T505 31T447 2T382 -9Z" />
<glyph unicode="&#x139;" glyph-name="Lacute" horiz-adv-x="597" d="M195 702Q240 739 271 765T326 814Q349 835 367 843T408 852Q431 852 448 836T466 788Q466 761 446 747T402 726Q387 722 365 718T315 710T259 701T200 691L195 702ZM-68 12Q-57 13 -45 16T-25
22Q-7 28 5 38T28 65Q42 88 53 120T78 204L139 450Q150 495 155 524T161 571Q161 596 152 610T125 633Q99 643 83 645L86 657H474L471 645Q462 643 448 639T425 631Q412 626 400 616T379 593Q365 570 355 537T331 453L259 167Q251 138 246 115T241 77Q241 52 253
40Q267 24 300 24H313Q344 24 374 42T444 97Q492 142 522 181T565 240H578L510 0H-70L-68 12Z" />
<glyph unicode="&#x13a;" glyph-name="lacute" horiz-adv-x="320" d="M434 833Q434 804 414 788T365 761Q336 750 284 735T175 706L171 717Q210 762 238 792T290 846Q312 868 331 881T372 895Q398 895 416 882T434 833ZM222 224Q204 171 192 132T179 75Q179 56
195 56Q204 56 216 62T242 79T269 104T295 137L307 130Q289 100 265 75T212 31T150 2T81 -9Q43 -9 23 9T2 64Q2 76 8 99T22 149T40 202T55 245Q62 266 75 307T105 397T136 492T161 570Q164 578 168 595T173 628Q173 649 160 660Q155 665 145 668T122 674L125 684H367Q372
684 372 679Q372 675 368 665T359 640Q355 630 352 621T345 603T337 581T327 553Q319 529 304 482T273 383T242 287T222 224Z" />
<glyph unicode="&#x13b;" glyph-name="Lcommaaccent" horiz-adv-x="597" d="M322 -116Q322 -177 277 -214T150 -272L146 -254Q167 -248 186 -241T221 -225T245 -209T254 -190Q254 -182 249 -179T230 -171Q209 -164 191 -148T172 -106Q172 -69 195 -52T247 -34Q280
-34 301 -56T322 -116ZM-68 12Q-57 13 -45 16T-25 22Q-7 28 5 38T28 65Q42 88 53 120T78 204L139 450Q150 495 155 524T161 571Q161 596 152 610T125 633Q99 643 83 645L86 657H474L471 645Q462 643 448 639T425 631Q412 626 400 616T379 593Q365 570 355 537T331
453L259 167Q251 138 246 115T241 77Q241 52 253 40Q267 24 300 24H313Q344 24 374 42T444 97Q492 142 522 181T565 240H578L510 0H-70L-68 12Z" />
<glyph unicode="&#x13c;" glyph-name="lcommaaccent" horiz-adv-x="320" d="M399 -110Q399 -171 354 -208T227 -266L223 -248Q244 -242 263 -235T298 -219T322 -203T331 -184Q331 -176 326 -173T307 -165Q286 -158 268 -142T249 -100Q249 -63 272 -46T324 -28Q357
-28 378 -50T399 -110ZM222 224Q204 171 192 132T179 75Q179 56 195 56Q204 56 216 62T242 79T269 104T295 137L307 130Q289 100 265 75T212 31T150 2T81 -9Q43 -9 23 9T2 64Q2 76 8 99T22 149T40 202T55 245Q62 266 75 307T105 397T136 492T161 570Q164 578 168
595T173 628Q173 649 160 660Q155 665 145 668T122 674L125 684H367Q372 684 372 679Q372 675 368 665T359 640Q355 630 352 621T345 603T337 581T327 553Q319 529 304 482T273 383T242 287T222 224Z" />
<glyph unicode="&#x13d;" glyph-name="Lcaron" horiz-adv-x="597" d="M519 658H634Q612 632 594 610T557 564T519 516T475 459H459L519 658ZM-68 12Q-57 13 -45 16T-25 22Q-7 28 5 38T28 65Q42 88 53 120T78 204L139 450Q150 495 155 524T161 571Q161 596 152
610T125 633Q99 643 83 645L86 657H474L471 645Q462 643 448 639T425 631Q412 626 400 616T379 593Q365 570 355 537T331 453L259 167Q251 138 246 115T241 77Q241 52 253 40Q267 24 300 24H313Q344 24 374 42T444 97Q492 142 522 181T565 240H578L510 0H-70L-68
12Z" />
<glyph unicode="&#x13e;" glyph-name="lcaron" horiz-adv-x="320" d="M419 684H534Q512 658 494 636T457 590T419 542T375 485H359L419 684ZM222 224Q204 171 192 132T179 75Q179 56 195 56Q204 56 216 62T242 79T269 104T295 137L307 130Q289 100 265 75T212
31T150 2T81 -9Q43 -9 23 9T2 64Q2 76 8 99T22 149T40 202T55 245Q62 266 75 307T105 397T136 492T161 570Q164 578 168 595T173 628Q173 649 160 660Q155 665 145 668T122 674L125 684H367Q372 684 372 679Q372 675 368 665T359 640Q355 630 352 621T345 603T337
581T327 553Q319 529 304 482T273 383T242 287T222 224Z" />
<glyph unicode="&#x13f;" glyph-name="Ldot" horiz-adv-x="597" d="M444 359Q444 395 468 421T531 448Q549 448 565 441T593 422T612 393T619 359Q619 324 594 298T531 272Q493 272 469 298T444 359ZM-68 12Q-57 13 -45 16T-25 22Q-7 28 5 38T28 65Q42 88 53 120T78
204L139 450Q150 495 155 524T161 571Q161 596 152 610T125 633Q99 643 83 645L86 657H474L471 645Q462 643 448 639T425 631Q412 626 400 616T379 593Q365 570 355 537T331 453L259 167Q251 138 246 115T241 77Q241 52 253 40Q267 24 300 24H313Q344 24 374 39T442
87Q490 130 518 164T559 217H571L510 0H-70L-68 12Z" />
<glyph unicode="&#x140;" glyph-name="ldot" horiz-adv-x="320" d="M446 327Q446 295 424 272T368 249Q334 249 313 272T291 327Q291 359 312 382T368 406Q384 406 398 400T423 382T440 357T446 327ZM222 224Q204 171 192 132T179 75Q179 56 195 56Q204 56 216
62T242 79T269 104T295 137L307 130Q289 100 265 75T212 31T150 2T81 -9Q43 -9 23 9T2 64Q2 76 8 99T22 149T40 202T55 245Q62 266 75 307T105 397T136 492T161 570Q164 578 168 595T173 628Q173 649 160 660Q155 665 145 668T122 674L125 684H367Q372 684 372
679Q372 675 368 665T359 640Q355 630 352 621T345 603T337 581T327 553Q319 529 304 482T273 383T242 287T222 224Z" />
<glyph unicode="&#x141;" glyph-name="Lslash" horiz-adv-x="597" d="M-68 12Q-57 13 -45 16T-25 22Q-7 28 5 38T28 65Q42 88 53 120T78 204L90 254L0 225L7 255L98 284L139 450Q150 495 155 524T161 571Q161 596 152 610T125 633Q99 643 83 645L86 657H474L471
645Q462 643 448 639T425 631Q412 626 400 616T379 593Q365 570 355 537T331 453L305 352L509 419L501 389L298 322L259 167Q251 138 246 115T241 77Q241 52 253 40Q267 24 300 24H313Q344 24 374 42T444 97Q492 142 522 181T565 240H578L510 0H-70L-68 12Z" />
<glyph unicode="&#x142;" glyph-name="lslash" horiz-adv-x="322" d="M12 319L91 348Q99 372 107 397Q123 445 138 492T163 570Q166 578 170 595T175 628Q175 649 162 660Q157 665 147 668T124 674L127 684H369Q374 684 374 679Q374 675 370 665T361 640Q357 630
354 621T347 603T339 581T329 553Q321 529 306 481Q296 452 287 421L360 448L355 422L278 393Q276 388 274 382Q258 331 244 287T224 224Q206 171 194 132T181 75Q181 56 197 56Q206 56 218 62T244 79T272 104T297 137L309 130Q291 100 267 75T214 31T152 2T83
-9Q45 -9 25 9T5 64Q5 76 11 99T25 149T42 202T57 245Q64 266 78 307Q80 313 82 320L7 292L12 319Z" />
<glyph unicode="&#x143;" glyph-name="Nacute" horiz-adv-x="652" d="M338 702Q383 739 414 765T469 814Q492 835 510 843T551 852Q574 852 591 836T609 788Q609 761 589 747T545 726Q530 722 508 718T458 710T402 701T343 691L338 702ZM727 645Q722 644 713 643T696
639Q683 634 671 627T647 602Q637 590 625 561T600 478L479 -8H440L197 535H192L104 179Q96 148 93 121T89 79Q89 29 126 18Q134 16 144 15T165 12L162 0H-70L-67 12Q-60 13 -50 14T-32 18Q-18 22 -5 31T21 56Q32 70 47 101T73 181L141 453Q147 477 151 494T157
524T161 548T162 571Q162 591 148 610T113 637Q106 639 95 641T75 645L77 657H355L519 288H522L567 473Q576 508 580 534T585 575Q585 600 574 615T544 638Q537 641 527 642T505 645L508 657H730L727 645Z" />
<glyph unicode="&#x144;" glyph-name="nacute" horiz-adv-x="619" d="M551 618Q551 589 531 573T483 546Q454 535 402 520T292 491L289 502Q328 547 355 577T407 631Q430 653 449 666T489 680Q515 680 533 667T551 618ZM607 130Q589 100 564 75T510 31T447 2T379
-9Q346 -9 324 9T302 64Q302 90 318 135T355 231Q378 286 391 317T404 365Q404 377 399 381T385 386Q375 386 361 373T329 331T287 256T237 141Q224 109 211 73T185 0H11Q22 33 35 72T60 149T82 216T98 263Q109 295 115 318T122 367Q122 398 101 398Q88 398 66
376T18 313L3 321Q42 389 92 423T198 457Q242 457 262 436T282 380Q282 357 278 326T265 266H272Q297 320 323 356T376 415T426 447T472 457Q529 457 550 431T572 360Q572 328 560 294T525 205Q484 105 484 76Q484 56 498 56Q505 56 516 62T541 79T569 105T594
137L607 130Z" />
<glyph unicode="&#x145;" glyph-name="Ncommaaccent" horiz-adv-x="652" d="M318 140Q318 79 273 42T146 -16L142 2Q163 8 182 15T217 31T241 47T250 66Q250 74 245 77T226 85Q205 92 187 108T168 150Q168 187 191 204T243 222Q276 222 297 200T318 140ZM727 645Q722
644 713 643T696 639Q683 634 671 627T647 602Q637 590 625 561T600 478L479 -8H440L197 535H192L104 179Q96 148 93 121T89 79Q89 29 126 18Q134 16 144 15T165 12L162 0H-70L-67 12Q-60 13 -50 14T-32 18Q-18 22 -5 31T21 56Q32 70 47 101T73 181L141 453Q147
477 151 494T157 524T161 548T162 571Q162 591 148 610T113 637Q106 639 95 641T75 645L77 657H355L519 288H522L567 473Q576 508 580 534T585 575Q585 600 574 615T544 638Q537 641 527 642T505 645L508 657H730L727 645Z" />
<glyph unicode="&#x146;" glyph-name="ncommaaccent" horiz-adv-x="619" d="M311 -110Q311 -171 266 -208T139 -266L135 -248Q156 -242 175 -235T210 -219T234 -203T243 -184Q243 -176 238 -173T219 -165Q198 -158 180 -142T161 -100Q161 -63 184 -46T236 -28Q269
-28 290 -50T311 -110ZM607 130Q589 100 564 75T510 31T447 2T379 -9Q346 -9 324 9T302 64Q302 90 318 135T355 231Q378 286 391 317T404 365Q404 377 399 381T385 386Q375 386 361 373T329 331T287 256T237 141Q224 109 211 73T185 0H11Q22 33 35 72T60 149T82
216T98 263Q109 295 115 318T122 367Q122 398 101 398Q88 398 66 376T18 313L3 321Q42 389 92 423T198 457Q242 457 262 436T282 380Q282 357 278 326T265 266H272Q297 320 323 356T376 415T426 447T472 457Q529 457 550 431T572 360Q572 328 560 294T525 205Q484
105 484 76Q484 56 498 56Q505 56 516 62T541 79T569 105T594 137L607 130Z" />
<glyph unicode="&#x147;" glyph-name="Ncaron" horiz-adv-x="652" d="M338 847L461 788L628 849L633 839L478 702H413L330 839L338 847ZM727 645Q722 644 713 643T696 639Q683 634 671 627T647 602Q637 590 625 561T600 478L479 -8H440L197 535H192L104 179Q96
148 93 121T89 79Q89 29 126 18Q134 16 144 15T165 12L162 0H-70L-67 12Q-60 13 -50 14T-32 18Q-18 22 -5 31T21 56Q32 70 47 101T73 181L141 453Q147 477 151 494T157 524T161 548T162 571Q162 591 148 610T113 637Q106 639 95 641T75 645L77 657H355L519 288H522L567
473Q576 508 580 534T585 575Q585 600 574 615T544 638Q537 641 527 642T505 645L508 657H730L727 645Z" />
<glyph unicode="&#x148;" glyph-name="ncaron" horiz-adv-x="619" d="M266 665L387 581L555 667L563 656L397 483H333L258 658L266 665ZM607 130Q589 100 564 75T510 31T447 2T379 -9Q346 -9 324 9T302 64Q302 90 318 135T355 231Q378 286 391 317T404 365Q404
377 399 381T385 386Q375 386 361 373T329 331T287 256T237 141Q224 109 211 73T185 0H11Q22 33 35 72T60 149T82 216T98 263Q109 295 115 318T122 367Q122 398 101 398Q88 398 66 376T18 313L3 321Q42 389 92 423T198 457Q242 457 262 436T282 380Q282 357 278
326T265 266H272Q297 320 323 356T376 415T426 447T472 457Q529 457 550 431T572 360Q572 328 560 294T525 205Q484 105 484 76Q484 56 498 56Q505 56 516 62T541 79T569 105T594 137L607 130Z" />
<glyph unicode="&#x149;" glyph-name="napostrophe" horiz-adv-x="615" d="M211 427Q232 433 254 441T293 460T321 480T332 499Q332 505 326 509T312 517Q287 527 273 545T259 593Q259 628 281 650T334 672Q372 672 395 648T418 579Q418 549 402 523T358 474T293
436T215 409L211 427ZM607 130Q589 100 564 75T510 31T447 2T379 -9Q346 -9 324 9T302 64Q302 90 318 135T355 231Q378 286 391 317T404 365Q404 377 399 381T385 386Q375 386 361 373T329 331T287 256T237 141Q224 109 211 73T185 0H11Q22 33 35 72T60 149T82
216T98 263Q109 295 115 318T122 367Q122 398 101 398Q88 398 66 376T18 313L3 321Q42 389 92 423T198 457Q242 457 262 436T282 380Q282 357 278 326T265 266H272Q297 320 323 356T376 415T426 447T472 457Q529 457 550 431T572 360Q572 328 560 294T525 205Q484
105 484 76Q484 56 498 56Q505 56 516 62T541 79T569 105T594 137L607 130Z" />
<glyph unicode="&#x14a;" glyph-name="Eng" horiz-adv-x="652" d="M321 -180Q369 -180 397 -137T444 -20L448 -4L197 535H192L104 179Q96 148 93 121T89 79Q89 29 126 18Q141 14 161 12L159 0H-70L-67 12Q-60 13 -50 14T-32 18Q-18 22 -5 31T21 56Q32 70 47 101T73
181L141 453Q147 477 151 494T157 524T161 548T162 571Q162 591 148 610T113 637Q106 639 95 641T75 645L77 657H355L521 297H524L567 473Q576 508 580 534T585 575Q585 600 574 615T544 638Q537 641 527 642T505 645L508 657H730L727 645Q722 644 713 643T696
639Q683 634 671 627T647 602Q637 590 625 561T600 478L477 -15Q465 -63 451 -98T418 -157T374 -192T313 -204Q277 -204 250 -192T205 -161T177 -117T168 -68Q168 -44 176 -25T199 7T231 28T268 35Q283 35 299 30T329 14T352 -14T361 -55Q361 -84 349 -102T331
-128Q324 -136 315 -145T305 -162Q305 -180 321 -180Z" />
<glyph unicode="&#x14b;" glyph-name="eng" horiz-adv-x="610" d="M404 368Q404 386 385 386Q375 386 361 373T329 331T287 256T237 141Q224 109 211 73T185 0H11Q22 33 35 72T60 149T82 216T98 263Q109 295 115 318T122 367Q122 398 101 398Q88 398 66 376T18
313L3 321Q42 389 92 423T198 457Q242 457 262 436T282 380Q282 357 278 326T265 266H272Q297 320 323 356T376 415T426 447T472 457Q529 457 550 431T572 360Q572 344 566 317T550 257T528 193T506 134Q483 77 465 37T428 -34T392 -86T352 -130Q336 -145 315 -160T269
-187T217 -206T159 -213Q132 -213 107 -206T62 -186T30 -153T18 -107Q18 -70 40 -47T98 -23Q118 -23 132 -30T156 -47T170 -71T175 -96Q175 -115 170 -127T157 -152Q152 -159 148 -165T143 -177Q143 -185 149 -188T162 -192Q177 -192 191 -183T222 -148Q233 -131
249 -90T283 -3T315 88T339 155Q348 180 359 213T381 277T397 334T404 368Z" />
<glyph unicode="&#x14c;" glyph-name="Omacron" horiz-adv-x="678" d="M281 707L297 769H587L571 707H281ZM664 412Q664 360 653 308T619 208T562 120T483 49Q440 20 386 3T267 -14Q208 -14 162 5T83 59T33 141T15 245Q15 297 26 349T60 448T117 537T196 608Q239
636 294 653T413 671Q471 671 518 652T597 598T646 516T664 412ZM477 543Q477 564 475 583T467 616T449 639T418 648Q356 648 316 566Q305 545 286 495T249 380T217 245T203 113Q203 92 206 73T216 40T235 17T266 8Q296 8 320 28T364 90Q375 111 394 161T431 276T463
411T477 543Z" />
<glyph unicode="&#x14d;" glyph-name="omacron" horiz-adv-x="514" d="M207 536L223 598H473L457 536H207ZM203 -9Q160 -9 125 5T66 44T28 104T15 180Q15 240 42 295T113 388Q149 420 200 438T308 457Q351 457 385 443T444 404T482 343T495 267Q495 207 468 152T397
59Q361 27 310 9T203 -9ZM313 439Q304 439 292 431T263 389Q251 365 236 319T206 221T181 121T171 43Q171 31 176 20T197 9Q206 9 219 16T247 55Q259 81 275 126T305 222T329 324T339 411Q339 423 332 431T313 439Z" />
<glyph unicode="&#x14e;" glyph-name="Obreve" horiz-adv-x="678" d="M327 856Q338 822 367 802T441 781Q486 781 522 801T581 856L593 849Q579 775 539 737T433 698Q376 698 344 731T311 809Q311 819 312 829T315 851L327 856ZM664 412Q664 360 653 308T619 208T562
120T483 49Q440 20 386 3T267 -14Q208 -14 162 5T83 59T33 141T15 245Q15 297 26 349T60 448T117 537T196 608Q239 636 294 653T413 671Q471 671 518 652T597 598T646 516T664 412ZM477 543Q477 564 475 583T467 616T449 639T418 648Q356 648 316 566Q305 545 286
495T249 380T217 245T203 113Q203 92 206 73T216 40T235 17T266 8Q296 8 320 28T364 90Q375 111 394 161T431 276T463 411T477 543Z" />
<glyph unicode="&#x14f;" glyph-name="obreve" horiz-adv-x="514" d="M203 -9Q160 -9 125 5T66 44T28 104T15 180Q15 240 42 295T113 388Q149 420 200 438T308 457Q351 457 385 443T444 404T482 343T495 267Q495 207 468 152T397 59Q361 27 310 9T203 -9ZM313
439Q304 439 292 431T263 389Q251 365 236 319T206 221T181 121T171 43Q171 31 176 20T197 9Q206 9 219 16T247 55Q259 81 275 126T305 222T329 324T339 411Q339 423 332 431T313 439ZM235 672Q246 639 275 618T341 597Q383 597 418 617T474 672L487 665Q473 591
435 553T334 514Q282 514 252 547T220 625Q220 635 220 645T223 667L235 672Z" />
<glyph unicode="&#x150;" glyph-name="Ohungarumlaut" horiz-adv-x="678" d="M506 829Q506 811 488 794T449 765Q428 753 397 738T320 701H299Q317 727 329 745T350 779T366 806T383 830Q399 853 415 866T454 879Q478 879 492 867T506 829ZM688 829Q688 811 670
794T631 765Q609 753 578 738T501 701H481Q499 727 510 745T531 779T547 806T564 830Q581 853 597 866T635 879Q659 879 673 867T688 829ZM664 412Q664 360 653 308T619 208T562 120T483 49Q440 20 386 3T267 -14Q208 -14 162 5T83 59T33 141T15 245Q15 297 26
349T60 448T117 537T196 608Q239 636 294 653T413 671Q471 671 518 652T597 598T646 516T664 412ZM477 543Q477 564 475 583T467 616T449 639T418 648Q356 648 316 566Q305 545 286 495T249 380T217 245T203 113Q203 92 206 73T216 40T235 17T266 8Q296 8 320 28T364
90Q375 111 394 161T431 276T463 411T477 543Z" />
<glyph unicode="&#x151;" glyph-name="ohungarumlaut" horiz-adv-x="514" d="M329 676Q352 676 369 662T387 617Q387 600 376 585T347 558Q323 542 282 521T190 476L180 485Q195 512 206 533T227 570T243 599T258 625Q270 645 285 660T329 676ZM523 676Q546 676
563 662T581 617Q581 600 570 585T542 558Q517 542 476 521T384 476L374 485Q389 512 400 533T421 570T437 599T453 625Q464 645 479 660T523 676ZM203 -9Q160 -9 125 5T66 44T28 104T15 180Q15 240 42 295T113 388Q149 420 200 438T308 457Q351 457 385 443T444
404T482 343T495 267Q495 207 468 152T397 59Q361 27 310 9T203 -9ZM313 439Q304 439 292 431T263 389Q251 365 236 319T206 221T181 121T171 43Q171 31 176 20T197 9Q206 9 219 16T247 55Q259 81 275 126T305 222T329 324T339 411Q339 423 332 431T313 439Z" />
<glyph unicode="&#x152;" glyph-name="OE" horiz-adv-x="985" d="M398 0Q382 0 362 -1T322 -3T285 -6T257 -7Q214 -7 171 7T93 51T37 130T15 246Q15 337 46 413T133 544T265 629T430 660Q435 660 451 660T487 659T527 658T562 657H987L965 432H952Q947 469 932
508T900 573Q881 601 857 616T799 632H773Q747 632 732 620Q721 612 716 598T705 564L652 353H673Q716 353 737 362T776 387Q799 408 817 438T845 492H858L780 183H768Q769 196 769 212T766 244T759 274T749 298Q740 311 723 319T670 328H646L605 167Q596 132 592
112T587 77Q587 48 602 36T648 24H664Q694 24 726 42T798 97Q846 142 876 181T919 240H931L864 0H398ZM429 638Q398 638 380 627T347 598Q340 588 326 553T294 470T260 366T228 256T204 157T195 87Q195 15 262 15Q294 15 310 29T341 61Q348 71 362 104T394 184T430
285T463 391T487 487T497 557Q497 592 480 615T429 638Z" />
<glyph unicode="&#x153;" glyph-name="oe" horiz-adv-x="767" d="M766 363Q766 315 722 283Q710 274 687 264T635 244T571 223T503 204Q494 148 494 97Q494 69 503 54T538 38Q567 38 593 49T641 76T682 111T712 146L723 138Q705 108 682 82T629 35T562 3T480 -9Q441
-9 408 10T362 58H357Q328 26 287 9T203 -9Q160 -9 125 5T66 44T28 104T15 180Q15 240 42 295T113 388Q149 420 200 438T308 457Q330 457 350 451T389 435T420 411T443 382H448Q465 399 488 413T537 436T586 451T630 457Q700 457 733 429T766 363ZM654 398Q654
416 648 426T627 437Q607 437 589 420T556 373T528 305T507 224Q535 232 563 243T606 265Q621 277 630 294T645 331T652 368T654 398ZM339 411Q339 423 332 431T313 439Q304 439 292 431T263 389Q251 365 236 319T206 221T181 121T171 43Q171 31 176 20T197 9Q206
9 219 16T247 55Q259 81 275 126T305 222T329 324T339 411Z" />
<glyph unicode="&#x154;" glyph-name="Racute" horiz-adv-x="688" d="M308 702Q353 739 384 765T439 814Q462 835 480 843T521 852Q544 852 561 836T579 788Q579 761 559 747T515 726Q500 722 478 718T428 710T372 701T313 691L308 702ZM516 -13Q469 -13 439 2T393
42T370 95T364 152Q364 188 364 217T361 276Q358 320 319 320H298L270 207Q259 162 254 134T248 87Q248 62 257 47T284 24Q297 19 311 16T334 12L331 0H-70L-68 12Q-57 13 -45 16T-25 22Q-8 27 4 38T28 65Q42 88 53 120T77 204L139 451Q150 496 155 524T160 570Q160
617 125 633Q98 644 82 645L86 657H427Q492 657 535 646T604 616T640 569T651 509Q651 458 619 420T533 359Q509 349 481 343T418 332V328Q445 326 468 318T508 296Q531 278 545 251T561 184Q563 142 568 118T580 80T598 63T622 59Q638 59 651 71T676 106L690 99Q683
82 670 62T636 26T586 -2T516 -13ZM470 574Q470 599 462 615T429 632H410Q396 632 386 625Q373 615 367 592L304 344H342Q364 344 381 351T418 382Q431 400 441 423T457 473T467 525T470 574Z" />
<glyph unicode="&#x155;" glyph-name="racute" horiz-adv-x="493" d="M521 618Q521 589 501 573T453 546Q424 535 372 520T262 491L259 502Q298 547 325 577T377 631Q400 653 419 666T459 680Q485 680 503 667T521 618ZM267 259Q287 319 306 357T345 418T385 448T427
457Q468 457 491 435T515 367Q515 327 497 301T441 275Q387 275 367 323Q359 343 356 353T344 363Q339 363 332 353T312 316T280 246T234 133Q221 101 209 69T185 0H11Q22 33 35 72T60 149T82 216T98 263Q109 295 115 318T122 367Q122 398 101 398Q88 398 66 376T18
313L3 321Q42 389 92 423T198 457Q242 457 261 436T280 380Q280 353 274 321T260 259H267Z" />
<glyph unicode="&#x156;" glyph-name="Rcommaaccent" horiz-adv-x="688" d="M382 -116Q382 -177 337 -214T210 -272L206 -254Q227 -248 246 -241T281 -225T305 -209T314 -190Q314 -182 309 -179T290 -171Q269 -164 251 -148T232 -106Q232 -69 255 -52T307 -34Q340
-34 361 -56T382 -116ZM516 -13Q469 -13 439 2T393 42T370 95T364 152Q364 188 364 217T361 276Q358 320 319 320H298L270 207Q259 162 254 134T248 87Q248 62 257 47T284 24Q297 19 311 16T334 12L331 0H-70L-68 12Q-57 13 -45 16T-25 22Q-8 27 4 38T28 65Q42
88 53 120T77 204L139 451Q150 496 155 524T160 570Q160 617 125 633Q98 644 82 645L86 657H427Q492 657 535 646T604 616T640 569T651 509Q651 458 619 420T533 359Q509 349 481 343T418 332V328Q445 326 468 318T508 296Q531 278 545 251T561 184Q563 142 568
118T580 80T598 63T622 59Q638 59 651 71T676 106L690 99Q683 82 670 62T636 26T586 -2T516 -13ZM470 574Q470 599 462 615T429 632H410Q396 632 386 625Q373 615 367 592L304 344H342Q364 344 381 351T418 382Q431 400 441 423T457 473T467 525T470 574Z" />
<glyph unicode="&#x157;" glyph-name="rcommaaccent" horiz-adv-x="493" d="M415 -110Q415 -171 370 -208T243 -266L239 -248Q260 -242 279 -235T314 -219T338 -203T347 -184Q347 -176 342 -173T323 -165Q302 -158 284 -142T265 -100Q265 -63 288 -46T340 -28Q373
-28 394 -50T415 -110ZM267 259Q287 319 306 357T345 418T385 448T427 457Q468 457 491 435T515 367Q515 327 497 301T441 275Q387 275 367 323Q359 343 356 353T344 363Q339 363 332 353T312 316T280 246T234 133Q221 101 209 69T185 0H11Q22 33 35 72T60 149T82
216T98 263Q109 295 115 318T122 367Q122 398 101 398Q88 398 66 376T18 313L3 321Q42 389 92 423T198 457Q242 457 261 436T280 380Q280 353 274 321T260 259H267Z" />
<glyph unicode="&#x158;" glyph-name="Rcaron" horiz-adv-x="688" d="M312 847L435 788L602 849L607 839L452 702H387L304 839L312 847ZM516 -13Q469 -13 439 2T393 42T370 95T364 152Q364 188 364 217T361 276Q358 320 319 320H298L270 207Q259 162 254 134T248
87Q248 62 257 47T284 24Q297 19 311 16T334 12L331 0H-70L-68 12Q-57 13 -45 16T-25 22Q-8 27 4 38T28 65Q42 88 53 120T77 204L139 451Q150 496 155 524T160 570Q160 617 125 633Q98 644 82 645L86 657H427Q492 657 535 646T604 616T640 569T651 509Q651 458
619 420T533 359Q509 349 481 343T418 332V328Q445 326 468 318T508 296Q531 278 545 251T561 184Q563 142 568 118T580 80T598 63T622 59Q638 59 651 71T676 106L690 99Q683 82 670 62T636 26T586 -2T516 -13ZM470 574Q470 599 462 615T429 632H410Q396 632 386
625Q373 615 367 592L304 344H342Q364 344 381 351T418 382Q431 400 441 423T457 473T467 525T470 574Z" />
<glyph unicode="&#x159;" glyph-name="rcaron" horiz-adv-x="493" d="M221 665L342 581L510 667L518 656L352 483H288L213 658L221 665ZM267 259Q287 319 306 357T345 418T385 448T427 457Q468 457 491 435T515 367Q515 327 497 301T441 275Q387 275 367 323Q359
343 356 353T344 363Q339 363 332 353T312 316T280 246T234 133Q221 101 209 69T185 0H11Q22 33 35 72T60 149T82 216T98 263Q109 295 115 318T122 367Q122 398 101 398Q88 398 66 376T18 313L3 321Q42 389 92 423T198 457Q242 457 261 436T280 380Q280 353 274
321T260 259H267Z" />
<glyph unicode="&#x15a;" glyph-name="Sacute" horiz-adv-x="544" d="M490 438H476Q476 492 467 535T432 609Q418 628 395 639T340 650Q295 650 273 624T251 558Q251 523 274 494T345 431Q388 400 417 375T465 324T491 271T499 207Q499 163 480 124T426 53T342
4T232 -14Q181 -14 138 6T62 71H56L-3 2H-13L39 262H53Q58 209 70 163T104 82T157 28T231 8Q282 8 312 30T342 98Q342 119 337 134T317 166T277 204T212 255Q183 277 161 299T122 346T98 397T90 456Q90 500 106 539T155 607T235 654T342 671Q372 671 396 664T437
647T467 624T485 602H487L529 653H543L490 438ZM256 702Q301 739 332 765T387 814Q410 835 428 843T469 852Q492 852 509 836T527 788Q527 761 507 747T463 726Q448 722 426 718T376 710T320 701T261 691L256 702Z" />
<glyph unicode="&#x15b;" glyph-name="sacute" horiz-adv-x="407" d="M451 618Q451 589 431 573T383 546Q354 535 302 520T192 491L189 502Q228 547 255 577T307 631Q330 653 349 666T389 680Q415 680 433 667T451 618ZM395 362Q395 336 379 320T335 303Q309 303
293 318T275 354Q273 374 274 385T272 410Q270 423 259 430T232 437Q209 437 197 425T185 393Q185 368 206 347T273 297Q321 268 348 233T375 151Q375 116 358 87T312 36T245 3T167 -9Q131 -9 101 -2T49 19T15 52T2 98Q2 130 20 146T62 163Q115 163 121 109Q123
92 121 76T121 46Q123 28 139 20T175 11Q208 11 229 24T250 67Q250 78 246 87T230 106T199 130T148 166Q111 192 90 223T69 302Q69 343 84 372T124 420T179 448T240 457Q271 457 299 452T348 436T382 406T395 362Z" />
<glyph unicode="&#x15c;" glyph-name="Scircumflex" horiz-adv-x="544" d="M500 703L378 762L210 702L206 711L361 848H426L508 711L500 703ZM490 438H476Q476 492 467 535T432 609Q418 628 395 639T340 650Q295 650 273 624T251 558Q251 523 274 494T345 431Q388
400 417 375T465 324T491 271T499 207Q499 163 480 124T426 53T342 4T232 -14Q181 -14 138 6T62 71H56L-3 2H-13L39 262H53Q58 209 70 163T104 82T157 28T231 8Q282 8 312 30T342 98Q342 119 337 134T317 166T277 204T212 255Q183 277 161 299T122 346T98 397T90
456Q90 500 106 539T155 607T235 654T342 671Q372 671 396 664T437 647T467 624T485 602H487L529 653H543L490 438Z" />
<glyph unicode="&#x15d;" glyph-name="scircumflex" horiz-adv-x="407" d="M409 485L288 563L120 484L112 494L278 667H342L417 492L409 485ZM395 362Q395 336 379 320T335 303Q309 303 293 318T275 354Q273 374 274 385T272 410Q270 423 259 430T232 437Q209
437 197 425T185 393Q185 368 206 347T273 297Q321 268 348 233T375 151Q375 116 358 87T312 36T245 3T167 -9Q131 -9 101 -2T49 19T15 52T2 98Q2 130 20 146T62 163Q115 163 121 109Q123 92 121 76T121 46Q123 28 139 20T175 11Q208 11 229 24T250 67Q250 78 246
87T230 106T199 130T148 166Q111 192 90 223T69 302Q69 343 84 372T124 420T179 448T240 457Q271 457 299 452T348 436T382 406T395 362Z" />
<glyph unicode="&#x15e;" glyph-name="Scedilla" horiz-adv-x="544" d="M490 438H476Q476 492 467 535T432 609Q418 628 395 639T340 650Q295 650 273 624T251 558Q251 523 274 494T345 431Q388 400 417 375T465 324T491 271T499 207Q499 163 480 124T426 53T342
4T232 -14Q181 -14 138 6T62 71H56L-3 2H-13L39 262H53Q58 209 70 163T104 82T157 28T231 8Q282 8 312 30T342 98Q342 119 337 134T317 166T277 204T212 255Q183 277 161 299T122 346T98 397T90 456Q90 500 106 539T155 607T235 654T342 671Q372 671 396 664T437
647T467 624T485 602H487L529 653H543L490 438ZM295 -109Q295 -126 288 -141T265 -168T220 -187T149 -194Q128 -194 109 -188T77 -175L84 -162Q94 -167 108 -170T137 -173Q172 -173 190 -156T209 -108Q209 -88 199 -74T172 -60Q156 -60 143 -71L128 -63L165 1H187L157
-50Q165 -45 180 -41T213 -37Q248 -37 271 -53T295 -109Z" />
<glyph unicode="&#x15f;" glyph-name="scedilla" horiz-adv-x="407" d="M395 362Q395 336 379 320T335 303Q309 303 293 318T275 354Q273 374 274 385T272 410Q270 423 259 430T232 437Q209 437 197 425T185 393Q185 368 206 347T273 297Q321 268 348 233T375
151Q375 116 358 87T312 36T245 3T167 -9Q131 -9 101 -2T49 19T15 52T2 98Q2 130 20 146T62 163Q115 163 121 109Q123 92 121 76T121 46Q123 28 139 20T175 11Q208 11 229 24T250 67Q250 78 246 87T230 106T199 130T148 166Q111 192 90 223T69 302Q69 343 84 372T124
420T179 448T240 457Q271 457 299 452T348 436T382 406T395 362ZM244 -109Q244 -126 237 -141T214 -168T169 -187T98 -194Q77 -194 58 -188T26 -175L33 -162Q43 -167 57 -170T86 -173Q121 -173 139 -156T158 -108Q158 -88 148 -74T121 -60Q105 -60 92 -71L77 -63L114
1H136L106 -50Q114 -45 129 -41T162 -37Q197 -37 220 -53T244 -109Z" />
<glyph unicode="&#x160;" glyph-name="Scaron" horiz-adv-x="544" d="M256 847L379 788L546 849L551 839L396 702H331L248 839L256 847ZM490 438H476Q476 492 467 535T432 609Q418 628 395 639T340 650Q295 650 273 624T251 558Q251 523 274 494T345 431Q388 400
417 375T465 324T491 271T499 207Q499 163 480 124T426 53T342 4T232 -14Q181 -14 138 6T62 71H56L-3 2H-13L39 262H53Q58 209 70 163T104 82T157 28T231 8Q282 8 312 30T342 98Q342 119 337 134T317 166T277 204T212 255Q183 277 161 299T122 346T98 397T90 456Q90
500 106 539T155 607T235 654T342 671Q372 671 396 664T437 647T467 624T485 602H487L529 653H543L490 438Z" />
<glyph unicode="&#x161;" glyph-name="scaron" horiz-adv-x="407" d="M166 665L287 581L455 667L463 656L297 483H233L158 658L166 665ZM395 362Q395 336 379 320T335 303Q309 303 293 318T275 354Q273 374 274 385T272 410Q270 423 259 430T232 437Q209 437 197
425T185 393Q185 368 206 347T273 297Q321 268 348 233T375 151Q375 116 358 87T312 36T245 3T167 -9Q131 -9 101 -2T49 19T15 52T2 98Q2 130 20 146T62 163Q115 163 121 109Q123 92 121 76T121 46Q123 28 139 20T175 11Q208 11 229 24T250 67Q250 78 246 87T230
106T199 130T148 166Q111 192 90 223T69 302Q69 343 84 372T124 420T179 448T240 457Q271 457 299 452T348 436T382 406T395 362Z" />
<glyph unicode="&#x162;" glyph-name="Tcommaaccent" horiz-adv-x="651" d="M288 140Q288 79 243 42T116 -16L112 2Q133 8 152 15T187 31T211 47T220 66Q220 74 215 77T196 85Q175 92 157 108T138 150Q138 187 161 204T213 222Q246 222 267 200T288 140ZM678 415H665Q649
507 604 569Q582 598 558 615T503 632H487L382 207Q371 162 366 133T361 86Q361 61 370 47T397 24Q423 13 438 12L436 0H42L45 12Q55 13 67 16T87 22Q104 27 116 38T140 65Q154 88 165 120T190 204L296 632H283Q250 632 220 616T161 569Q132 540 103 503T36 415H23L102
657H709L678 415Z" />
<glyph unicode="&#x163;" glyph-name="tcommaaccent" horiz-adv-x="347" d="M403 -110Q403 -171 358 -208T231 -266L227 -248Q248 -242 267 -235T302 -219T326 -203T335 -184Q335 -176 330 -173T311 -165Q290 -158 272 -142T253 -100Q253 -63 276 -46T328 -28Q361
-28 382 -50T403 -110ZM182 72Q182 54 197 54Q206 54 219 61T248 79T277 106T304 137L317 130Q299 100 274 75T219 31T156 2T86 -9Q54 -9 31 9T8 64Q8 77 13 97T25 140T40 186T56 228L129 417H57L68 447H140L188 577H354L309 447H410L399 417H299L230 224Q207 159
195 124T182 72Z" />
<glyph unicode="&#x164;" glyph-name="Tcaron" horiz-adv-x="651" d="M308 847L431 788L598 849L603 839L448 702H383L300 839L308 847ZM678 415H665Q649 507 604 569Q582 598 558 615T503 632H487L382 207Q371 162 366 133T361 86Q361 61 370 47T397 24Q423 13
438 12L436 0H42L45 12Q55 13 67 16T87 22Q104 27 116 38T140 65Q154 88 165 120T190 204L296 632H283Q250 632 220 616T161 569Q132 540 103 503T36 415H23L102 657H709L678 415Z" />
<glyph unicode="&#x165;" glyph-name="tcaron" horiz-adv-x="347" d="M426 687H541Q519 661 501 639T464 593T426 545T382 488H366L426 687ZM182 72Q182 54 197 54Q206 54 219 61T248 79T277 106T304 137L317 130Q299 100 274 75T219 31T156 2T86 -9Q54 -9 31
9T8 64Q8 77 13 97T25 140T40 186T56 228L129 417H57L68 447H140L188 577H354L309 447H410L399 417H299L230 224Q207 159 195 124T182 72Z" />
<glyph unicode="&#x166;" glyph-name="Tbar" horiz-adv-x="651" d="M678 415H665Q649 507 604 569Q582 598 558 615T503 632H487L434 417H545L537 387H426L382 207Q371 162 366 133T361 86Q361 61 370 47T397 24Q423 13 438 12L436 0H42L45 12Q55 13 67 16T87
22Q104 27 116 38T140 65Q154 88 165 120T190 204L235 387H127L134 417H243L296 632H283Q250 632 220 616T161 569Q132 540 103 503T36 415H23L102 657H709L678 415Z" />
<glyph unicode="&#x167;" glyph-name="tbar" horiz-adv-x="348" d="M299 417L271 339H378L367 311H261L232 224Q209 159 196 124T183 72Q183 54 199 54Q208 54 221 61T250 79T279 106T306 137L319 130Q301 100 276 75T221 31T158 2T88 -9Q55 -9 32 9T9 64Q9 77
14 97T26 140T42 186T57 228L88 311H19L30 339H98L129 417H57L67 447H141L189 577H356L310 447H409L399 417H299Z" />
<glyph unicode="&#x168;" glyph-name="Utilde" horiz-adv-x="681" d="M756 645Q750 644 741 643T724 639Q711 634 699 627T675 602Q666 590 653 558T626 471L562 214Q549 160 529 118T477 47T403 2T300 -14Q238 -14 195 0T123 41T83 105T70 187Q70 197 72 214T78
250T86 290T95 327L126 451Q137 496 142 525T147 572Q147 597 138 611T112 634Q98 639 88 641T69 645L72 657H451L448 645Q431 644 413 636Q396 628 386 619T365 593Q354 577 344 550T321 470L260 218Q254 194 251 172T248 126Q248 82 272 53T347 23Q414 23 462
72T533 215L597 469Q605 504 609 532T614 575Q614 600 603 615T573 638Q566 641 556 642T534 645L538 657H758L756 645ZM665 852Q658 824 646 800T617 757T579 729T530 719Q514 719 497 723T462 732T429 741T401 745Q378 745 358 740T323 708L306 710Q322 772 356
805T449 838Q461 838 475 834T505 826T538 818T572 814Q598 814 616 819T649 854L665 852Z" />
<glyph unicode="&#x169;" glyph-name="utilde" horiz-adv-x="626" d="M493 76Q493 54 511 54Q526 54 553 78T603 137L616 129Q598 99 576 74T529 31T474 2T412 -9Q372 -9 349 13T326 80Q326 100 332 126T347 180H339Q310 120 284 83T232 26T182 -2T131 -9Q94 -9
67 16T40 87Q40 105 43 121T53 155T67 194T87 242Q108 293 117 321T127 369Q127 398 106 398Q93 398 71 376T23 313L10 321Q49 389 99 423T205 457Q257 457 282 433T307 373Q307 347 293 307T258 216Q235 161 223 131T211 83Q211 70 216 66T230 61Q240 61 254 75T287
119T329 197T379 313Q392 345 405 378T430 447H605Q594 414 581 374T555 296T532 227T516 179Q505 147 499 124T493 76ZM578 663Q570 634 558 609T530 564T492 533T443 522Q427 522 410 526T376 535T344 545T317 549Q294 549 273 538T237 498L221 500Q229 531 241
557T270 603T311 634T364 645Q376 645 390 641T419 633T452 624T486 620Q512 620 529 628T562 665L578 663Z" />
<glyph unicode="&#x16a;" glyph-name="Umacron" horiz-adv-x="681" d="M756 645Q750 644 741 643T724 639Q711 634 699 627T675 602Q666 590 653 558T626 471L562 214Q549 160 529 118T477 47T403 2T300 -14Q238 -14 195 0T123 41T83 105T70 187Q70 197 72 214T78
250T86 290T95 327L126 451Q137 496 142 525T147 572Q147 597 138 611T112 634Q98 639 88 641T69 645L72 657H451L448 645Q431 644 413 636Q396 628 386 619T365 593Q354 577 344 550T321 470L260 218Q254 194 251 172T248 126Q248 82 272 53T347 23Q414 23 462
72T533 215L597 469Q605 504 609 532T614 575Q614 600 603 615T573 638Q566 641 556 642T534 645L538 657H758L756 645ZM323 707L339 769H629L613 707H323Z" />
<glyph unicode="&#x16b;" glyph-name="umacron" horiz-adv-x="626" d="M493 76Q493 54 511 54Q526 54 553 78T603 137L616 129Q598 99 576 74T529 31T474 2T412 -9Q372 -9 349 13T326 80Q326 100 332 126T347 180H339Q310 120 284 83T232 26T182 -2T131 -9Q94
-9 67 16T40 87Q40 105 43 121T53 155T67 194T87 242Q108 293 117 321T127 369Q127 398 106 398Q93 398 71 376T23 313L10 321Q49 389 99 423T205 457Q257 457 282 433T307 373Q307 347 293 307T258 216Q235 161 223 131T211 83Q211 70 216 66T230 61Q240 61 254
75T287 119T329 197T379 313Q392 345 405 378T430 447H605Q594 414 581 374T555 296T532 227T516 179Q505 147 499 124T493 76ZM262 536L278 598H528L512 536H262Z" />
<glyph unicode="&#x16c;" glyph-name="Ubreve" horiz-adv-x="681" d="M756 645Q750 644 741 643T724 639Q711 634 699 627T675 602Q666 590 653 558T626 471L562 214Q549 160 529 118T477 47T403 2T300 -14Q238 -14 195 0T123 41T83 105T70 187Q70 197 72 214T78
250T86 290T95 327L126 451Q137 496 142 525T147 572Q147 597 138 611T112 634Q98 639 88 641T69 645L72 657H451L448 645Q431 644 413 636Q396 628 386 619T365 593Q354 577 344 550T321 470L260 218Q254 194 251 172T248 126Q248 82 272 53T347 23Q414 23 462
72T533 215L597 469Q605 504 609 532T614 575Q614 600 603 615T573 638Q566 641 556 642T534 645L538 657H758L756 645ZM369 856Q380 822 409 802T483 781Q528 781 564 801T623 856L635 849Q621 775 581 737T475 698Q418 698 386 731T353 809Q353 819 354 829T357
851L369 856Z" />
<glyph unicode="&#x16d;" glyph-name="ubreve" horiz-adv-x="626" d="M493 76Q493 54 511 54Q526 54 553 78T603 137L616 129Q598 99 576 74T529 31T474 2T412 -9Q372 -9 349 13T326 80Q326 100 332 126T347 180H339Q310 120 284 83T232 26T182 -2T131 -9Q94 -9
67 16T40 87Q40 105 43 121T53 155T67 194T87 242Q108 293 117 321T127 369Q127 398 106 398Q93 398 71 376T23 313L10 321Q49 389 99 423T205 457Q257 457 282 433T307 373Q307 347 293 307T258 216Q235 161 223 131T211 83Q211 70 216 66T230 61Q240 61 254 75T287
119T329 197T379 313Q392 345 405 378T430 447H605Q594 414 581 374T555 296T532 227T516 179Q505 147 499 124T493 76ZM290 672Q301 639 330 618T396 597Q438 597 473 617T529 672L542 665Q528 591 490 553T389 514Q337 514 307 547T275 625Q275 635 275 645T278
667L290 672Z" />
<glyph unicode="&#x16e;" glyph-name="Uring" horiz-adv-x="681" d="M756 645Q750 644 741 643T724 639Q711 634 699 627T675 602Q666 590 653 558T626 471L562 214Q549 160 529 118T477 47T403 2T300 -14Q238 -14 195 0T123 41T83 105T70 187Q70 197 72 214T78
250T86 290T95 327L126 451Q137 496 142 525T147 572Q147 597 138 611T112 634Q98 639 88 641T69 645L72 657H451L448 645Q431 644 413 636Q396 628 386 619T365 593Q354 577 344 550T321 470L260 218Q254 194 251 172T248 126Q248 82 272 53T347 23Q414 23 462
72T533 215L597 469Q605 504 609 532T614 575Q614 600 603 615T573 638Q566 641 556 642T534 645L538 657H758L756 645ZM594 773Q594 753 587 737T566 708T536 688T499 681Q459 681 432 706T404 773Q404 814 431 840T498 866Q539 866 566 841T594 773ZM558 773Q558
802 542 818T498 835Q470 835 454 819T438 773Q438 745 454 729T497 712Q525 712 541 728T558 773Z" />
<glyph unicode="&#x16f;" glyph-name="uring" horiz-adv-x="626" d="M486 590Q486 570 478 554T457 524T427 504T390 497Q350 497 323 523T295 590Q295 631 322 656T390 682Q430 682 457 657T486 590ZM449 589Q449 618 433 635T389 652Q361 652 345 635T329 590Q329
562 345 545T388 528Q417 528 433 544T449 589ZM493 76Q493 54 511 54Q526 54 553 78T603 137L616 129Q598 99 576 74T529 31T474 2T412 -9Q372 -9 349 13T326 80Q326 100 332 126T347 180H339Q310 120 284 83T232 26T182 -2T131 -9Q94 -9 67 16T40 87Q40 105 43
121T53 155T67 194T87 242Q108 293 117 321T127 369Q127 398 106 398Q93 398 71 376T23 313L10 321Q49 389 99 423T205 457Q257 457 282 433T307 373Q307 347 293 307T258 216Q235 161 223 131T211 83Q211 70 216 66T230 61Q240 61 254 75T287 119T329 197T379
313Q392 345 405 378T430 447H605Q594 414 581 374T555 296T532 227T516 179Q505 147 499 124T493 76Z" />
<glyph unicode="&#x170;" glyph-name="Uhungarumlaut" horiz-adv-x="681" d="M550 829Q550 811 532 794T493 765Q472 753 441 738T364 701H343Q361 727 373 745T394 779T410 806T427 830Q443 853 459 866T498 879Q522 879 536 867T550 829ZM732 829Q732 811 714
794T675 765Q653 753 622 738T545 701H525Q543 727 554 745T575 779T591 806T608 830Q625 853 641 866T679 879Q703 879 717 867T732 829ZM756 645Q750 644 741 643T724 639Q711 634 699 627T675 602Q666 590 653 558T626 471L562 214Q549 160 529 118T477 47T403
2T300 -14Q238 -14 195 0T123 41T83 105T70 187Q70 197 72 214T78 250T86 290T95 327L126 451Q137 496 142 525T147 572Q147 597 138 611T112 634Q98 639 88 641T69 645L72 657H451L448 645Q431 644 413 636Q396 628 386 619T365 593Q354 577 344 550T321 470L260
218Q254 194 251 172T248 126Q248 82 272 53T347 23Q414 23 462 72T533 215L597 469Q605 504 609 532T614 575Q614 600 603 615T573 638Q566 641 556 642T534 645L538 657H758L756 645Z" />
<glyph unicode="&#x171;" glyph-name="uhungarumlaut" horiz-adv-x="626" d="M493 76Q493 54 511 54Q526 54 553 78T603 137L616 129Q598 99 576 74T529 31T474 2T412 -9Q372 -9 349 13T326 80Q326 100 332 126T347 180H339Q310 120 284 83T232 26T182 -2T131
-9Q94 -9 67 16T40 87Q40 105 43 121T53 155T67 194T87 242Q108 293 117 321T127 369Q127 398 106 398Q93 398 71 376T23 313L10 321Q49 389 99 423T205 457Q257 457 282 433T307 373Q307 347 293 307T258 216Q235 161 223 131T211 83Q211 70 216 66T230 61Q240
61 254 75T287 119T329 197T379 313Q392 345 405 378T430 447H605Q594 414 581 374T555 296T532 227T516 179Q505 147 499 124T493 76ZM386 676Q409 676 426 662T444 617Q444 600 433 585T404 558Q380 542 339 521T247 476L237 485Q252 512 263 533T284 570T300
599T315 625Q327 645 342 660T386 676ZM580 676Q603 676 620 662T638 617Q638 600 627 585T599 558Q574 542 533 521T441 476L431 485Q446 512 457 533T478 570T494 599T510 625Q521 645 536 660T580 676Z" />
<glyph unicode="&#x172;" glyph-name="Uogonek" horiz-adv-x="681" d="M334 -217Q246 -219 203 -199T160 -140Q160 -116 177 -97T222 -63T281 -35T341 -11Q333 -13 321 -13T300 -14Q238 -14 195 0T123 41T83 105T70 187Q70 197 72 214T78 250T86 290T95 327L126
451Q137 496 142 525T147 572Q147 597 138 611T112 634Q98 639 88 641T69 645L72 657H451L448 645Q431 644 413 636Q396 628 386 619T365 593Q354 577 344 550T321 470L260 218Q254 194 251 172T248 126Q248 82 272 53T347 23Q414 23 462 72T533 215L597 469Q605
504 609 532T614 575Q614 600 603 615T573 638Q566 641 556 642T534 645L538 657H758L756 645Q750 644 741 643T724 639Q711 634 699 627T675 602Q666 590 653 558T626 471L562 214Q542 130 505 78T400 0Q379 -8 357 -22T318 -56T290 -98T279 -147Q279 -200 338
-205L334 -217Z" />
<glyph unicode="&#x173;" glyph-name="uogonek" horiz-adv-x="626" d="M427 -217Q339 -219 296 -199T253 -140Q253 -116 272 -97T320 -61T382 -32T442 -6Q430 -9 414 -9Q372 -10 349 13T326 80Q326 100 332 126T347 180H339Q310 120 284 83T232 26T182 -2T131
-9Q94 -9 67 16T40 87Q40 105 43 121T53 155T67 194T87 242Q108 293 117 321T127 369Q127 398 106 398Q93 398 71 376T23 313L10 321Q49 389 99 423T205 457Q257 457 282 433T307 373Q307 347 293 307T258 216Q235 161 223 131T211 83Q211 70 216 66T230 61Q240
61 254 75T287 119T329 197T379 313Q392 345 405 378T430 447H605Q594 414 581 374T555 296T532 227T516 179Q505 147 499 124T493 76Q493 54 511 54Q526 54 553 78T603 137L616 129Q594 94 569 67T513 21Q487 6 462 -12T417 -50T385 -95T372 -147Q372 -200 431
-205L427 -217Z" />
<glyph unicode="&#x174;" glyph-name="Wcircumflex" horiz-adv-x="1030" d="M812 703L690 762L522 702L518 711L673 848H738L820 711L812 703ZM418 0L528 421H526L179 0H30L145 450Q156 495 161 524T167 571Q167 596 157 610T130 633Q104 644 89 645L91 657H467L465
645Q454 644 445 642T428 636Q411 628 402 620T382 594Q369 571 359 538T337 456L267 157H273L539 476Q544 500 549 528T555 571Q555 596 545 610T518 633Q505 638 499 641T484 645L487 657H855L853 645Q843 644 833 642T816 636Q799 628 790 620T770 594Q756 571
747 538T725 456L655 157H661L941 509Q959 532 968 549T978 587Q978 616 953 630Q929 642 900 645L902 657H1172L1170 645Q1159 643 1144 639T1118 629Q1083 612 1051 585T988 519L567 0H418Z" />
<glyph unicode="&#x175;" glyph-name="wcircumflex" horiz-adv-x="802" d="M705 485L584 563L416 484L408 494L574 667H638L713 492L705 485ZM508 -9Q470 -9 441 3T392 35Q353 15 309 3T216 -9Q154 -9 115 26T75 127Q75 160 90 187T128 237T176 274T220 299Q208
305 186 318T144 346Q121 362 107 371T76 380Q73 380 69 377T65 370Q65 365 74 358T90 346Q95 340 102 331T109 310Q109 287 96 271T56 255Q29 255 17 272T5 310Q5 333 21 354T53 390Q64 402 78 413T107 435T139 451T171 457Q194 457 213 444T250 419Q270 404 285
396T315 387Q328 387 337 397T354 425Q361 442 367 449T384 457Q392 457 397 452T403 438Q403 429 393 421T375 406Q369 401 362 393T347 373Q333 354 319 328T291 271T270 203T262 124Q262 94 277 72T325 50Q346 50 372 58Q358 78 351 100T343 146Q343 188 354
226T384 299T425 362T473 411Q499 434 524 445T566 457Q592 457 610 437T629 369Q629 312 603 253T531 143Q545 101 568 87T620 72Q646 72 663 84T695 118Q719 154 729 198T740 287Q740 307 729 324T706 365Q698 380 696 388T694 405Q694 423 706 439T741 455Q763
455 778 435T793 377Q793 355 789 322T775 251T751 175T715 106Q682 56 633 24T508 -9ZM560 422Q552 422 544 417T528 398T517 362T512 307Q512 265 514 235T522 175Q559 222 579 270T599 362Q599 395 587 408T560 422Z" />
<glyph unicode="&#x176;" glyph-name="Ycircumflex" horiz-adv-x="612" d="M731 645Q703 641 674 625Q651 612 619 584T544 494L388 274L373 207Q362 162 357 133T351 86Q351 61 360 47T387 24Q412 13 429 12L426 0H32L35 12Q45 13 57 16T78 22Q95 27 107 38T131
65Q145 88 157 123T180 203L196 265L126 536Q112 587 88 612T31 645L33 657H397L395 645Q387 644 375 642T354 636Q343 631 333 621T322 590Q322 575 327 556T338 514L385 325H390L520 506Q548 545 557 565T566 602Q566 615 559 623T544 635Q538 638 529 641T511
645L514 657H734L731 645ZM585 703L463 762L295 702L291 711L446 848H511L593 711L585 703Z" />
<glyph unicode="&#x177;" glyph-name="ycircumflex" horiz-adv-x="456" d="M77 379Q64 379 47 365T9 312L-6 320Q28 388 71 422T178 457Q223 457 250 425T292 345Q297 326 302 298T310 238T316 176T319 120H323Q355 173 371 215T388 296Q388 316 384 334T369 369Q363
378 358 387T352 407Q352 434 366 445T397 457Q418 457 430 442T443 404Q443 349 427 294T385 186T326 85T258 -6T190 -82T131 -138Q96 -170 55 -191T-25 -213Q-70 -213 -92 -191T-114 -142Q-114 -126 -109 -114T-95 -95T-76 -84T-57 -80Q-30 -80 -18 -88T8 -114Q16
-123 29 -136T59 -149Q68 -149 82 -142T110 -123Q126 -109 142 -95T176 -60Q176 -31 172 15T162 113T146 215T125 301Q114 339 106 359T77 379ZM423 485L302 563L134 484L126 494L292 667H356L431 492L423 485Z" />
<glyph unicode="&#x178;" glyph-name="Ydieresis" horiz-adv-x="612" d="M731 645Q703 641 674 625Q651 612 619 584T544 494L388 274L373 207Q362 162 357 133T351 86Q351 61 360 47T387 24Q412 13 429 12L426 0H32L35 12Q45 13 57 16T78 22Q95 27 107 38T131
65Q145 88 157 123T180 203L196 265L126 536Q112 587 88 612T31 645L33 657H397L395 645Q387 644 375 642T354 636Q343 631 333 621T322 590Q322 575 327 556T338 514L385 325H390L520 506Q548 545 557 565T566 602Q566 615 559 623T544 635Q538 638 529 641T511
645L514 657H734L731 645ZM263 775Q263 806 284 829T338 852Q354 852 368 846T392 829T409 804T415 775Q415 745 393 723T338 700Q305 700 284 722T263 775ZM498 775Q498 806 519 829T573 852Q589 852 603 846T627 829T644 804T650 775Q650 745 628 723T573 700Q540
700 519 722T498 775Z" />
<glyph unicode="&#x179;" glyph-name="Zacute" horiz-adv-x="576" d="M288 702Q333 739 364 765T419 814Q442 835 460 843T501 852Q524 852 541 836T559 788Q559 761 539 747T495 726Q480 722 458 718T408 710T352 701T293 691L288 702ZM639 645L186 24H242Q258
24 278 28T319 41T362 63T404 94Q455 139 488 177T533 236H545L479 0H-58L-56 12L393 633H357Q325 633 285 620T191 571Q176 560 158 544T124 511T93 478T72 450H59L119 657H641L639 645Z" />
<glyph unicode="&#x17a;" glyph-name="zacute" horiz-adv-x="513" d="M508 618Q508 589 488 573T440 546Q411 535 359 520T249 491L246 502Q285 547 312 577T364 631Q387 653 406 666T446 680Q472 680 490 667T508 618ZM527 421Q527 407 517 395T494 376Q490 374
478 366T451 349T424 332T406 320Q386 306 358 287T300 247T242 206T192 171Q201 173 210 174T232 175Q248 175 272 173T318 165Q341 160 362 154T398 148Q421 148 436 154T463 178Q471 190 475 198T485 218L500 212Q488 172 475 133T441 62T390 11T316 -9Q278
-9 253 4T204 45Q177 75 160 93T123 112Q112 112 102 103T84 80T69 51T60 26Q55 12 44 2T16 -9Q0 -9 -7 1T-14 23Q-14 37 -5 47T19 69Q23 72 33 79T56 96T78 113T94 125L355 313Q346 309 329 308T300 306Q282 306 269 307T242 310T215 317T183 330Q163 338 142
347T108 357Q87 357 72 343T56 302Q56 292 60 287T69 280Q75 301 90 313T125 326Q147 326 164 311T181 270Q181 246 165 228T122 210Q87 210 62 237T36 319Q36 350 47 375T78 419T122 447T175 457Q215 457 239 444T284 408Q293 398 302 386T322 362T343 343T365
335Q380 335 392 342T415 361T433 388T445 419Q450 436 462 446T489 457Q509 457 518 445T527 421Z" />
<glyph unicode="&#x17b;" glyph-name="Zdotaccent" horiz-adv-x="576" d="M639 645L186 24H242Q258 24 278 28T319 41T362 63T404 94Q455 139 488 177T533 236H545L479 0H-58L-56 12L393 633H357Q325 633 285 620T191 571Q176 560 158 544T124 511T93 478T72 450H59L119
657H641L639 645ZM313 785Q313 803 319 818T337 846T364 865T398 872Q416 872 432 865T459 846T477 819T484 785Q484 750 460 725T398 699Q360 699 337 724T313 785Z" />
<glyph unicode="&#x17c;" glyph-name="zdotaccent" horiz-adv-x="513" d="M527 421Q527 407 517 395T494 376Q490 374 478 366T451 349T424 332T406 320Q386 306 358 287T300 247T242 206T192 171Q201 173 210 174T232 175Q248 175 272 173T318 165Q341 160 362
154T398 148Q421 148 436 154T463 178Q471 190 475 198T485 218L500 212Q488 172 475 133T441 62T390 11T316 -9Q278 -9 253 4T204 45Q177 75 160 93T123 112Q112 112 102 103T84 80T69 51T60 26Q55 12 44 2T16 -9Q0 -9 -7 1T-14 23Q-14 37 -5 47T19 69Q23 72 33
79T56 96T78 113T94 125L355 313Q346 309 329 308T300 306Q282 306 269 307T242 310T215 317T183 330Q163 338 142 347T108 357Q87 357 72 343T56 302Q56 292 60 287T69 280Q75 301 90 313T125 326Q147 326 164 311T181 270Q181 246 165 228T122 210Q87 210 62
237T36 319Q36 350 47 375T78 419T122 447T175 457Q215 457 239 444T284 408Q293 398 302 386T322 362T343 343T365 335Q380 335 392 342T415 361T433 388T445 419Q450 436 462 446T489 457Q509 457 518 445T527 421ZM415 580Q415 546 392 522T332 497Q296 497
273 521T250 580Q250 597 256 612T273 638T299 657T332 664Q350 664 365 657T391 639T408 612T415 580Z" />
<glyph unicode="&#x17d;" glyph-name="Zcaron" horiz-adv-x="576" d="M291 847L414 788L581 849L586 839L431 702H366L283 839L291 847ZM639 645L186 24H242Q258 24 278 28T319 41T362 63T404 94Q455 139 488 177T533 236H545L479 0H-58L-56 12L393 633H357Q325
633 285 620T191 571Q176 560 158 544T124 511T93 478T72 450H59L119 657H641L639 645Z" />
<glyph unicode="&#x17e;" glyph-name="zcaron" horiz-adv-x="513" d="M224 665L345 581L513 667L521 656L355 483H291L216 658L224 665ZM527 421Q527 407 517 395T494 376Q490 374 478 366T451 349T424 332T406 320Q386 306 358 287T300 247T242 206T192 171Q201
173 210 174T232 175Q248 175 272 173T318 165Q341 160 362 154T398 148Q421 148 436 154T463 178Q471 190 475 198T485 218L500 212Q488 172 475 133T441 62T390 11T316 -9Q278 -9 253 4T204 45Q177 75 160 93T123 112Q112 112 102 103T84 80T69 51T60 26Q55 12
44 2T16 -9Q0 -9 -7 1T-14 23Q-14 37 -5 47T19 69Q23 72 33 79T56 96T78 113T94 125L355 313Q346 309 329 308T300 306Q282 306 269 307T242 310T215 317T183 330Q163 338 142 347T108 357Q87 357 72 343T56 302Q56 292 60 287T69 280Q75 301 90 313T125 326Q147
326 164 311T181 270Q181 246 165 228T122 210Q87 210 62 237T36 319Q36 350 47 375T78 419T122 447T175 457Q215 457 239 444T284 408Q293 398 302 386T322 362T343 343T365 335Q380 335 392 342T415 361T433 388T445 419Q450 436 462 446T489 457Q509 457 518
445T527 421Z" />
<glyph unicode="&#x192;" glyph-name="florin" horiz-adv-x="459" d="M552 565Q552 520 530 502T476 484Q454 484 439 490T415 506T401 528T396 552Q396 559 398 569T402 591T406 613T407 632Q406 643 403 646T391 650Q371 650 356 615Q342 582 332 531T310 425H397L389
396H303Q280 287 257 192T209 28Q193 -17 171 -55T117 -122T45 -166T-45 -182Q-114 -182 -155 -153T-197 -79Q-197 -58 -190 -44T-173 -22T-150 -10T-127 -7Q-89 -7 -73 -29T-56 -77Q-56 -89 -61 -107T-65 -137Q-63 -148 -59 -153T-42 -158Q-28 -158 -17 -143T2
-91Q14 -34 27 28T54 154T81 279T107 396H38L44 425H115Q118 436 122 447T129 468Q148 524 178 562T244 625T319 660T398 671Q471 671 511 642T552 565Z" />
<glyph unicode="&#x1fa;" glyph-name="Aringacute" horiz-adv-x="658" d="M199 275H356L420 528H414L199 275ZM349 248H175L90 148Q72 126 63 108T54 71Q54 41 79 27Q103 15 132 12L130 0H-140L-137 12Q-126 14 -111 18T-86 28Q-50 45 -18 73T47 139L489 657H646L531
207Q519 162 515 133T510 86Q510 61 519 47T545 24Q572 13 587 12L584 0H204L207 12Q217 13 228 16T246 22Q263 29 272 38T293 65Q307 88 317 120T339 204L349 248ZM519 924Q564 961 595 987T650 1036Q673 1057 691 1065T732 1074Q755 1074 772 1058T790 1010Q790
983 770 969T726 948Q711 944 689 940T639 932T583 923T524 913L519 924ZM691 793Q691 773 684 757T663 728T633 708T596 701Q556 701 529 726T501 793Q501 834 528 860T595 886Q636 886 663 861T691 793ZM655 793Q655 822 639 838T595 855Q567 855 551 839T535
793Q535 765 551 749T594 732Q622 732 638 748T655 793Z" />
<glyph unicode="&#x1fb;" glyph-name="aringacute" horiz-adv-x="566" d="M436 79Q436 66 441 61T454 56Q470 56 497 78T548 136L561 129Q543 99 520 74T468 31T408 2T342 -9Q310 -9 290 9T269 64Q269 78 271 92T275 115H272L261 94Q257 85 252 78T241 63T226
45Q204 20 174 6T117 -9Q65 -9 35 20T4 123Q4 185 31 245T101 352T199 428T308 457Q341 457 357 444T375 415H382Q388 426 392 432T402 447H548Q536 409 519 356T482 244Q461 181 449 142T436 79ZM352 395Q352 417 347 424T332 432Q324 432 311 423T278 379Q262
350 244 307T209 219T183 138T172 84Q172 61 178 56T191 51Q203 51 215 63T239 92Q249 108 255 119T266 141T275 162T284 187Q296 216 308 246T329 303T345 354T352 395ZM466 590Q466 570 458 554T437 524T407 504T370 497Q330 497 303 523T275 590Q275 631 302
656T370 682Q410 682 437 657T466 590ZM429 589Q429 618 413 635T369 652Q341 652 325 635T309 590Q309 562 325 545T368 528Q397 528 413 544T429 589ZM303 712Q348 749 379 775T434 824Q457 845 475 853T516 862Q539 862 556 846T574 798Q574 771 554 757T510
736Q495 732 473 728T423 720T367 711T308 701L303 712Z" />
<glyph unicode="&#x1fc;" glyph-name="AEacute" horiz-adv-x="944" d="M588 702Q633 739 664 765T719 814Q742 835 760 843T801 852Q824 852 841 836T859 788Q859 761 839 747T795 726Q780 722 758 718T708 710T652 701T593 691L588 702ZM487 608H481Q472 598
454 576T412 525T359 461T303 394T250 330T205 276H401L487 608ZM923 432H910Q908 450 903 469T890 507T875 543T858 573Q839 601 816 616T757 632H732Q705 632 690 620Q680 612 675 598T664 564L610 353H632Q675 353 696 362T734 387Q756 408 775 438T803 492H816L739
183H726Q728 196 728 212T725 244T718 274T707 298Q699 311 680 319T626 328H604L563 167Q554 132 550 112T545 77Q545 54 555 41Q563 32 577 28T607 24H622Q683 24 761 97Q809 141 837 180T878 240H890L823 0H234L237 12Q247 13 259 16T280 22Q298 28 310 38T333
65Q347 88 358 120T383 204L394 248H182Q173 237 159 220T131 187Q115 169 99 148Q79 125 71 108T62 71Q62 41 87 27Q111 15 141 12L138 0H-135L-132 12Q-121 14 -106 18T-81 28Q-45 45 -13 73T50 139L453 617Q448 621 437 626T414 635T392 642T379 645L381 657H945L923
432Z" />
<glyph unicode="&#x1fd;" glyph-name="aeacute" horiz-adv-x="770" d="M660 618Q660 589 640 573T592 546Q563 535 511 520T401 491L398 502Q437 547 464 577T516 631Q539 653 558 666T598 680Q624 680 642 667T660 618ZM769 363Q769 315 725 283Q713 274 691
264T639 243T575 222T506 204Q497 148 497 97Q497 69 506 54T541 38Q569 38 595 49T644 76T685 111T715 146L726 138Q708 108 685 82T631 35T561 3T473 -9Q394 -9 355 35T312 154H305Q292 128 275 97T240 45Q218 20 186 6T128 -9Q73 -9 44 24T14 123Q14 185 41
245T111 352T209 428T318 457Q351 457 363 444T378 415H384Q390 426 394 432T405 447H519Q518 445 515 434T510 420H514Q543 435 573 446T633 457Q702 457 735 429T769 363ZM363 395Q363 417 358 424T342 432Q334 432 322 423T289 379Q272 350 254 307T220 219T194
138T183 84Q183 61 189 56T202 51Q214 51 226 63T249 92Q259 108 265 119T276 141L285 162Q290 173 295 187Q307 216 319 246T340 303T356 354T363 395ZM657 398Q657 416 651 426T630 437Q610 437 592 420T559 373T531 305T510 224Q538 232 566 243T609 265Q624
277 633 294T648 331T655 368T657 398Z" />
<glyph unicode="&#x1fe;" glyph-name="Oslashacute" horiz-adv-x="678" d="M664 412Q664 360 653 308T620 209T564 121T485 50Q441 21 387 4T267 -14Q220 -14 181 -2L149 -65L124 -55L156 7Q113 27 82 59Q50 94 33 141T15 245Q15 293 25 341T54 435T103 519T172
590Q218 626 279 648T413 671Q455 671 491 661L520 717L544 706L516 652L518 651Q565 632 597 598T646 516T664 412ZM477 543Q477 558 476 573L210 54Q212 46 216 39Q223 25 235 17T266 8Q296 8 320 28T364 90Q375 111 394 161T431 276T463 411T477 543ZM466 616Q460
631 449 639T418 648Q356 648 316 566Q305 545 286 495T249 380T217 245T203 113V99L467 614L466 616ZM319 702Q364 739 395 765T450 814Q473 835 491 843T532 852Q555 852 572 836T590 788Q590 761 570 747T526 726Q511 722 489 718T439 710T383 701T324 691L319
702Z" />
<glyph unicode="&#x1ff;" glyph-name="oslashacute" horiz-adv-x="514" d="M495 267Q495 207 468 152T397 59Q361 27 310 9T203 -9Q170 -9 142 -1L111 -58L91 -47L120 6Q88 20 65 44Q41 69 28 104T15 180Q15 240 42 295T113 388Q149 420 200 438T308 457Q338 457
365 450L402 517L422 507L386 442Q420 428 444 403Q469 378 482 343T495 267ZM176 20Q181 9 197 9Q206 9 219 16T247 55Q259 81 275 126T305 222T329 324Q331 335 333 345L171 51V43Q171 31 176 20ZM339 411Q339 423 332 431T313 439Q304 439 292 431T263 389Q251
365 236 319T206 221T181 120Q180 117 179 113L339 403V411ZM506 618Q506 589 486 573T438 546Q409 535 357 520T247 491L244 502Q283 547 310 577T362 631Q385 653 404 666T444 680Q470 680 488 667T506 618Z" />
<glyph unicode="&#x218;" glyph-name="Scommaaccent" horiz-adv-x="544" d="M255 140Q255 79 210 42T83 -16L79 2Q100 8 119 15T154 31T178 47T187 66Q187 74 182 77T163 85Q142 92 124 108T105 150Q105 187 128 204T180 222Q213 222 234 200T255 140ZM490 438H476Q476
492 467 535T432 609Q418 628 395 639T340 650Q295 650 273 624T251 558Q251 523 274 494T345 431Q388 400 417 375T465 324T491 271T499 207Q499 163 480 124T426 53T342 4T232 -14Q181 -14 138 6T62 71H56L-3 2H-13L39 262H53Q58 209 70 163T104 82T157 28T231
8Q282 8 312 30T342 98Q342 119 337 134T317 166T277 204T212 255Q183 277 161 299T122 346T98 397T90 456Q90 500 106 539T155 607T235 654T342 671Q372 671 396 664T437 647T467 624T485 602H487L529 653H543L490 438Z" />
<glyph unicode="&#x219;" glyph-name="scommaaccent" horiz-adv-x="407" d="M210 -110Q210 -171 165 -208T38 -266L34 -248Q55 -242 74 -235T109 -219T133 -203T142 -184Q142 -176 137 -173T118 -165Q97 -158 79 -142T60 -100Q60 -63 83 -46T135 -28Q168 -28 189
-50T210 -110ZM395 362Q395 336 379 320T335 303Q309 303 293 318T275 354Q273 374 274 385T272 410Q270 423 259 430T232 437Q209 437 197 425T185 393Q185 368 206 347T273 297Q321 268 348 233T375 151Q375 116 358 87T312 36T245 3T167 -9Q131 -9 101 -2T49
19T15 52T2 98Q2 130 20 146T62 163Q115 163 121 109Q123 92 121 76T121 46Q123 28 139 20T175 11Q208 11 229 24T250 67Q250 78 246 87T230 106T199 130T148 166Q111 192 90 223T69 302Q69 343 84 372T124 420T179 448T240 457Q271 457 299 452T348 436T382 406T395
362Z" />
<glyph unicode="&#x21a;" glyph-name="uni021A" horiz-adv-x="651" d="M288 140Q288 79 243 42T116 -16L112 2Q133 8 152 15T187 31T211 47T220 66Q220 74 215 77T196 85Q175 92 157 108T138 150Q138 187 161 204T213 222Q246 222 267 200T288 140ZM678 415H665Q649
507 604 569Q582 598 558 615T503 632H487L382 207Q371 162 366 133T361 86Q361 61 370 47T397 24Q423 13 438 12L436 0H42L45 12Q55 13 67 16T87 22Q104 27 116 38T140 65Q154 88 165 120T190 204L296 632H283Q250 632 220 616T161 569Q132 540 103 503T36 415H23L102
657H709L678 415Z" />
<glyph unicode="&#x21b;" glyph-name="uni021B" horiz-adv-x="347" d="M403 -110Q403 -171 358 -208T231 -266L227 -248Q248 -242 267 -235T302 -219T326 -203T335 -184Q335 -176 330 -173T311 -165Q290 -158 272 -142T253 -100Q253 -63 276 -46T328 -28Q361 -28
382 -50T403 -110ZM182 72Q182 54 197 54Q206 54 219 61T248 79T277 106T304 137L317 130Q299 100 274 75T219 31T156 2T86 -9Q54 -9 31 9T8 64Q8 77 13 97T25 140T40 186T56 228L129 417H57L68 447H140L188 577H354L309 447H410L399 417H299L230 224Q207 159 195
124T182 72Z" />
<glyph unicode="&#x237;" glyph-name="uni0237" horiz-adv-x="314" d="M309 381Q309 369 302 340T283 276T258 203T232 136Q209 79 190 38T153 -33T117 -86T77 -130Q61 -145 40 -160T-5 -187T-57 -206T-115 -213Q-142 -213 -167 -206T-211 -186T-243 -153T-255
-107Q-255 -70 -233 -47T-175 -23Q-155 -23 -141 -30T-117 -47T-103 -71T-98 -96Q-98 -115 -103 -127T-117 -152Q-122 -159 -126 -165T-131 -177Q-131 -185 -125 -188T-112 -192Q-96 -192 -82 -183T-52 -148Q-41 -131 -25 -90T9 -3T41 88T65 155Q71 171 82 204T106
272T127 337T136 374Q136 388 131 391T117 394Q105 394 81 374T31 313L17 321Q58 390 114 423T231 457Q273 457 291 436T309 381Z" />
<glyph unicode="&#x2c6;" glyph-name="circumflex" horiz-adv-x="364" d="M371 485L250 563L82 484L74 494L240 667H304L379 492L371 485Z" />
<glyph unicode="&#x2c7;" glyph-name="caron" horiz-adv-x="369" d="M107 665L228 581L396 667L404 656L238 483H174L99 658L107 665Z" />
<glyph unicode="&#x2d8;" glyph-name="breve" horiz-adv-x="352" d="M131 672Q142 639 171 618T237 597Q279 597 314 617T370 672L383 665Q369 591 331 553T230 514Q178 514 148 547T116 625Q116 635 116 645T119 667L131 672Z" />
<glyph unicode="&#x2d9;" glyph-name="dotaccent" horiz-adv-x="299" d="M287 580Q287 546 264 522T204 497Q168 497 145 521T122 580Q122 597 128 612T145 638T171 657T204 664Q222 664 237 657T263 639T280 612T287 580Z" />
<glyph unicode="&#x2da;" glyph-name="ring" horiz-adv-x="295" d="M289 590Q289 570 281 554T260 524T230 504T193 497Q153 497 126 523T98 590Q98 631 125 656T193 682Q233 682 260 657T289 590ZM252 589Q252 618 236 635T192 652Q164 652 148 635T132 590Q132
562 148 545T191 528Q220 528 236 544T252 589Z" />
<glyph unicode="&#x2db;" glyph-name="ogonek" horiz-adv-x="317" d="M25 -140Q25 -113 47 -92T102 -55T169 -25T229 0H248Q229 -15 211 -31T177 -66T153 -105T144 -147Q144 -200 203 -205L199 -217Q111 -219 68 -199T25 -140Z" />
<glyph unicode="&#x2dc;" glyph-name="tilde" horiz-adv-x="374" d="M425 663Q417 634 405 609T377 564T339 533T290 522Q274 522 257 526T223 535T191 545T164 549Q141 549 120 538T84 498L68 500Q76 531 88 557T117 603T158 634T211 645Q223 645 237 641T266
633T299 624T333 620Q359 620 376 628T409 665L425 663Z" />
<glyph unicode="&#x2dd;" glyph-name="hungarumlaut" horiz-adv-x="503" d="M233 676Q256 676 273 662T291 617Q291 600 280 585T251 558Q227 542 186 521T94 476L84 485Q99 512 110 533T131 570T147 599T162 625Q174 645 189 660T233 676ZM427 676Q450 676 467
662T485 617Q485 600 474 585T446 558Q421 542 380 521T288 476L278 485Q293 512 304 533T325 570T341 599T357 625Q368 645 383 660T427 676Z" />
</font>
</defs>
</svg>
