<?xml version="1.0" standalone="no"?> <!DOCTYPE svg PUBLIC "-//W3C//DTD SVG 1.0//EN" "http://www.w3.org/TR/2001/REC-SVG-20010904/DTD/svg10.dtd" > <svg xmlns="http://www.w3.org/2000/svg" width="100%" height="100%">
<defs >
<font horiz-adv-x="526" ><font-face
    font-family=""
    units-per-em="1000"
    panose-1="0 0 0 0 0 0 0 0 0 0"
    ascent="787"
    descent="-213"
    alphabetic="0" />
<missing-glyph horiz-adv-x="196" />
<glyph unicode=" " glyph-name="space" horiz-adv-x="180" />
<glyph unicode="!" glyph-name="exclam" horiz-adv-x="261" d="M206 58Q206 28 186 6T131 -16Q98 -16 78 6T57 58Q57 89 77 111T131 133Q164 133 185 111T206 58ZM131 670Q179 670 204 647T230 582Q230 546 215 498T181 379Q164 306 155 263T139 192H121Q116 219
107 262T80 378Q62 449 47 497T31 582Q31 622 57 646T131 670Z" />
<glyph unicode="&quot;" glyph-name="quotedbl" horiz-adv-x="371" d="M200 608Q200 670 263 670Q325 670 325 608Q325 588 318 558T301 501Q292 472 285 444T269 392H255Q248 415 240 443T224 500Q216 529 208 558T200 608ZM109 670Q172 670 172 608Q172 588
164 558T148 501Q138 472 131 444T116 392H102Q94 415 86 443T70 500Q62 529 55 558T47 608Q47 670 109 670Z" />
<glyph unicode="#" glyph-name="numbersign" horiz-adv-x="603" d="M411 428H229L196 233H377L411 428ZM155 0H130L166 204H15V233H171L204 428H54V458H210L244 656H269L235 458H416L451 656H475L441 458H588V428H436L403 233H550V204H398L362 0H337L372 204H191L155 0Z" />
<glyph unicode="$" glyph-name="dollar" horiz-adv-x="524" d="M493 191Q493 142 476 104T430 40T360 0T272 -17V-113H249V-17Q203 -16 164 -5T97 25T53 70T37 128Q37 146 43 160T58 184T79 199T103 204Q143 204 161 181T179 118Q179 113 178 100T176 82Q176 40
197 25T249 7V234Q220 250 189 267Q156 286 130 305T86 348T58 402T48 474Q48 517 63 552T106 612T170 651T250 668V752H274V668Q320 666 358 656T423 627T466 584T481 529Q481 492 460 475T417 457Q379 457 362 479T345 538Q345 543 346 554T347 571Q347 592 341
605T325 627T302 640T274 645V441Q288 433 301 425T328 409Q369 383 400 364T451 321T482 268T493 191ZM250 645Q212 643 192 619T172 563Q172 543 178 528T195 499T220 476T250 455V645ZM364 100Q364 137 341 166T272 222V6Q319 10 341 35T364 100Z" />
<glyph unicode="%" glyph-name="percent" horiz-adv-x="739" d="M558 310Q534 310 526 275T517 157Q517 74 525 39T558 4Q571 4 579 10T591 34T597 80T599 157Q599 204 597 233T591 280T578 303T558 310ZM718 157Q718 116 705 84T669 30T617 -3T558 -15Q528 -15
499 -4T448 30T411 84T397 157Q397 199 411 231T447 285T499 318T558 330Q588 330 617 319T668 285T704 230T718 157ZM530 670L551 660L213 -15L192 -5L530 670ZM343 496Q343 455 329 423T293 369T241 336T182 324Q152 324 123 335T72 368T35 422T21 496Q21 537
35 569T71 624T123 657T182 669Q212 669 241 658T292 624T329 569T343 496ZM182 649Q158 649 150 614T141 496Q141 413 149 378T182 343Q195 343 203 349T215 373T222 419T224 496Q224 542 222 572T216 619T203 642T182 649Z" />
<glyph unicode="&amp;" glyph-name="ampersand" horiz-adv-x="703" d="M522 -14Q494 -14 471 -9T427 8Q401 15 383 31Q354 11 319 -1T234 -14Q183 -14 144 -1T76 36T34 91T19 159Q19 194 33 222T70 273T122 314T182 349Q173 361 165 372T149 395Q132 420 123 449T113
510Q113 547 130 577T174 627T236 659T306 670Q390 670 426 641T463 566Q463 543 454 523T429 485T396 453T361 426Q378 406 394 387T423 348Q442 320 462 283T501 208Q509 229 516 250T529 292Q534 309 535 326T536 362Q536 379 531 390T511 412Q502 418 491 420T467
424V434H678V424Q667 422 656 420T633 410Q609 395 593 372Q587 363 579 345T558 289Q552 270 542 240T517 177Q528 154 538 134T557 98Q574 71 596 60T638 49Q654 49 672 56T696 71L704 60Q696 47 680 34T640 10T586 -7T522 -14ZM344 446Q369 469 384 496T399
568Q399 606 381 627T332 648Q309 648 289 632T268 580Q268 550 290 517T344 446ZM209 313Q195 290 188 262T181 191Q181 153 192 125T222 77T265 49T316 39Q342 39 364 53Q358 61 352 71T340 92Q322 130 298 174T249 257Q241 268 231 282T209 313Z" />
<glyph unicode="&apos;" glyph-name="quotesingle" horiz-adv-x="211" d="M106 670Q168 670 168 608Q168 588 160 558T144 501Q135 472 128 444T112 392H98Q90 415 83 443T67 500Q59 529 51 558T43 608Q43 670 106 670Z" />
<glyph unicode="(" glyph-name="parenleft" horiz-adv-x="297" d="M281 -105Q238 -81 195 -48T118 33T62 143T40 287Q40 368 61 430T117 540T195 621T281 679L299 678Q245 613 212 516T179 287Q179 154 212 58T299 -104L281 -105Z" />
<glyph unicode=")" glyph-name="parenright" horiz-adv-x="297" d="M-2 -104Q52 -39 84 57T117 287Q117 420 85 516T-2 678L16 679Q59 655 101 622T178 541T234 431T256 287Q256 206 235 143T179 33T102 -47T16 -105L-2 -104Z" />
<glyph unicode="*" glyph-name="asterisk" horiz-adv-x="407" d="M242 335Q242 320 233 310T204 299Q186 299 176 309T165 335Q165 345 169 360T179 394T190 433T198 472Q187 457 177 439T157 404T140 373T125 352Q114 341 100 341T73 354Q59 367 59 381T71 406Q78
413 92 421T123 438T158 458T192 480Q173 477 153 472T114 461T80 451T54 447Q40 447 30 456T19 485Q19 504 29 513T54 523Q64 523 79 519T113 509T152 498T191 490Q176 502 158 512T123 531T92 548T71 564Q60 574 60 588T73 616Q86 629 100 629T125 618Q133 610
141 596T158 565T177 530T199 497Q196 516 191 536T180 574T170 608T165 634Q165 649 175 659T204 670Q223 670 232 660T242 634Q242 624 238 609T228 575T217 536T208 497Q220 512 230 530T250 565T267 596T282 617Q293 628 307 628T335 616Q349 603 348 589T336
563Q329 556 316 548T285 531T250 512T216 490Q235 492 255 497T293 508T327 518T353 523Q368 523 378 514T389 485Q389 466 379 456T353 446Q343 446 328 450T294 460T255 471T216 480Q231 468 249 458T284 439T315 421T336 406Q347 396 347 382T335 354Q321 340
307 340T282 352Q275 359 267 373T250 404T231 439T209 472Q212 453 217 433T228 395T238 361T242 335Z" />
<glyph unicode="+" glyph-name="plus" horiz-adv-x="462" d="M248 246V71H214V246H40V278H214V453H248V278H422V246H248Z" />
<glyph unicode="," glyph-name="comma" horiz-adv-x="219" d="M188 47Q188 16 177 -13T146 -66T98 -109T36 -137L30 -121Q70 -107 94 -80T119 -33Q119 -17 108 -12Q75 -8 55 10T34 64Q34 95 56 115T106 136Q142 136 165 114T188 47Z" />
<glyph unicode="-" glyph-name="hyphen" horiz-adv-x="340" d="M62 217V299H278V217H62Z" />
<glyph unicode="." glyph-name="period" horiz-adv-x="213" d="M181 61Q181 30 161 8T106 -14Q73 -14 53 8T32 61Q32 91 52 113T106 135Q139 135 160 114T181 61Z" />
<glyph unicode="/" glyph-name="slash" horiz-adv-x="325" d="M-11 -101L-42 -87L333 688L365 673L-11 -101Z" />
<glyph unicode="0" glyph-name="zero" horiz-adv-x="639" d="M31 328Q31 410 54 474T117 581T209 647T320 670Q378 670 430 647T522 581T585 474T609 328Q609 246 586 182T523 75T431 9T320 -14Q261 -14 209 8T117 74T54 182T31 328ZM413 328Q413 414 409 474T393
573T365 630T320 648Q293 648 276 630T247 574T232 475T227 328Q227 242 231 181T247 82T276 26T320 8Q346 8 364 25T393 81T408 181T413 328Z" />
<glyph unicode="1" glyph-name="one" horiz-adv-x="384" d="M25 0V11Q33 12 44 13T60 17Q74 23 83 30T97 58Q101 72 101 92T102 133V527Q102 541 102 561T100 593Q98 610 93 616T80 627Q72 632 53 634T23 638V650Q32 650 50 651T91 653T137 656T180 659Q189 660
203 661L231 663Q245 664 256 664T270 665Q277 665 277 657Q277 646 276 627T275 587V133Q275 112 276 92T281 58Q286 38 294 31T318 18Q325 15 335 14T353 11V0H25Z" />
<glyph unicode="2" glyph-name="two" horiz-adv-x="611" d="M515 0H27Q31 3 42 16T66 44T90 72T104 89Q138 128 182 178T264 285T328 401T355 517Q355 588 334 615T269 642Q249 642 227 632T185 600T152 543T139 458Q139 441 142 425T151 396T169 375T196 367Q225
367 241 383T269 424L283 418Q269 368 236 334T143 299Q89 299 55 333T21 433Q21 481 41 524T99 600T190 652T308 671Q430 671 486 622T543 495Q543 451 528 416T488 353T430 300T362 254Q350 246 330 233T287 205T239 174T192 145L193 140H403Q421 140 438 145T472
158T500 175T521 192Q539 210 553 230T574 267H588L515 0Z" />
<glyph unicode="3" glyph-name="three" horiz-adv-x="550" d="M231 -14Q179 -14 140 -2T76 31T37 77T24 129Q24 164 44 187T99 211Q137 211 157 190T178 133Q178 116 174 104T165 78Q163 70 161 59T160 40Q162 24 177 18T209 11Q237 11 260 26T301 68T328 134T338
219Q338 283 314 306T243 329Q230 329 213 324T183 310L150 291L139 308L200 345Q252 376 280 428T308 545Q308 600 292 621T231 642Q195 642 169 615T143 533Q143 498 159 478T197 457Q221 457 231 464T254 490L267 484Q253 447 223 419T145 391Q95 391 68 421T40
497Q40 535 58 566T108 621T181 657T267 670Q382 670 431 635T481 539Q481 475 422 431T264 361L265 358Q309 358 355 350T439 323T501 273T525 196Q525 149 506 110T449 44T356 1T231 -14Z" />
<glyph unicode="4" glyph-name="four" horiz-adv-x="580" d="M492 0H164V11Q172 12 182 13T198 17Q213 22 222 30T236 58Q240 72 240 92T241 133V217H5V240L295 657H413Q417 657 417 653Q417 642 416 619T415 575V237H440Q478 237 493 244T518 263Q529 277 538
300T550 346H561V108H550Q548 130 539 153T518 190Q509 201 494 209T440 217H415V92Q415 72 419 58Q424 38 433 31T457 17Q464 14 474 14T492 11V0ZM241 237V538H239L29 237H241Z" />
<glyph unicode="5" glyph-name="five" horiz-adv-x="497" d="M194 -15Q148 -15 112 -4T51 26T13 70T-1 124Q-1 162 21 185T78 209Q98 209 112 202T135 183T148 156T153 125Q153 114 151 107T143 88Q139 78 135 69T131 51Q129 42 130 36T133 25Q138 14 147 11T170
7Q197 7 218 23T255 67T278 133T286 218Q286 260 279 288T260 334T229 358T189 365Q159 365 137 345T103 293L79 297L162 655H175Q203 637 237 628T319 619Q353 619 378 625T420 642T446 665T461 690L475 688Q458 591 406 536T254 480Q225 480 198 483T147 493L112
348L114 347Q136 373 173 390T257 407Q314 407 355 393T424 353T464 292T478 215Q478 158 456 115T396 43T306 0T194 -15Z" />
<glyph unicode="6" glyph-name="six" horiz-adv-x="578" d="M554 558Q554 520 536 498T482 475Q444 475 425 496T405 548Q405 556 406 566T410 584Q412 593 416 606T421 627Q421 636 412 643T384 650Q353 650 326 628T278 568T244 482T229 383H233Q251 405 279
416T340 428Q434 428 486 373T538 209Q538 157 519 116T467 45T390 1T293 -15Q231 -15 183 7T100 67T49 158T31 269Q31 372 63 448T147 573T262 647T386 671Q434 671 466 661T518 634T546 597T554 558ZM292 398Q278 398 266 390T244 359T228 299T222 202Q222 140
227 102T242 43T264 15T292 8Q307 8 320 15T342 44T357 103T363 203Q363 264 357 302T342 362T319 390T292 398Z" />
<glyph unicode="7" glyph-name="seven" horiz-adv-x="489" d="M496 645Q444 565 408 493T347 355T307 225T283 101Q265 -15 176 -15Q134 -15 113 11T91 85Q91 109 100 132T122 177T152 219T185 256Q210 283 236 314T289 378T339 441T383 498V501H171Q155 501 134
499T94 488Q73 478 57 459T30 407H16L75 692H89Q96 678 109 667T153 656H496V645Z" />
<glyph unicode="8" glyph-name="eight" horiz-adv-x="559" d="M534 215Q534 164 517 122T466 50T387 2T282 -15Q229 -15 184 -5T107 26T56 78T38 151Q38 179 52 203T86 245T130 276T174 296Q150 311 128 328T90 366T65 415T55 477Q55 523 73 559T122 620T195 658T284
671Q341 671 382 660T449 631T488 587T501 533Q501 513 493 494T470 457T438 426T399 403Q426 389 450 372T493 333T523 281T534 215ZM372 415Q394 435 406 463T418 529Q418 589 384 619T286 650Q238 650 211 628T183 568Q183 543 195 524T229 488T281 456T347
426Q359 421 372 415ZM127 152Q127 114 139 87T173 42T222 16T280 7Q309 7 334 13T378 31T408 61T419 103Q419 130 409 151T377 190T318 227T231 267Q223 272 215 275T198 283Q163 263 145 228T127 152Z" />
<glyph unicode="9" glyph-name="nine" horiz-adv-x="565" d="M275 260Q288 260 301 268T323 297T339 357T345 454Q345 515 340 553T325 613T303 641T275 649Q260 649 247 642T225 613T210 553T204 454Q204 392 210 354T225 295T248 267T275 260ZM25 108Q25 142
44 161T93 180Q131 180 150 159T170 108Q170 100 169 90T165 71Q163 62 159 50T154 29Q154 20 162 13T191 5Q222 5 248 28T293 89T323 175T337 275H333Q315 254 288 242T226 230Q132 230 81 285T29 448Q29 500 48 541T100 611T177 655T274 671Q335 671 384 649T466
589T518 500T536 389Q536 288 504 213T423 87T314 11T201 -15Q154 -15 121 -5T67 23T35 62T25 108Z" />
<glyph unicode=":" glyph-name="colon" horiz-adv-x="206" d="M176 377Q176 347 155 326T102 304Q70 304 50 325T30 377Q30 408 50 429T102 451Q134 451 155 430T176 377ZM176 60Q176 29 155 8T102 -14Q70 -14 50 7T30 60Q30 91 50 112T102 134Q134 134 155 113T176 60Z" />
<glyph unicode=";" glyph-name="semicolon" horiz-adv-x="215" d="M183 47Q183 16 172 -13T141 -66T93 -109T31 -137L25 -121Q64 -107 89 -80T114 -33Q114 -17 102 -12Q70 -8 50 10T29 64Q29 97 50 116T100 136Q138 136 160 114T183 47ZM181 377Q181 346 161 325T106
303Q73 303 53 325T32 377Q32 408 52 430T106 452Q139 452 160 430T181 377Z" />
<glyph unicode="&lt;" glyph-name="less" horiz-adv-x="386" d="M25 248V276L334 429V394L65 262L334 131V95L25 248Z" />
<glyph unicode="=" glyph-name="equal" horiz-adv-x="434" d="M46 324V354H389V324H46ZM46 163V193H389V163H46Z" />
<glyph unicode="&gt;" glyph-name="greater" horiz-adv-x="386" d="M51 95V131L320 262L51 394V429L360 276V248L51 95Z" />
<glyph unicode="?" glyph-name="question" horiz-adv-x="449" d="M191 61Q191 31 171 9T117 -13Q83 -13 63 9T42 61Q42 91 63 113T117 135Q149 135 170 113T191 61ZM436 466Q436 418 416 384T364 328T295 296T222 285Q192 285 167 291T126 309H124V199H101V328L116
341Q131 327 144 323T177 319Q198 319 213 334T237 377T251 444T256 531Q256 555 253 576T244 613T228 639T203 649Q186 649 182 633T170 584Q167 567 162 552T148 524T126 505T93 497Q64 497 47 516T29 563Q29 586 42 605T78 639T132 662T201 671Q236 671 267
665T325 646Q374 623 405 580T436 466Z" />
<glyph unicode="@" glyph-name="at" horiz-adv-x="782" d="M763 274Q763 219 743 167T688 75T605 11T504 -14Q489 -14 475 -10T450 3T432 25T425 56Q425 68 427 80T431 103H427Q417 81 408 65T384 33Q362 10 339 -2T286 -14Q237 -14 211 17T184 113Q184 162 207
213T267 305T352 372T450 398Q480 398 492 385T508 354H514Q520 365 524 373T535 390H656Q645 353 629 304T595 198Q584 168 578 147T567 110T561 85T559 65Q559 52 564 46T577 39Q607 39 636 59T690 111T728 186T743 274Q743 332 723 380T664 462T571 515T447
534Q364 534 298 505T185 425T113 304T87 150Q87 72 109 14T173 -82T272 -140T403 -160Q449 -160 492 -152T574 -131T643 -103T698 -74L706 -90Q684 -104 651 -119T578 -147T493 -168T403 -177Q320 -177 250 -155T130 -91T51 11T22 150Q22 256 59 332T157 456T293
528T446 551Q524 551 583 530T682 472T742 385T763 274ZM492 332Q492 375 468 375Q457 375 444 365T410 320Q394 292 379 257T351 188T332 124T324 78Q324 57 330 48T348 39Q361 39 376 56Q381 63 387 70T398 85Q413 110 421 127T439 167Q445 183 451 197T462 224Q476
258 484 283T492 332Z" />
<glyph unicode="A" glyph-name="A" horiz-adv-x="641" d="M240 438H235L157 216H314L240 438ZM-19 12Q4 15 23 26Q34 33 43 42T64 68Q83 95 104 153L290 662H359L513 211Q530 160 546 122T576 61Q587 44 598 35T622 21Q630 18 639 16T656 12V0H282V12Q291 13 302
15T320 21Q334 26 344 37T354 69Q354 89 349 109T334 155L322 192H149L134 148Q127 129 122 110T117 75Q117 53 126 40T150 21Q161 16 171 15T189 12V0H-19V12Z" />
<glyph unicode="B" glyph-name="B" horiz-adv-x="665" d="M19 11Q30 11 50 16Q67 21 78 31T97 68Q102 82 103 104T105 155V502Q105 531 104 553T97 590Q90 615 79 625T50 641Q43 643 34 644T19 646V657H380Q424 657 465 651T537 628T586 582T605 508Q605 450 577
419T493 371Q464 361 418 355V352Q467 349 508 337T578 303T623 252T639 184Q639 136 620 101T570 44T497 11T411 0H19V11ZM326 363Q359 363 379 370T414 394Q429 414 434 447T439 510Q439 579 415 607T348 635H324Q297 635 287 610Q284 602 284 593T283 569V363H326ZM364
24Q401 24 425 50Q442 70 448 103T455 184Q455 217 449 250T423 303Q388 339 324 339H283V138Q283 115 285 94T295 59Q302 42 317 33T353 24H364Z" />
<glyph unicode="C" glyph-name="C" horiz-adv-x="640" d="M376 648Q350 648 325 639T283 609Q255 579 237 514T219 329Q219 269 225 226T242 152T269 100T304 63Q321 49 346 41T407 32Q435 32 463 42T516 75T562 131T598 213L618 205Q607 158 584 118T527 48T453
2T365 -15Q299 -15 238 4T131 66T57 173T29 329Q29 420 59 485T137 591T246 652T370 671Q435 671 486 650T557 596H561L590 652H601V422H587Q575 473 557 514T513 586T453 632T376 648Z" />
<glyph unicode="D" glyph-name="D" horiz-adv-x="724" d="M378 657Q432 657 474 646T547 618Q614 580 655 507T696 330Q696 229 658 154T552 41Q521 24 481 12T394 0H19V12Q30 12 50 17Q67 22 78 32T97 67Q106 97 106 156V502Q106 560 97 590Q90 615 79 625T50
640Q41 643 33 644T19 646V657H378ZM365 24Q386 24 412 33T459 74Q471 92 480 114T496 166T506 237T510 330Q510 384 506 424T496 494T480 545T458 584Q438 614 412 623T361 633H330Q318 633 308 629T292 614Q285 605 284 591T283 560V137Q283 114 285 91T299 52Q307
38 321 31T353 24H365Z" />
<glyph unicode="E" glyph-name="E" horiz-adv-x="626" d="M576 0H19V11Q25 11 33 13T50 17Q67 22 78 32T97 68Q102 82 103 104T105 156V503Q105 531 104 553T97 590Q90 615 79 625T50 640Q41 643 33 644T19 645V657H559L583 434H570Q555 470 533 508T482 580Q460
604 432 618T365 633H344Q329 633 318 630T299 617Q288 605 285 586T281 547V352H313Q334 352 348 353T371 357T386 364T399 376Q418 395 432 427T450 485H462V197H450Q447 222 434 253T402 302Q396 308 389 312T373 321T349 327T313 329H281V141Q281 114 284 89T301
49Q322 24 363 24H380Q437 24 479 75Q511 113 539 162T583 255H596L576 0Z" />
<glyph unicode="F" glyph-name="F" horiz-adv-x="583" d="M372 0H20V12Q26 12 33 13L51 17Q68 22 79 32T98 68Q103 82 104 105T106 156V502Q106 560 97 589Q90 614 79 624T50 640Q30 645 19 645V657H552L575 418H563Q549 454 526 497T474 574Q453 598 426 615T360
633H345Q325 633 313 629T293 608Q286 597 284 581T281 544V362H294Q315 362 329 363T353 366T370 373T384 385Q401 405 415 437T431 494H443V205H431Q429 230 417 261T386 311Q374 322 355 329T294 337H281V156Q281 128 284 105T292 68Q300 44 311 33T339 17Q359
12 372 12V0Z" />
<glyph unicode="G" glyph-name="G" horiz-adv-x="681" d="M440 170Q440 203 438 222T427 255Q418 271 409 277T383 289Q375 291 369 292T354 294V306H675V294Q669 293 660 292T643 288Q631 283 621 275T603 249Q598 238 596 220T594 177V38Q579 32 555 24T492
6Q478 3 460 -1T423 -8T384 -13T347 -15Q280 -15 222 9T121 77T54 185T29 329Q29 408 55 471T125 578T229 646T357 670Q393 670 424 662T480 642T520 617T544 594H548L572 640H585V402H574Q563 453 547 491T508 564Q482 602 449 623T367 645Q343 645 321 636T280
606Q266 590 255 567T235 511T222 433T217 329Q217 216 232 153T272 58Q289 29 310 19T355 9Q387 9 401 17T424 38Q434 52 437 75T440 115V170Z" />
<glyph unicode="H" glyph-name="H" horiz-adv-x="767" d="M362 0H19V12Q25 12 32 13T50 17Q67 21 78 31T97 68Q102 83 103 105T105 156V502Q105 531 104 553T97 590Q90 615 79 625T50 640Q30 646 19 646V657H362V646Q349 646 334 640Q318 634 308 624T290 591Q285
577 284 555T282 504V345H485V504Q485 533 484 555T477 591Q470 614 460 624T434 640Q427 643 419 644T405 646V657H748V646Q735 646 717 640Q700 635 689 625T670 590Q665 576 664 554T662 502V156Q662 127 663 105T670 68Q677 42 688 32T717 17Q737 12 748 12V0H405V12Q415
12 432 17Q449 23 459 33T477 67Q482 82 483 103T485 154V316H282V154Q282 125 283 104T290 67Q297 43 307 33T334 17Q342 14 349 13T362 12V0Z" />
<glyph unicode="I" glyph-name="I" horiz-adv-x="388" d="M283 156Q283 127 284 105T291 68Q298 42 309 32T338 17Q358 12 369 12V0H19V12Q30 12 50 17Q67 22 78 32T97 68Q102 82 103 104T105 156V503Q105 531 104 553T97 590Q89 615 78 625T50 640Q41 643 34
644T19 646V657H369V646Q361 645 354 644T338 640Q321 635 310 625T291 590Q286 576 285 554T283 503V156Z" />
<glyph unicode="J" glyph-name="J" horiz-adv-x="499" d="M228 501Q228 530 227 552T220 590Q213 615 201 625T172 640Q163 643 156 644T141 646V657H492V646Q485 645 477 644T461 640Q444 635 433 625T413 590Q405 558 405 501V230Q405 155 385 108T335 35Q306
9 264 -2T170 -14Q135 -14 100 -4T45 23Q23 43 9 69T-5 127Q-5 178 21 200T84 223Q124 223 145 201T167 144Q167 132 165 119T157 91Q151 74 146 62T141 43Q141 26 149 18T171 10Q206 10 217 43Q223 60 225 89T228 148V501Z" />
<glyph unicode="K" glyph-name="K" horiz-adv-x="705" d="M19 0V12Q30 12 50 17Q67 22 78 32T97 68Q102 82 103 104T105 156V502Q105 531 104 553T97 590Q90 615 79 624T50 640Q32 646 19 646V657H364V646Q357 645 351 644T336 640Q320 635 309 625T290 590Q285
576 284 554T282 502V319L445 506Q475 541 487 560T500 599Q500 616 494 625T475 639Q462 644 439 646V657H671V646Q654 644 633 636T595 617Q584 610 575 603T555 586T532 563T504 532L379 390V385Q441 380 479 364T544 323Q558 310 569 291T588 251T601 206T609
162Q614 129 619 107T631 70T645 46T661 31Q672 23 686 18T712 11V0H468Q455 14 443 48T425 133Q423 158 422 180T419 224T413 263T399 298Q385 327 346 327Q334 327 322 321T299 307Q297 305 291 298T282 288V156Q282 127 283 105T290 68Q297 42 308 32T336 17Q344
14 351 13T364 12V0H19Z" />
<glyph unicode="L" glyph-name="L" horiz-adv-x="614" d="M19 12Q27 13 36 14T53 18Q86 27 98 62Q106 86 108 126T111 214V444Q111 492 109 532T98 595Q92 615 80 625T52 640Q44 643 36 644L20 646V657H380V646L364 644Q356 643 348 640Q331 635 320 625T301 595Q293
572 291 532T288 444V172Q288 139 290 117T296 80Q304 52 318 41Q330 31 342 28T369 24H386Q416 24 436 36T476 72Q491 91 507 114T537 161T562 207T582 246H594L577 0H19V12Z" />
<glyph unicode="M" glyph-name="M" horiz-adv-x="835" d="M816 645Q809 645 801 644T784 640Q768 635 756 625T738 590Q729 561 729 503V156Q729 127 731 105T738 68Q744 42 756 31T784 16Q804 11 816 11V0H465V11Q476 11 496 16Q513 21 524 31T544 68Q548 82
549 104T551 156V548H547L382 -2H328L144 534H140V169Q140 121 145 97T158 56Q165 40 176 31T199 17Q208 15 215 14T234 11V0H19V11Q30 13 37 14T53 17Q65 22 76 31T94 56Q102 73 106 97T111 169V457Q111 503 109 538T98 594Q91 613 79 624T50 640Q42 642 36 643T20
645V657H300L428 268H432L552 657H816V645Z" />
<glyph unicode="N" glyph-name="N" horiz-adv-x="699" d="M537 -3L165 517H160V169Q160 121 165 97T177 56Q191 27 220 17Q228 15 235 14T254 11V0H38V11Q49 13 57 14T73 17Q85 21 96 31T115 56Q123 73 127 97T132 169V440Q132 543 110 585Q92 621 50 638Q42 641
34 643T17 645V657H293L569 259H572V487Q572 535 568 559T556 600Q549 616 537 625T513 639Q505 641 498 643T479 645V657H694V645Q683 645 676 643T660 639Q633 631 618 600Q611 583 606 559T601 487V-3H537Z" />
<glyph unicode="O" glyph-name="O" horiz-adv-x="702" d="M351 670Q423 670 482 646T584 578T650 471T673 328Q673 249 650 186T585 78T483 10T351 -14Q279 -14 220 10T118 78T52 185T29 328Q29 407 52 470T117 578T219 646T351 670ZM351 7Q366 7 382 10T412 24Q427
36 440 58T462 117T477 206T482 329Q482 400 477 451T463 539T440 597T412 632Q398 643 382 646T351 649Q335 649 320 646T290 632Q275 620 262 598T240 539T225 452T219 329Q219 258 224 206T239 118T262 59T290 24Q304 13 319 10T351 7Z" />
<glyph unicode="P" glyph-name="P" horiz-adv-x="644" d="M354 633Q346 633 335 632T316 626Q305 622 300 615T292 597Q290 588 289 577T288 543V317Q298 314 312 313T336 311Q376 311 394 320T426 353Q432 363 436 378T444 411T448 447T450 480Q450 633 354 633ZM384
0H19V11Q27 12 35 13T51 17Q68 22 79 32T98 63Q106 86 108 126T111 214V444Q111 491 109 531T98 594Q91 614 80 624T51 640Q44 642 36 643T19 645V657H381Q504 657 568 615T633 478Q633 431 611 390T554 329Q539 320 519 313T473 300T413 291T336 287Q327 287 313
288T288 291V214Q288 166 290 126T301 62Q308 42 319 32T347 17Q355 15 365 14T384 11V0Z" />
<glyph unicode="Q" glyph-name="Q" horiz-adv-x="702" d="M524 -311Q495 -311 470 -303T422 -282T379 -251T341 -213Q322 -193 303 -171T266 -131T231 -101T199 -89Q185 -89 175 -98T165 -118Q165 -129 173 -136T186 -149Q204 -167 204 -190Q203 -213 187 -233T142
-254Q111 -254 93 -234T74 -183Q74 -151 92 -127T134 -87T181 -62T213 -48Q227 -41 257 -32T315 -14Q252 -8 199 18T109 88T50 192T29 327Q29 406 52 469T118 577T220 646T351 670Q422 670 481 646T583 578T650 470T674 327Q674 255 655 197T599 95T513 24T401
-12Q377 -18 348 -25T293 -41T245 -57T215 -69V-74Q225 -71 237 -68L262 -63Q275 -61 285 -60T303 -59Q353 -59 390 -70T465 -103Q513 -131 545 -148T606 -168Q638 -169 655 -151T684 -107L698 -112Q696 -145 688 -178T662 -240Q643 -270 608 -290T524 -311ZM220
327Q220 257 225 206T239 118T262 58T291 22Q304 11 320 8T351 5Q367 5 382 8T411 22Q427 35 440 58T462 117T477 205T482 327Q482 397 477 449T463 537T440 597T411 633Q399 643 384 646T351 649Q334 649 319 647T291 633Q275 620 262 597T240 538T225 449T220
327Z" />
<glyph unicode="R" glyph-name="R" horiz-adv-x="698" d="M322 633Q297 633 288 617Q284 609 283 597T281 573V338H321Q353 338 371 346T401 373Q413 395 417 428T422 494Q422 563 404 598T341 633H322ZM371 0H19V11Q30 12 49 17Q66 21 78 32T97 68Q102 82 103
104T104 152V505Q104 559 96 589Q88 614 77 624T48 640Q39 642 32 643T19 645V657H379Q428 657 472 649T549 621T601 570T620 491Q620 438 594 402T524 347Q506 339 486 333T440 325V321Q464 318 492 311T539 292Q562 276 583 249T611 176Q621 113 632 78T661 26Q669
19 682 16T706 11V0H468Q454 19 443 53T427 130Q423 181 418 219T394 283Q378 304 360 308T312 312H281V152Q281 126 283 104T291 68Q298 43 309 32T338 17Q346 15 355 14T371 11V0Z" />
<glyph unicode="S" glyph-name="S" horiz-adv-x="552" d="M469 437Q460 472 446 506T412 569Q389 604 358 626T281 648Q229 648 206 623T183 565Q183 533 193 513T222 478T265 452T319 429Q358 412 395 394T462 351T510 289T528 199Q528 146 508 106T454 40T373
0T276 -13Q250 -13 223 -7T172 8T129 30T100 55H96L61 2H48L44 240H59Q71 198 91 157T140 83T202 30T278 9Q334 9 358 36T382 105Q382 126 377 143T357 177T316 208T247 241Q212 254 176 272T109 318T60 384T40 475Q40 520 59 556T112 617T188 656T278 670Q327
670 363 654T418 614H421L458 655H471L482 437H469Z" />
<glyph unicode="T" glyph-name="T" horiz-adv-x="622" d="M399 152Q399 98 408 68Q415 43 426 32T455 16Q471 12 484 12V0H138V12Q151 12 167 16Q184 21 195 32T215 68Q220 83 221 104T223 152V634H205Q176 634 153 618T101 563Q77 532 58 494L22 422H9L29 657H593L613
422H600Q582 456 563 493T523 560Q497 598 472 616T415 634H400L399 152Z" />
<glyph unicode="U" glyph-name="U" horiz-adv-x="679" d="M588 223Q588 180 581 143T558 76Q549 60 533 44T493 16T434 -5T354 -13Q314 -13 279 -8T213 9T159 42T119 94Q112 106 107 125T99 166T93 208T91 246V505Q91 532 90 553T83 590Q76 615 64 625T36 641Q28
643 20 644T6 646V657H354V645Q340 645 324 641Q307 636 296 626T276 590Q272 575 271 554T269 505V201Q269 173 272 149T285 106Q303 64 334 47T412 29Q456 29 488 48T537 104Q548 127 552 157T557 219V489Q557 537 553 561T541 602Q534 616 522 626T498 639Q484
644 463 646V657H682V646Q671 645 664 644T648 639Q635 636 624 627T605 601Q601 593 598 584T593 561T589 531T588 489V223Z" />
<glyph unicode="V" glyph-name="V" horiz-adv-x="637" d="M399 221H404L502 507Q509 527 513 547T518 584Q518 604 510 618T487 637Q477 641 466 643T445 646V657H651V646Q639 644 628 641T607 632Q597 626 588 617T571 594Q563 580 554 559T533 505L357 -4H274L123
467Q105 522 93 551T67 601Q56 617 45 625T19 639Q10 642 1 643T-17 646V657H367V646Q359 645 347 643T328 637Q314 632 304 619T294 586Q294 567 298 549T312 503L399 221Z" />
<glyph unicode="W" glyph-name="W" horiz-adv-x="988" d="M496 485L336 -4H254L107 499Q98 529 90 550T71 587T49 614T20 634Q12 639 0 642T-20 646V657H346V646Q324 642 307 631T289 587Q289 568 293 549T305 503L378 234H382L480 538Q460 599 433 620Q422 631
409 637T380 646V657H745V646Q732 644 719 641T696 631T680 614T674 587Q674 568 678 549T691 503L763 234H768L854 507Q862 530 866 550T870 585Q870 619 849 631T798 646V657H1005V646Q980 641 961 632T925 596Q917 582 908 560T887 505L721 -4H639L496 485Z"
/>
<glyph unicode="X" glyph-name="X" horiz-adv-x="666" d="M15 11Q23 12 33 14T52 22Q67 31 76 38T94 55Q105 66 125 94T166 152L252 283L128 524Q114 550 102 570T76 605T43 630T-3 646V657H379V646Q344 643 329 630T314 592Q314 575 322 556T341 514L396 409L458
510Q474 536 483 556T493 595Q493 624 474 634T428 646V657H640V646Q616 643 598 632T562 602T527 559T490 505L411 381L536 140Q565 86 594 54T669 11V0H289V11Q325 14 340 26T355 61Q355 78 347 98T325 144L266 255L198 148Q181 122 172 102T163 62Q163 30 192
19Q199 16 209 14T228 11V0H15V11Z" />
<glyph unicode="Y" glyph-name="Y" horiz-adv-x="657" d="M113 545Q102 569 91 586T67 616T38 635T2 646V657H358V646Q350 645 341 644T323 639Q297 628 296 600T314 529L404 326H409L492 507Q506 538 513 559T520 598Q520 627 491 638Q483 641 473 643T455 646V657H660V646Q638
642 620 633T586 608T554 567T523 508L422 286V156Q422 127 423 105T430 67Q437 43 448 33T477 17Q497 12 508 12V0H158V12Q169 12 189 17Q206 22 218 32T237 67Q241 83 242 105T244 156V270L113 545Z" />
<glyph unicode="Z" glyph-name="Z" horiz-adv-x="609" d="M589 646L247 29H302Q333 29 357 32T401 43T437 62T467 87Q489 108 505 127T533 166T557 203T580 240H594L554 0H29V12L392 627H324Q272 627 232 613T171 582Q158 573 144 558T115 524T88 485T62 445H48L79
657H589V646Z" />
<glyph unicode="[" glyph-name="bracketleft" horiz-adv-x="372" d="M93 -89Q108 -64 127 -42T168 -4T213 23T262 33Q316 33 342 5T369 -74Q369 -89 365 -102T354 -126T340 -144T329 -154H315Q322 -139 322 -124Q322 -96 305 -84T259 -72Q205 -72 155 -86T61 -120V672Q104
652 154 639T259 625Q287 625 304 637T322 676Q322 691 315 706H329Q333 703 340 696T353 679T364 655T369 627Q369 576 343 548T262 519Q237 519 214 529T168 555T127 594T93 641V-89Z" />
<glyph unicode="\" glyph-name="backslash" horiz-adv-x="313" d="M-11 688L365 -86L333 -102L-42 674L-11 688Z" />
<glyph unicode="]" glyph-name="bracketright" horiz-adv-x="372" d="M279 641Q264 616 245 594T204 556T159 529T110 519Q56 519 30 547T3 627Q3 642 7 655T18 678T32 696T43 706H57Q50 691 50 676Q50 649 67 637T113 625Q167 625 217 638T311 672V-120Q268 -100
218 -86T113 -72Q85 -72 68 -84T50 -124Q50 -139 57 -154H43Q39 -151 32 -144T19 -127T8 -103T3 -74Q3 -23 29 5T110 33Q135 33 158 24T204 -2T245 -41T279 -89V641Z" />
<glyph unicode="^" glyph-name="asciicircum" horiz-adv-x="357" d="M167 657H190L325 407H289L179 616L68 407H32L167 657Z" />
<glyph unicode="_" glyph-name="underscore" horiz-adv-x="300" d="M-5 -166V-131H305V-166H-5Z" />
<glyph unicode="`" glyph-name="grave" horiz-adv-x="323" d="M263 488Q209 511 165 527T94 557Q71 568 57 584T42 624Q42 652 59 665T100 679Q120 679 136 667T172 630Q191 604 213 575T270 498L263 488Z" />
<glyph unicode="a" glyph-name="a" horiz-adv-x="481" d="M363 -9Q332 -9 314 -3T285 15Q268 30 267 61H264Q253 23 220 7T142 -9Q120 -9 99 -3T61 18T34 53T23 106Q23 134 31 150T51 179Q60 189 73 196T100 209T130 219T158 227Q189 235 208 243T238 261T254
281T260 304V321Q260 332 260 343T261 363V378Q261 411 251 422T215 434Q195 434 187 427T176 413Q174 405 175 389T174 352Q171 291 110 291Q81 291 64 305T47 347Q47 360 51 372T63 393Q82 419 126 435T223 452Q314 452 364 423T415 324V109Q415 74 417 59T425
35Q434 25 451 25Q465 25 477 31L479 20Q470 11 440 1T363 -9ZM259 260Q252 250 245 245T227 232Q215 224 207 216T193 194Q187 182 185 159T182 111Q182 69 192 53T220 36Q232 36 244 53T258 100L259 260Z" />
<glyph unicode="b" glyph-name="b" horiz-adv-x="533" d="M206 684Q213 684 213 676Q213 662 212 632L210 572V381H213Q228 416 259 434T334 452Q366 452 398 441T455 403T497 332T513 221Q513 162 496 119T448 48T376 5T289 -9Q272 -9 252 -6T211 6T173 26T143
56H141L61 -1H49Q51 21 51 48T52 94V587Q52 600 51 612T48 633Q44 647 38 653T24 665Q8 672 -5 672V684H206ZM284 419Q271 419 258 411T232 382Q222 364 216 339T210 275V148Q210 111 213 89T225 49Q235 26 249 18T278 10Q298 10 311 25T332 68T343 134T346 219Q346
323 332 371T284 419Z" />
<glyph unicode="c" glyph-name="c" horiz-adv-x="442" d="M432 139Q424 110 410 84T375 37T323 4T253 -9Q199 -9 159 5T93 45Q60 77 40 121T20 224Q20 281 41 323T96 394T174 437T263 452Q314 452 348 440T397 412Q411 398 418 383T425 348Q425 319 407 305T365
291Q332 291 318 312T298 370Q293 406 285 420T263 434Q249 434 238 428T218 410Q203 389 195 342T187 230Q187 161 196 120T221 53Q232 36 247 30T279 23Q309 23 331 34T370 62T397 101T416 145L432 139Z" />
<glyph unicode="d" glyph-name="d" horiz-adv-x="555" d="M541 -1H521Q505 -1 482 -1T433 -2T385 -2T347 -3H331Q326 -3 326 3V71H324Q309 33 280 12T204 -9Q168 -9 135 5T76 47T35 119T20 220Q20 275 36 318T79 391T141 436T217 452Q261 452 284 435T319 392H322V581Q322
595 321 610T318 634Q314 648 308 654T294 666Q287 670 281 671T266 673V684H478Q484 684 484 677Q484 665 484 644T483 597T482 548T481 506V115Q481 100 481 83T484 54Q489 30 507 19Q514 14 523 13T541 10V-1ZM322 304Q322 354 303 388Q294 403 282 412T254
422Q237 422 224 408T203 366T191 302T187 219Q187 123 200 74T249 25Q279 25 300 58T322 142V304Z" />
<glyph unicode="e" glyph-name="e" horiz-adv-x="459" d="M276 253Q291 254 297 261T303 287Q303 333 299 367T282 419Q271 434 250 434Q229 434 214 418Q201 403 195 365T188 253H276ZM441 138Q434 108 420 82T382 35T326 3T250 -9Q212 -9 176 1T108 33Q69 60
45 106T20 221Q20 282 40 325T93 397T166 438T248 452Q298 452 335 437T396 395T433 335T445 264Q445 256 445 248T443 234H188Q188 187 192 156T202 102T216 67T233 44Q244 34 260 28T293 22Q321 22 343 33T381 63T409 102T426 143L441 138Z" />
<glyph unicode="f" glyph-name="f" horiz-adv-x="322" d="M7 0V11Q12 12 19 13T32 17Q40 21 47 27T59 49Q62 60 63 84T64 128V414H7V443H63V487Q63 518 70 543T87 589T109 623T131 645Q153 662 184 675T268 689Q310 689 337 684T383 669Q410 655 419 636T429 596Q429
571 414 552T366 532Q343 532 329 542T305 569Q300 577 297 586T291 607Q289 619 287 630T282 650Q277 670 264 670Q244 670 233 647Q227 634 225 613T223 562V443H313V414H223V128Q223 108 224 84T228 49Q233 33 240 27T255 17Q261 14 272 13T289 11V0H7Z" />
<glyph unicode="g" glyph-name="g" horiz-adv-x="505" d="M469 -33Q469 -78 447 -112T386 -168T299 -202T198 -213Q154 -213 119 -208T58 -193T19 -165T5 -123Q5 -104 15 -90T41 -66T79 -50T121 -42V-39Q78 -33 53 -8T27 58Q27 80 36 97T60 128T90 150T120 163V166Q83
182 54 215T25 298Q25 338 41 367T85 415T146 443T215 452Q256 452 295 439T361 400H366Q377 426 399 442T455 458Q491 458 507 443T524 402Q524 373 510 359T471 345Q449 345 437 358T420 383Q413 399 410 405T399 411Q393 411 388 403T383 381Q383 376 386 368T394
349Q400 337 402 324T405 298Q405 258 389 230T345 183T284 155T216 146Q194 146 176 148T144 156Q130 153 119 145T108 123Q108 110 119 103T151 95Q161 95 183 96T229 99T275 102T310 104Q391 104 430 70T469 -33ZM198 -197Q288 -197 332 -169T376 -105Q376 -76
360 -57T300 -37Q287 -37 269 -38T231 -40T195 -43T166 -46Q132 -50 106 -67T80 -123Q80 -158 110 -177T198 -197ZM215 436Q186 436 175 406T164 298Q164 220 175 191T215 161Q245 161 256 190T267 298Q267 337 265 363T256 406T240 429T215 436Z" />
<glyph unicode="h" glyph-name="h" horiz-adv-x="579" d="M510 128Q510 107 511 84T516 49Q521 33 527 27T542 16Q548 14 555 13T568 11V0H303V11Q314 11 326 16Q336 21 341 30T349 56Q351 67 351 81T352 112V338Q352 360 349 373T338 394Q327 406 306 406Q286
406 265 386T237 317Q229 282 229 241V112Q229 96 229 82T232 56Q234 39 239 30T255 16Q261 14 266 13T278 11V0H13V11Q19 12 26 13T39 16Q47 20 53 26T65 49Q68 60 69 83T71 128V567Q71 582 70 602T66 633Q64 646 60 652T48 664Q40 669 32 670T16 673V684H222Q229
684 229 677Q229 670 228 640T227 568V354H231Q239 378 250 394T277 422Q297 436 322 444T373 452Q408 452 437 441T481 411Q495 394 502 370T510 312V128Z" />
<glyph unicode="i" glyph-name="i" horiz-adv-x="301" d="M151 506Q116 506 93 529T70 586Q70 620 93 644T151 668Q185 668 209 644T233 586Q233 553 210 530T151 506ZM230 125Q230 104 231 82T236 49Q241 33 247 27T262 16Q268 14 274 13T287 11V0H14V11Q20 12
27 13T39 16Q47 20 54 26T66 49Q69 59 70 81T71 125V323Q71 339 71 359T68 391Q65 404 60 410T49 422Q42 427 34 428T18 431V443H225Q232 443 232 435Q231 423 231 407T230 370V125Z" />
<glyph unicode="j" glyph-name="j" horiz-adv-x="274" d="M144 506Q109 506 86 529T63 586Q63 620 86 644T144 668Q179 668 202 644T226 586Q226 553 203 530T144 506ZM65 323Q65 338 64 359T60 391Q58 404 54 410T42 422Q35 427 27 428T11 431V443H218Q225 443
225 435Q225 423 225 407T223 370V11Q223 -27 216 -55T196 -105T170 -141T142 -167Q135 -173 123 -180T93 -195T52 -208T0 -213Q-28 -213 -54 -206T-100 -187Q-121 -173 -135 -151T-149 -99Q-149 -67 -127 -43T-67 -19Q-31 -19 -12 -41T8 -96Q8 -105 5 -117T-3
-141Q-6 -149 -8 -157T-11 -171Q-11 -180 -7 -186T9 -193Q26 -193 35 -183T51 -157Q57 -142 61 -118T65 -65V323Z" />
<glyph unicode="k" glyph-name="k" horiz-adv-x="558" d="M288 0H12V11Q18 12 25 13T38 16Q46 20 52 26T64 50Q68 61 68 84T69 128V565Q69 581 68 601T65 633Q63 646 59 652T47 664Q40 669 32 670T16 673V684H225Q231 682 231 676Q230 671 230 647T229 584V219L332
321Q353 342 365 360T377 393Q377 403 374 410T360 423Q354 426 344 428T325 431V443H522V431Q509 429 493 423T460 406Q456 404 448 398T428 382T405 362T382 340L341 298Q402 287 431 255T470 179Q474 158 479 136T491 93T505 58T519 33Q527 23 538 19T570 11V0H370Q353
14 339 54T316 146Q311 184 301 203T271 234L229 191V128Q229 108 230 85T234 50Q239 33 245 27T260 16Q266 14 274 13T288 11V0Z" />
<glyph unicode="l" glyph-name="l" horiz-adv-x="305" d="M229 128Q229 107 230 84T234 49Q239 33 246 27T261 16Q266 14 274 13T288 11V0H12V11Q18 12 25 13T38 16Q46 20 52 26T64 49Q68 60 69 83T70 128V564Q70 580 69 601T65 633Q63 646 59 652T47 664Q40 669
32 670T16 673V684H223Q230 684 230 676Q230 665 230 649T229 612V128Z" />
<glyph unicode="m" glyph-name="m" horiz-adv-x="859" d="M279 0H14V11Q20 12 27 13T39 16Q47 20 54 26T66 49Q69 60 70 83T71 128V326Q71 341 71 360T68 391Q65 404 61 410T49 422Q42 427 34 428T18 431V443H223Q231 443 231 435Q231 430 231 420T229 397T228
373T227 353H231Q247 399 278 421Q298 436 325 444T378 452Q413 452 438 443T479 418Q502 393 508 353H511Q519 377 531 393T558 422Q578 436 602 444T652 452Q688 452 717 443T761 414Q775 395 782 372T790 315V128Q790 107 791 84T796 49Q801 33 807 27T822 16Q828
14 835 13T848 11V0H583V11Q594 11 606 16Q616 21 621 30T629 56Q631 67 631 81T632 112V338Q632 360 629 373T618 394Q607 406 586 406Q567 406 546 386T518 318Q515 304 513 288T511 254V120Q511 103 511 85T514 56Q516 39 521 30T537 16Q549 11 560 11V0H303V11Q310
11 315 12T325 16Q336 21 341 30T349 56Q351 67 351 81T352 112V338Q352 380 339 394Q327 406 306 406Q286 406 265 386T238 318Q234 301 232 282T230 241V112Q230 96 230 82T233 56Q236 39 241 30T257 16Q269 11 279 11V0Z" />
<glyph unicode="n" glyph-name="n" horiz-adv-x="579" d="M510 128Q510 107 511 84T516 49Q521 33 527 27T542 16Q548 14 555 13T568 11V0H303V11Q313 11 325 16Q336 21 341 30T349 56Q351 67 351 81T352 112V338Q352 380 338 394Q332 400 325 403T305 406Q296
406 286 401T267 386T249 359T238 318Q234 301 232 282T230 241V112Q230 96 230 82T233 56Q235 39 240 30T257 16Q269 11 280 11V0H14V11Q20 12 27 13T39 16Q47 20 54 26T66 49Q69 60 70 83T71 128V323Q71 339 71 359T68 391Q65 404 61 410T49 422Q42 427 34 428T18
431V443H223Q230 443 230 435Q230 430 230 420T229 397T229 373T228 353H231Q239 377 251 393T278 422Q298 436 325 444T377 452Q412 452 438 443T481 411Q495 392 502 368T510 309V128Z" />
<glyph unicode="o" glyph-name="o" horiz-adv-x="511" d="M21 221Q21 276 41 319T93 391T168 436T255 452Q300 452 342 437T417 392T469 319T489 221Q489 166 470 124T418 52T343 7T255 -9Q210 -9 168 6T93 51T41 123T21 221ZM323 221Q323 310 317 355T294 420Q287
428 276 431T255 435Q245 435 235 432T216 420Q200 401 194 356T187 221Q187 132 194 87T216 23Q224 14 234 11T255 7Q266 7 276 10T294 23Q310 42 316 87T323 221Z" />
<glyph unicode="p" glyph-name="p" horiz-adv-x="562" d="M376 225Q376 282 373 319T362 377T341 407T310 415Q276 415 255 377T233 277V156Q233 124 239 93T257 46Q281 15 312 15Q330 15 342 26T362 62T373 127T376 225ZM14 -202Q20 -201 25 -200T37 -196Q51
-190 57 -183T69 -159Q73 -145 73 -126T74 -85V320Q74 337 73 356T70 387Q68 400 64 406T51 419Q43 425 31 428T11 432V443H224Q232 443 232 434Q232 432 232 424T231 404V377H235Q249 412 281 432T351 452Q390 452 424 439T485 397T526 325T542 221Q542 167 526
125T482 52T416 7T333 -9Q299 -9 278 -2T236 20H233V-85Q233 -106 233 -125T238 -159Q243 -176 249 -183T269 -196Q275 -199 281 -200T295 -202V-213H14V-202Z" />
<glyph unicode="q" glyph-name="q" horiz-adv-x="541" d="M384 365L471 451H489Q487 441 486 425T484 392T482 359T481 333V-85Q481 -105 481 -125T485 -159Q490 -176 496 -183T516 -196Q522 -199 528 -200L540 -202V-213H257V-202Q264 -201 272 -200T286 -196Q300
-190 306 -183T318 -159Q322 -145 322 -125T323 -85V46H319Q283 -10 208 -10Q169 -10 135 4T75 46T35 118T20 220Q20 277 38 320T87 393T155 437T234 452Q264 452 288 444T330 423T360 395T379 365H384ZM322 302Q322 325 320 351T305 400Q298 413 288 420T259 428Q224
428 207 371T189 220Q189 117 205 70T256 23Q286 23 305 60Q312 74 317 98T322 173V302Z" />
<glyph unicode="r" glyph-name="r" horiz-adv-x="423" d="M231 336Q241 371 255 393T283 426Q295 436 311 444T354 452Q373 452 388 448T415 432Q435 412 435 367Q435 331 414 313T369 295Q339 295 324 309T301 348Q295 366 291 373T279 381Q269 381 254 352T232
267Q231 261 231 241T230 200V113Q230 95 231 81T234 55Q237 39 244 31T262 17Q267 14 275 13T292 11V0H14V11Q20 12 27 13T40 16Q48 20 54 26T66 50Q70 61 71 84T72 128V325Q72 338 72 358T69 390Q67 404 63 410T52 422Q45 427 36 428T19 431V443H224Q230 443
230 435V417Q230 405 230 390T229 359T228 336H231Z" />
<glyph unicode="s" glyph-name="s" horiz-adv-x="402" d="M383 145Q383 110 369 82T331 34T275 2T205 -9Q172 -9 137 2T79 34H75L41 2H32L25 165H38Q46 132 62 104T101 53T150 19T205 6Q240 6 252 20T265 64Q265 95 239 113T164 149Q142 157 118 168T73 199T39
245T25 310Q25 342 38 368T74 413T129 442T198 452Q213 452 230 449T263 441T292 428T311 412H314L336 441H347L350 308H339Q332 332 320 355T289 395Q271 413 248 424T199 435Q173 435 157 423T140 382Q140 353 165 335T238 300Q267 289 293 277T339 248T371 205T383
145Z" />
<glyph unicode="t" glyph-name="t" horiz-adv-x="340" d="M339 63Q332 51 321 39T292 16T253 -2T203 -9Q167 -9 140 -1T97 21Q74 41 67 66T59 122V146Q59 167 59 196T60 260T60 325T61 381T62 415Q57 415 49 415T33 416H17Q10 416 6 417V435Q81 452 128 500T197
617H222V443H318V414H222L219 110Q219 83 228 63T269 42Q308 42 329 74L339 63Z" />
<glyph unicode="u" glyph-name="u" horiz-adv-x="561" d="M63 317Q63 337 62 360T58 394Q53 408 48 414T35 425Q29 428 21 429T6 432V443H215Q223 443 223 434Q223 428 223 398T222 331V109Q222 65 235 48Q248 33 269 33Q290 33 309 59T335 140Q337 156 337 170T338
205V332Q338 349 337 363T334 388Q330 416 314 425Q308 428 299 429T281 432V443H490Q498 443 498 434Q497 428 497 399V117Q497 101 498 82T501 52Q503 38 507 31T520 19Q527 14 535 13T551 11V-1H535Q520 -1 498 -1T449 -2T401 -3T363 -4H348Q344 -4 344 0Q342
1 342 7T341 17V87H338Q330 64 321 49T295 19Q275 4 252 -2T206 -9Q174 -9 147 -2T102 21Q80 42 72 71T63 134V317Z" />
<glyph unicode="v" glyph-name="v" horiz-adv-x="450" d="M468 432Q461 431 454 430T438 423Q427 416 416 400Q409 389 402 373T385 325L274 -2H189L74 310Q64 334 56 355T43 386Q36 401 29 409T13 423Q6 428 -2 429T-17 432V443H281V432Q272 431 262 430T246
424Q230 415 230 391Q230 377 233 362T243 326L299 144H302L362 322Q370 349 373 363T376 394Q376 406 372 412T360 424Q353 428 345 429T330 432V443H468V432Z" />
<glyph unicode="w" glyph-name="w" horiz-adv-x="714" d="M357 309L257 -3H170L68 310Q59 339 51 360T34 393Q26 407 22 413T9 424Q3 428 -4 429L-17 432V443H265V432Q248 430 239 424Q233 419 229 411T225 392Q225 378 228 364T237 328L284 152H286Q290 165 298
191T316 246T333 301T346 342Q341 357 337 368T329 388Q321 403 316 410T303 423Q297 428 292 429T280 432V443H560V432Q552 431 543 430T528 424Q513 416 513 391Q513 377 516 362T526 326L570 152H572L627 322Q635 349 638 364T642 395Q642 407 638 413T625 424Q619
428 612 429T597 432V443H732V432Q726 431 719 430T703 423Q697 419 691 414T679 400Q672 389 666 372T650 325L544 -3H457L357 309Z" />
<glyph unicode="x" glyph-name="x" horiz-adv-x="478" d="M173 0H18V11Q26 13 36 16T54 24Q66 31 75 38T93 55T112 79T136 116L179 182L86 350Q72 376 58 393T32 419Q16 429 2 431V443H278V431Q268 430 264 429T254 425Q247 422 244 417T241 401Q241 386 257 359L296
291L321 334Q333 354 341 366T349 393Q349 415 337 423Q331 427 325 428T307 431V443H459V431Q451 430 440 427T422 418Q410 410 401 403T383 385T364 359T340 321L307 269L405 90Q419 64 434 48T460 23Q467 18 476 16T493 11V0H213V11Q230 12 238 17Q244 21 248
26T252 42Q252 56 235 82L191 162L156 105Q144 85 137 75T129 50Q129 38 132 32T144 20Q151 17 156 15T173 11V0Z" />
<glyph unicode="y" glyph-name="y" horiz-adv-x="458" d="M238 -84Q225 -119 211 -140T182 -177Q147 -213 92 -213Q53 -213 25 -194T-3 -131Q-3 -108 13 -89T62 -70Q87 -70 102 -83T127 -121Q134 -138 136 -150T152 -163Q164 -163 179 -145T210 -86Q223 -56 223
-52Q227 -40 220 -25L87 310Q75 341 66 359T51 387Q43 401 36 408T19 422Q12 427 3 429T-14 432V443H286V432Q278 431 270 430T256 424Q239 415 239 393Q239 379 244 364T256 326L309 163H311L368 322Q377 347 380 362T384 393Q384 405 379 412T366 425Q359 429
352 430T336 432V443H485V432Q445 427 424 394Q418 384 412 369T395 325Q392 317 380 285T350 208T314 113T278 21T251 -51T238 -84Z" />
<glyph unicode="z" glyph-name="z" horiz-adv-x="445" d="M400 0H9V9L227 419V423H154Q131 423 114 411T85 383Q81 379 65 352T22 268H8L38 443H407V430L192 21V17H257Q285 17 308 33T346 70Q349 73 359 89T382 124T404 159T417 180H430L400 0Z" />
<glyph unicode="{" glyph-name="braceleft" horiz-adv-x="372" d="M375 -144Q316 -144 267 -137T182 -112T126 -63T106 19Q106 33 110 53T118 93T127 131T131 159Q131 196 123 213T95 244Q84 252 66 254T31 257V277Q48 277 66 279T95 290Q114 303 122 320T131
374Q131 384 127 402T119 440T110 480T106 515Q106 564 126 595T181 645T266 670T375 677V661Q352 661 334 655T302 636T282 600T275 543Q275 531 277 514T283 479T288 445T291 419Q291 385 282 359T251 313T193 283T101 269V265Q156 262 192 251T251 220T282 175T291
114Q291 104 289 88T283 55T278 20T275 -9Q275 -43 282 -65T302 -102T333 -122T375 -128V-144Z" />
<glyph unicode="|" glyph-name="bar" horiz-adv-x="158" d="M63 -99V687H95V-99H63Z" />
<glyph unicode="}" glyph-name="braceright" horiz-adv-x="372" d="M-3 -128Q20 -128 38 -122T70 -102T90 -66T97 -9Q97 3 95 20T89 54T84 88T81 114Q81 148 90 174T121 220T179 250T271 265V269Q216 272 180 283T121 313T90 358T81 419Q81 429 83 445T89 478T94
513T97 543Q97 577 90 599T70 635T39 655T-3 661V677Q56 677 105 670T190 645T246 596T266 515Q266 501 262 481T254 440T245 402T241 374Q241 338 249 321T276 290Q287 282 305 280T341 277V257Q324 256 306 254T277 244Q258 231 250 214T241 159Q241 149 245
132T253 94T262 53T266 19Q266 -31 246 -62T191 -112T106 -137T-3 -144V-128Z" />
<glyph unicode="~" glyph-name="asciitilde" horiz-adv-x="372" d="M349 344Q344 320 336 296T316 251T284 217T237 204Q222 204 206 208T172 216T140 225T112 229Q86 229 69 218T43 180L24 182Q29 205 37 230T58 275T90 309T136 322Q147 322 163 318T197 309T230
300T258 296Q313 296 329 346L349 344Z" />
<glyph unicode="&#xa0;" glyph-name="uni00A0" horiz-adv-x="196" />
<glyph unicode="&#xa1;" glyph-name="exclamdown" horiz-adv-x="261" d="M130 672Q164 672 184 650T205 597Q205 567 184 545T130 522Q98 522 77 544T55 597Q55 628 76 650T130 672ZM230 75Q230 34 205 10T131 -14Q83 -14 57 10T31 75Q31 111 46 159T80 277Q97
350 107 393T122 464H140Q145 436 154 394T182 277Q200 207 215 159T230 75Z" />
<glyph unicode="&#xa2;" glyph-name="cent" horiz-adv-x="439" d="M254 -10Q209 -10 166 2T93 45Q60 76 40 120T20 223Q20 278 40 320T93 390T168 433T254 450V530H277V450Q323 448 353 436T397 410Q411 396 418 382T425 347Q425 321 410 307T372 292Q342 292
327 311T306 368Q300 417 277 428V23Q307 23 329 33T368 61T396 99T416 144L432 138Q424 111 412 87T381 42T337 9T277 -9V-94H254V-10ZM254 432Q232 429 218 409Q203 387 195 341T187 229Q187 160 196 119T221 51Q234 31 254 25V432Z" />
<glyph unicode="&#xa3;" glyph-name="sterling" horiz-adv-x="653" d="M454 669Q530 669 572 635T614 545Q614 515 604 493T576 458T537 438T490 431Q450 431 424 452T391 506L404 513Q424 476 462 476Q491 476 509 495T528 558Q528 602 509 624T456 647Q423 647
398 624T370 550Q366 499 372 444T378 336Q379 331 379 324V313H518V286H378Q374 254 365 224T344 168Q366 164 388 161T428 158Q506 158 549 175T609 237L626 233Q621 182 608 136T570 53T507 -4T416 -26Q368 -26 325 -6T251 38Q223 13 188 -2T108 -17Q50 -17
21 10T-9 80Q-9 104 1 125T32 163T82 188T148 198Q160 198 175 196T213 189Q205 211 198 235T185 286H80V313H179Q176 330 175 348T174 385Q175 458 202 511T271 600T361 652T454 669ZM89 147Q60 147 43 130T25 80Q25 47 47 27T112 7Q144 7 173 20T223 61Q216 68
213 70Q185 99 154 123T89 147Z" />
<glyph unicode="&#xa5;" glyph-name="yen" horiz-adv-x="630" d="M142 12Q152 13 161 14T178 19Q192 24 202 34T218 65Q222 78 223 95T224 132V183H68V213H224V281H68V311H219L89 547Q67 586 48 607T6 637L-8 641Q-15 643 -23 644V656H333V644Q325 643 313 641T293
636Q276 630 270 618T265 591T273 560T288 527L381 345H386L472 506Q484 529 492 550T503 588T499 617T476 637Q468 640 455 641T434 644V656H645V644Q637 643 626 641T607 634Q581 622 556 590T504 506L403 311H560V281H399V213H560V183H399V132Q399 112 400 95T405
65Q410 47 420 37T444 20Q452 16 461 15T480 12V0H142V12Z" />
<glyph unicode="&#xa7;" glyph-name="section" horiz-adv-x="475" d="M253 670Q334 670 378 646T424 579Q425 555 413 538T373 520Q347 520 333 534T314 566Q309 578 308 596T302 626Q297 637 287 643T252 650Q225 650 207 630T188 579Q188 554 199 536T229 503T270
477T316 452Q346 436 371 419T415 380T445 332T456 270Q456 219 426 178T347 117Q376 94 395 64T414 -13Q414 -45 401 -75T363 -131T304 -171T227 -186Q146 -186 102 -160T56 -92Q54 -69 67 -51T107 -33Q133 -33 147 -47T167 -79Q171 -92 172 -111T178 -141Q183
-152 193 -158T228 -165Q256 -165 275 -145T294 -95Q294 -70 283 -51T253 -17T210 12T159 41Q99 75 65 117T31 221Q31 273 60 312T138 368Q108 392 88 423T67 503Q67 534 80 564T117 618T176 655T253 670ZM340 182Q340 225 309 253T223 312Q209 321 195 330T166
349Q148 334 148 302Q148 280 156 264T179 233T214 206T258 179Q273 168 289 158T321 136Q329 144 334 155T340 182Z" />
<glyph unicode="&#xa8;" glyph-name="dieresis" horiz-adv-x="436" d="M121 647Q151 647 171 627T191 577Q191 548 171 528T121 507Q90 507 71 527T51 576Q51 605 71 626T121 647ZM314 647Q344 647 364 627T385 577Q385 548 365 528T314 507Q284 507 265 527T245
576Q245 605 265 626T314 647Z" />
<glyph unicode="&#xa9;" glyph-name="copyright" horiz-adv-x="893" d="M861 260Q861 174 829 99T740 -33T608 -122T448 -155Q362 -155 287 -122T155 -33T65 98T32 260Q32 345 65 420T154 551T286 640T448 673Q533 673 608 641T739 552T828 420T861 260ZM835 260Q835
341 804 412T719 535T596 618T448 649Q370 649 300 619T176 536T90 412T58 260Q58 177 90 106T175 -19T299 -102T448 -133Q526 -133 596 -103T719 -19T803 105T835 260ZM642 191Q635 161 621 132T583 78T527 40T453 25Q394 25 352 40T283 81Q247 113 226 158T204
264Q204 321 224 364T280 436T362 480T459 495Q513 495 548 479T603 439H606L627 475H636V296H620Q612 327 602 358T576 415T534 457T472 473Q455 473 439 465T410 440Q375 392 375 269Q375 234 378 208T387 161T400 125T416 98Q427 81 443 74T480 66Q537 66 571
101T625 196L642 191Z" />
<glyph unicode="&#xaa;" glyph-name="ordfeminine" horiz-adv-x="442" d="M130 261Q110 261 91 267T57 285T33 318T24 366Q24 391 31 405T49 430Q64 447 91 456T141 471Q170 478 188 486T216 504T231 523T237 544Q237 556 237 575T238 603Q238 633 229 643T197
653Q180 653 173 648T164 637Q162 629 163 615T164 583Q161 526 105 526Q78 526 63 539T48 578Q48 589 52 600T62 620Q79 643 118 657T204 671Q286 671 332 645T379 555V368Q379 336 381 322T389 302Q395 293 410 293Q422 293 433 299L435 287Q427 279 400 270T331
261Q304 261 287 267T260 284Q254 291 250 301T243 326H241Q231 291 202 276T130 261ZM236 501Q230 492 223 487T204 474Q196 468 190 462T178 443Q173 431 172 412T170 369Q170 332 178 318T202 303Q214 303 224 319T236 364V501Z" />
<glyph unicode="&#xab;" glyph-name="guillemotleft" horiz-adv-x="446" d="M396 403L410 390Q387 353 362 319T315 246Q336 208 361 173T410 99L396 87L213 239V251L396 403ZM229 408L243 395Q218 356 191 322T143 246Q165 204 191 170T243 95L229 82L33 238V252L229
408Z" />
<glyph unicode="&#xae;" glyph-name="registered" horiz-adv-x="553" d="M528 421Q528 370 508 325T454 245T374 191T277 171Q225 171 180 191T100 245T45 324T25 421Q25 472 45 517T99 597T179 651T277 671Q328 671 374 651T454 597T508 518T528 421ZM504 421Q504
467 486 509T437 582T365 631T277 650Q230 650 189 632T117 582T68 509T50 421Q50 374 68 333T116 260T188 210T277 191Q323 191 364 209T437 259T486 332T504 421ZM323 290Q316 300 312 315T305 350Q303 370 301 384T292 412Q281 430 261 430H246V336Q246 327
248 322Q250 317 252 313T260 306Q264 304 271 304T283 303V290H127V303Q131 303 137 303T148 306Q154 308 156 312T161 322Q163 327 163 335V527Q163 536 161 541Q158 552 148 556Q144 558 138 559T127 560V573H286Q340 573 366 555T393 504Q393 477 371 459T303
438V436Q344 432 364 418T392 363Q397 334 402 324T417 309Q419 307 426 305T438 303V290H323ZM303 504Q303 533 296 544T266 556H246V444H264Q287 444 295 460T303 504Z" />
<glyph unicode="&#xaf;" glyph-name="macron" horiz-adv-x="368" d="M61 540V597H307V540H61Z" />
<glyph unicode="&#xb0;" glyph-name="degree" horiz-adv-x="332" d="M291 544Q291 515 281 492T253 452T213 426T165 416Q140 416 118 425T78 451T50 491T39 544Q39 572 49 596T77 636T117 662T165 672Q190 672 212 663T252 637T280 596T291 544ZM241 544Q241
597 222 625T165 654Q127 654 108 626T89 544Q89 491 108 463T165 435Q203 435 222 463T241 544Z" />
<glyph unicode="&#xb4;" glyph-name="acute" horiz-adv-x="327" d="M281 619Q281 599 268 584T231 557Q204 543 162 527T62 488L55 498Q89 545 111 575T153 630Q171 653 186 666T222 679Q281 679 281 619Z" />
<glyph unicode="&#xb6;" glyph-name="paragraph" horiz-adv-x="530" d="M439 636V-151H411V636H315V-151H289V237H271Q202 237 155 255T79 304T37 372T24 449Q24 494 39 532T84 597T156 641T254 657H521V636H439Z" />
<glyph unicode="&#xb7;" glyph-name="periodcentered" horiz-adv-x="307" d="M234 274Q234 241 211 218T153 194Q118 194 96 217T73 274Q73 307 96 331T153 355Q186 355 210 332T234 274Z" />
<glyph unicode="&#xb8;" glyph-name="cedilla" horiz-adv-x="299" d="M251 -112Q251 -135 241 -150T215 -175T177 -189T132 -193Q111 -193 87 -188T49 -174L55 -161Q66 -166 82 -169T112 -173Q138 -173 153 -159T168 -113Q168 -85 156 -72T129 -59Q112 -59 101
-70L85 -63L104 1H124L110 -50Q117 -45 132 -41T160 -37Q203 -37 227 -55T251 -112Z" />
<glyph unicode="&#xba;" glyph-name="ordmasculine" horiz-adv-x="463" d="M440 465Q440 415 423 377T376 314T310 275T232 261Q191 261 153 274T86 313T40 377T22 465Q22 515 39 553T86 617T153 656T232 670Q272 670 309 657T376 617T422 553T440 465ZM289 465Q289
543 284 583T265 640Q259 647 250 650T231 653Q222 653 213 650T197 640Q183 623 178 583T173 465Q173 387 178 347T197 291Q211 277 231 277Q240 277 249 280T265 291Q279 307 284 347T289 465Z" />
<glyph unicode="&#xbb;" glyph-name="guillemotright" horiz-adv-x="446" d="M414 238L217 82L203 95Q228 136 255 170T304 246Q282 288 255 322T204 395L217 408L414 252V238ZM233 239L50 87L36 99Q60 137 85 172T131 246Q110 284 85 318T36 390L50 403L233 251V239Z" />
<glyph unicode="&#xbf;" glyph-name="questiondown" horiz-adv-x="443" d="M406 597Q406 567 386 545T332 523Q299 523 278 545T257 597Q257 628 277 650T332 672Q365 672 385 650T406 597ZM420 94Q420 71 407 52T371 18T316 -5T247 -14Q230 -14 211 -12T174 -5T140
6T112 20Q70 46 44 86T18 191Q18 239 37 273T87 330T155 362T227 373Q257 373 282 367T322 349H324V459H347V330L332 317Q318 331 305 335T271 339Q229 339 211 281T193 126Q193 102 196 81T205 44T221 18T246 8Q263 8 267 24T278 73Q281 89 286 105T300 133T322
152T356 160Q384 160 402 141T420 94Z" />
<glyph unicode="&#xc0;" glyph-name="Agrave" horiz-adv-x="641" d="M240 438H235L157 216H314L240 438ZM-19 12Q4 15 23 26Q34 33 43 42T64 68Q83 95 104 153L290 662H359L513 211Q530 160 546 122T576 61Q587 44 598 35T622 21Q630 18 639 16T656 12V0H282V12Q291
13 302 15T320 21Q334 26 344 37T354 69Q354 89 349 109T334 155L322 192H149L134 148Q127 129 122 110T117 75Q117 53 126 40T150 21Q161 16 171 15T189 12V0H-19V12ZM437 695Q380 705 331 714T249 731Q224 737 204 751T183 791Q183 820 199 836T238 852Q258 852
275 844T315 815Q339 794 369 769T443 705L437 695Z" />
<glyph unicode="&#xc1;" glyph-name="Aacute" horiz-adv-x="641" d="M240 438H235L157 216H314L240 438ZM-19 12Q4 15 23 26Q34 33 43 42T64 68Q83 95 104 153L290 662H359L513 211Q530 160 546 122T576 61Q587 44 598 35T622 21Q630 18 639 16T656 12V0H282V12Q291
13 302 15T320 21Q334 26 344 37T354 69Q354 89 349 109T334 155L322 192H149L134 148Q127 129 122 110T117 75Q117 53 126 40T150 21Q161 16 171 15T189 12V0H-19V12ZM413 852Q436 852 452 836T468 791Q468 765 448 751T402 731Q370 723 321 715T214 695L208 705Q253
743 282 768T336 815Q359 835 376 843T413 852Z" />
<glyph unicode="&#xc2;" glyph-name="Acircumflex" horiz-adv-x="641" d="M240 438H235L157 216H314L240 438ZM-19 12Q4 15 23 26Q34 33 43 42T64 68Q83 95 104 153L290 662H359L513 211Q530 160 546 122T576 61Q587 44 598 35T622 21Q630 18 639 16T656 12V0H282V12Q291
13 302 15T320 21Q334 26 344 37T354 69Q354 89 349 109T334 155L322 192H149L134 148Q127 129 122 110T117 75Q117 53 126 40T150 21Q161 16 171 15T189 12V0H-19V12ZM460 704L324 763L188 704L179 713Q183 718 200 738T236 782T271 824T289 846H359Q361 843 377
824T412 782T448 739T469 713L460 704Z" />
<glyph unicode="&#xc3;" glyph-name="Atilde" horiz-adv-x="641" d="M240 438H235L157 216H314L240 438ZM-19 12Q4 15 23 26Q34 33 43 42T64 68Q83 95 104 153L290 662H359L513 211Q530 160 546 122T576 61Q587 44 598 35T622 21Q630 18 639 16T656 12V0H282V12Q291
13 302 15T320 21Q334 26 344 37T354 69Q354 89 349 109T334 155L322 192H149L134 148Q127 129 122 110T117 75Q117 53 126 40T150 21Q161 16 171 15T189 12V0H-19V12ZM496 844Q491 821 484 798T465 755T433 724T386 712Q371 712 350 716T308 725T269 735T241 739Q220
739 205 732T180 699L163 703Q168 726 176 748T197 789T228 818T273 830Q286 830 306 826T348 817T388 807T416 803Q442 803 456 812T479 846L496 844Z" />
<glyph unicode="&#xc4;" glyph-name="Adieresis" horiz-adv-x="641" d="M240 438H235L157 216H314L240 438ZM-19 12Q4 15 23 26Q34 33 43 42T64 68Q83 95 104 153L290 662H359L513 211Q530 160 546 122T576 61Q587 44 598 35T622 21Q630 18 639 16T656 12V0H282V12Q291
13 302 15T320 21Q334 26 344 37T354 69Q354 89 349 109T334 155L322 192H149L134 148Q127 129 122 110T117 75Q117 53 126 40T150 21Q161 16 171 15T189 12V0H-19V12ZM209 847Q239 847 259 826T280 775Q280 746 260 726T209 705Q177 705 158 725T138 775Q138 804
158 825T209 847ZM437 847Q467 847 487 826T508 775Q508 746 488 726T437 705Q406 705 386 725T366 775Q366 804 386 825T437 847Z" />
<glyph unicode="&#xc5;" glyph-name="Aring" horiz-adv-x="641" d="M240 438H235L157 216H314L240 438ZM-19 12Q4 15 23 26Q34 33 43 42T64 68Q83 95 104 153L290 662H359L513 211Q530 160 546 122T576 61Q587 44 598 35T622 21Q630 18 639 16T656 12V0H282V12Q291
13 302 15T320 21Q334 26 344 37T354 69Q354 89 349 109T334 155L322 192H149L134 148Q127 129 122 110T117 75Q117 53 126 40T150 21Q161 16 171 15T189 12V0H-19V12ZM415 791Q415 771 408 755T388 726T358 708T323 701Q285 701 258 725T231 791Q231 832 258 856T323
881Q361 881 387 857T415 791ZM383 791Q383 820 366 836T322 853Q296 853 279 837T262 791Q262 762 279 746T322 730Q348 730 365 745T383 791Z" />
<glyph unicode="&#xc6;" glyph-name="AE" horiz-adv-x="923" d="M321 0V11Q335 11 352 17Q369 21 380 31T400 68Q408 98 408 156V219H184L151 161Q146 152 141 141T133 117T127 94T124 75Q124 53 133 40T156 21Q167 16 177 15T195 12V0H-22V12Q1 15 20 28T56 61T89
108T122 165L383 619Q378 628 370 632T352 639Q344 642 336 643T321 644V657H856L879 434H866Q851 470 830 508T778 580Q757 604 729 618T662 633H647Q632 633 621 630T602 617Q591 605 587 586T583 547V353H614Q635 353 649 354T672 357T687 364T700 376Q719 396
733 428T751 485H764V197H751Q748 222 735 253T703 302Q697 308 690 312T674 321T650 327T614 329H583V141Q583 114 586 89T603 49Q625 24 665 24H682Q710 24 734 37T778 76Q809 115 836 163T880 255H892L873 0H321ZM408 501Q408 530 406 553T398 595L198 243H408V501Z"
/>
<glyph unicode="&#xc7;" glyph-name="Ccedilla" horiz-adv-x="640" d="M451 -119Q451 -142 441 -157T415 -182T377 -196T332 -200Q311 -200 287 -195T249 -181L255 -168Q266 -173 282 -176T312 -180Q338 -180 353 -166T368 -120Q368 -92 356 -79T329 -66Q312 -66
301 -77L285 -70L302 -10Q269 -5 238 4Q177 24 131 66T57 173T29 329Q29 420 59 485T137 591T246 652T370 671Q435 671 486 650T557 596H561L590 652H601V422H587Q575 473 557 514T513 586T453 632T376 648Q350 648 325 639T283 609Q255 579 237 514T219 329Q219
269 225 226T242 152T269 100T304 63Q321 49 346 41T407 32Q435 32 463 42T516 75T562 131T598 213L618 205Q607 158 584 118T527 48T453 2T365 -15Q343 -15 322 -13L310 -57Q317 -52 332 -48T360 -44Q403 -44 427 -62T451 -119Z" />
<glyph unicode="&#xc8;" glyph-name="Egrave" horiz-adv-x="626" d="M435 695Q378 705 329 714T247 731Q222 737 202 751T181 791Q181 820 197 836T236 852Q256 852 273 844T313 815Q337 794 367 769T441 705L435 695ZM576 0H19V11Q25 11 33 13T50 17Q67 22 78
32T97 68Q102 82 103 104T105 156V503Q105 531 104 553T97 590Q90 615 79 625T50 640Q41 643 33 644T19 645V657H559L583 434H570Q555 470 533 508T482 580Q460 604 432 618T365 633H344Q329 633 318 630T299 617Q288 605 285 586T281 547V352H313Q334 352 348
353T371 357T386 364T399 376Q418 395 432 427T450 485H462V197H450Q447 222 434 253T402 302Q396 308 389 312T373 321T349 327T313 329H281V141Q281 114 284 89T301 49Q322 24 363 24H380Q437 24 479 75Q511 113 539 162T583 255H596L576 0Z" />
<glyph unicode="&#xc9;" glyph-name="Eacute" horiz-adv-x="626" d="M412 852Q435 852 451 836T467 791Q467 765 447 751T401 731Q369 723 320 715T213 695L207 705Q252 743 281 768T335 815Q358 835 375 843T412 852ZM576 0H19V11Q25 11 33 13T50 17Q67 22 78
32T97 68Q102 82 103 104T105 156V503Q105 531 104 553T97 590Q90 615 79 625T50 640Q41 643 33 644T19 645V657H559L583 434H570Q555 470 533 508T482 580Q460 604 432 618T365 633H344Q329 633 318 630T299 617Q288 605 285 586T281 547V352H313Q334 352 348
353T371 357T386 364T399 376Q418 395 432 427T450 485H462V197H450Q447 222 434 253T402 302Q396 308 389 312T373 321T349 327T313 329H281V141Q281 114 284 89T301 49Q322 24 363 24H380Q437 24 479 75Q511 113 539 162T583 255H596L576 0Z" />
<glyph unicode="&#xca;" glyph-name="Ecircumflex" horiz-adv-x="626" d="M457 704L321 763L185 704L176 713Q180 718 197 738T233 782T268 824T286 846H356Q358 843 374 824T409 782T445 739T466 713L457 704ZM576 0H19V11Q25 11 33 13T50 17Q67 22 78 32T97
68Q102 82 103 104T105 156V503Q105 531 104 553T97 590Q90 615 79 625T50 640Q41 643 33 644T19 645V657H559L583 434H570Q555 470 533 508T482 580Q460 604 432 618T365 633H344Q329 633 318 630T299 617Q288 605 285 586T281 547V352H313Q334 352 348 353T371
357T386 364T399 376Q418 395 432 427T450 485H462V197H450Q447 222 434 253T402 302Q396 308 389 312T373 321T349 327T313 329H281V141Q281 114 284 89T301 49Q322 24 363 24H380Q437 24 479 75Q511 113 539 162T583 255H596L576 0Z" />
<glyph unicode="&#xcb;" glyph-name="Edieresis" horiz-adv-x="626" d="M576 0H19V11Q25 11 33 13T50 17Q67 22 78 32T97 68Q102 82 103 104T105 156V503Q105 531 104 553T97 590Q90 615 79 625T50 640Q41 643 33 644T19 645V657H559L583 434H570Q555 470 533
508T482 580Q460 604 432 618T365 633H344Q329 633 318 630T299 617Q288 605 285 586T281 547V352H313Q334 352 348 353T371 357T386 364T399 376Q418 395 432 427T450 485H462V197H450Q447 222 434 253T402 302Q396 308 389 312T373 321T349 327T313 329H281V141Q281
114 284 89T301 49Q322 24 363 24H380Q437 24 479 75Q511 113 539 162T583 255H596L576 0ZM207 847Q237 847 257 826T278 775Q278 746 258 726T207 705Q175 705 156 725T136 775Q136 804 156 825T207 847ZM435 847Q465 847 485 826T506 775Q506 746 486 726T435
705Q404 705 384 725T364 775Q364 804 384 825T435 847Z" />
<glyph unicode="&#xcc;" glyph-name="Igrave" horiz-adv-x="388" d="M283 156Q283 127 284 105T291 68Q298 42 309 32T338 17Q358 12 369 12V0H19V12Q30 12 50 17Q67 22 78 32T97 68Q102 82 103 104T105 156V503Q105 531 104 553T97 590Q89 615 78 625T50 640Q41
643 34 644T19 646V657H369V646Q361 645 354 644T338 640Q321 635 310 625T291 590Q286 576 285 554T283 503V156ZM309 695Q252 705 203 714T121 731Q96 737 76 751T55 791Q55 820 71 836T110 852Q130 852 147 844T187 815Q211 794 241 769T315 705L309 695Z" />
<glyph unicode="&#xcd;" glyph-name="Iacute" horiz-adv-x="388" d="M283 156Q283 127 284 105T291 68Q298 42 309 32T338 17Q358 12 369 12V0H19V12Q30 12 50 17Q67 22 78 32T97 68Q102 82 103 104T105 156V503Q105 531 104 553T97 590Q89 615 78 625T50 640Q41
643 34 644T19 646V657H369V646Q361 645 354 644T338 640Q321 635 310 625T291 590Q286 576 285 554T283 503V156ZM285 852Q308 852 324 836T340 791Q340 765 320 751T274 731Q242 723 193 715T86 695L80 705Q125 743 154 768T208 815Q231 835 248 843T285 852Z"
/>
<glyph unicode="&#xce;" glyph-name="Icircumflex" horiz-adv-x="388" d="M283 156Q283 127 284 105T291 68Q298 42 309 32T338 17Q358 12 369 12V0H19V12Q30 12 50 17Q67 22 78 32T97 68Q102 82 103 104T105 156V503Q105 531 104 553T97 590Q89 615 78 625T50
640Q41 643 34 644T19 646V657H369V646Q361 645 354 644T338 640Q321 635 310 625T291 590Q286 576 285 554T283 503V156ZM586 704L450 763L314 704L305 713Q309 718 326 738T362 782T397 824T415 846H485Q487 843 503 824T538 782T574 739T595 713L586 704Z" />
<glyph unicode="&#xcf;" glyph-name="Idieresis" horiz-adv-x="388" d="M84 847Q115 847 135 826T156 775Q156 746 136 726T84 705Q53 705 34 725T14 775Q14 804 34 825T84 847ZM303 847Q333 847 354 826T375 775Q375 746 355 726T303 705Q272 705 252 725T232
775Q232 804 252 825T303 847ZM283 156Q283 127 284 105T291 68Q298 42 309 32T338 17Q358 12 369 12V0H19V12Q30 12 50 17Q67 22 78 32T97 68Q102 82 103 104T105 156V503Q105 531 104 553T97 590Q89 615 78 625T50 640Q41 643 34 644T19 646V657H369V646Q361
645 354 644T338 640Q321 635 310 625T291 590Q286 576 285 554T283 503V156Z" />
<glyph unicode="&#xd0;" glyph-name="Eth" horiz-adv-x="724" d="M30 350H106V502Q106 560 97 590Q90 615 79 625T50 640Q41 643 33 644T19 646V657H378Q432 657 474 646T547 618Q614 580 655 507T696 330Q696 229 658 154T552 41Q521 24 481 12T394 0H19V12Q30
12 50 17Q67 22 78 32T97 67Q106 97 106 156V320H30V350ZM330 633Q318 633 308 629T292 614Q285 605 284 591T283 560V350H407V320H283V137Q283 114 285 91T299 52Q307 38 321 31T353 24H365Q386 24 412 33T459 74Q471 92 480 114T496 166T506 237T510 330Q510
384 506 424T496 494T480 545T458 584Q438 614 412 623T361 633H330Z" />
<glyph unicode="&#xd1;" glyph-name="Ntilde" horiz-adv-x="699" d="M566 844Q561 821 554 798T535 755T503 724T456 712Q441 712 420 716T378 725T339 735T311 739Q290 739 275 732T250 699L233 703Q238 726 246 748T267 789T298 818T343 830Q356 830 376 826T418
817T458 807T486 803Q512 803 526 812T549 846L566 844ZM537 -3L165 517H160V169Q160 121 165 97T177 56Q191 27 220 17Q228 15 235 14T254 11V0H38V11Q49 13 57 14T73 17Q85 21 96 31T115 56Q123 73 127 97T132 169V440Q132 543 110 585Q92 621 50 638Q42 641
34 643T17 645V657H293L569 259H572V487Q572 535 568 559T556 600Q549 616 537 625T513 639Q505 641 498 643T479 645V657H694V645Q683 645 676 643T660 639Q633 631 618 600Q611 583 606 559T601 487V-3H537Z" />
<glyph unicode="&#xd2;" glyph-name="Ograve" horiz-adv-x="702" d="M465 695Q408 705 359 714T277 731Q252 737 232 751T211 791Q211 820 227 836T266 852Q286 852 303 844T343 815Q367 794 397 769T471 705L465 695ZM351 670Q423 670 482 646T584 578T650 471T673
328Q673 249 650 186T585 78T483 10T351 -14Q279 -14 220 10T118 78T52 185T29 328Q29 407 52 470T117 578T219 646T351 670ZM351 7Q366 7 382 10T412 24Q427 36 440 58T462 117T477 206T482 329Q482 400 477 451T463 539T440 597T412 632Q398 643 382 646T351
649Q335 649 320 646T290 632Q275 620 262 598T240 539T225 452T219 329Q219 258 224 206T239 118T262 59T290 24Q304 13 319 10T351 7Z" />
<glyph unicode="&#xd3;" glyph-name="Oacute" horiz-adv-x="702" d="M441 852Q464 852 480 836T496 791Q496 765 476 751T430 731Q398 723 349 715T242 695L236 705Q281 743 310 768T364 815Q387 835 404 843T441 852ZM351 670Q423 670 482 646T584 578T650 471T673
328Q673 249 650 186T585 78T483 10T351 -14Q279 -14 220 10T118 78T52 185T29 328Q29 407 52 470T117 578T219 646T351 670ZM351 7Q366 7 382 10T412 24Q427 36 440 58T462 117T477 206T482 329Q482 400 477 451T463 539T440 597T412 632Q398 643 382 646T351
649Q335 649 320 646T290 632Q275 620 262 598T240 539T225 452T219 329Q219 258 224 206T239 118T262 59T290 24Q304 13 319 10T351 7Z" />
<glyph unicode="&#xd4;" glyph-name="Ocircumflex" horiz-adv-x="702" d="M487 704L351 763L215 704L206 713Q210 718 227 738T263 782T298 824T316 846H386Q388 843 404 824T439 782T475 739T496 713L487 704ZM351 670Q423 670 482 646T584 578T650 471T673 328Q673
249 650 186T585 78T483 10T351 -14Q279 -14 220 10T118 78T52 185T29 328Q29 407 52 470T117 578T219 646T351 670ZM351 7Q366 7 382 10T412 24Q427 36 440 58T462 117T477 206T482 329Q482 400 477 451T463 539T440 597T412 632Q398 643 382 646T351 649Q335
649 320 646T290 632Q275 620 262 598T240 539T225 452T219 329Q219 258 224 206T239 118T262 59T290 24Q304 13 319 10T351 7Z" />
<glyph unicode="&#xd5;" glyph-name="Otilde" horiz-adv-x="702" d="M525 844Q520 821 513 798T494 755T462 724T415 712Q400 712 379 716T337 725T298 735T270 739Q249 739 234 732T209 699L192 703Q197 726 205 748T226 789T257 818T302 830Q315 830 335 826T377
817T417 807T445 803Q471 803 485 812T508 846L525 844ZM351 670Q423 670 482 646T584 578T650 471T673 328Q673 249 650 186T585 78T483 10T351 -14Q279 -14 220 10T118 78T52 185T29 328Q29 407 52 470T117 578T219 646T351 670ZM351 7Q366 7 382 10T412 24Q427
36 440 58T462 117T477 206T482 329Q482 400 477 451T463 539T440 597T412 632Q398 643 382 646T351 649Q335 649 320 646T290 632Q275 620 262 598T240 539T225 452T219 329Q219 258 224 206T239 118T262 59T290 24Q304 13 319 10T351 7Z" />
<glyph unicode="&#xd6;" glyph-name="Odieresis" horiz-adv-x="702" d="M237 847Q267 847 287 826T308 775Q308 746 288 726T237 705Q205 705 186 725T166 775Q166 804 186 825T237 847ZM465 847Q495 847 515 826T536 775Q536 746 516 726T465 705Q434 705 414
725T394 775Q394 804 414 825T465 847ZM351 670Q423 670 482 646T584 578T650 471T673 328Q673 249 650 186T585 78T483 10T351 -14Q279 -14 220 10T118 78T52 185T29 328Q29 407 52 470T117 578T219 646T351 670ZM351 7Q366 7 382 10T412 24Q427 36 440 58T462
117T477 206T482 329Q482 400 477 451T463 539T440 597T412 632Q398 643 382 646T351 649Q335 649 320 646T290 632Q275 620 262 598T240 539T225 452T219 329Q219 258 224 206T239 118T262 59T290 24Q304 13 319 10T351 7Z" />
<glyph unicode="&#xd7;" glyph-name="multiply" horiz-adv-x="421" d="M234 258L373 115L349 91L210 233L71 91L47 114L187 257L47 401L71 424L210 281L350 424L374 401L234 258Z" />
<glyph unicode="&#xd8;" glyph-name="Oslash" horiz-adv-x="702" d="M351 670Q423 670 482 646Q496 640 509 634L558 717L579 705L530 622Q560 603 584 578Q627 534 650 471T673 328Q673 249 650 186T585 78T483 10T351 -14Q279 -14 219 10Q198 18 179 29L126
-60L106 -48L159 42Q136 58 117 78Q75 122 52 185T29 328Q29 407 52 470T117 578T219 646T351 670ZM351 7Q366 7 382 10T412 24Q427 36 440 58T462 117T477 206T482 329Q482 400 477 451Q473 488 467 516L237 127Q238 122 239 117Q249 81 262 59T290 24Q304 13
319 10T351 7ZM440 597Q427 620 412 632Q398 643 382 646T351 649Q335 649 320 646T290 632Q275 620 262 598T240 539T225 452T219 329Q219 258 224 206Q227 182 230 162L459 550Q451 578 440 597Z" />
<glyph unicode="&#xd9;" glyph-name="Ugrave" horiz-adv-x="679" d="M502 695Q445 705 396 714T314 731Q289 737 269 751T248 791Q248 820 264 836T303 852Q323 852 340 844T380 815Q404 794 434 769T508 705L502 695ZM588 223Q588 180 581 143T558 76Q549 60
533 44T493 16T434 -5T354 -13Q314 -13 279 -8T213 9T159 42T119 94Q112 106 107 125T99 166T93 208T91 246V505Q91 532 90 553T83 590Q76 615 64 625T36 641Q28 643 20 644T6 646V657H354V645Q340 645 324 641Q307 636 296 626T276 590Q272 575 271 554T269 505V201Q269
173 272 149T285 106Q303 64 334 47T412 29Q456 29 488 48T537 104Q548 127 552 157T557 219V489Q557 537 553 561T541 602Q534 616 522 626T498 639Q484 644 463 646V657H682V646Q671 645 664 644T648 639Q635 636 624 627T605 601Q601 593 598 584T593 561T589
531T588 489V223Z" />
<glyph unicode="&#xda;" glyph-name="Uacute" horiz-adv-x="679" d="M479 852Q502 852 518 836T534 791Q534 765 514 751T468 731Q436 723 387 715T280 695L274 705Q319 743 348 768T402 815Q425 835 442 843T479 852ZM588 223Q588 180 581 143T558 76Q549 60
533 44T493 16T434 -5T354 -13Q314 -13 279 -8T213 9T159 42T119 94Q112 106 107 125T99 166T93 208T91 246V505Q91 532 90 553T83 590Q76 615 64 625T36 641Q28 643 20 644T6 646V657H354V645Q340 645 324 641Q307 636 296 626T276 590Q272 575 271 554T269 505V201Q269
173 272 149T285 106Q303 64 334 47T412 29Q456 29 488 48T537 104Q548 127 552 157T557 219V489Q557 537 553 561T541 602Q534 616 522 626T498 639Q484 644 463 646V657H682V646Q671 645 664 644T648 639Q635 636 624 627T605 601Q601 593 598 584T593 561T589
531T588 489V223Z" />
<glyph unicode="&#xdb;" glyph-name="Ucircumflex" horiz-adv-x="679" d="M524 704L388 763L252 704L243 713Q247 718 264 738T300 782T335 824T353 846H423Q425 843 441 824T476 782T512 739T533 713L524 704ZM588 223Q588 180 581 143T558 76Q549 60 533 44T493
16T434 -5T354 -13Q314 -13 279 -8T213 9T159 42T119 94Q112 106 107 125T99 166T93 208T91 246V505Q91 532 90 553T83 590Q76 615 64 625T36 641Q28 643 20 644T6 646V657H354V645Q340 645 324 641Q307 636 296 626T276 590Q272 575 271 554T269 505V201Q269 173
272 149T285 106Q303 64 334 47T412 29Q456 29 488 48T537 104Q548 127 552 157T557 219V489Q557 537 553 561T541 602Q534 616 522 626T498 639Q484 644 463 646V657H682V646Q671 645 664 644T648 639Q635 636 624 627T605 601Q601 593 598 584T593 561T589 531T588
489V223Z" />
<glyph unicode="&#xdc;" glyph-name="Udieresis" horiz-adv-x="679" d="M588 223Q588 180 581 143T558 76Q549 60 533 44T493 16T434 -5T354 -13Q314 -13 279 -8T213 9T159 42T119 94Q112 106 107 125T99 166T93 208T91 246V505Q91 532 90 553T83 590Q76 615 64
625T36 641Q28 643 20 644T6 646V657H354V645Q340 645 324 641Q307 636 296 626T276 590Q272 575 271 554T269 505V201Q269 173 272 149T285 106Q303 64 334 47T412 29Q456 29 488 48T537 104Q548 127 552 157T557 219V489Q557 537 553 561T541 602Q534 616 522
626T498 639Q484 644 463 646V657H682V646Q671 645 664 644T648 639Q635 636 624 627T605 601Q601 593 598 584T593 561T589 531T588 489V223ZM274 847Q304 847 324 826T345 775Q345 746 325 726T274 705Q242 705 223 725T203 775Q203 804 223 825T274 847ZM502
847Q532 847 552 826T573 775Q573 746 553 726T502 705Q471 705 451 725T431 775Q431 804 451 825T502 847Z" />
<glyph unicode="&#xdd;" glyph-name="Yacute" horiz-adv-x="657" d="M113 545Q102 569 91 586T67 616T38 635T2 646V657H358V646Q350 645 341 644T323 639Q297 628 296 600T314 529L404 326H409L492 507Q506 538 513 559T520 598Q520 627 491 638Q483 641 473
643T455 646V657H660V646Q638 642 620 633T586 608T554 567T523 508L422 286V156Q422 127 423 105T430 67Q437 43 448 33T477 17Q497 12 508 12V0H158V12Q169 12 189 17Q206 22 218 32T237 67Q241 83 242 105T244 156V270L113 545ZM471 852Q494 852 510 836T526
791Q526 765 506 751T460 731Q428 723 379 715T272 695L266 705Q311 743 340 768T394 815Q417 835 434 843T471 852Z" />
<glyph unicode="&#xde;" glyph-name="Thorn" horiz-adv-x="648" d="M376 518Q497 518 563 478T629 344Q629 297 607 259T550 200Q535 191 515 184T469 171T409 162T332 158Q323 158 307 159T280 162V150Q280 141 281 139Q281 93 288 68Q296 42 307 32T335 17Q349
12 363 12V0H17V12Q24 12 31 13T48 17Q65 21 76 31T96 68Q104 100 104 156V502Q104 560 96 590Q88 615 77 625T48 640Q30 646 17 646V657H363V646Q350 646 335 640Q319 635 308 625T288 590Q284 576 283 557T281 518H376ZM445 345Q445 422 422 457T350 493Q341
493 330 492T311 487Q294 479 287 456Q284 445 283 433T281 397V188Q291 185 306 184T331 182Q369 182 388 191T422 224Q428 234 432 248T439 279T443 313T445 345Z" />
<glyph unicode="&#xdf;" glyph-name="germandbls" horiz-adv-x="588" d="M576 138Q576 106 564 80T531 34T480 3T415 -8Q386 -8 361 0T314 28H310L294 2H285L278 142H291Q311 76 340 42T415 7Q447 7 458 21T470 59Q470 86 444 105T378 151Q358 164 340 176T309
203T287 238T279 288Q279 318 289 340T314 381T347 418T380 458T405 507T415 572Q415 615 395 643T321 671Q261 671 242 638T222 538V128Q222 101 224 76T232 40Q237 24 242 19T257 11V0H6V11Q12 12 19 13T32 17Q40 21 46 27T58 49Q62 60 62 84T63 128V414H7V443H63V475Q63
529 82 569T135 636T215 676T315 689Q358 689 394 683T455 662T495 627T510 576Q510 554 500 537T474 506T441 478T407 452T382 423T371 388Q371 376 376 367T392 349T421 328T464 302Q490 285 511 271T546 239T568 198T576 138Z" />
<glyph unicode="&#xe0;" glyph-name="agrave" horiz-adv-x="481" d="M363 -9Q332 -9 314 -3T285 15Q268 30 267 61H264Q253 23 220 7T142 -9Q120 -9 99 -3T61 18T34 53T23 106Q23 134 31 150T51 179Q60 189 73 196T100 209T130 219T158 227Q189 235 208 243T238
261T254 281T260 304V321Q260 332 260 343T261 363V378Q261 411 251 422T215 434Q195 434 187 427T176 413Q174 405 175 389T174 352Q171 291 110 291Q81 291 64 305T47 347Q47 360 51 372T63 393Q82 419 126 435T223 452Q314 452 364 423T415 324V109Q415 74 417
59T425 35Q434 25 451 25Q465 25 477 31L479 20Q470 11 440 1T363 -9ZM259 260Q252 250 245 245T227 232Q215 224 207 216T193 194Q187 182 185 159T182 111Q182 69 192 53T220 36Q232 36 244 53T258 100L259 260ZM330 488Q276 511 232 527T161 557Q138 568 124
584T109 624Q109 652 126 665T167 679Q187 679 203 667T239 630Q258 604 280 575T337 498L330 488Z" />
<glyph unicode="&#xe1;" glyph-name="aacute" horiz-adv-x="481" d="M363 -9Q332 -9 314 -3T285 15Q268 30 267 61H264Q253 23 220 7T142 -9Q120 -9 99 -3T61 18T34 53T23 106Q23 134 31 150T51 179Q60 189 73 196T100 209T130 219T158 227Q189 235 208 243T238
261T254 281T260 304V321Q260 332 260 343T261 363V378Q261 411 251 422T215 434Q195 434 187 427T176 413Q174 405 175 389T174 352Q171 291 110 291Q81 291 64 305T47 347Q47 360 51 372T63 393Q82 419 126 435T223 452Q314 452 364 423T415 324V109Q415 74 417
59T425 35Q434 25 451 25Q465 25 477 31L479 20Q470 11 440 1T363 -9ZM259 260Q252 250 245 245T227 232Q215 224 207 216T193 194Q187 182 185 159T182 111Q182 69 192 53T220 36Q232 36 244 53T258 100L259 260ZM368 619Q368 599 355 584T318 557Q291 543 249
527T149 488L142 498Q176 545 198 575T240 630Q258 653 273 666T309 679Q368 679 368 619Z" />
<glyph unicode="&#xe2;" glyph-name="acircumflex" horiz-adv-x="481" d="M363 -9Q332 -9 314 -3T285 15Q268 30 267 61H264Q253 23 220 7T142 -9Q120 -9 99 -3T61 18T34 53T23 106Q23 134 31 150T51 179Q60 189 73 196T100 209T130 219T158 227Q189 235 208 243T238
261T254 281T260 304V321Q260 332 260 343T261 363V378Q261 411 251 422T215 434Q195 434 187 427T176 413Q174 405 175 389T174 352Q171 291 110 291Q81 291 64 305T47 347Q47 360 51 372T63 393Q82 419 126 435T223 452Q314 452 364 423T415 324V109Q415 74 417
59T425 35Q434 25 451 25Q465 25 477 31L479 20Q470 11 440 1T363 -9ZM259 260Q252 250 245 245T227 232Q215 224 207 216T193 194Q187 182 185 159T182 111Q182 69 192 53T220 36Q232 36 244 53T258 100L259 260ZM363 489L230 576L97 489L86 498Q89 502 98 515T118
547T143 585T168 623T188 653T197 668H262Q264 666 272 654T291 624T316 586T341 548T362 516T374 498L363 489Z" />
<glyph unicode="&#xe3;" glyph-name="atilde" horiz-adv-x="481" d="M363 -9Q332 -9 314 -3T285 15Q268 30 267 61H264Q253 23 220 7T142 -9Q120 -9 99 -3T61 18T34 53T23 106Q23 134 31 150T51 179Q60 189 73 196T100 209T130 219T158 227Q189 235 208 243T238
261T254 281T260 304V321Q260 332 260 343T261 363V378Q261 411 251 422T215 434Q195 434 187 427T176 413Q174 405 175 389T174 352Q171 291 110 291Q81 291 64 305T47 347Q47 360 51 372T63 393Q82 419 126 435T223 452Q314 452 364 423T415 324V109Q415 74 417
59T425 35Q434 25 451 25Q465 25 477 31L479 20Q470 11 440 1T363 -9ZM259 260Q252 250 245 245T227 232Q215 224 207 216T193 194Q187 182 185 159T182 111Q182 69 192 53T220 36Q232 36 244 53T258 100L259 260ZM400 662Q395 639 388 615T368 570T336 538T289
525Q274 525 256 528T221 536T189 545T164 549Q139 549 123 540T97 505L80 506Q85 529 93 553T114 596T146 628T191 641Q204 641 221 637T255 629T287 621T311 617Q340 617 357 627T382 663L400 662Z" />
<glyph unicode="&#xe4;" glyph-name="adieresis" horiz-adv-x="481" d="M363 -9Q332 -9 314 -3T285 15Q268 30 267 61H264Q253 23 220 7T142 -9Q120 -9 99 -3T61 18T34 53T23 106Q23 134 31 150T51 179Q60 189 73 196T100 209T130 219T158 227Q189 235 208 243T238
261T254 281T260 304V321Q260 332 260 343T261 363V378Q261 411 251 422T215 434Q195 434 187 427T176 413Q174 405 175 389T174 352Q171 291 110 291Q81 291 64 305T47 347Q47 360 51 372T63 393Q82 419 126 435T223 452Q314 452 364 423T415 324V109Q415 74 417
59T425 35Q434 25 451 25Q465 25 477 31L479 20Q470 11 440 1T363 -9ZM259 260Q252 250 245 245T227 232Q215 224 207 216T193 194Q187 182 185 159T182 111Q182 69 192 53T220 36Q232 36 244 53T258 100L259 260ZM140 647Q170 647 190 627T210 577Q210 548 190
528T140 507Q109 507 90 527T70 576Q70 605 90 626T140 647ZM333 647Q363 647 383 627T404 577Q404 548 384 528T333 507Q303 507 284 527T264 576Q264 605 284 626T333 647Z" />
<glyph unicode="&#xe5;" glyph-name="aring" horiz-adv-x="481" d="M363 -9Q332 -9 314 -3T285 15Q268 30 267 61H264Q253 23 220 7T142 -9Q120 -9 99 -3T61 18T34 53T23 106Q23 134 31 150T51 179Q60 189 73 196T100 209T130 219T158 227Q189 235 208 243T238
261T254 281T260 304V321Q260 332 260 343T261 363V378Q261 411 251 422T215 434Q195 434 187 427T176 413Q174 405 175 389T174 352Q171 291 110 291Q81 291 64 305T47 347Q47 360 51 372T63 393Q82 419 126 435T223 452Q314 452 364 423T415 324V109Q415 74 417
59T425 35Q434 25 451 25Q465 25 477 31L479 20Q470 11 440 1T363 -9ZM259 260Q252 250 245 245T227 232Q215 224 207 216T193 194Q187 182 185 159T182 111Q182 69 192 53T220 36Q232 36 244 53T258 100L259 260ZM322 590Q322 570 315 554T295 525T265 507T230
500Q192 500 165 524T138 590Q138 631 165 655T230 680Q268 680 294 656T322 590ZM290 589Q290 618 273 635T229 652Q203 652 186 636T169 590Q169 561 186 545T229 528Q255 528 272 544T290 589Z" />
<glyph unicode="&#xe6;" glyph-name="ae" horiz-adv-x="697" d="M156 -9Q134 -9 111 -3T68 18T36 53T23 106Q23 134 31 150T51 180Q60 189 73 196T100 209T130 219T158 227Q189 235 208 243T238 261T254 281T260 304V321Q260 332 260 343T261 363V378Q261 411
251 422T215 434Q201 434 190 429T176 413Q174 405 175 389T174 353Q172 324 158 308T110 291Q80 291 64 305T47 347Q47 374 63 393Q74 407 92 418T131 436T176 448T223 452Q267 452 302 437T355 398Q380 424 417 438T486 452Q531 452 567 438T629 399T668 340T682
267Q682 259 682 250T680 234H427Q427 187 431 156T441 102T455 67T472 44Q482 34 497 28T530 22Q558 22 580 33T619 63T646 102T663 143L678 138Q671 108 657 82T620 35T565 3T489 -9Q451 -9 413 2T344 35Q314 57 291 92Q275 40 240 16T156 -9ZM540 287Q540 333
536 367T519 419Q508 434 488 434Q468 434 453 418Q440 403 434 365T427 253H514Q528 254 534 261T540 287ZM259 260Q252 250 244 245T226 232Q214 224 207 216T193 194Q187 182 184 160T181 112Q181 70 191 51T219 32Q234 32 245 49T258 96L259 260Z" />
<glyph unicode="&#xe7;" glyph-name="ccedilla" horiz-adv-x="442" d="M346 -112Q346 -135 336 -151T310 -176T272 -190T228 -194Q206 -194 182 -189T144 -175L151 -162Q161 -167 177 -170T208 -174Q263 -174 263 -114Q263 -86 251 -73T225 -60Q207 -60 197 -71L180
-64L197 -4Q177 -1 159 5Q119 20 93 45Q60 77 40 121T20 224Q20 281 41 323T96 394T174 437T263 452Q314 452 348 440T397 412Q411 398 418 383T425 348Q425 319 407 305T365 291Q332 291 318 312T298 370Q293 406 285 420T263 434Q249 434 238 428T218 410Q203
389 195 342T187 230Q187 161 196 120T221 53Q232 36 247 30T279 23Q309 23 331 34T370 62T397 101T416 145L432 139Q424 110 410 84T375 37T323 4T253 -9Q234 -9 217 -7L205 -51Q213 -46 228 -42T255 -38Q299 -38 322 -56T346 -112Z" />
<glyph unicode="&#xe8;" glyph-name="egrave" horiz-adv-x="459" d="M276 253Q291 254 297 261T303 287Q303 333 299 367T282 419Q271 434 250 434Q229 434 214 418Q201 403 195 365T188 253H276ZM441 138Q434 108 420 82T382 35T326 3T250 -9Q212 -9 176 1T108
33Q69 60 45 106T20 221Q20 282 40 325T93 397T166 438T248 452Q298 452 335 437T396 395T433 335T445 264Q445 256 445 248T443 234H188Q188 187 192 156T202 102T216 67T233 44Q244 34 260 28T293 22Q321 22 343 33T381 63T409 102T426 143L441 138ZM345 488Q291
511 247 527T176 557Q153 568 139 584T124 624Q124 652 141 665T182 679Q202 679 218 667T254 630Q273 604 295 575T352 498L345 488Z" />
<glyph unicode="&#xe9;" glyph-name="eacute" horiz-adv-x="459" d="M372 619Q372 599 359 584T322 557Q295 543 253 527T153 488L146 498Q180 545 202 575T244 630Q262 653 277 666T313 679Q372 679 372 619ZM276 253Q291 254 297 261T303 287Q303 333 299 367T282
419Q271 434 250 434Q229 434 214 418Q201 403 195 365T188 253H276ZM441 138Q434 108 420 82T382 35T326 3T250 -9Q212 -9 176 1T108 33Q69 60 45 106T20 221Q20 282 40 325T93 397T166 438T248 452Q298 452 335 437T396 395T433 335T445 264Q445 256 445 248T443
234H188Q188 187 192 156T202 102T216 67T233 44Q244 34 260 28T293 22Q321 22 343 33T381 63T409 102T426 143L441 138Z" />
<glyph unicode="&#xea;" glyph-name="ecircumflex" horiz-adv-x="459" d="M376 489L243 576L110 489L99 498Q102 502 111 515T131 547T156 585T181 623T201 653T210 668H275Q277 666 285 654T304 624T329 586T354 548T375 516T387 498L376 489ZM276 253Q291 254
297 261T303 287Q303 333 299 367T282 419Q271 434 250 434Q229 434 214 418Q201 403 195 365T188 253H276ZM441 138Q434 108 420 82T382 35T326 3T250 -9Q212 -9 176 1T108 33Q69 60 45 106T20 221Q20 282 40 325T93 397T166 438T248 452Q298 452 335 437T396
395T433 335T445 264Q445 256 445 248T443 234H188Q188 187 192 156T202 102T216 67T233 44Q244 34 260 28T293 22Q321 22 343 33T381 63T409 102T426 143L441 138Z" />
<glyph unicode="&#xeb;" glyph-name="edieresis" horiz-adv-x="459" d="M149 647Q179 647 199 627T219 577Q219 548 199 528T149 507Q118 507 99 527T79 576Q79 605 99 626T149 647ZM342 647Q372 647 392 627T413 577Q413 548 393 528T342 507Q312 507 293 527T273
576Q273 605 293 626T342 647ZM276 253Q291 254 297 261T303 287Q303 333 299 367T282 419Q271 434 250 434Q229 434 214 418Q201 403 195 365T188 253H276ZM441 138Q434 108 420 82T382 35T326 3T250 -9Q212 -9 176 1T108 33Q69 60 45 106T20 221Q20 282 40 325T93
397T166 438T248 452Q298 452 335 437T396 395T433 335T445 264Q445 256 445 248T443 234H188Q188 187 192 156T202 102T216 67T233 44Q244 34 260 28T293 22Q321 22 343 33T381 63T409 102T426 143L441 138Z" />
<glyph unicode="&#xec;" glyph-name="igrave" horiz-adv-x="301" d="M14 0V11Q20 12 27 13T39 16Q47 20 54 26T66 49Q69 59 70 82T71 125V323Q71 339 71 359T68 391Q65 404 60 410T49 422Q42 427 34 428T18 431V443H225Q232 443 232 435Q231 423 231 407T230 370V125Q230
105 231 82T236 49Q241 33 247 27T262 16Q268 14 274 13T287 11V0H14ZM497 488Q443 511 399 527T328 557Q305 568 291 584T276 624Q276 652 293 665T334 679Q354 679 370 667T406 630Q425 604 447 575T504 498L497 488Z" />
<glyph unicode="&#xed;" glyph-name="iacute" horiz-adv-x="301" d="M531 619Q531 599 518 584T481 557Q454 543 412 527T312 488L305 498Q339 545 361 575T403 630Q421 653 436 666T472 679Q531 679 531 619ZM14 0V11Q20 12 27 13T39 16Q47 20 54 26T66 49Q69
59 70 82T71 125V323Q71 339 71 359T68 391Q65 404 60 410T49 422Q42 427 34 428T18 431V443H225Q232 443 232 435Q231 423 231 407T230 370V125Q230 105 231 82T236 49Q241 33 247 27T262 16Q268 14 274 13T287 11V0H14Z" />
<glyph unicode="&#xee;" glyph-name="icircumflex" horiz-adv-x="301" d="M535 489L402 576L269 489L258 498Q261 502 270 515T290 547T315 585T340 623T360 653T369 668H434Q436 666 444 654T463 624T488 586T513 548T534 516T546 498L535 489ZM14 0V11Q20 12
27 13T39 16Q47 20 54 26T66 49Q69 59 70 82T71 125V323Q71 339 71 359T68 391Q65 404 60 410T49 422Q42 427 34 428T18 431V443H225Q232 443 232 435Q231 423 231 407T230 370V125Q230 105 231 82T236 49Q241 33 247 27T262 16Q268 14 274 13T287 11V0H14Z" />
<glyph unicode="&#xef;" glyph-name="idieresis" horiz-adv-x="301" d="M57 650Q86 650 106 629T127 580Q127 551 107 531T57 510Q26 510 7 530T-13 579Q-13 608 7 629T57 650ZM236 650Q266 650 286 629T306 580Q306 551 286 531T236 510Q205 510 186 530T166
579Q166 608 186 629T236 650ZM14 0V11Q20 12 27 13T39 16Q47 20 54 26T66 49Q69 59 70 82T71 125V323Q71 339 71 359T68 391Q65 404 60 410T49 422Q42 427 34 428T18 431V443H225Q232 443 232 435Q231 423 231 407T230 370V125Q230 105 231 82T236 49Q241 33 247
27T262 16Q268 14 274 13T287 11V0H14Z" />
<glyph unicode="&#xf0;" glyph-name="eth" horiz-adv-x="508" d="M252 452Q281 452 300 437Q289 476 271 511Q258 535 244 557L139 503V525L233 573Q231 575 230 576Q208 607 182 634T129 683L144 684Q195 665 255 629Q275 618 293 605L384 652V630L310 592Q340
569 367 541Q419 488 453 417T488 255Q488 184 468 134T415 53T340 6T254 -9Q209 -9 167 6T93 51T40 123T20 221Q20 276 39 319T91 391T166 436T252 452ZM321 221Q321 309 315 354T293 419Q286 428 275 431T254 435Q243 435 233 432T214 419Q198 400 192 355T186
221Q186 133 192 88T214 24Q222 14 232 11T254 7Q264 7 275 10T294 24Q308 43 314 88T321 221Z" />
<glyph unicode="&#xf1;" glyph-name="ntilde" horiz-adv-x="579" d="M510 128Q510 107 511 84T516 49Q521 33 527 27T542 16Q548 14 555 13T568 11V0H303V11Q313 11 325 16Q336 21 341 30T349 56Q351 67 351 81T352 112V338Q352 380 338 394Q332 400 325 403T305
406Q296 406 286 401T267 386T249 359T238 318Q234 301 232 282T230 241V112Q230 96 230 82T233 56Q235 39 240 30T257 16Q269 11 280 11V0H14V11Q20 12 27 13T39 16Q47 20 54 26T66 49Q69 60 70 83T71 128V323Q71 339 71 359T68 391Q65 404 61 410T49 422Q42 427
34 428T18 431V443H223Q230 443 230 435Q230 430 230 420T229 397T229 373T228 353H231Q239 377 251 393T278 422Q298 436 325 444T377 452Q412 452 438 443T481 411Q495 392 502 368T510 309V128ZM453 662Q448 639 441 615T421 570T389 538T342 525Q327 525 309
528T274 536T242 545T217 549Q192 549 176 540T150 505L133 506Q138 529 146 553T167 596T199 628T244 641Q257 641 274 637T308 629T340 621T364 617Q393 617 410 627T435 663L453 662Z" />
<glyph unicode="&#xf2;" glyph-name="ograve" horiz-adv-x="511" d="M21 221Q21 276 41 319T93 391T168 436T255 452Q300 452 342 437T417 392T469 319T489 221Q489 166 470 124T418 52T343 7T255 -9Q210 -9 168 6T93 51T41 123T21 221ZM323 221Q323 310 317 355T294
420Q287 428 276 431T255 435Q245 435 235 432T216 420Q200 401 194 356T187 221Q187 132 194 87T216 23Q224 14 234 11T255 7Q266 7 276 10T294 23Q310 42 316 87T323 221ZM346 488Q292 511 248 527T177 557Q154 568 140 584T125 624Q125 652 142 665T183 679Q203
679 219 667T255 630Q274 604 296 575T353 498L346 488Z" />
<glyph unicode="&#xf3;" glyph-name="oacute" horiz-adv-x="511" d="M385 619Q385 599 372 584T335 557Q308 543 266 527T166 488L159 498Q193 545 215 575T257 630Q275 653 290 666T326 679Q385 679 385 619ZM21 221Q21 276 41 319T93 391T168 436T255 452Q300
452 342 437T417 392T469 319T489 221Q489 166 470 124T418 52T343 7T255 -9Q210 -9 168 6T93 51T41 123T21 221ZM323 221Q323 310 317 355T294 420Q287 428 276 431T255 435Q245 435 235 432T216 420Q200 401 194 356T187 221Q187 132 194 87T216 23Q224 14 234
11T255 7Q266 7 276 10T294 23Q310 42 316 87T323 221Z" />
<glyph unicode="&#xf4;" glyph-name="ocircumflex" horiz-adv-x="511" d="M384 489L251 576L118 489L107 498Q110 502 119 515T139 547T164 585T189 623T209 653T218 668H283Q285 666 293 654T312 624T337 586T362 548T383 516T395 498L384 489ZM21 221Q21 276
41 319T93 391T168 436T255 452Q300 452 342 437T417 392T469 319T489 221Q489 166 470 124T418 52T343 7T255 -9Q210 -9 168 6T93 51T41 123T21 221ZM323 221Q323 310 317 355T294 420Q287 428 276 431T255 435Q245 435 235 432T216 420Q200 401 194 356T187 221Q187
132 194 87T216 23Q224 14 234 11T255 7Q266 7 276 10T294 23Q310 42 316 87T323 221Z" />
<glyph unicode="&#xf5;" glyph-name="otilde" horiz-adv-x="511" d="M21 221Q21 276 41 319T93 391T168 436T255 452Q300 452 342 437T417 392T469 319T489 221Q489 166 470 124T418 52T343 7T255 -9Q210 -9 168 6T93 51T41 123T21 221ZM323 221Q323 310 317 355T294
420Q287 428 276 431T255 435Q245 435 235 432T216 420Q200 401 194 356T187 221Q187 132 194 87T216 23Q224 14 234 11T255 7Q266 7 276 10T294 23Q310 42 316 87T323 221ZM425 662Q420 639 413 615T393 570T361 538T314 525Q299 525 281 528T246 536T214 545T189
549Q164 549 148 540T122 505L105 506Q110 529 118 553T139 596T171 628T216 641Q229 641 246 637T280 629T312 621T336 617Q365 617 382 627T407 663L425 662Z" />
<glyph unicode="&#xf6;" glyph-name="odieresis" horiz-adv-x="511" d="M165 647Q195 647 215 627T235 577Q235 548 215 528T165 507Q134 507 115 527T95 576Q95 605 115 626T165 647ZM358 647Q388 647 408 627T429 577Q429 548 409 528T358 507Q328 507 309 527T289
576Q289 605 309 626T358 647ZM21 221Q21 276 41 319T93 391T168 436T255 452Q300 452 342 437T417 392T469 319T489 221Q489 166 470 124T418 52T343 7T255 -9Q210 -9 168 6T93 51T41 123T21 221ZM323 221Q323 310 317 355T294 420Q287 428 276 431T255 435Q245
435 235 432T216 420Q200 401 194 356T187 221Q187 132 194 87T216 23Q224 14 234 11T255 7Q266 7 276 10T294 23Q310 42 316 87T323 221Z" />
<glyph unicode="&#xf7;" glyph-name="divide" horiz-adv-x="511" d="M332 412Q332 377 308 359T257 340Q230 340 206 359T182 412Q182 445 206 465T257 486Q284 486 308 467T332 412ZM29 246V278H484V246H29ZM332 117Q332 82 308 64T257 45Q243 45 230 50T206
64T189 87T182 117Q182 133 188 147T206 171T230 186T257 192Q284 192 308 173T332 117Z" />
<glyph unicode="&#xf8;" glyph-name="oslash" horiz-adv-x="511" d="M21 221Q21 276 41 319T93 391T168 436T255 452Q294 452 331 440L366 527L386 518L351 433Q387 417 417 391Q450 362 469 319T489 221Q489 166 470 124T418 52T343 7T255 -9Q215 -9 178 3L143
-85L123 -76L157 10Q122 25 93 51Q60 81 41 123T21 221ZM323 221Q323 303 317 348L200 57Q206 35 216 23Q224 14 234 11T255 7Q266 7 276 10T294 23Q310 42 316 87T323 221ZM294 420Q287 428 276 431T255 435Q245 435 235 432T216 420Q200 401 194 356T187 221Q187
141 192 96L309 387Q303 408 294 420Z" />
<glyph unicode="&#xf9;" glyph-name="ugrave" horiz-adv-x="561" d="M63 317Q63 337 62 360T58 394Q53 408 48 414T35 425Q29 428 21 429T6 432V443H215Q223 443 223 434Q223 428 223 398T222 331V109Q222 65 235 48Q248 33 269 33Q290 33 309 59T335 140Q337
156 337 170T338 205V332Q338 349 337 363T334 388Q330 416 314 425Q308 428 299 429T281 432V443H490Q498 443 498 434Q497 428 497 399V117Q497 101 498 82T501 52Q503 38 507 31T520 19Q527 14 535 13T551 11V-1H535Q520 -1 498 -1T449 -2T401 -3T363 -4H348Q344
-4 344 0Q342 1 342 7T341 17V87H338Q330 64 321 49T295 19Q275 4 252 -2T206 -9Q174 -9 147 -2T102 21Q80 42 72 71T63 134V317ZM358 488Q304 511 260 527T189 557Q166 568 152 584T137 624Q137 652 154 665T195 679Q215 679 231 667T267 630Q286 604 308 575T365
498L358 488Z" />
<glyph unicode="&#xfa;" glyph-name="uacute" horiz-adv-x="561" d="M410 619Q410 599 397 584T360 557Q333 543 291 527T191 488L184 498Q218 545 240 575T282 630Q300 653 315 666T351 679Q410 679 410 619ZM63 317Q63 337 62 360T58 394Q53 408 48 414T35 425Q29
428 21 429T6 432V443H215Q223 443 223 434Q223 428 223 398T222 331V109Q222 65 235 48Q248 33 269 33Q290 33 309 59T335 140Q337 156 337 170T338 205V332Q338 349 337 363T334 388Q330 416 314 425Q308 428 299 429T281 432V443H490Q498 443 498 434Q497 428
497 399V117Q497 101 498 82T501 52Q503 38 507 31T520 19Q527 14 535 13T551 11V-1H535Q520 -1 498 -1T449 -2T401 -3T363 -4H348Q344 -4 344 0Q342 1 342 7T341 17V87H338Q330 64 321 49T295 19Q275 4 252 -2T206 -9Q174 -9 147 -2T102 21Q80 42 72 71T63 134V317Z"
/>
<glyph unicode="&#xfb;" glyph-name="ucircumflex" horiz-adv-x="561" d="M409 489L276 576L143 489L132 498Q135 502 144 515T164 547T189 585T214 623T234 653T243 668H308Q310 666 318 654T337 624T362 586T387 548T408 516T420 498L409 489ZM63 317Q63 337
62 360T58 394Q53 408 48 414T35 425Q29 428 21 429T6 432V443H215Q223 443 223 434Q223 428 223 398T222 331V109Q222 65 235 48Q248 33 269 33Q290 33 309 59T335 140Q337 156 337 170T338 205V332Q338 349 337 363T334 388Q330 416 314 425Q308 428 299 429T281
432V443H490Q498 443 498 434Q497 428 497 399V117Q497 101 498 82T501 52Q503 38 507 31T520 19Q527 14 535 13T551 11V-1H535Q520 -1 498 -1T449 -2T401 -3T363 -4H348Q344 -4 344 0Q342 1 342 7T341 17V87H338Q330 64 321 49T295 19Q275 4 252 -2T206 -9Q174
-9 147 -2T102 21Q80 42 72 71T63 134V317Z" />
<glyph unicode="&#xfc;" glyph-name="udieresis" horiz-adv-x="561" d="M171 647Q201 647 221 627T241 577Q241 548 221 528T171 507Q140 507 121 527T101 576Q101 605 121 626T171 647ZM364 647Q394 647 414 627T435 577Q435 548 415 528T364 507Q334 507 315
527T295 576Q295 605 315 626T364 647ZM63 317Q63 337 62 360T58 394Q53 408 48 414T35 425Q29 428 21 429T6 432V443H215Q223 443 223 434Q223 428 223 398T222 331V109Q222 65 235 48Q248 33 269 33Q290 33 309 59T335 140Q337 156 337 170T338 205V332Q338 349
337 363T334 388Q330 416 314 425Q308 428 299 429T281 432V443H490Q498 443 498 434Q497 428 497 399V117Q497 101 498 82T501 52Q503 38 507 31T520 19Q527 14 535 13T551 11V-1H535Q520 -1 498 -1T449 -2T401 -3T363 -4H348Q344 -4 344 0Q342 1 342 7T341 17V87H338Q330
64 321 49T295 19Q275 4 252 -2T206 -9Q174 -9 147 -2T102 21Q80 42 72 71T63 134V317Z" />
<glyph unicode="&#xfd;" glyph-name="yacute" horiz-adv-x="458" d="M238 -84Q225 -119 211 -140T182 -177Q147 -213 92 -213Q53 -213 25 -194T-3 -131Q-3 -108 13 -89T62 -70Q87 -70 102 -83T127 -121Q134 -138 136 -150T152 -163Q164 -163 179 -145T210 -86Q223
-56 223 -52Q227 -40 220 -25L87 310Q75 341 66 359T51 387Q43 401 36 408T19 422Q12 427 3 429T-14 432V443H286V432Q278 431 270 430T256 424Q239 415 239 393Q239 379 244 364T256 326L309 163H311L368 322Q377 347 380 362T384 393Q384 405 379 412T366 425Q359
429 352 430T336 432V443H485V432Q445 427 424 394Q418 384 412 369T395 325Q392 317 380 285T350 208T314 113T278 21T251 -51T238 -84ZM417 619Q417 599 404 584T367 557Q340 543 298 527T198 488L191 498Q225 545 247 575T289 630Q307 653 322 666T358 679Q417
679 417 619Z" />
<glyph unicode="&#xfe;" glyph-name="thorn" horiz-adv-x="540" d="M52 587Q52 600 51 612T48 633Q44 647 38 653T24 665Q8 672 -5 672V684H204Q212 684 212 676Q212 670 212 659T211 632T210 601T209 569V377H213Q227 412 259 432T329 452Q368 452 402 439T463
397T504 325T520 221Q520 167 504 125T460 52T394 7T311 -9Q277 -9 256 -2T215 20H211V-85Q211 -106 211 -125T216 -159Q221 -176 227 -183T248 -196Q254 -199 260 -200T273 -202V-213H-8V-202Q-2 -201 3 -200T15 -196Q29 -190 35 -183T47 -159Q51 -145 51 -126T52
-85V587ZM354 225Q354 282 351 319T340 377T319 407T288 415Q252 415 232 376T211 277V156Q211 124 217 93T235 46Q259 15 290 15Q308 15 320 26T340 62T351 127T354 225Z" />
<glyph unicode="&#xff;" glyph-name="ydieresis" horiz-adv-x="458" d="M238 -84Q225 -119 211 -140T182 -177Q147 -213 92 -213Q53 -213 25 -194T-3 -131Q-3 -108 13 -89T62 -70Q87 -70 102 -83T127 -121Q134 -138 136 -150T152 -163Q164 -163 179 -145T210 -86Q223
-56 223 -52Q227 -40 220 -25L87 310Q75 341 66 359T51 387Q43 401 36 408T19 422Q12 427 3 429T-14 432V443H286V432Q278 431 270 430T256 424Q239 415 239 393Q239 379 244 364T256 326L309 163H311L368 322Q377 347 380 362T384 393Q384 405 379 412T366 425Q359
429 352 430T336 432V443H485V432Q445 427 424 394Q418 384 412 369T395 325Q392 317 380 285T350 208T314 113T278 21T251 -51T238 -84ZM170 647Q200 647 220 627T240 577Q240 548 220 528T170 507Q139 507 120 527T100 576Q100 605 120 626T170 647ZM363 647Q393
647 413 627T434 577Q434 548 414 528T363 507Q333 507 314 527T294 576Q294 605 314 626T363 647Z" />
<glyph unicode="&#x100;" glyph-name="Amacron" horiz-adv-x="641" d="M240 438H235L157 216H314L240 438ZM-19 12Q4 15 23 26Q34 33 43 42T64 68Q83 95 104 153L290 662H359L513 211Q530 160 546 122T576 61Q587 44 598 35T622 21Q630 18 639 16T656 12V0H282V12Q291
13 302 15T320 21Q334 26 344 37T354 69Q354 89 349 109T334 155L322 192H149L134 148Q127 129 122 110T117 75Q117 53 126 40T150 21Q161 16 171 15T189 12V0H-19V12ZM185 711V767H464V711H185Z" />
<glyph unicode="&#x101;" glyph-name="amacron" horiz-adv-x="481" d="M363 -9Q332 -9 314 -3T285 15Q268 30 267 61H264Q253 23 220 7T142 -9Q120 -9 99 -3T61 18T34 53T23 106Q23 134 31 150T51 179Q60 189 73 196T100 209T130 219T158 227Q189 235 208 243T238
261T254 281T260 304V321Q260 332 260 343T261 363V378Q261 411 251 422T215 434Q195 434 187 427T176 413Q174 405 175 389T174 352Q171 291 110 291Q81 291 64 305T47 347Q47 360 51 372T63 393Q82 419 126 435T223 452Q314 452 364 423T415 324V109Q415 74 417
59T425 35Q434 25 451 25Q465 25 477 31L479 20Q470 11 440 1T363 -9ZM259 260Q252 250 245 245T227 232Q215 224 207 216T193 194Q187 182 185 159T182 111Q182 69 192 53T220 36Q232 36 244 53T258 100L259 260ZM116 540V597H362V540H116Z" />
<glyph unicode="&#x102;" glyph-name="Abreve" horiz-adv-x="641" d="M240 438H235L157 216H314L240 438ZM-19 12Q4 15 23 26Q34 33 43 42T64 68Q83 95 104 153L290 662H359L513 211Q530 160 546 122T576 61Q587 44 598 35T622 21Q630 18 639 16T656 12V0H282V12Q291
13 302 15T320 21Q334 26 344 37T354 69Q354 89 349 109T334 155L322 192H149L134 148Q127 129 122 110T117 75Q117 53 126 40T150 21Q161 16 171 15T189 12V0H-19V12ZM464 843Q456 773 419 737T322 700Q261 700 224 736T179 843L192 850Q213 815 247 798T322 781Q362
781 396 798T451 850L464 843Z" />
<glyph unicode="&#x103;" glyph-name="abreve" horiz-adv-x="481" d="M363 -9Q332 -9 314 -3T285 15Q268 30 267 61H264Q253 23 220 7T142 -9Q120 -9 99 -3T61 18T34 53T23 106Q23 134 31 150T51 179Q60 189 73 196T100 209T130 219T158 227Q189 235 208 243T238
261T254 281T260 304V321Q260 332 260 343T261 363V378Q261 411 251 422T215 434Q195 434 187 427T176 413Q174 405 175 389T174 352Q171 291 110 291Q81 291 64 305T47 347Q47 360 51 372T63 393Q82 419 126 435T223 452Q314 452 364 423T415 324V109Q415 74 417
59T425 35Q434 25 451 25Q465 25 477 31L479 20Q470 11 440 1T363 -9ZM259 260Q252 250 245 245T227 232Q215 224 207 216T193 194Q187 182 185 159T182 111Q182 69 192 53T220 36Q232 36 244 53T258 100L259 260ZM366 661Q361 591 328 552T238 513Q181 513 149
552T111 661L124 666Q141 630 172 612T238 593Q273 593 304 611T352 666L366 661Z" />
<glyph unicode="&#x104;" glyph-name="Aogonek" horiz-adv-x="641" d="M240 438H235L157 216H314L240 438ZM177 -136Q177 -116 187 -101T213 -73T251 -49T295 -24Q328 -5 341 14T355 59Q355 86 349 107T334 155L322 192H149L134 148Q127 129 122 110T117 75Q117
53 126 40T150 21Q161 16 171 15T189 12V0H-19V12Q4 15 23 26Q34 33 43 42T64 68Q83 95 104 153L290 662H359L513 211Q530 160 546 122T576 61Q587 44 598 35T622 21Q630 18 639 16T656 12V0H439Q394 0 374 -5T339 -22Q316 -39 306 -68T295 -133Q295 -169 311 -185T361
-205V-216Q268 -221 223 -200T177 -136Z" />
<glyph unicode="&#x105;" glyph-name="aogonek" horiz-adv-x="481" d="M259 -134Q259 -112 271 -95T303 -64T350 -36T407 -6Q398 -8 386 -8T363 -9Q332 -9 314 -3T285 15Q268 30 267 61H264Q253 23 220 7T142 -9Q120 -9 99 -3T61 18T34 53T23 106Q23 134 31 150T51
179Q60 189 73 196T100 209T130 219T158 227Q189 235 208 243T238 261T254 281T260 304V321Q260 332 260 343T261 363V378Q261 411 251 422T215 434Q195 434 187 427T176 413Q174 405 175 389T174 352Q171 291 110 291Q81 291 64 305T47 347Q47 360 51 372T63 393Q82
419 126 435T223 452Q314 452 364 423T415 324V109Q415 74 417 59T425 35Q434 25 451 25Q465 25 477 31L479 20Q474 15 467 12T445 1Q410 -15 394 -53T377 -132Q377 -169 393 -185T443 -205V-216Q350 -221 305 -199T259 -134ZM220 36Q232 36 244 53T258 100L259
260Q252 250 245 245T227 232Q215 224 207 216T193 194Q187 182 185 159T182 111Q182 69 192 53T220 36Z" />
<glyph unicode="&#x106;" glyph-name="Cacute" horiz-adv-x="640" d="M376 648Q350 648 325 639T283 609Q255 579 237 514T219 329Q219 269 225 226T242 152T269 100T304 63Q321 49 346 41T407 32Q435 32 463 42T516 75T562 131T598 213L618 205Q607 158 584 118T527
48T453 2T365 -15Q299 -15 238 4T131 66T57 173T29 329Q29 420 59 485T137 591T246 652T370 671Q435 671 486 650T557 596H561L590 652H601V422H587Q575 473 557 514T513 586T453 632T376 648ZM447 852Q470 852 486 836T502 791Q502 765 482 751T436 731Q404 723
355 715T248 695L242 705Q287 743 316 768T370 815Q393 835 410 843T447 852Z" />
<glyph unicode="&#x107;" glyph-name="cacute" horiz-adv-x="442" d="M402 619Q402 599 389 584T352 557Q325 543 283 527T183 488L176 498Q210 545 232 575T274 630Q292 653 307 666T343 679Q402 679 402 619ZM432 139Q424 110 410 84T375 37T323 4T253 -9Q199
-9 159 5T93 45Q60 77 40 121T20 224Q20 281 41 323T96 394T174 437T263 452Q314 452 348 440T397 412Q411 398 418 383T425 348Q425 319 407 305T365 291Q332 291 318 312T298 370Q293 406 285 420T263 434Q249 434 238 428T218 410Q203 389 195 342T187 230Q187
161 196 120T221 53Q232 36 247 30T279 23Q309 23 331 34T370 62T397 101T416 145L432 139Z" />
<glyph unicode="&#x108;" glyph-name="Ccircumflex" horiz-adv-x="640" d="M492 704L356 763L220 704L211 713Q215 718 232 738T268 782T303 824T321 846H391Q393 843 409 824T444 782T480 739T501 713L492 704ZM376 648Q350 648 325 639T283 609Q255 579 237
514T219 329Q219 269 225 226T242 152T269 100T304 63Q321 49 346 41T407 32Q435 32 463 42T516 75T562 131T598 213L618 205Q607 158 584 118T527 48T453 2T365 -15Q299 -15 238 4T131 66T57 173T29 329Q29 420 59 485T137 591T246 652T370 671Q435 671 486 650T557
596H561L590 652H601V422H587Q575 473 557 514T513 586T453 632T376 648Z" />
<glyph unicode="&#x109;" glyph-name="ccircumflex" horiz-adv-x="442" d="M386 489L253 576L120 489L109 498Q112 502 121 515T141 547T166 585T191 623T211 653T220 668H285Q287 666 295 654T314 624T339 586T364 548T385 516T397 498L386 489ZM432 139Q424
110 410 84T375 37T323 4T253 -9Q199 -9 159 5T93 45Q60 77 40 121T20 224Q20 281 41 323T96 394T174 437T263 452Q314 452 348 440T397 412Q411 398 418 383T425 348Q425 319 407 305T365 291Q332 291 318 312T298 370Q293 406 285 420T263 434Q249 434 238 428T218
410Q203 389 195 342T187 230Q187 161 196 120T221 53Q232 36 247 30T279 23Q309 23 331 34T370 62T397 101T416 145L432 139Z" />
<glyph unicode="&#x10a;" glyph-name="Cdotaccent" horiz-adv-x="640" d="M376 648Q350 648 325 639T283 609Q255 579 237 514T219 329Q219 269 225 226T242 152T269 100T304 63Q321 49 346 41T407 32Q435 32 463 42T516 75T562 131T598 213L618 205Q607 158 584
118T527 48T453 2T365 -15Q299 -15 238 4T131 66T57 173T29 329Q29 420 59 485T137 591T246 652T370 671Q435 671 486 650T557 596H561L590 652H601V422H587Q575 473 557 514T513 586T453 632T376 648ZM438 783Q438 750 415 727T356 703Q321 703 298 727T275 783Q275
817 298 841T356 866Q391 866 414 842T438 783Z" />
<glyph unicode="&#x10b;" glyph-name="cdotaccent" horiz-adv-x="442" d="M432 139Q424 110 410 84T375 37T323 4T253 -9Q199 -9 159 5T93 45Q60 77 40 121T20 224Q20 281 41 323T96 394T174 437T263 452Q314 452 348 440T397 412Q411 398 418 383T425 348Q425
319 407 305T365 291Q332 291 318 312T298 370Q293 406 285 420T263 434Q249 434 238 428T218 410Q203 389 195 342T187 230Q187 161 196 120T221 53Q232 36 247 30T279 23Q309 23 331 34T370 62T397 101T416 145L432 139ZM252 506Q217 506 194 529T171 586Q171
620 194 644T252 668Q287 668 310 644T334 586Q334 553 311 530T252 506Z" />
<glyph unicode="&#x10c;" glyph-name="Ccaron" horiz-adv-x="640" d="M220 846L356 787L492 846L501 837Q497 832 480 812T444 768T409 726T391 704H321Q319 707 303 726T268 768T232 811T211 837L220 846ZM376 648Q350 648 325 639T283 609Q255 579 237 514T219
329Q219 269 225 226T242 152T269 100T304 63Q321 49 346 41T407 32Q435 32 463 42T516 75T562 131T598 213L618 205Q607 158 584 118T527 48T453 2T365 -15Q299 -15 238 4T131 66T57 173T29 329Q29 420 59 485T137 591T246 652T370 671Q435 671 486 650T557 596H561L590
652H601V422H587Q575 473 557 514T513 586T453 632T376 648Z" />
<glyph unicode="&#x10d;" glyph-name="ccaron" horiz-adv-x="442" d="M397 661Q394 657 385 643L364 612Q352 594 339 574T315 536T295 506T285 491H220Q219 493 211 505T192 535T167 573T142 612T121 643T109 661L120 670L253 582L386 670L397 661ZM432 139Q424
110 410 84T375 37T323 4T253 -9Q199 -9 159 5T93 45Q60 77 40 121T20 224Q20 281 41 323T96 394T174 437T263 452Q314 452 348 440T397 412Q411 398 418 383T425 348Q425 319 407 305T365 291Q332 291 318 312T298 370Q293 406 285 420T263 434Q249 434 238 428T218
410Q203 389 195 342T187 230Q187 161 196 120T221 53Q232 36 247 30T279 23Q309 23 331 34T370 62T397 101T416 145L432 139Z" />
<glyph unicode="&#x10e;" glyph-name="Dcaron" horiz-adv-x="724" d="M216 846L352 787L488 846L497 837Q493 832 476 812T440 768T405 726T387 704H317Q315 707 299 726T264 768T228 811T207 837L216 846ZM378 657Q432 657 474 646T547 618Q614 580 655 507T696
330Q696 229 658 154T552 41Q521 24 481 12T394 0H19V12Q30 12 50 17Q67 22 78 32T97 67Q106 97 106 156V502Q106 560 97 590Q90 615 79 625T50 640Q41 643 33 644T19 646V657H378ZM365 24Q386 24 412 33T459 74Q471 92 480 114T496 166T506 237T510 330Q510 384
506 424T496 494T480 545T458 584Q438 614 412 623T361 633H330Q318 633 308 629T292 614Q285 605 284 591T283 560V137Q283 114 285 91T299 52Q307 38 321 31T353 24H365Z" />
<glyph unicode="&#x10f;" glyph-name="dcaron" horiz-adv-x="555" d="M538 684H641Q617 639 590 588T537 488H522L538 684ZM541 -1H521Q505 -1 482 -1T433 -2T385 -2T347 -3H331Q326 -3 326 3V71H324Q309 33 280 12T204 -9Q168 -9 135 5T76 47T35 119T20 220Q20
275 36 318T79 391T141 436T217 452Q261 452 284 435T319 392H322V581Q322 595 321 610T318 634Q314 648 308 654T294 666Q287 670 281 671T266 673V684H478Q484 684 484 677Q484 665 484 644T483 597T482 548T481 506V115Q481 100 481 83T484 54Q489 30 507 19Q514
14 523 13T541 10V-1ZM322 304Q322 354 303 388Q294 403 282 412T254 422Q237 422 224 408T203 366T191 302T187 219Q187 123 200 74T249 25Q279 25 300 58T322 142V304Z" />
<glyph unicode="&#x110;" glyph-name="Dcroat" horiz-adv-x="724" d="M30 349H106V502Q106 560 97 590Q90 615 79 625T50 640Q41 643 33 644T19 646V657H378Q432 657 474 646T547 618Q614 580 655 507T696 330Q696 229 658 154T552 41Q521 24 481 12T394 0H19V12Q30
12 50 17Q67 22 78 32T97 67Q106 97 106 156V320H30V349ZM330 633Q318 633 308 629T292 614Q285 605 284 591T283 560V349H409V320H283V137Q283 114 285 91T299 52Q307 38 321 31T353 24H365Q386 24 412 33T459 74Q471 92 480 114T496 166T506 237T510 330Q510
384 506 424T496 494T480 545T458 584Q438 614 412 623T361 633H330Z" />
<glyph unicode="&#x111;" glyph-name="dcroat" horiz-adv-x="556" d="M208 568H322V581Q322 595 321 610T318 634Q314 648 308 654T294 666Q287 670 281 671T266 673V684H478Q484 684 484 677Q484 665 484 644T482 597L481 568H541V542H481V506V115Q481 100 481
83T484 54Q489 30 507 19Q514 14 523 13T541 10V-1H521Q505 -1 482 -1T433 -2T385 -2T347 -3H331Q326 -3 326 3V71H324Q309 33 280 12T204 -9Q168 -9 135 5T76 47T35 119T20 220Q20 275 36 318T79 391T141 436T217 452Q261 452 284 435T319 392H322V542H208V568ZM322
302Q322 354 303 388Q295 403 282 412T254 422Q237 422 224 408T203 366T191 302T187 219Q187 123 200 74T249 25Q279 25 300 58T322 142V302Z" />
<glyph unicode="&#x112;" glyph-name="Emacron" horiz-adv-x="626" d="M576 0H19V11Q25 11 33 13T50 17Q67 22 78 32T97 68Q102 82 103 104T105 156V503Q105 531 104 553T97 590Q90 615 79 625T50 640Q41 643 33 644T19 645V657H559L583 434H570Q555 470 533 508T482
580Q460 604 432 618T365 633H344Q329 633 318 630T299 617Q288 605 285 586T281 547V352H313Q334 352 348 353T371 357T386 364T399 376Q418 395 432 427T450 485H462V197H450Q447 222 434 253T402 302Q396 308 389 312T373 321T349 327T313 329H281V141Q281 114
284 89T301 49Q322 24 363 24H380Q437 24 479 75Q511 113 539 162T583 255H596L576 0ZM181 711V767H460V711H181Z" />
<glyph unicode="&#x113;" glyph-name="emacron" horiz-adv-x="459" d="M276 253Q291 254 297 261T303 287Q303 333 299 367T282 419Q271 434 250 434Q229 434 214 418Q201 403 195 365T188 253H276ZM441 138Q434 108 420 82T382 35T326 3T250 -9Q212 -9 176 1T108
33Q69 60 45 106T20 221Q20 282 40 325T93 397T166 438T248 452Q298 452 335 437T396 395T433 335T445 264Q445 256 445 248T443 234H188Q188 187 192 156T202 102T216 67T233 44Q244 34 260 28T293 22Q321 22 343 33T381 63T409 102T426 143L441 138ZM128 540V597H374V540H128Z"
/>
<glyph unicode="&#x114;" glyph-name="Ebreve" horiz-adv-x="626" d="M576 0H19V11Q25 11 33 13T50 17Q67 22 78 32T97 68Q102 82 103 104T105 156V503Q105 531 104 553T97 590Q90 615 79 625T50 640Q41 643 33 644T19 645V657H559L583 434H570Q555 470 533 508T482
580Q460 604 432 618T365 633H344Q329 633 318 630T299 617Q288 605 285 586T281 547V352H313Q334 352 348 353T371 357T386 364T399 376Q418 395 432 427T450 485H462V197H450Q447 222 434 253T402 302Q396 308 389 312T373 321T349 327T313 329H281V141Q281 114
284 89T301 49Q322 24 363 24H380Q437 24 479 75Q511 113 539 162T583 255H596L576 0ZM463 843Q455 773 418 737T321 700Q260 700 223 736T178 843L191 850Q212 815 246 798T321 781Q361 781 395 798T450 850L463 843Z" />
<glyph unicode="&#x115;" glyph-name="ebreve" horiz-adv-x="459" d="M276 253Q291 254 297 261T303 287Q303 333 299 367T282 419Q271 434 250 434Q229 434 214 418Q201 403 195 365T188 253H276ZM441 138Q434 108 420 82T382 35T326 3T250 -9Q212 -9 176 1T108
33Q69 60 45 106T20 221Q20 282 40 325T93 397T166 438T248 452Q298 452 335 437T396 395T433 335T445 264Q445 256 445 248T443 234H188Q188 187 192 156T202 102T216 67T233 44Q244 34 260 28T293 22Q321 22 343 33T381 63T409 102T426 143L441 138ZM374 661Q369
591 336 552T246 513Q189 513 157 552T119 661L132 666Q149 630 180 612T246 593Q281 593 312 611T360 666L374 661Z" />
<glyph unicode="&#x116;" glyph-name="Edotaccent" horiz-adv-x="626" d="M402 783Q402 750 379 727T320 703Q285 703 262 727T239 783Q239 817 262 841T320 866Q355 866 378 842T402 783ZM576 0H19V11Q25 11 33 13T50 17Q67 22 78 32T97 68Q102 82 103 104T105
156V503Q105 531 104 553T97 590Q90 615 79 625T50 640Q41 643 33 644T19 645V657H559L583 434H570Q555 470 533 508T482 580Q460 604 432 618T365 633H344Q329 633 318 630T299 617Q288 605 285 586T281 547V352H313Q334 352 348 353T371 357T386 364T399 376Q418
395 432 427T450 485H462V197H450Q447 222 434 253T402 302Q396 308 389 312T373 321T349 327T313 329H281V141Q281 114 284 89T301 49Q322 24 363 24H380Q437 24 479 75Q511 113 539 162T583 255H596L576 0Z" />
<glyph unicode="&#x117;" glyph-name="edotaccent" horiz-adv-x="459" d="M276 253Q291 254 297 261T303 287Q303 333 299 367T282 419Q271 434 250 434Q229 434 214 418Q201 403 195 365T188 253H276ZM441 138Q434 108 420 82T382 35T326 3T250 -9Q212 -9 176
1T108 33Q69 60 45 106T20 221Q20 282 40 325T93 397T166 438T248 452Q298 452 335 437T396 395T433 335T445 264Q445 256 445 248T443 234H188Q188 187 192 156T202 102T216 67T233 44Q244 34 260 28T293 22Q321 22 343 33T381 63T409 102T426 143L441 138ZM245
506Q210 506 187 529T164 586Q164 620 187 644T245 668Q280 668 303 644T327 586Q327 553 304 530T245 506Z" />
<glyph unicode="&#x118;" glyph-name="Eogonek" horiz-adv-x="626" d="M19 0V11Q25 11 33 13T50 17Q67 22 78 32T97 68Q102 82 103 104T105 156V503Q105 531 104 553T97 590Q90 615 79 625T50 640Q41 643 33 644T19 645V657H559L583 434H570Q555 470 533 508T482
580Q460 604 432 618T365 633H344Q329 633 318 630T299 617Q288 605 285 586T281 547V352H313Q334 352 348 353T371 357T386 364T399 376Q418 395 432 427T450 485H462V197H450Q447 222 434 253T402 302Q396 308 389 312T373 321T349 327T313 329H281V141Q281 114
284 89T301 49Q322 24 363 24H380Q437 24 479 75Q511 113 539 162T583 255H596L576 0H468Q439 -29 427 -60T414 -132Q414 -169 430 -185T480 -205V-216Q387 -221 342 -199T296 -134Q296 -110 308 -93T342 -61T391 -32T449 0H19Z" />
<glyph unicode="&#x119;" glyph-name="eogonek" horiz-adv-x="459" d="M137 -134Q137 -112 149 -95T183 -63T233 -35T292 -6Q284 -7 275 -8T259 -9Q219 -11 180 0T108 33Q69 60 45 106T20 221Q20 282 40 325T93 397T166 438T248 452Q298 452 335 437T396 395T433
335T445 264Q445 256 445 248T443 234H188Q188 187 192 156T202 102T216 67T233 44Q244 34 260 28T293 22Q321 22 343 33T381 63T409 102T426 143L441 138Q420 53 353 15Q325 -1 307 -16T277 -48T260 -85T255 -132Q255 -169 271 -185T321 -205V-216Q228 -221 183
-199T137 -134ZM276 253Q291 254 297 261T303 287Q303 333 299 367T282 419Q271 434 250 434Q229 434 214 418Q201 403 195 365T188 253H276Z" />
<glyph unicode="&#x11a;" glyph-name="Ecaron" horiz-adv-x="626" d="M185 846L321 787L457 846L466 837Q462 832 445 812T409 768T374 726T356 704H286Q284 707 268 726T233 768T197 811T176 837L185 846ZM576 0H19V11Q25 11 33 13T50 17Q67 22 78 32T97 68Q102
82 103 104T105 156V503Q105 531 104 553T97 590Q90 615 79 625T50 640Q41 643 33 644T19 645V657H559L583 434H570Q555 470 533 508T482 580Q460 604 432 618T365 633H344Q329 633 318 630T299 617Q288 605 285 586T281 547V352H313Q334 352 348 353T371 357T386
364T399 376Q418 395 432 427T450 485H462V197H450Q447 222 434 253T402 302Q396 308 389 312T373 321T349 327T313 329H281V141Q281 114 284 89T301 49Q322 24 363 24H380Q437 24 479 75Q511 113 539 162T583 255H596L576 0Z" />
<glyph unicode="&#x11b;" glyph-name="ecaron" horiz-adv-x="459" d="M392 661Q389 657 380 643L359 612Q347 594 334 574T310 536T290 506T280 491H215Q214 493 206 505T187 535T162 573T137 612T116 643T104 661L115 670L248 582L381 670L392 661ZM276 253Q291
254 297 261T303 287Q303 333 299 367T282 419Q271 434 250 434Q229 434 214 418Q201 403 195 365T188 253H276ZM441 138Q434 108 420 82T382 35T326 3T250 -9Q212 -9 176 1T108 33Q69 60 45 106T20 221Q20 282 40 325T93 397T166 438T248 452Q298 452 335 437T396
395T433 335T445 264Q445 256 445 248T443 234H188Q188 187 192 156T202 102T216 67T233 44Q244 34 260 28T293 22Q321 22 343 33T381 63T409 102T426 143L441 138Z" />
<glyph unicode="&#x11c;" glyph-name="Gcircumflex" horiz-adv-x="681" d="M493 704L357 763L221 704L212 713Q216 718 233 738T269 782T304 824T322 846H392Q394 843 410 824T445 782T481 739T502 713L493 704ZM440 170Q440 203 438 222T427 255Q418 271 409
277T383 289Q375 291 369 292T354 294V306H675V294Q669 293 660 292T643 288Q631 283 621 275T603 249Q598 238 596 220T594 177V38Q579 32 555 24T492 6Q478 3 460 -1T423 -8T384 -13T347 -15Q280 -15 222 9T121 77T54 185T29 329Q29 408 55 471T125 578T229 646T357
670Q393 670 424 662T480 642T520 617T544 594H548L572 640H585V402H574Q563 453 547 491T508 564Q482 602 449 623T367 645Q343 645 321 636T280 606Q266 590 255 567T235 511T222 433T217 329Q217 216 232 153T272 58Q289 29 310 19T355 9Q387 9 401 17T424 38Q434
52 437 75T440 115V170Z" />
<glyph unicode="&#x11d;" glyph-name="gcircumflex" horiz-adv-x="505" d="M361 489L228 576L95 489L84 498Q87 502 96 515T116 547T141 585T166 623T186 653T195 668H260Q262 666 270 654T289 624T314 586T339 548T360 516T372 498L361 489ZM469 -33Q469 -78
447 -112T386 -168T299 -202T198 -213Q154 -213 119 -208T58 -193T19 -165T5 -123Q5 -104 15 -90T41 -66T79 -50T121 -42V-39Q78 -33 53 -8T27 58Q27 80 36 97T60 128T90 150T120 163V166Q83 182 54 215T25 298Q25 338 41 367T85 415T146 443T215 452Q256 452 295
439T361 400H366Q377 426 399 442T455 458Q491 458 507 443T524 402Q524 373 510 359T471 345Q449 345 437 358T420 383Q413 399 410 405T399 411Q393 411 388 403T383 381Q383 376 386 368T394 349Q400 337 402 324T405 298Q405 258 389 230T345 183T284 155T216
146Q194 146 176 148T144 156Q130 153 119 145T108 123Q108 110 119 103T151 95Q161 95 183 96T229 99T275 102T310 104Q391 104 430 70T469 -33ZM198 -197Q288 -197 332 -169T376 -105Q376 -76 360 -57T300 -37Q287 -37 269 -38T231 -40T195 -43T166 -46Q132 -50
106 -67T80 -123Q80 -158 110 -177T198 -197ZM215 436Q186 436 175 406T164 298Q164 220 175 191T215 161Q245 161 256 190T267 298Q267 337 265 363T256 406T240 429T215 436Z" />
<glyph unicode="&#x11e;" glyph-name="Gbreve" horiz-adv-x="681" d="M499 843Q491 773 454 737T357 700Q296 700 259 736T214 843L227 850Q248 815 282 798T357 781Q397 781 431 798T486 850L499 843ZM440 170Q440 203 438 222T427 255Q418 271 409 277T383 289Q375
291 369 292T354 294V306H675V294Q669 293 660 292T643 288Q631 283 621 275T603 249Q598 238 596 220T594 177V38Q579 32 555 24T492 6Q478 3 460 -1T423 -8T384 -13T347 -15Q280 -15 222 9T121 77T54 185T29 329Q29 408 55 471T125 578T229 646T357 670Q393 670
424 662T480 642T520 617T544 594H548L572 640H585V402H574Q563 453 547 491T508 564Q482 602 449 623T367 645Q343 645 321 636T280 606Q266 590 255 567T235 511T222 433T217 329Q217 216 232 153T272 58Q289 29 310 19T355 9Q387 9 401 17T424 38Q434 52 437
75T440 115V170Z" />
<glyph unicode="&#x11f;" glyph-name="gbreve" horiz-adv-x="505" d="M469 -33Q469 -78 447 -112T386 -168T299 -202T198 -213Q154 -213 119 -208T58 -193T19 -165T5 -123Q5 -104 15 -90T41 -66T79 -50T121 -42V-39Q78 -33 53 -8T27 58Q27 80 36 97T60 128T90
150T120 163V166Q83 182 54 215T25 298Q25 338 41 367T85 415T146 443T215 452Q256 452 295 439T361 400H366Q377 426 399 442T455 458Q491 458 507 443T524 402Q524 373 510 359T471 345Q449 345 437 358T420 383Q413 399 410 405T399 411Q393 411 388 403T383
381Q383 376 386 368T394 349Q400 337 402 324T405 298Q405 258 389 230T345 183T284 155T216 146Q194 146 176 148T144 156Q130 153 119 145T108 123Q108 110 119 103T151 95Q161 95 183 96T229 99T275 102T310 104Q391 104 430 70T469 -33ZM198 -197Q288 -197
332 -169T376 -105Q376 -76 360 -57T300 -37Q287 -37 269 -38T231 -40T195 -43T166 -46Q132 -50 106 -67T80 -123Q80 -158 110 -177T198 -197ZM215 436Q186 436 175 406T164 298Q164 220 175 191T215 161Q245 161 256 190T267 298Q267 337 265 363T256 406T240
429T215 436ZM355 661Q350 591 317 552T227 513Q170 513 138 552T100 661L113 666Q130 630 161 612T227 593Q262 593 293 611T341 666L355 661Z" />
<glyph unicode="&#x120;" glyph-name="Gdotaccent" horiz-adv-x="681" d="M439 783Q439 750 416 727T357 703Q322 703 299 727T276 783Q276 817 299 841T357 866Q392 866 415 842T439 783ZM440 170Q440 203 438 222T427 255Q418 271 409 277T383 289Q375 291 369
292T354 294V306H675V294Q669 293 660 292T643 288Q631 283 621 275T603 249Q598 238 596 220T594 177V38Q579 32 555 24T492 6Q478 3 460 -1T423 -8T384 -13T347 -15Q280 -15 222 9T121 77T54 185T29 329Q29 408 55 471T125 578T229 646T357 670Q393 670 424 662T480
642T520 617T544 594H548L572 640H585V402H574Q563 453 547 491T508 564Q482 602 449 623T367 645Q343 645 321 636T280 606Q266 590 255 567T235 511T222 433T217 329Q217 216 232 153T272 58Q289 29 310 19T355 9Q387 9 401 17T424 38Q434 52 437 75T440 115V170Z"
/>
<glyph unicode="&#x121;" glyph-name="gdotaccent" horiz-adv-x="505" d="M469 -33Q469 -78 447 -112T386 -168T299 -202T198 -213Q154 -213 119 -208T58 -193T19 -165T5 -123Q5 -104 15 -90T41 -66T79 -50T121 -42V-39Q78 -33 53 -8T27 58Q27 80 36 97T60 128T90
150T120 163V166Q83 182 54 215T25 298Q25 338 41 367T85 415T146 443T215 452Q256 452 295 439T361 400H366Q377 426 399 442T455 458Q491 458 507 443T524 402Q524 373 510 359T471 345Q449 345 437 358T420 383Q413 399 410 405T399 411Q393 411 388 403T383
381Q383 376 386 368T394 349Q400 337 402 324T405 298Q405 258 389 230T345 183T284 155T216 146Q194 146 176 148T144 156Q130 153 119 145T108 123Q108 110 119 103T151 95Q161 95 183 96T229 99T275 102T310 104Q391 104 430 70T469 -33ZM198 -197Q288 -197
332 -169T376 -105Q376 -76 360 -57T300 -37Q287 -37 269 -38T231 -40T195 -43T166 -46Q132 -50 106 -67T80 -123Q80 -158 110 -177T198 -197ZM215 436Q186 436 175 406T164 298Q164 220 175 191T215 161Q245 161 256 190T267 298Q267 337 265 363T256 406T240
429T215 436ZM226 506Q191 506 168 529T145 586Q145 620 168 644T226 668Q261 668 284 644T308 586Q308 553 285 530T226 506Z" />
<glyph unicode="&#x122;" glyph-name="Gcommaaccent" horiz-adv-x="681" d="M424 -122Q424 -181 385 -216T283 -267L277 -251Q315 -239 338 -225T362 -192Q362 -177 350 -174Q317 -167 297 -152T277 -103Q277 -74 299 -57T346 -39Q379 -39 401 -61T424 -122ZM440
170Q440 203 438 222T427 255Q418 271 409 277T383 289Q375 291 369 292T354 294V306H675V294Q669 293 660 292T643 288Q631 283 621 275T603 249Q598 238 596 220T594 177V38Q579 32 555 24T492 6Q478 3 460 -1T423 -8T384 -13T347 -15Q280 -15 222 9T121 77T54
185T29 329Q29 408 55 471T125 578T229 646T357 670Q393 670 424 662T480 642T520 617T544 594H548L572 640H585V402H574Q563 453 547 491T508 564Q482 602 449 623T367 645Q343 645 321 636T280 606Q266 590 255 567T235 511T222 433T217 329Q217 216 232 153T272
58Q289 29 310 19T355 9Q387 9 401 17T424 38Q434 52 437 75T440 115V170Z" />
<glyph unicode="&#x123;" glyph-name="gcommaaccent" horiz-adv-x="505" d="M153 840Q153 898 192 933T293 985L300 969Q262 958 238 944T214 910Q214 895 226 892Q260 885 279 870T299 821Q299 792 277 775T230 758Q197 758 175 779T153 840ZM469 -33Q469 -78
447 -112T386 -168T299 -202T198 -213Q154 -213 119 -208T58 -193T19 -165T5 -123Q5 -104 15 -90T41 -66T79 -50T121 -42V-39Q78 -33 53 -8T27 58Q27 80 36 97T60 128T90 150T120 163V166Q83 182 54 215T25 298Q25 338 41 367T85 415T146 443T215 452Q256 452 295
439T361 400H366Q377 426 399 442T455 458Q491 458 507 443T524 402Q524 373 510 359T471 345Q449 345 437 358T420 383Q413 399 410 405T399 411Q393 411 388 403T383 381Q383 376 386 368T394 349Q400 337 402 324T405 298Q405 258 389 230T345 183T284 155T216
146Q194 146 176 148T144 156Q130 153 119 145T108 123Q108 110 119 103T151 95Q161 95 183 96T229 99T275 102T310 104Q391 104 430 70T469 -33ZM198 -197Q288 -197 332 -169T376 -105Q376 -76 360 -57T300 -37Q287 -37 269 -38T231 -40T195 -43T166 -46Q132 -50
106 -67T80 -123Q80 -158 110 -177T198 -197ZM215 436Q186 436 175 406T164 298Q164 220 175 191T215 161Q245 161 256 190T267 298Q267 337 265 363T256 406T240 429T215 436Z" />
<glyph unicode="&#x124;" glyph-name="Hcircumflex" horiz-adv-x="767" d="M362 0H19V12Q25 12 32 13T50 17Q67 21 78 31T97 68Q102 83 103 105T105 156V502Q105 531 104 553T97 590Q90 615 79 625T50 640Q30 646 19 646V657H362V646Q349 646 334 640Q318 634
308 624T290 591Q285 577 284 555T282 504V345H485V504Q485 533 484 555T477 591Q470 614 460 624T434 640Q427 643 419 644T405 646V657H748V646Q735 646 717 640Q700 635 689 625T670 590Q665 576 664 554T662 502V156Q662 127 663 105T670 68Q677 42 688 32T717
17Q737 12 748 12V0H405V12Q415 12 432 17Q449 23 459 33T477 67Q482 82 483 103T485 154V316H282V154Q282 125 283 104T290 67Q297 43 307 33T334 17Q342 14 349 13T362 12V0ZM520 704L384 763L248 704L239 713Q243 718 260 738T296 782T331 824T349 846H419Q421
843 437 824T472 782T508 739T529 713L520 704Z" />
<glyph unicode="&#x125;" glyph-name="hcircumflex" horiz-adv-x="579" d="M510 128Q510 107 511 84T516 49Q521 33 527 27T542 16Q548 14 555 13T568 11V0H303V11Q314 11 326 16Q336 21 341 30T349 56Q351 67 351 81T352 112V338Q352 360 349 373T338 394Q327
406 306 406Q286 406 265 386T237 317Q229 282 229 241V112Q229 96 229 82T232 56Q234 39 239 30T255 16Q261 14 266 13T278 11V0H13V11Q19 12 26 13T39 16Q47 20 53 26T65 49Q68 60 69 83T71 128V567Q71 582 70 602T66 633Q64 646 60 652T48 664Q40 669 32 670T16
673V684H222Q229 684 229 677Q229 670 228 640T227 568V354H231Q239 378 250 394T277 422Q297 436 322 444T373 452Q408 452 437 441T481 411Q495 394 502 370T510 312V128ZM425 717L289 776L153 717L144 726Q148 731 165 751T201 795T236 837T254 859H324Q326
856 342 837T377 795T413 752T434 726L425 717Z" />
<glyph unicode="&#x126;" glyph-name="Hbar" horiz-adv-x="767" d="M19 12Q25 12 32 13T50 17Q67 21 78 31T97 68Q102 83 103 105T105 156V457H19V486H105V502Q105 531 104 553T97 590Q90 615 79 625T50 640Q30 646 19 646V657H362V646Q349 646 334 640Q318 634
308 624T290 591Q285 577 284 555T282 504V486H485V504Q485 533 484 555T477 591Q470 614 460 624T434 640Q427 643 419 644T405 646V657H748V646Q735 646 717 640Q700 635 689 625T670 590Q665 576 664 554T662 502V486H748V457H662V156Q662 127 663 105T670 68Q677
42 688 32T717 17Q737 12 748 12V0H405V12Q415 12 432 17Q449 23 459 33T477 67Q482 82 483 103T485 154V316H282V154Q282 125 283 104T290 67Q297 43 307 33T334 17Q342 14 349 13T362 12V0H19V12ZM485 345V457H282V345H485Z" />
<glyph unicode="&#x127;" glyph-name="hbar" horiz-adv-x="580" d="M304 0V11Q315 11 327 16Q338 21 343 30T351 56Q353 67 353 81V338Q353 360 351 373T340 394Q328 406 307 406Q288 406 267 386T238 317Q235 300 233 282T230 241V112Q230 96 230 82T233 56Q235
39 240 30T257 16Q269 11 279 11V0H14V11Q20 12 27 13T40 16Q48 20 54 26T66 49Q69 60 70 83T72 128V542H12V568H72Q72 582 71 602T68 633Q65 646 61 652T49 664Q42 669 34 670T17 673V684H224Q230 684 230 677Q230 670 229 640T228 568H345V542H228V354H232Q240
378 251 394T279 422Q298 436 324 444T374 452Q409 452 438 441T482 411Q497 394 504 370T512 312V128Q512 107 513 84T517 49Q522 33 529 27T544 16Q550 14 556 13T569 11V0H304Z" />
<glyph unicode="&#x128;" glyph-name="Itilde" horiz-adv-x="388" d="M283 156Q283 127 284 105T291 68Q298 42 309 32T338 17Q358 12 369 12V0H19V12Q30 12 50 17Q67 22 78 32T97 68Q102 82 103 104T105 156V503Q105 531 104 553T97 590Q89 615 78 625T50 640Q41
643 34 644T19 646V657H369V646Q361 645 354 644T338 640Q321 635 310 625T291 590Q286 576 285 554T283 503V156ZM624 844Q619 821 612 798T593 755T561 724T514 712Q499 712 478 716T436 725T397 735T369 739Q348 739 333 732T308 699L291 703Q296 726 304 748T325
789T356 818T401 830Q414 830 434 826T476 817T516 807T544 803Q570 803 584 812T607 846L624 844Z" />
<glyph unicode="&#x129;" glyph-name="itilde" horiz-adv-x="301" d="M14 0V11Q20 12 27 13T39 16Q47 20 54 26T66 49Q69 59 70 82T71 125V323Q71 339 71 359T68 391Q65 404 60 410T49 422Q42 427 34 428T18 431V443H225Q232 443 232 435Q231 423 231 407T230
370V125Q230 105 231 82T236 49Q241 33 247 27T262 16Q268 14 274 13T287 11V0H14ZM567 662Q562 639 555 615T535 570T503 538T456 525Q441 525 423 528T388 536T356 545T331 549Q306 549 290 540T264 505L247 506Q252 529 260 553T281 596T313 628T358 641Q371
641 388 637T422 629T454 621T478 617Q507 617 524 627T549 663L567 662Z" />
<glyph unicode="&#x12a;" glyph-name="Imacron" horiz-adv-x="388" d="M283 156Q283 127 284 105T291 68Q298 42 309 32T338 17Q358 12 369 12V0H19V12Q30 12 50 17Q67 22 78 32T97 68Q102 82 103 104T105 156V503Q105 531 104 553T97 590Q89 615 78 625T50 640Q41
643 34 644T19 646V657H369V646Q361 645 354 644T338 640Q321 635 310 625T291 590Q286 576 285 554T283 503V156ZM54 711V767H333V711H54Z" />
<glyph unicode="&#x12b;" glyph-name="imacron" horiz-adv-x="301" d="M19 597H252V540H19V597ZM14 0V11Q20 12 27 13T39 16Q47 20 54 26T66 49Q69 59 70 82T71 125V323Q71 339 71 359T68 391Q65 404 60 410T49 422Q42 427 34 428T18 431V443H225Q232 443 232
435Q231 423 231 407T230 370V125Q230 105 231 82T236 49Q241 33 247 27T262 16Q268 14 274 13T287 11V0H14Z" />
<glyph unicode="&#x12c;" glyph-name="Ibreve" horiz-adv-x="388" d="M283 156Q283 127 284 105T291 68Q298 42 309 32T338 17Q358 12 369 12V0H19V12Q30 12 50 17Q67 22 78 32T97 68Q102 82 103 104T105 156V503Q105 531 104 553T97 590Q89 615 78 625T50 640Q41
643 34 644T19 646V657H369V646Q361 645 354 644T338 640Q321 635 310 625T291 590Q286 576 285 554T283 503V156ZM336 843Q328 773 291 737T194 700Q133 700 96 736T51 843L64 850Q85 815 119 798T194 781Q234 781 268 798T323 850L336 843Z" />
<glyph unicode="&#x12d;" glyph-name="ibreve" horiz-adv-x="301" d="M14 0V11Q20 12 27 13T39 16Q47 20 54 26T66 49Q69 59 70 82T71 125V323Q71 339 71 359T68 391Q65 404 60 410T49 422Q42 427 34 428T18 431V443H225Q232 443 232 435Q231 423 231 407T230
370V125Q230 105 231 82T236 49Q241 33 247 27T262 16Q268 14 274 13T287 11V0H14ZM534 661Q529 591 496 552T406 513Q349 513 317 552T279 661L292 666Q309 630 340 612T406 593Q441 593 472 611T520 666L534 661Z" />
<glyph unicode="&#x12e;" glyph-name="Iogonek" horiz-adv-x="388" d="M19 0V12Q30 12 50 17Q67 22 78 32T97 68Q102 82 103 104T105 156V503Q105 531 104 553T97 590Q89 615 78 625T50 640Q41 643 34 644T19 646V657H369V646Q365 646 354 644T338 640Q321 635
310 625T291 590Q286 576 285 554T283 503V156Q283 127 284 105T291 68Q298 42 309 32T338 17Q358 12 369 12V0H278Q257 -27 245 -57T233 -132Q233 -169 249 -185T299 -205V-216Q206 -221 161 -199T115 -134Q115 -110 127 -93T159 -61T205 -32T259 0H19Z" />
<glyph unicode="&#x12f;" glyph-name="iogonek" horiz-adv-x="301" d="M151 506Q116 506 93 529T70 586Q70 620 93 644T151 668Q185 668 209 644T233 586Q233 553 210 530T151 506ZM14 0V11Q20 12 27 13T39 16Q47 20 54 26T66 49Q69 59 70 81T71 125V323Q71 339
71 359T68 391Q65 404 60 410T49 422Q42 427 34 428T18 431V443H225Q232 443 232 435Q231 423 231 407T230 370V125Q230 104 231 82T236 49Q241 33 247 27T262 16Q268 14 274 13T287 11V0H236Q214 -27 202 -57T190 -132Q190 -169 207 -185T256 -205V-216Q163 -221
118 -199T72 -134Q72 -110 83 -93T114 -60T160 -31T216 0H14Z" />
<glyph unicode="&#x130;" glyph-name="Idotaccent" horiz-adv-x="388" d="M283 156Q283 127 284 105T291 68Q298 42 309 32T338 17Q358 12 369 12V0H19V12Q30 12 50 17Q67 22 78 32T97 68Q102 82 103 104T105 156V503Q105 531 104 553T97 590Q89 615 78 625T50
640Q41 643 34 644T19 646V657H369V646Q361 645 354 644T338 640Q321 635 310 625T291 590Q286 576 285 554T283 503V156ZM275 783Q275 750 252 727T193 703Q158 703 135 727T112 783Q112 817 135 841T193 866Q228 866 251 842T275 783Z" />
<glyph unicode="&#x131;" glyph-name="dotlessi" horiz-adv-x="301" d="M14 0V11Q20 12 27 13T39 16Q47 20 54 26T66 49Q69 59 70 82T71 125V323Q71 339 71 359T68 391Q65 404 60 410T49 422Q42 427 34 428T18 431V443H225Q232 443 232 435Q231 423 231 407T230
370V125Q230 105 231 82T236 49Q241 33 247 27T262 16Q268 14 274 13T287 11V0H14Z" />
<glyph unicode="&#x132;" glyph-name="IJ" horiz-adv-x="839" d="M19 0V12Q30 12 50 17Q67 22 78 32T97 68Q102 82 103 104T105 156V503Q105 531 104 553T97 590Q89 615 78 625T50 640Q41 643 34 644T19 646V657H369V646Q361 645 354 644T338 640Q321 635 310
625T291 590Q286 576 285 554T283 503V156Q283 127 284 105T291 68Q298 42 309 32T338 17Q356 12 367 12V0H19ZM832 646Q825 645 818 644T801 640Q784 635 773 625T753 590Q745 558 745 501V230Q745 155 725 108T676 35Q647 9 606 -2T514 -14Q479 -14 446 -4T393
23Q371 43 359 69T347 127Q347 178 370 200T431 223Q472 223 492 201T512 144Q513 132 511 119T503 91Q497 74 490 60T483 39Q483 25 492 18T515 10Q547 10 558 43Q563 59 566 88T569 147V501Q569 558 561 590Q553 615 542 625T513 640Q504 643 496 644T482 646V657H832V646Z"
/>
<glyph unicode="&#x133;" glyph-name="ij" horiz-adv-x="560" d="M151 506Q116 506 93 529T70 586Q70 620 93 644T151 668Q185 668 209 644T233 586Q233 553 210 530T151 506ZM230 125Q230 104 231 82T236 49Q241 33 247 27T262 16Q268 14 274 13T287 11V0H14V11Q20
12 27 13T39 16Q47 20 54 26T66 49Q69 59 70 81T71 125V323Q71 339 71 359T68 391Q65 404 60 410T49 422Q42 427 34 428T18 431V443H225Q232 443 232 435Q231 423 231 407T230 370V125ZM429 506Q394 506 371 529T348 586Q348 620 371 644T429 668Q464 668 487 644T511
586Q511 553 488 530T429 506ZM350 323Q350 338 349 359T345 391Q343 404 339 410T327 422Q320 427 312 428T296 431V443H503Q510 443 510 435Q510 423 510 407T508 370V11Q508 -27 501 -55T481 -105T455 -141T427 -167Q420 -173 408 -180T378 -195T337 -208T285
-213Q257 -213 231 -206T185 -187Q164 -173 150 -151T136 -99Q136 -67 158 -43T218 -19Q254 -19 273 -41T293 -96Q293 -105 290 -117T282 -141Q279 -149 277 -157T274 -171Q274 -180 278 -186T294 -193Q311 -193 320 -183T336 -157Q342 -142 346 -118T350 -65V323Z"
/>
<glyph unicode="&#x134;" glyph-name="Jcircumflex" horiz-adv-x="499" d="M453 704L317 763L181 704L172 713Q176 718 193 738T229 782T264 824T282 846H352Q354 843 370 824T405 782T441 739T462 713L453 704ZM228 501Q228 530 227 552T220 590Q213 615 201
625T172 640Q163 643 156 644T141 646V657H492V646Q485 645 477 644T461 640Q444 635 433 625T413 590Q405 558 405 501V230Q405 155 385 108T335 35Q306 9 264 -2T170 -14Q135 -14 100 -4T45 23Q23 43 9 69T-5 127Q-5 178 21 200T84 223Q124 223 145 201T167 144Q167
132 165 119T157 91Q151 74 146 62T141 43Q141 26 149 18T171 10Q206 10 217 43Q223 60 225 89T228 148V501Z" />
<glyph unicode="&#x135;" glyph-name="jcircumflex" horiz-adv-x="273" d="M226 435Q225 423 225 407T224 370V11Q224 -27 216 -55T196 -105T170 -141T142 -167Q135 -173 123 -180T93 -195T52 -208T0 -213Q-27 -213 -53 -206T-100 -187Q-121 -173 -134 -151T-148
-99Q-148 -67 -126 -43T-67 -19Q-31 -19 -12 -41T8 -96Q8 -105 5 -117T-2 -141Q-6 -149 -8 -157T-11 -171Q-11 -180 -7 -186T9 -193Q26 -193 35 -183T52 -157Q57 -142 61 -118T65 -65V323Q65 338 64 359T61 391Q56 414 42 422Q35 427 27 428T11 431V443H219Q226
443 226 435ZM526 489L393 576L260 489L249 498Q252 502 261 515T281 547T306 585T331 623T351 653T360 668H425Q427 666 435 654T454 624T479 586T504 548T525 516T537 498L526 489Z" />
<glyph unicode="&#x136;" glyph-name="Kcommaaccent" horiz-adv-x="705" d="M447 -122Q447 -181 408 -216T306 -267L300 -251Q338 -239 361 -225T385 -192Q385 -177 373 -174Q340 -167 320 -152T300 -103Q300 -74 322 -57T369 -39Q402 -39 424 -61T447 -122ZM19
0V12Q30 12 50 17Q67 22 78 32T97 68Q102 82 103 104T105 156V502Q105 531 104 553T97 590Q90 615 79 624T50 640Q32 646 19 646V657H364V646Q357 645 351 644T336 640Q320 635 309 625T290 590Q285 576 284 554T282 502V319L445 506Q475 541 487 560T500 599Q500
616 494 625T475 639Q462 644 439 646V657H671V646Q654 644 633 636T595 617Q584 610 575 603T555 586T532 563T504 532L379 390V385Q441 380 479 364T544 323Q558 310 569 291T588 251T601 206T609 162Q614 129 619 107T631 70T645 46T661 31Q672 23 686 18T712
11V0H468Q455 14 443 48T425 133Q423 158 422 180T419 224T413 263T399 298Q385 327 346 327Q334 327 322 321T299 307Q297 305 291 298T282 288V156Q282 127 283 105T290 68Q297 42 308 32T336 17Q344 14 351 13T364 12V0H19Z" />
<glyph unicode="&#x137;" glyph-name="kcommaaccent" horiz-adv-x="558" d="M365 -112Q365 -171 326 -206T224 -257L218 -241Q256 -229 279 -215T303 -182Q303 -167 291 -164Q258 -157 238 -142T218 -93Q218 -64 240 -47T287 -29Q320 -29 342 -51T365 -112ZM288
0H12V11Q18 12 25 13T38 16Q46 20 52 26T64 50Q68 61 68 84T69 128V565Q69 581 68 601T65 633Q63 646 59 652T47 664Q40 669 32 670T16 673V684H225Q231 682 231 676Q230 671 230 647T229 584V219L332 321Q353 342 365 360T377 393Q377 403 374 410T360 423Q354
426 344 428T325 431V443H522V431Q509 429 493 423T460 406Q456 404 448 398T428 382T405 362T382 340L341 298Q402 287 431 255T470 179Q474 158 479 136T491 93T505 58T519 33Q527 23 538 19T570 11V0H370Q353 14 339 54T316 146Q311 184 301 203T271 234L229
191V128Q229 108 230 85T234 50Q239 33 245 27T260 16Q266 14 274 13T288 11V0Z" />
<glyph unicode="&#x139;" glyph-name="Lacute" horiz-adv-x="614" d="M297 852Q320 852 336 836T352 791Q352 765 332 751T286 731Q254 723 205 715T98 695L92 705Q137 743 166 768T220 815Q243 835 260 843T297 852ZM19 12Q27 13 36 14T53 18Q86 27 98 62Q106
86 108 126T111 214V444Q111 492 109 532T98 595Q92 615 80 625T52 640Q44 643 36 644L20 646V657H380V646L364 644Q356 643 348 640Q331 635 320 625T301 595Q293 572 291 532T288 444V172Q288 139 290 117T296 80Q304 52 318 41Q330 31 342 28T369 24H386Q416
24 436 36T476 72Q491 91 507 114T537 161T562 207T582 246H594L577 0H19V12Z" />
<glyph unicode="&#x13a;" glyph-name="lacute" horiz-adv-x="305" d="M498 874Q521 874 537 858T553 813Q553 787 533 773T487 753Q455 745 406 737T299 717L293 727Q338 765 367 790T421 837Q444 857 461 865T498 874ZM229 128Q229 107 230 84T234 49Q239 33
246 27T261 16Q266 14 274 13T288 11V0H12V11Q18 12 25 13T38 16Q46 20 52 26T64 49Q68 60 69 83T70 128V564Q70 580 69 601T65 633Q63 646 59 652T47 664Q40 669 32 670T16 673V684H223Q230 684 230 676Q230 665 230 649T229 612V128Z" />
<glyph unicode="&#x13b;" glyph-name="Lcommaaccent" horiz-adv-x="614" d="M403 -122Q403 -181 364 -216T262 -267L256 -251Q294 -239 317 -225T341 -192Q341 -177 329 -174Q296 -167 276 -152T256 -103Q256 -74 278 -57T325 -39Q358 -39 380 -61T403 -122ZM19
12Q27 13 36 14T53 18Q86 27 98 62Q106 86 108 126T111 214V444Q111 492 109 532T98 595Q92 615 80 625T52 640Q44 643 36 644L20 646V657H380V646L364 644Q356 643 348 640Q331 635 320 625T301 595Q293 572 291 532T288 444V172Q288 139 290 117T296 80Q304 52
318 41Q330 31 342 28T369 24H386Q416 24 436 36T476 72Q491 91 507 114T537 161T562 207T582 246H594L577 0H19V12Z" />
<glyph unicode="&#x13c;" glyph-name="lcommaaccent" horiz-adv-x="305" d="M222 -112Q222 -171 183 -206T81 -257L75 -241Q113 -229 136 -215T160 -182Q160 -167 148 -164Q115 -157 95 -142T75 -93Q75 -64 97 -47T144 -29Q177 -29 199 -51T222 -112ZM229 128Q229
107 230 84T234 49Q239 33 246 27T261 16Q266 14 274 13T288 11V0H12V11Q18 12 25 13T38 16Q46 20 52 26T64 49Q68 60 69 83T70 128V564Q70 580 69 601T65 633Q63 646 59 652T47 664Q40 669 32 670T16 673V684H223Q230 684 230 676Q230 665 230 649T229 612V128Z"
/>
<glyph unicode="&#x13d;" glyph-name="Lcaron" horiz-adv-x="614" d="M436 657H539Q515 612 488 561T435 461H420L436 657ZM19 12Q27 13 36 14T53 18Q86 27 98 62Q106 86 108 126T111 214V444Q111 492 109 532T98 595Q92 615 80 625T52 640Q44 643 36 644L20 646V657H380V646L364
644Q356 643 348 640Q331 635 320 625T301 595Q293 572 291 532T288 444V172Q288 139 290 117T296 80Q304 52 318 41Q330 31 342 28T369 24H386Q416 24 436 36T476 72Q491 91 507 114T537 161T562 207T582 246H594L577 0H19V12Z" />
<glyph unicode="&#x13e;" glyph-name="lcaron" horiz-adv-x="305" d="M281 684H384Q360 639 333 588T280 488H265L281 684ZM229 128Q229 107 230 84T234 49Q239 33 246 27T261 16Q266 14 274 13T288 11V0H12V11Q18 12 25 13T38 16Q46 20 52 26T64 49Q68 60 69
83T70 128V564Q70 580 69 601T65 633Q63 646 59 652T47 664Q40 669 32 670T16 673V684H223Q230 684 230 676Q230 665 230 649T229 612V128Z" />
<glyph unicode="&#x13f;" glyph-name="Ldot" horiz-adv-x="614" d="M19 12Q27 13 36 14T53 18Q86 27 98 62Q106 86 108 126T111 214V444Q111 492 109 532T98 595Q92 615 80 625T52 640Q44 643 36 644L20 646V657H380V646L364 644Q356 643 348 640Q331 635 320
625T301 595Q293 572 291 532T288 444V172Q288 139 290 117T296 80Q304 52 318 41Q330 31 342 28T369 24H386Q416 24 436 35T476 67Q491 84 506 105T536 149T561 191T580 226H592L577 0H19V12ZM599 357Q599 324 576 301T518 277Q483 277 460 300T437 357Q437 390
460 413T518 437Q551 437 575 414T599 357Z" />
<glyph unicode="&#x140;" glyph-name="ldot" horiz-adv-x="305" d="M406 327Q406 297 385 276T333 255Q302 255 282 276T261 327Q261 357 282 378T333 400Q363 400 384 379T406 327ZM229 128Q229 107 230 84T234 49Q239 33 246 27T261 16Q266 14 274 13T288 11V0H12V11Q18
12 25 13T38 16Q46 20 52 26T64 49Q68 60 69 83T70 128V564Q70 580 69 601T65 633Q63 646 59 652T47 664Q40 669 32 670T16 673V684H223Q230 684 230 676Q230 665 230 649T229 612V128Z" />
<glyph unicode="&#x141;" glyph-name="Lslash" horiz-adv-x="614" d="M22 250L111 285V444Q111 492 109 532T98 595Q92 615 80 625T52 640Q44 643 36 644L20 646V657H380V646L364 644Q356 643 348 640Q331 635 320 625T301 595Q293 572 291 532T288 444V354L469
426V400L288 328V172Q288 139 290 117T296 79Q304 52 318 41Q330 31 342 28T369 24H386Q416 24 436 36T476 72Q491 91 507 114T537 161T562 207T582 246H594L577 0H19V12Q27 13 36 14T53 18Q86 27 98 62Q106 86 108 126T111 214V259L22 224V250Z" />
<glyph unicode="&#x142;" glyph-name="lslash" horiz-adv-x="305" d="M6 315L70 343V564Q70 580 69 601T65 633Q63 646 59 652T47 664Q40 669 32 670T16 673V684H223Q230 684 230 676Q230 665 230 649T229 612V414L293 443V418L229 389V128Q229 107 230 84T234
49Q239 33 246 27T261 16Q266 14 274 13T288 11V0H12V11Q18 12 25 13T38 16Q46 20 52 26T64 49Q68 60 69 83T70 128V318L6 290V315Z" />
<glyph unicode="&#x143;" glyph-name="Nacute" horiz-adv-x="699" d="M483 852Q506 852 522 836T538 791Q538 765 518 751T472 731Q440 723 391 715T284 695L278 705Q323 743 352 768T406 815Q429 835 446 843T483 852ZM537 -3L165 517H160V169Q160 121 165 97T177
56Q191 27 220 17Q228 15 235 14T254 11V0H38V11Q49 13 57 14T73 17Q85 21 96 31T115 56Q123 73 127 97T132 169V440Q132 543 110 585Q92 621 50 638Q42 641 34 643T17 645V657H293L569 259H572V487Q572 535 568 559T556 600Q549 616 537 625T513 639Q505 641 498
643T479 645V657H694V645Q683 645 676 643T660 639Q633 631 618 600Q611 583 606 559T601 487V-3H537Z" />
<glyph unicode="&#x144;" glyph-name="nacute" horiz-adv-x="579" d="M440 619Q440 599 427 584T390 557Q363 543 321 527T221 488L214 498Q248 545 270 575T312 630Q330 653 345 666T381 679Q440 679 440 619ZM510 128Q510 107 511 84T516 49Q521 33 527 27T542
16Q548 14 555 13T568 11V0H303V11Q313 11 325 16Q336 21 341 30T349 56Q351 67 351 81T352 112V338Q352 380 338 394Q332 400 325 403T305 406Q296 406 286 401T267 386T249 359T238 318Q234 301 232 282T230 241V112Q230 96 230 82T233 56Q235 39 240 30T257
16Q269 11 280 11V0H14V11Q20 12 27 13T39 16Q47 20 54 26T66 49Q69 60 70 83T71 128V323Q71 339 71 359T68 391Q65 404 61 410T49 422Q42 427 34 428T18 431V443H223Q230 443 230 435Q230 430 230 420T229 397T229 373T228 353H231Q239 377 251 393T278 422Q298
436 325 444T377 452Q412 452 438 443T481 411Q495 392 502 368T510 309V128Z" />
<glyph unicode="&#x145;" glyph-name="Ncommaaccent" horiz-adv-x="699" d="M434 -122Q434 -181 395 -216T293 -267L287 -251Q325 -239 348 -225T372 -192Q372 -177 360 -174Q327 -167 307 -152T287 -103Q287 -74 309 -57T356 -39Q389 -39 411 -61T434 -122ZM537
-3L165 517H160V169Q160 121 165 97T177 56Q191 27 220 17Q228 15 235 14T254 11V0H38V11Q49 13 57 14T73 17Q85 21 96 31T115 56Q123 73 127 97T132 169V440Q132 543 110 585Q92 621 50 638Q42 641 34 643T17 645V657H293L569 259H572V487Q572 535 568 559T556
600Q549 616 537 625T513 639Q505 641 498 643T479 645V657H694V645Q683 645 676 643T660 639Q633 631 618 600Q611 583 606 559T601 487V-3H537Z" />
<glyph unicode="&#x146;" glyph-name="ncommaaccent" horiz-adv-x="579" d="M366 -112Q366 -171 327 -206T225 -257L219 -241Q257 -229 280 -215T304 -182Q304 -167 292 -164Q259 -157 239 -142T219 -93Q219 -64 241 -47T288 -29Q321 -29 343 -51T366 -112ZM510
128Q510 107 511 84T516 49Q521 33 527 27T542 16Q548 14 555 13T568 11V0H303V11Q313 11 325 16Q336 21 341 30T349 56Q351 67 351 81T352 112V338Q352 380 338 394Q332 400 325 403T305 406Q296 406 286 401T267 386T249 359T238 318Q234 301 232 282T230 241V112Q230
96 230 82T233 56Q235 39 240 30T257 16Q269 11 280 11V0H14V11Q20 12 27 13T39 16Q47 20 54 26T66 49Q69 60 70 83T71 128V323Q71 339 71 359T68 391Q65 404 61 410T49 422Q42 427 34 428T18 431V443H223Q230 443 230 435Q230 430 230 420T229 397T229 373T228
353H231Q239 377 251 393T278 422Q298 436 325 444T377 452Q412 452 438 443T481 411Q495 392 502 368T510 309V128Z" />
<glyph unicode="&#x147;" glyph-name="Ncaron" horiz-adv-x="699" d="M256 846L392 787L528 846L537 837Q533 832 516 812T480 768T445 726T427 704H357Q355 707 339 726T304 768T268 811T247 837L256 846ZM537 -3L165 517H160V169Q160 121 165 97T177 56Q191
27 220 17Q228 15 235 14T254 11V0H38V11Q49 13 57 14T73 17Q85 21 96 31T115 56Q123 73 127 97T132 169V440Q132 543 110 585Q92 621 50 638Q42 641 34 643T17 645V657H293L569 259H572V487Q572 535 568 559T556 600Q549 616 537 625T513 639Q505 641 498 643T479
645V657H694V645Q683 645 676 643T660 639Q633 631 618 600Q611 583 606 559T601 487V-3H537Z" />
<glyph unicode="&#x148;" glyph-name="ncaron" horiz-adv-x="579" d="M437 661Q434 657 425 643L404 612Q392 594 379 574T355 536T335 506T325 491H260Q259 493 251 505T232 535T207 573T182 612T161 643T149 661L160 670L293 582L426 670L437 661ZM510 128Q510
107 511 84T516 49Q521 33 527 27T542 16Q548 14 555 13T568 11V0H303V11Q313 11 325 16Q336 21 341 30T349 56Q351 67 351 81T352 112V338Q352 380 338 394Q332 400 325 403T305 406Q296 406 286 401T267 386T249 359T238 318Q234 301 232 282T230 241V112Q230
96 230 82T233 56Q235 39 240 30T257 16Q269 11 280 11V0H14V11Q20 12 27 13T39 16Q47 20 54 26T66 49Q69 60 70 83T71 128V323Q71 339 71 359T68 391Q65 404 61 410T49 422Q42 427 34 428T18 431V443H223Q230 443 230 435Q230 430 230 420T229 397T229 373T228
353H231Q239 377 251 393T278 422Q298 436 325 444T377 452Q412 452 438 443T481 411Q495 392 502 368T510 309V128Z" />
<glyph unicode="&#x149;" glyph-name="napostrophe" horiz-adv-x="575" d="M311 590Q311 532 273 486T172 420L165 436Q198 450 222 470T247 510Q247 525 237 529Q205 535 186 554T166 607Q166 633 185 653T233 674Q271 674 291 651T311 590ZM510 128Q510 107
511 84T516 49Q521 33 527 27T542 16Q548 14 555 13T568 11V0H303V11Q313 11 325 16Q336 21 341 30T349 56Q351 67 351 81T352 112V338Q352 380 338 394Q332 400 325 403T305 406Q296 406 286 401T267 386T249 359T238 318Q234 301 232 282T230 241V112Q230 96
230 82T233 56Q235 39 240 30T257 16Q269 11 280 11V0H14V11Q20 12 27 13T39 16Q47 20 54 26T66 49Q69 60 70 83T71 128V323Q71 339 71 359T68 391Q65 404 61 410T49 422Q42 427 34 428T18 431V443H223Q230 443 230 435Q230 430 230 420T229 397T229 373T228 353H231Q239
377 251 393T278 422Q298 436 325 444T377 452Q412 452 438 443T481 411Q495 392 502 368T510 309V128Z" />
<glyph unicode="&#x14a;" glyph-name="Eng" horiz-adv-x="699" d="M694 645Q683 645 676 643T660 639Q633 631 618 600Q611 583 606 559T601 487V-29Q601 -72 589 -104T555 -159T505 -192T446 -203Q370 -203 329 -165Q307 -146 295 -123T283 -67Q283 -16 309 6T369
29Q410 29 431 7T453 -50Q453 -62 450 -76T442 -105Q437 -122 432 -132T426 -149Q426 -166 436 -171T460 -177Q480 -177 499 -167T532 -144Q551 -124 561 -96T572 -29V-1L165 517H160V169Q160 121 165 97T177 56Q191 27 220 17Q228 15 235 14T254 11V0H38V11Q49
13 57 14T73 17Q85 21 96 31T115 56Q123 73 127 97T132 169V440Q132 543 110 585Q92 621 50 638Q42 641 34 643T17 645V657H293L569 280H572V487Q572 535 568 559T556 600Q549 616 537 625T513 639Q505 641 498 643T479 645V657H694V645Z" />
<glyph unicode="&#x14b;" glyph-name="eng" horiz-adv-x="549" d="M510 14Q510 -22 503 -49T485 -97T459 -133T432 -160Q425 -167 412 -176T381 -192T340 -205T289 -211Q263 -211 239 -205T195 -188Q175 -176 164 -157T152 -112Q152 -83 173 -63T226 -43Q259 -43
277 -61T296 -108Q296 -124 286 -146Q283 -154 280 -161T277 -173Q277 -181 281 -186T297 -191Q314 -191 323 -182T339 -156Q345 -141 349 -117T353 -63L352 338Q352 380 338 394Q332 400 325 403T305 406Q296 406 286 401T267 386T249 359T238 318Q234 301 232
282T230 241V112Q230 96 230 82T233 56Q235 39 240 30T257 16Q269 11 280 11V0H14V11Q20 12 27 13T39 16Q47 20 54 26T66 49Q69 60 70 83T71 128V323Q71 339 71 359T68 391Q65 404 61 410T49 422Q42 427 34 428T18 431V443H223Q230 443 230 435Q230 430 230 420T229
397T229 373T228 353H231Q239 377 251 393T278 422Q298 436 325 444T377 452Q412 452 438 443T481 411Q495 392 502 368T510 309V14Z" />
<glyph unicode="&#x14c;" glyph-name="Omacron" horiz-adv-x="702" d="M211 711V767H490V711H211ZM351 670Q423 670 482 646T584 578T650 471T673 328Q673 249 650 186T585 78T483 10T351 -14Q279 -14 220 10T118 78T52 185T29 328Q29 407 52 470T117 578T219
646T351 670ZM351 7Q366 7 382 10T412 24Q427 36 440 58T462 117T477 206T482 329Q482 400 477 451T463 539T440 597T412 632Q398 643 382 646T351 649Q335 649 320 646T290 632Q275 620 262 598T240 539T225 452T219 329Q219 258 224 206T239 118T262 59T290 24Q304
13 319 10T351 7Z" />
<glyph unicode="&#x14d;" glyph-name="omacron" horiz-adv-x="511" d="M132 540V597H378V540H132ZM21 221Q21 276 41 319T93 391T168 436T255 452Q300 452 342 437T417 392T469 319T489 221Q489 166 470 124T418 52T343 7T255 -9Q210 -9 168 6T93 51T41 123T21
221ZM323 221Q323 310 317 355T294 420Q287 428 276 431T255 435Q245 435 235 432T216 420Q200 401 194 356T187 221Q187 132 194 87T216 23Q224 14 234 11T255 7Q266 7 276 10T294 23Q310 42 316 87T323 221Z" />
<glyph unicode="&#x14e;" glyph-name="Obreve" horiz-adv-x="702" d="M493 843Q485 773 448 737T351 700Q290 700 253 736T208 843L221 850Q242 815 276 798T351 781Q391 781 425 798T480 850L493 843ZM351 670Q423 670 482 646T584 578T650 471T673 328Q673 249
650 186T585 78T483 10T351 -14Q279 -14 220 10T118 78T52 185T29 328Q29 407 52 470T117 578T219 646T351 670ZM351 7Q366 7 382 10T412 24Q427 36 440 58T462 117T477 206T482 329Q482 400 477 451T463 539T440 597T412 632Q398 643 382 646T351 649Q335 649
320 646T290 632Q275 620 262 598T240 539T225 452T219 329Q219 258 224 206T239 118T262 59T290 24Q304 13 319 10T351 7Z" />
<glyph unicode="&#x14f;" glyph-name="obreve" horiz-adv-x="511" d="M21 221Q21 276 41 319T93 391T168 436T255 452Q300 452 342 437T417 392T469 319T489 221Q489 166 470 124T418 52T343 7T255 -9Q210 -9 168 6T93 51T41 123T21 221ZM323 221Q323 310 317
355T294 420Q287 428 276 431T255 435Q245 435 235 432T216 420Q200 401 194 356T187 221Q187 132 194 87T216 23Q224 14 234 11T255 7Q266 7 276 10T294 23Q310 42 316 87T323 221ZM383 661Q378 591 345 552T255 513Q198 513 166 552T128 661L141 666Q158 630
189 612T255 593Q290 593 321 611T369 666L383 661Z" />
<glyph unicode="&#x150;" glyph-name="Ohungarumlaut" horiz-adv-x="702" d="M405 833Q405 813 388 797T351 768Q332 756 305 741T237 703H220Q235 726 245 743T263 775T277 802T292 826Q307 850 322 863T358 877Q405 877 405 833ZM577 833Q577 813 561 797T524
768Q505 756 478 741T409 703H393Q407 726 417 743T435 775T450 802T465 826Q480 850 495 863T531 877Q577 877 577 833ZM351 670Q423 670 482 646T584 578T650 471T673 328Q673 249 650 186T585 78T483 10T351 -14Q279 -14 220 10T118 78T52 185T29 328Q29 407
52 470T117 578T219 646T351 670ZM351 7Q366 7 382 10T412 24Q427 36 440 58T462 117T477 206T482 329Q482 400 477 451T463 539T440 597T412 632Q398 643 382 646T351 649Q335 649 320 646T290 632Q275 620 262 598T240 539T225 452T219 329Q219 258 224 206T239
118T262 59T290 24Q304 13 319 10T351 7Z" />
<glyph unicode="&#x151;" glyph-name="ohungarumlaut" horiz-adv-x="511" d="M435 671Q459 671 474 657T489 616Q489 598 478 583T448 554Q425 537 395 521T317 478L307 485Q319 509 328 528T343 563T356 592L368 618Q379 641 393 656T435 671ZM256 671Q280 671
295 657T310 616Q310 598 299 583T269 554Q246 537 216 521T139 478L129 485Q140 509 148 528T164 563T177 592T190 618Q201 641 215 656T256 671ZM21 221Q21 276 41 319T93 391T168 436T255 452Q300 452 342 437T417 392T469 319T489 221Q489 166 470 124T418
52T343 7T255 -9Q210 -9 168 6T93 51T41 123T21 221ZM323 221Q323 310 317 355T294 420Q287 428 276 431T255 435Q245 435 235 432T216 420Q200 401 194 356T187 221Q187 132 194 87T216 23Q224 14 234 11T255 7Q266 7 276 10T294 23Q310 42 316 87T323 221Z" />
<glyph unicode="&#x152;" glyph-name="OE" horiz-adv-x="983" d="M933 0H351Q278 0 219 21T117 84T52 187T29 329Q29 409 52 470T117 572T218 635T351 657H917L940 434H928Q913 470 891 508T839 580Q818 604 790 618T723 633H702Q683 633 672 629Q666 626 661
622T652 611Q639 589 639 547V352H671Q692 352 706 353T729 357T744 364T757 376Q776 395 790 427T808 485H820V197H808Q805 222 792 253T760 302Q754 308 747 312T731 321T707 327T671 329H639V141Q639 115 641 96T652 62Q659 47 672 37Q681 30 694 27T721 24H738Q794
24 837 75Q869 113 896 162T940 255H952L933 0ZM351 636Q334 636 319 633T291 619Q275 606 262 586T240 532T225 449T219 329Q219 258 224 209T239 125T262 71T291 37Q304 26 320 23T351 20Q380 20 400 34T434 84T453 179T459 329Q459 406 456 463T441 559T408
617T351 636Z" />
<glyph unicode="&#x153;" glyph-name="oe" horiz-adv-x="761" d="M742 270V251Q742 241 741 234H488V218Q488 177 492 148T502 99T516 66T533 44Q544 34 559 28T592 22Q620 22 642 33T680 63T707 102T724 143L739 138Q732 108 718 82T680 35T625 4T549 -8Q527
-8 505 -2T464 14T428 38T402 67Q376 36 337 14T254 -9Q209 -9 167 6T92 51T41 123T21 221Q21 276 40 319T92 391T167 436T254 452Q275 452 297 446T340 430T377 406T401 376Q410 392 426 405T463 429T504 446T547 452Q596 452 632 437T693 397T729 339T742 270ZM320
221Q320 310 315 355T292 419Q284 428 274 431T254 434Q243 434 234 431T216 420Q199 401 193 356T187 221Q187 132 193 87T216 23Q224 13 233 10T254 7Q265 7 274 10T292 23Q307 40 313 86T320 221ZM600 287Q600 335 596 369T578 421Q568 434 549 434Q528 434
514 419Q501 403 496 366T488 254H574Q589 254 594 261T600 287Z" />
<glyph unicode="&#x154;" glyph-name="Racute" horiz-adv-x="698" d="M435 852Q458 852 474 836T490 791Q490 765 470 751T424 731Q392 723 343 715T236 695L230 705Q275 743 304 768T358 815Q381 835 398 843T435 852ZM322 633Q297 633 288 617Q284 609 283 597T281
573V338H321Q353 338 371 346T401 373Q413 395 417 428T422 494Q422 563 404 598T341 633H322ZM371 0H19V11Q30 12 49 17Q66 21 78 32T97 68Q102 82 103 104T104 152V505Q104 559 96 589Q88 614 77 624T48 640Q39 642 32 643T19 645V657H379Q428 657 472 649T549
621T601 570T620 491Q620 438 594 402T524 347Q506 339 486 333T440 325V321Q464 318 492 311T539 292Q562 276 583 249T611 176Q621 113 632 78T661 26Q669 19 682 16T706 11V0H468Q454 19 443 53T427 130Q423 181 418 219T394 283Q378 304 360 308T312 312H281V152Q281
126 283 104T291 68Q298 43 309 32T338 17Q346 15 355 14T371 11V0Z" />
<glyph unicode="&#x155;" glyph-name="racute" horiz-adv-x="423" d="M396 619Q396 599 383 584T346 557Q319 543 277 527T177 488L170 498Q204 545 226 575T268 630Q286 653 301 666T337 679Q396 679 396 619ZM231 336Q241 371 255 393T283 426Q295 436 311 444T354
452Q373 452 388 448T415 432Q435 412 435 367Q435 331 414 313T369 295Q339 295 324 309T301 348Q295 366 291 373T279 381Q269 381 254 352T232 267Q231 261 231 241T230 200V113Q230 95 231 81T234 55Q237 39 244 31T262 17Q267 14 275 13T292 11V0H14V11Q20
12 27 13T40 16Q48 20 54 26T66 50Q70 61 71 84T72 128V325Q72 338 72 358T69 390Q67 404 63 410T52 422Q45 427 36 428T19 431V443H224Q230 443 230 435V417Q230 405 230 390T229 359T228 336H231Z" />
<glyph unicode="&#x156;" glyph-name="Rcommaaccent" horiz-adv-x="698" d="M440 -122Q440 -181 401 -216T299 -267L293 -251Q331 -239 354 -225T378 -192Q378 -177 366 -174Q333 -167 313 -152T293 -103Q293 -74 315 -57T362 -39Q395 -39 417 -61T440 -122ZM322
633Q297 633 288 617Q284 609 283 597T281 573V338H321Q353 338 371 346T401 373Q413 395 417 428T422 494Q422 563 404 598T341 633H322ZM371 0H19V11Q30 12 49 17Q66 21 78 32T97 68Q102 82 103 104T104 152V505Q104 559 96 589Q88 614 77 624T48 640Q39 642
32 643T19 645V657H379Q428 657 472 649T549 621T601 570T620 491Q620 438 594 402T524 347Q506 339 486 333T440 325V321Q464 318 492 311T539 292Q562 276 583 249T611 176Q621 113 632 78T661 26Q669 19 682 16T706 11V0H468Q454 19 443 53T427 130Q423 181
418 219T394 283Q378 304 360 308T312 312H281V152Q281 126 283 104T291 68Q298 43 309 32T338 17Q346 15 355 14T371 11V0Z" />
<glyph unicode="&#x157;" glyph-name="rcommaaccent" horiz-adv-x="423" d="M218 -112Q218 -171 179 -206T77 -257L71 -241Q109 -229 132 -215T156 -182Q156 -167 144 -164Q111 -157 91 -142T71 -93Q71 -64 93 -47T140 -29Q173 -29 195 -51T218 -112ZM231 336Q241
371 255 393T283 426Q295 436 311 444T354 452Q373 452 388 448T415 432Q435 412 435 367Q435 331 414 313T369 295Q339 295 324 309T301 348Q295 366 291 373T279 381Q269 381 254 352T232 267Q231 261 231 241T230 200V113Q230 95 231 81T234 55Q237 39 244 31T262
17Q267 14 275 13T292 11V0H14V11Q20 12 27 13T40 16Q48 20 54 26T66 50Q70 61 71 84T72 128V325Q72 338 72 358T69 390Q67 404 63 410T52 422Q45 427 36 428T19 431V443H224Q230 443 230 435V417Q230 405 230 390T229 359T228 336H231Z" />
<glyph unicode="&#x158;" glyph-name="Rcaron" horiz-adv-x="698" d="M208 846L344 787L480 846L489 837Q485 832 468 812T432 768T397 726T379 704H309Q307 707 291 726T256 768T220 811T199 837L208 846ZM322 633Q297 633 288 617Q284 609 283 597T281 573V338H321Q353
338 371 346T401 373Q413 395 417 428T422 494Q422 563 404 598T341 633H322ZM371 0H19V11Q30 12 49 17Q66 21 78 32T97 68Q102 82 103 104T104 152V505Q104 559 96 589Q88 614 77 624T48 640Q39 642 32 643T19 645V657H379Q428 657 472 649T549 621T601 570T620
491Q620 438 594 402T524 347Q506 339 486 333T440 325V321Q464 318 492 311T539 292Q562 276 583 249T611 176Q621 113 632 78T661 26Q669 19 682 16T706 11V0H468Q454 19 443 53T427 130Q423 181 418 219T394 283Q378 304 360 308T312 312H281V152Q281 126 283
104T291 68Q298 43 309 32T338 17Q346 15 355 14T371 11V0Z" />
<glyph unicode="&#x159;" glyph-name="rcaron" horiz-adv-x="423" d="M401 661Q398 657 389 643L368 612Q356 594 343 574T319 536T299 506T289 491H224Q223 493 215 505T196 535T171 573T146 612T125 643T113 661L124 670L257 582L390 670L401 661ZM231 336Q241
371 255 393T283 426Q295 436 311 444T354 452Q373 452 388 448T415 432Q435 412 435 367Q435 331 414 313T369 295Q339 295 324 309T301 348Q295 366 291 373T279 381Q269 381 254 352T232 267Q231 261 231 241T230 200V113Q230 95 231 81T234 55Q237 39 244 31T262
17Q267 14 275 13T292 11V0H14V11Q20 12 27 13T40 16Q48 20 54 26T66 50Q70 61 71 84T72 128V325Q72 338 72 358T69 390Q67 404 63 410T52 422Q45 427 36 428T19 431V443H224Q230 443 230 435V417Q230 405 230 390T229 359T228 336H231Z" />
<glyph unicode="&#x15a;" glyph-name="Sacute" horiz-adv-x="552" d="M469 437Q460 472 446 506T412 569Q389 604 358 626T281 648Q229 648 206 623T183 565Q183 533 193 513T222 478T265 452T319 429Q358 412 395 394T462 351T510 289T528 199Q528 146 508 106T454
40T373 0T276 -13Q250 -13 223 -7T172 8T129 30T100 55H96L61 2H48L44 240H59Q71 198 91 157T140 83T202 30T278 9Q334 9 358 36T382 105Q382 126 377 143T357 177T316 208T247 241Q212 254 176 272T109 318T60 384T40 475Q40 520 59 556T112 617T188 656T278 670Q327
670 363 654T418 614H421L458 655H471L482 437H469ZM369 852Q392 852 408 836T424 791Q424 765 404 751T358 731Q326 723 277 715T170 695L164 705Q209 743 238 768T292 815Q315 835 332 843T369 852Z" />
<glyph unicode="&#x15b;" glyph-name="sacute" horiz-adv-x="402" d="M352 619Q352 599 339 584T302 557Q275 543 233 527T133 488L126 498Q160 545 182 575T224 630Q242 653 257 666T293 679Q352 679 352 619ZM383 145Q383 110 369 82T331 34T275 2T205 -9Q172
-9 137 2T79 34H75L41 2H32L25 165H38Q46 132 62 104T101 53T150 19T205 6Q240 6 252 20T265 64Q265 95 239 113T164 149Q142 157 118 168T73 199T39 245T25 310Q25 342 38 368T74 413T129 442T198 452Q213 452 230 449T263 441T292 428T311 412H314L336 441H347L350
308H339Q332 332 320 355T289 395Q271 413 248 424T199 435Q173 435 157 423T140 382Q140 353 165 335T238 300Q267 289 293 277T339 248T371 205T383 145Z" />
<glyph unicode="&#x15c;" glyph-name="Scircumflex" horiz-adv-x="552" d="M414 704L278 763L142 704L133 713Q137 718 154 738T190 782T225 824T243 846H313Q315 843 331 824T366 782T402 739T423 713L414 704ZM469 437Q460 472 446 506T412 569Q389 604 358
626T281 648Q229 648 206 623T183 565Q183 533 193 513T222 478T265 452T319 429Q358 412 395 394T462 351T510 289T528 199Q528 146 508 106T454 40T373 0T276 -13Q250 -13 223 -7T172 8T129 30T100 55H96L61 2H48L44 240H59Q71 198 91 157T140 83T202 30T278
9Q334 9 358 36T382 105Q382 126 377 143T357 177T316 208T247 241Q212 254 176 272T109 318T60 384T40 475Q40 520 59 556T112 617T188 656T278 670Q327 670 363 654T418 614H421L458 655H471L482 437H469Z" />
<glyph unicode="&#x15d;" glyph-name="scircumflex" horiz-adv-x="402" d="M337 489L204 576L71 489L60 498Q63 502 72 515T92 547T117 585T142 623T162 653T171 668H236Q238 666 246 654T265 624T290 586T315 548T336 516T348 498L337 489ZM383 145Q383 110 369
82T331 34T275 2T205 -9Q172 -9 137 2T79 34H75L41 2H32L25 165H38Q46 132 62 104T101 53T150 19T205 6Q240 6 252 20T265 64Q265 95 239 113T164 149Q142 157 118 168T73 199T39 245T25 310Q25 342 38 368T74 413T129 442T198 452Q213 452 230 449T263 441T292
428T311 412H314L336 441H347L350 308H339Q332 332 320 355T289 395Q271 413 248 424T199 435Q173 435 157 423T140 382Q140 353 165 335T238 300Q267 289 293 277T339 248T371 205T383 145Z" />
<glyph unicode="&#x15e;" glyph-name="Scedilla" horiz-adv-x="552" d="M469 437Q460 472 446 506T412 569Q389 604 358 626T281 648Q229 648 206 623T183 565Q183 533 193 513T222 478T265 452T319 429Q358 412 395 394T462 351T510 289T528 199Q528 146 508
106T454 40T373 0T276 -13Q250 -13 223 -7T172 8T129 30T100 55H96L61 2H48L44 240H59Q71 198 91 157T140 83T202 30T278 9Q334 9 358 36T382 105Q382 126 377 143T357 177T316 208T247 241Q212 254 176 272T109 318T60 384T40 475Q40 520 59 556T112 617T188 656T278
670Q327 670 363 654T418 614H421L458 655H471L482 437H469ZM367 143Q367 120 357 105T331 80T293 66T248 62Q227 62 203 67T165 81L171 94Q182 89 198 86T228 82Q254 82 269 96T284 142Q284 170 272 183T245 196Q228 196 217 185L201 192L220 256H240L226 205Q233
210 248 214T276 218Q319 218 343 200T367 143Z" />
<glyph unicode="&#x15f;" glyph-name="scedilla" horiz-adv-x="402" d="M383 145Q383 110 369 82T331 34T275 2T205 -9Q172 -9 137 2T79 34H75L41 2H32L25 165H38Q46 132 62 104T101 53T150 19T205 6Q240 6 252 20T265 64Q265 95 239 113T164 149Q142 157 118
168T73 199T39 245T25 310Q25 342 38 368T74 413T129 442T198 452Q213 452 230 449T263 441T292 428T311 412H314L336 441H347L350 308H339Q332 332 320 355T289 395Q271 413 248 424T199 435Q173 435 157 423T140 382Q140 353 165 335T238 300Q267 289 293 277T339
248T371 205T383 145ZM292 143Q292 120 282 105T256 80T218 66T173 62Q152 62 128 67T90 81L96 94Q107 89 123 86T153 82Q179 82 194 96T209 142Q209 170 197 183T170 196Q153 196 142 185L126 192L145 256H165L151 205Q158 210 173 214T201 218Q244 218 268 200T292
143Z" />
<glyph unicode="&#x160;" glyph-name="Scaron" horiz-adv-x="552" d="M142 846L278 787L414 846L423 837Q419 832 402 812T366 768T331 726T313 704H243Q241 707 225 726T190 768T154 811T133 837L142 846ZM469 437Q460 472 446 506T412 569Q389 604 358 626T281
648Q229 648 206 623T183 565Q183 533 193 513T222 478T265 452T319 429Q358 412 395 394T462 351T510 289T528 199Q528 146 508 106T454 40T373 0T276 -13Q250 -13 223 -7T172 8T129 30T100 55H96L61 2H48L44 240H59Q71 198 91 157T140 83T202 30T278 9Q334 9
358 36T382 105Q382 126 377 143T357 177T316 208T247 241Q212 254 176 272T109 318T60 384T40 475Q40 520 59 556T112 617T188 656T278 670Q327 670 363 654T418 614H421L458 655H471L482 437H469Z" />
<glyph unicode="&#x161;" glyph-name="scaron" horiz-adv-x="402" d="M344 661Q341 657 332 643L311 612Q299 594 286 574T262 536T242 506T232 491H167Q166 493 158 505T139 535T114 573T89 612T68 643T56 661L67 670L200 582L333 670L344 661ZM383 145Q383 110
369 82T331 34T275 2T205 -9Q172 -9 137 2T79 34H75L41 2H32L25 165H38Q46 132 62 104T101 53T150 19T205 6Q240 6 252 20T265 64Q265 95 239 113T164 149Q142 157 118 168T73 199T39 245T25 310Q25 342 38 368T74 413T129 442T198 452Q213 452 230 449T263 441T292
428T311 412H314L336 441H347L350 308H339Q332 332 320 355T289 395Q271 413 248 424T199 435Q173 435 157 423T140 382Q140 353 165 335T238 300Q267 289 293 277T339 248T371 205T383 145Z" />
<glyph unicode="&#x162;" glyph-name="Tcommaaccent" horiz-adv-x="622" d="M385 -122Q385 -181 346 -216T244 -267L238 -251Q276 -239 299 -225T323 -192Q323 -177 311 -174Q278 -167 258 -152T238 -103Q238 -74 260 -57T307 -39Q340 -39 362 -61T385 -122ZM399
152Q399 98 408 68Q415 43 426 32T455 16Q471 12 484 12V0H138V12Q151 12 167 16Q184 21 195 32T215 68Q220 83 221 104T223 152V634H205Q176 634 153 618T101 563Q77 532 58 494L22 422H9L29 657H593L613 422H600Q582 456 563 493T523 560Q497 598 472 616T415
634H400L399 152Z" />
<glyph unicode="&#x163;" glyph-name="tcommaaccent" horiz-adv-x="340" d="M251 -112Q251 -171 212 -206T110 -257L104 -241Q142 -229 165 -215T189 -182Q189 -167 177 -164Q144 -157 124 -142T104 -93Q104 -64 126 -47T173 -29Q206 -29 228 -51T251 -112ZM339
63Q332 51 321 39T292 16T253 -2T203 -9Q167 -9 140 -1T97 21Q74 41 67 66T59 122V146Q59 167 59 196T60 260T60 325T61 381T62 415Q57 415 49 415T33 416H17Q10 416 6 417V435Q81 452 128 500T197 617H222V443H318V414H222L219 110Q219 83 228 63T269 42Q308 42
329 74L339 63Z" />
<glyph unicode="&#x164;" glyph-name="Tcaron" horiz-adv-x="622" d="M174 846L310 787L446 846L455 837Q451 832 434 812T398 768T363 726T345 704H275Q273 707 257 726T222 768T186 811T165 837L174 846ZM399 152Q399 98 408 68Q415 43 426 32T455 16Q471 12
484 12V0H138V12Q151 12 167 16Q184 21 195 32T215 68Q220 83 221 104T223 152V634H205Q176 634 153 618T101 563Q77 532 58 494L22 422H9L29 657H593L613 422H600Q582 456 563 493T523 560Q497 598 472 616T415 634H400L399 152Z" />
<glyph unicode="&#x165;" glyph-name="tcaron" horiz-adv-x="340" d="M285 686H388Q364 641 337 590T284 490H269L285 686ZM339 63Q332 51 321 39T292 16T253 -2T203 -9Q167 -9 140 -1T97 21Q74 41 67 66T59 122V146Q59 167 59 196T60 260T60 325T61 381T62 415Q57
415 49 415T33 416H17Q10 416 6 417V435Q81 452 128 500T197 617H222V443H318V414H222L219 110Q219 83 228 63T269 42Q308 42 329 74L339 63Z" />
<glyph unicode="&#x166;" glyph-name="Tbar" horiz-adv-x="622" d="M600 422Q582 456 563 493T523 560Q497 598 472 616T415 634H399V411H511V382H399V152Q399 98 408 68Q415 43 426 32T455 16Q471 12 484 12V0H138V12Q151 12 167 16Q184 21 195 32T215 68Q220
83 221 104T223 152V382H112V411H223V634H205Q176 634 153 618T101 563Q77 532 58 494L22 422H9L29 657H593L613 422H600Z" />
<glyph unicode="&#x167;" glyph-name="tbar" horiz-adv-x="340" d="M6 335H60Q61 361 61 381Q62 405 62 415Q57 415 49 415T33 416H17Q10 416 6 417V435Q81 452 128 500T197 617H222V443H318V414H222L221 335H318V310H221L219 110Q219 83 228 63T269 42Q308 42
329 74L339 63Q332 51 321 39T292 16T253 -2T203 -9Q167 -9 140 -1T97 21Q74 41 67 66T59 122V146Q59 167 59 196T60 260V310H6V335Z" />
<glyph unicode="&#x168;" glyph-name="Utilde" horiz-adv-x="679" d="M588 223Q588 180 581 143T558 76Q549 60 533 44T493 16T434 -5T354 -13Q314 -13 279 -8T213 9T159 42T119 94Q112 106 107 125T99 166T93 208T91 246V505Q91 532 90 553T83 590Q76 615 64
625T36 641Q28 643 20 644T6 646V657H354V645Q340 645 324 641Q307 636 296 626T276 590Q272 575 271 554T269 505V201Q269 173 272 149T285 106Q303 64 334 47T412 29Q456 29 488 48T537 104Q548 127 552 157T557 219V489Q557 537 553 561T541 602Q534 616 522
626T498 639Q484 644 463 646V657H682V646Q671 645 664 644T648 639Q635 636 624 627T605 601Q601 593 598 584T593 561T589 531T588 489V223ZM562 844Q557 821 550 798T531 755T499 724T452 712Q437 712 416 716T374 725T335 735T307 739Q286 739 271 732T246
699L229 703Q234 726 242 748T263 789T294 818T339 830Q352 830 372 826T414 817T454 807T482 803Q508 803 522 812T545 846L562 844Z" />
<glyph unicode="&#x169;" glyph-name="utilde" horiz-adv-x="561" d="M63 317Q63 337 62 360T58 394Q53 408 48 414T35 425Q29 428 21 429T6 432V443H215Q223 443 223 434Q223 428 223 398T222 331V109Q222 65 235 48Q248 33 269 33Q290 33 309 59T335 140Q337
156 337 170T338 205V332Q338 349 337 363T334 388Q330 416 314 425Q308 428 299 429T281 432V443H490Q498 443 498 434Q497 428 497 399V117Q497 101 498 82T501 52Q503 38 507 31T520 19Q527 14 535 13T551 11V-1H535Q520 -1 498 -1T449 -2T401 -3T363 -4H348Q344
-4 344 0Q342 1 342 7T341 17V87H338Q330 64 321 49T295 19Q275 4 252 -2T206 -9Q174 -9 147 -2T102 21Q80 42 72 71T63 134V317ZM437 662Q432 639 425 615T405 570T373 538T326 525Q311 525 293 528T258 536T226 545T201 549Q176 549 160 540T134 505L117 506Q122
529 130 553T151 596T183 628T228 641Q241 641 258 637T292 629T324 621T348 617Q377 617 394 627T419 663L437 662Z" />
<glyph unicode="&#x16a;" glyph-name="Umacron" horiz-adv-x="679" d="M588 223Q588 180 581 143T558 76Q549 60 533 44T493 16T434 -5T354 -13Q314 -13 279 -8T213 9T159 42T119 94Q112 106 107 125T99 166T93 208T91 246V505Q91 532 90 553T83 590Q76 615 64
625T36 641Q28 643 20 644T6 646V657H354V645Q340 645 324 641Q307 636 296 626T276 590Q272 575 271 554T269 505V201Q269 173 272 149T285 106Q303 64 334 47T412 29Q456 29 488 48T537 104Q548 127 552 157T557 219V489Q557 537 553 561T541 602Q534 616 522
626T498 639Q484 644 463 646V657H682V646Q671 645 664 644T648 639Q635 636 624 627T605 601Q601 593 598 584T593 561T589 531T588 489V223ZM248 711V767H527V711H248Z" />
<glyph unicode="&#x16b;" glyph-name="umacron" horiz-adv-x="561" d="M63 317Q63 337 62 360T58 394Q53 408 48 414T35 425Q29 428 21 429T6 432V443H215Q223 443 223 434Q223 428 223 398T222 331V109Q222 65 235 48Q248 33 269 33Q290 33 309 59T335 140Q337
156 337 170T338 205V332Q338 349 337 363T334 388Q330 416 314 425Q308 428 299 429T281 432V443H490Q498 443 498 434Q497 428 497 399V117Q497 101 498 82T501 52Q503 38 507 31T520 19Q527 14 535 13T551 11V-1H535Q520 -1 498 -1T449 -2T401 -3T363 -4H348Q344
-4 344 0Q342 1 342 7T341 17V87H338Q330 64 321 49T295 19Q275 4 252 -2T206 -9Q174 -9 147 -2T102 21Q80 42 72 71T63 134V317ZM153 540V597H399V540H153Z" />
<glyph unicode="&#x16c;" glyph-name="Ubreve" horiz-adv-x="679" d="M588 223Q588 180 581 143T558 76Q549 60 533 44T493 16T434 -5T354 -13Q314 -13 279 -8T213 9T159 42T119 94Q112 106 107 125T99 166T93 208T91 246V505Q91 532 90 553T83 590Q76 615 64
625T36 641Q28 643 20 644T6 646V657H354V645Q340 645 324 641Q307 636 296 626T276 590Q272 575 271 554T269 505V201Q269 173 272 149T285 106Q303 64 334 47T412 29Q456 29 488 48T537 104Q548 127 552 157T557 219V489Q557 537 553 561T541 602Q534 616 522
626T498 639Q484 644 463 646V657H682V646Q671 645 664 644T648 639Q635 636 624 627T605 601Q601 593 598 584T593 561T589 531T588 489V223ZM530 843Q522 773 485 737T388 700Q327 700 290 736T245 843L258 850Q279 815 313 798T388 781Q428 781 462 798T517
850L530 843Z" />
<glyph unicode="&#x16d;" glyph-name="ubreve" horiz-adv-x="561" d="M63 317Q63 337 62 360T58 394Q53 408 48 414T35 425Q29 428 21 429T6 432V443H215Q223 443 223 434Q223 428 223 398T222 331V109Q222 65 235 48Q248 33 269 33Q290 33 309 59T335 140Q337
156 337 170T338 205V332Q338 349 337 363T334 388Q330 416 314 425Q308 428 299 429T281 432V443H490Q498 443 498 434Q497 428 497 399V117Q497 101 498 82T501 52Q503 38 507 31T520 19Q527 14 535 13T551 11V-1H535Q520 -1 498 -1T449 -2T401 -3T363 -4H348Q344
-4 344 0Q342 1 342 7T341 17V87H338Q330 64 321 49T295 19Q275 4 252 -2T206 -9Q174 -9 147 -2T102 21Q80 42 72 71T63 134V317ZM404 661Q399 591 366 552T276 513Q219 513 187 552T149 661L162 666Q179 630 210 612T276 593Q311 593 342 611T390 666L404 661Z"
/>
<glyph unicode="&#x16e;" glyph-name="Uring" horiz-adv-x="679" d="M588 223Q588 180 581 143T558 76Q549 60 533 44T493 16T434 -5T354 -13Q314 -13 279 -8T213 9T159 42T119 94Q112 106 107 125T99 166T93 208T91 246V505Q91 532 90 553T83 590Q76 615 64 625T36
641Q28 643 20 644T6 646V657H354V645Q340 645 324 641Q307 636 296 626T276 590Q272 575 271 554T269 505V201Q269 173 272 149T285 106Q303 64 334 47T412 29Q456 29 488 48T537 104Q548 127 552 157T557 219V489Q557 537 553 561T541 602Q534 616 522 626T498
639Q484 644 463 646V657H682V646Q671 645 664 644T648 639Q635 636 624 627T605 601Q601 593 598 584T593 561T589 531T588 489V223ZM493 770Q493 750 486 734T466 705T436 687T401 680Q363 680 336 704T309 770Q309 811 336 835T401 860Q439 860 465 836T493
770ZM461 770Q461 799 444 815T400 832Q374 832 357 816T340 770Q340 741 357 725T400 709Q426 709 443 724T461 770Z" />
<glyph unicode="&#x16f;" glyph-name="uring" horiz-adv-x="561" d="M367 590Q367 570 360 554T340 525T310 507T275 500Q237 500 210 524T183 590Q183 631 210 655T275 680Q313 680 339 656T367 590ZM335 589Q335 618 318 635T274 652Q248 652 231 636T214 590Q214
561 231 545T274 528Q300 528 317 544T335 589ZM63 317Q63 337 62 360T58 394Q53 408 48 414T35 425Q29 428 21 429T6 432V443H215Q223 443 223 434Q223 428 223 398T222 331V109Q222 65 235 48Q248 33 269 33Q290 33 309 59T335 140Q337 156 337 170T338 205V332Q338
349 337 363T334 388Q330 416 314 425Q308 428 299 429T281 432V443H490Q498 443 498 434Q497 428 497 399V117Q497 101 498 82T501 52Q503 38 507 31T520 19Q527 14 535 13T551 11V-1H535Q520 -1 498 -1T449 -2T401 -3T363 -4H348Q344 -4 344 0Q342 1 342 7T341
17V87H338Q330 64 321 49T295 19Q275 4 252 -2T206 -9Q174 -9 147 -2T102 21Q80 42 72 71T63 134V317Z" />
<glyph unicode="&#x170;" glyph-name="Uhungarumlaut" horiz-adv-x="679" d="M442 833Q442 813 425 797T388 768Q369 756 342 741T274 703H257Q272 726 282 743T300 775T314 802T329 826Q344 850 359 863T395 877Q442 877 442 833ZM614 833Q614 813 598 797T561
768Q542 756 515 741T446 703H430Q444 726 454 743T472 775T487 802T502 826Q517 850 532 863T568 877Q614 877 614 833ZM588 223Q588 180 581 143T558 76Q549 60 533 44T493 16T434 -5T354 -13Q314 -13 279 -8T213 9T159 42T119 94Q112 106 107 125T99 166T93
208T91 246V505Q91 532 90 553T83 590Q76 615 64 625T36 641Q28 643 20 644T6 646V657H354V645Q340 645 324 641Q307 636 296 626T276 590Q272 575 271 554T269 505V201Q269 173 272 149T285 106Q303 64 334 47T412 29Q456 29 488 48T537 104Q548 127 552 157T557
219V489Q557 537 553 561T541 602Q534 616 522 626T498 639Q484 644 463 646V657H682V646Q671 645 664 644T648 639Q635 636 624 627T605 601Q601 593 598 584T593 561T589 531T588 489V223Z" />
<glyph unicode="&#x171;" glyph-name="uhungarumlaut" horiz-adv-x="561" d="M63 317Q63 337 62 360T58 394Q53 408 48 414T35 425Q29 428 21 429T6 432V443H215Q223 443 223 434Q223 428 223 398T222 331V109Q222 65 235 48Q248 33 269 33Q290 33 309 59T335
140Q337 156 337 170T338 205V332Q338 349 337 363T334 388Q330 416 314 425Q308 428 299 429T281 432V443H490Q498 443 498 434Q497 428 497 399V117Q497 101 498 82T501 52Q503 38 507 31T520 19Q527 14 535 13T551 11V-1H535Q520 -1 498 -1T449 -2T401 -3T363
-4H348Q344 -4 344 0Q342 1 342 7T341 17V87H338Q330 64 321 49T295 19Q275 4 252 -2T206 -9Q174 -9 147 -2T102 21Q80 42 72 71T63 134V317ZM455 671Q479 671 494 657T509 616Q509 598 498 583T468 554Q445 537 415 521T337 478L327 485Q339 509 348 528T363 563T376
592L388 618Q399 641 413 656T455 671ZM276 671Q300 671 315 657T330 616Q330 598 319 583T289 554Q266 537 236 521T159 478L149 485Q160 509 168 528T184 563T197 592T210 618Q221 641 235 656T276 671Z" />
<glyph unicode="&#x172;" glyph-name="Uogonek" horiz-adv-x="679" d="M280 -134Q280 -112 291 -95T321 -64T367 -35T424 -6Q409 -9 390 -11T354 -13Q314 -13 279 -8T213 9T159 42T119 94Q112 106 107 125T99 166T93 208T91 246V505Q91 532 90 553T83 590Q76 615
64 625T36 641Q28 643 20 644T6 646V657H354V645Q340 645 324 641Q307 636 296 626T276 590Q272 575 271 554T269 505V201Q269 173 272 149T285 106Q303 64 334 47T412 29Q456 29 488 48T537 104Q548 127 552 157T557 219V489Q557 537 553 561T541 602Q534 616
522 626T498 639Q484 644 463 646V657H682V646Q671 645 664 644T648 639Q635 636 624 627T605 601Q601 593 598 584T593 561T589 531T588 489V223Q588 180 581 143T558 76Q548 59 533 45T499 19Q472 5 453 -10T421 -42T404 -82T398 -132Q398 -169 414 -185T464
-205V-216Q371 -221 326 -199T280 -134Z" />
<glyph unicode="&#x173;" glyph-name="uogonek" horiz-adv-x="561" d="M380 -216Q287 -221 242 -199T196 -134Q196 -111 209 -94T244 -62T290 -36T341 -13V87H338Q330 64 321 49T295 19Q275 4 252 -2T206 -9Q174 -9 147 -2T102 21Q80 42 72 71T63 134V317Q63 337
62 360T58 394Q53 408 48 414T35 425Q29 428 21 429T6 432V443H215Q223 443 223 434Q223 428 223 398T222 331V109Q222 65 235 48Q248 33 269 33Q290 33 309 59T335 140Q337 156 337 170T338 205V332Q338 349 337 363T334 388Q330 416 314 425Q308 428 299 429T281
432V443H490Q498 443 498 434Q497 428 497 399V117Q497 101 498 82T501 52Q503 38 507 31T520 19Q527 14 535 13T551 11V-1H536Q522 -1 506 -1T475 -2H461Q417 -3 389 -13T344 -40T321 -81T314 -132Q314 -169 330 -185T380 -205V-216Z" />
<glyph unicode="&#x174;" glyph-name="Wcircumflex" horiz-adv-x="988" d="M684 704L548 763L412 704L403 713Q407 718 424 738T460 782T495 824T513 846H583Q585 843 601 824T636 782T672 739T693 713L684 704ZM496 485L336 -4H254L107 499Q98 529 90 550T71
587T49 614T20 634Q12 639 0 642T-20 646V657H346V646Q324 642 307 631T289 587Q289 568 293 549T305 503L378 234H382L480 538Q460 599 433 620Q422 631 409 637T380 646V657H745V646Q732 644 719 641T696 631T680 614T674 587Q674 568 678 549T691 503L763 234H768L854
507Q862 530 866 550T870 585Q870 619 849 631T798 646V657H1005V646Q980 641 961 632T925 596Q917 582 908 560T887 505L721 -4H639L496 485Z" />
<glyph unicode="&#x175;" glyph-name="wcircumflex" horiz-adv-x="714" d="M545 489L412 576L279 489L268 498Q271 502 280 515T300 547T325 585T350 623T370 653T379 668H444Q446 666 454 654T473 624T498 586T523 548T544 516T556 498L545 489ZM357 309L257
-3H170L68 310Q59 339 51 360T34 393Q26 407 22 413T9 424Q3 428 -4 429L-17 432V443H265V432Q248 430 239 424Q233 419 229 411T225 392Q225 378 228 364T237 328L284 152H286Q290 165 298 191T316 246T333 301T346 342Q341 357 337 368T329 388Q321 403 316 410T303
423Q297 428 292 429T280 432V443H560V432Q552 431 543 430T528 424Q513 416 513 391Q513 377 516 362T526 326L570 152H572L627 322Q635 349 638 364T642 395Q642 407 638 413T625 424Q619 428 612 429T597 432V443H732V432Q726 431 719 430T703 423Q697 419 691
414T679 400Q672 389 666 372T650 325L544 -3H457L357 309Z" />
<glyph unicode="&#x176;" glyph-name="Ycircumflex" horiz-adv-x="657" d="M113 545Q102 569 91 586T67 616T38 635T2 646V657H358V646Q350 645 341 644T323 639Q297 628 296 600T314 529L404 326H409L492 507Q506 538 513 559T520 598Q520 627 491 638Q483 641
473 643T455 646V657H660V646Q638 642 620 633T586 608T554 567T523 508L422 286V156Q422 127 423 105T430 67Q437 43 448 33T477 17Q497 12 508 12V0H158V12Q169 12 189 17Q206 22 218 32T237 67Q241 83 242 105T244 156V270L113 545ZM516 704L380 763L244 704L235
713Q239 718 256 738T292 782T327 824T345 846H415Q417 843 433 824T468 782T504 739T525 713L516 704Z" />
<glyph unicode="&#x177;" glyph-name="ycircumflex" horiz-adv-x="458" d="M238 -84Q225 -119 211 -140T182 -177Q147 -213 92 -213Q53 -213 25 -194T-3 -131Q-3 -108 13 -89T62 -70Q87 -70 102 -83T127 -121Q134 -138 136 -150T152 -163Q164 -163 179 -145T210
-86Q223 -56 223 -52Q227 -40 220 -25L87 310Q75 341 66 359T51 387Q43 401 36 408T19 422Q12 427 3 429T-14 432V443H286V432Q278 431 270 430T256 424Q239 415 239 393Q239 379 244 364T256 326L309 163H311L368 322Q377 347 380 362T384 393Q384 405 379 412T366
425Q359 429 352 430T336 432V443H485V432Q445 427 424 394Q418 384 412 369T395 325Q392 317 380 285T350 208T314 113T278 21T251 -51T238 -84ZM410 489L277 576L144 489L133 498Q136 502 145 515T165 547T190 585T215 623T235 653T244 668H309Q311 666 319 654T338
624T363 586T388 548T409 516T421 498L410 489Z" />
<glyph unicode="&#x178;" glyph-name="Ydieresis" horiz-adv-x="657" d="M113 545Q102 569 91 586T67 616T38 635T2 646V657H358V646Q350 645 341 644T323 639Q297 628 296 600T314 529L404 326H409L492 507Q506 538 513 559T520 598Q520 627 491 638Q483 641
473 643T455 646V657H660V646Q638 642 620 633T586 608T554 567T523 508L422 286V156Q422 127 423 105T430 67Q437 43 448 33T477 17Q497 12 508 12V0H158V12Q169 12 189 17Q206 22 218 32T237 67Q241 83 242 105T244 156V270L113 545ZM267 847Q297 847 317 826T338
775Q338 746 318 726T267 705Q235 705 216 725T196 775Q196 804 216 825T267 847ZM495 847Q525 847 545 826T566 775Q566 746 546 726T495 705Q464 705 444 725T424 775Q424 804 444 825T495 847Z" />
<glyph unicode="&#x179;" glyph-name="Zacute" horiz-adv-x="609" d="M420 852Q443 852 459 836T475 791Q475 765 455 751T409 731Q377 723 328 715T221 695L215 705Q260 743 289 768T343 815Q366 835 383 843T420 852ZM589 646L247 29H302Q333 29 357 32T401
43T437 62T467 87Q489 108 505 127T533 166T557 203T580 240H594L554 0H29V12L392 627H324Q272 627 232 613T171 582Q158 573 144 558T115 524T88 485T62 445H48L79 657H589V646Z" />
<glyph unicode="&#x17a;" glyph-name="zacute" horiz-adv-x="445" d="M373 619Q373 599 360 584T323 557Q296 543 254 527T154 488L147 498Q181 545 203 575T245 630Q263 653 278 666T314 679Q373 679 373 619ZM400 0H9V9L227 419V423H154Q131 423 114 411T85
383Q81 379 65 352T22 268H8L38 443H407V430L192 21V17H257Q285 17 308 33T346 70Q349 73 359 89T382 124T404 159T417 180H430L400 0Z" />
<glyph unicode="&#x17b;" glyph-name="Zdotaccent" horiz-adv-x="609" d="M589 646L247 29H302Q333 29 357 32T401 43T437 62T467 87Q489 108 505 127T533 166T557 203T580 240H594L554 0H29V12L392 627H324Q272 627 232 613T171 582Q158 573 144 558T115 524T88
485T62 445H48L79 657H589V646ZM410 783Q410 750 387 727T328 703Q293 703 270 727T247 783Q247 817 270 841T328 866Q363 866 386 842T410 783Z" />
<glyph unicode="&#x17c;" glyph-name="zdotaccent" horiz-adv-x="445" d="M400 0H9V9L227 419V423H154Q131 423 114 411T85 383Q81 379 65 352T22 268H8L38 443H407V430L192 21V17H257Q285 17 308 33T346 70Q349 73 359 89T382 124T404 159T417 180H430L400 0ZM224
506Q189 506 166 529T143 586Q143 620 166 644T224 668Q259 668 282 644T306 586Q306 553 283 530T224 506Z" />
<glyph unicode="&#x17d;" glyph-name="Zcaron" horiz-adv-x="609" d="M193 846L329 787L465 846L474 837Q470 832 453 812T417 768T382 726T364 704H294Q292 707 276 726T241 768T205 811T184 837L193 846ZM589 646L247 29H302Q333 29 357 32T401 43T437 62T467
87Q489 108 505 127T533 166T557 203T580 240H594L554 0H29V12L392 627H324Q272 627 232 613T171 582Q158 573 144 558T115 524T88 485T62 445H48L79 657H589V646Z" />
<glyph unicode="&#x17e;" glyph-name="zcaron" horiz-adv-x="445" d="M374 661Q371 657 362 643L341 612Q329 594 316 574T292 536T272 506T262 491H197Q196 493 188 505T169 535T144 573T119 612T98 643T86 661L97 670L230 582L363 670L374 661ZM400 0H9V9L227
419V423H154Q131 423 114 411T85 383Q81 379 65 352T22 268H8L38 443H407V430L192 21V17H257Q285 17 308 33T346 70Q349 73 359 89T382 124T404 159T417 180H430L400 0Z" />
<glyph unicode="&#x192;" glyph-name="florin" horiz-adv-x="481" d="M549 571Q549 531 528 515T477 498Q441 498 424 518T406 560Q405 573 410 595T415 631Q414 642 409 645T395 649Q388 649 380 643T363 620Q346 589 332 540T300 425H389L382 397H293Q282 352
271 303T248 205T224 111T198 26Q182 -21 156 -59T96 -124T20 -167T-68 -182Q-131 -182 -170 -155T-209 -85Q-209 -65 -203 -53T-187 -33T-166 -22T-144 -19Q-109 -19 -95 -39T-80 -82Q-79 -94 -83 -110T-86 -138Q-84 -149 -80 -154T-63 -159Q-43 -159 -27 -143T3
-91Q24 -35 39 26T66 149L91 274Q104 337 119 397H49L55 425H126Q130 443 134 457T145 487Q164 535 194 569T260 626T332 658T402 669Q468 669 508 642T549 571Z" />
<glyph unicode="&#x1fa;" glyph-name="Aringacute" horiz-adv-x="641" d="M240 438H235L157 216H314L240 438ZM-19 12Q4 15 23 26Q34 33 43 42T64 68Q83 95 104 153L290 662H359L513 211Q530 160 546 122T576 61Q587 44 598 35T622 21Q630 18 639 16T656 12V0H282V12Q291
13 302 15T320 21Q334 26 344 37T354 69Q354 89 349 109T334 155L322 192H149L134 148Q127 129 122 110T117 75Q117 53 126 40T150 21Q161 16 171 15T189 12V0H-19V12ZM411 1054Q434 1054 450 1038T466 993Q466 967 446 953T400 933Q368 925 319 917T212 897L206
907Q251 945 280 970T334 1017Q357 1037 374 1045T411 1054ZM413 791Q413 771 406 755T386 726T356 708T321 701Q283 701 256 725T229 791Q229 832 256 856T321 881Q359 881 385 857T413 791ZM381 791Q381 820 364 836T320 853Q294 853 277 837T260 791Q260 762
277 746T320 730Q346 730 363 745T381 791Z" />
<glyph unicode="&#x1fb;" glyph-name="aringacute" horiz-adv-x="481" d="M363 -9Q332 -9 314 -3T285 15Q268 30 267 61H264Q253 23 220 7T142 -9Q120 -9 99 -3T61 18T34 53T23 106Q23 134 31 150T51 179Q60 189 73 196T100 209T130 219T158 227Q189 235 208 243T238
261T254 281T260 304V321Q260 332 260 343T261 363V378Q261 411 251 422T215 434Q195 434 187 427T176 413Q174 405 175 389T174 352Q171 291 110 291Q81 291 64 305T47 347Q47 360 51 372T63 393Q82 419 126 435T223 452Q314 452 364 423T415 324V109Q415 74 417
59T425 35Q434 25 451 25Q465 25 477 31L479 20Q470 11 440 1T363 -9ZM259 260Q252 250 245 245T227 232Q215 224 207 216T193 194Q187 182 185 159T182 111Q182 69 192 53T220 36Q232 36 244 53T258 100L259 260ZM328 841Q328 821 321 805T301 776T271 758T236
751Q198 751 171 775T144 841Q144 882 171 906T236 931Q274 931 300 907T328 841ZM296 840Q296 869 279 886T235 903Q209 903 192 887T175 841Q175 812 192 796T235 779Q261 779 278 795T296 840ZM332 1107Q355 1107 371 1091T387 1046Q387 1020 367 1006T321 986Q289
978 240 970T133 950L127 960Q172 998 201 1023T255 1070Q278 1090 295 1098T332 1107Z" />
<glyph unicode="&#x1fc;" glyph-name="AEacute" horiz-adv-x="923" d="M707 852Q730 852 746 836T762 791Q762 765 742 751T696 731Q664 723 615 715T508 695L502 705Q547 743 576 768T630 815Q653 835 670 843T707 852ZM321 0V11Q335 11 352 17Q369 21 380 31T400
68Q408 98 408 156V219H184L151 161Q146 152 141 141T133 117T127 94T124 75Q124 53 133 40T156 21Q167 16 177 15T195 12V0H-22V12Q1 15 20 28T56 61T89 108T122 165L383 619Q378 628 370 632T352 639Q344 642 336 643T321 644V657H856L879 434H866Q851 470 830
508T778 580Q757 604 729 618T662 633H647Q632 633 621 630T602 617Q591 605 587 586T583 547V353H614Q635 353 649 354T672 357T687 364T700 376Q719 396 733 428T751 485H764V197H751Q748 222 735 253T703 302Q697 308 690 312T674 321T650 327T614 329H583V141Q583
114 586 89T603 49Q625 24 665 24H682Q710 24 734 37T778 76Q809 115 836 163T880 255H892L873 0H321ZM408 501Q408 530 406 553T398 595L198 243H408V501Z" />
<glyph unicode="&#x1fd;" glyph-name="aeacute" horiz-adv-x="697" d="M517 619Q517 599 504 584T467 557Q440 543 398 527T298 488L291 498Q325 545 347 575T389 630Q407 653 422 666T458 679Q517 679 517 619ZM156 -9Q134 -9 111 -3T68 18T36 53T23 106Q23 134
31 150T51 180Q60 189 73 196T100 209T130 219T158 227Q189 235 208 243T238 261T254 281T260 304V321Q260 332 260 343T261 363V378Q261 411 251 422T215 434Q201 434 190 429T176 413Q174 405 175 389T174 353Q172 324 158 308T110 291Q80 291 64 305T47 347Q47
374 63 393Q74 407 92 418T131 436T176 448T223 452Q267 452 302 437T355 398Q380 424 417 438T486 452Q531 452 567 438T629 399T668 340T682 267Q682 259 682 250T680 234H427Q427 187 431 156T441 102T455 67T472 44Q482 34 497 28T530 22Q558 22 580 33T619
63T646 102T663 143L678 138Q671 108 657 82T620 35T565 3T489 -9Q451 -9 413 2T344 35Q314 57 291 92Q275 40 240 16T156 -9ZM540 287Q540 333 536 367T519 419Q508 434 488 434Q468 434 453 418Q440 403 434 365T427 253H514Q528 254 534 261T540 287ZM259 260Q252
250 244 245T226 232Q214 224 207 216T193 194Q187 182 184 160T181 112Q181 70 191 51T219 32Q234 32 245 49T258 96L259 260Z" />
<glyph unicode="&#x1fe;" glyph-name="Oslashacute" horiz-adv-x="702" d="M351 670Q423 670 482 646Q496 640 509 634L558 717L579 705L530 622Q560 603 584 578Q627 534 650 471T673 328Q673 249 650 186T585 78T483 10T351 -14Q279 -14 219 10Q198 18 179 29L126
-60L106 -48L159 42Q136 58 117 78Q75 122 52 185T29 328Q29 407 52 470T117 578T219 646T351 670ZM351 7Q366 7 382 10T412 24Q427 36 440 58T462 117T477 206T482 329Q482 400 477 451Q473 488 467 516L237 127Q238 122 239 117Q249 81 262 59T290 24Q304 13
319 10T351 7ZM440 597Q427 620 412 632Q398 643 382 646T351 649Q335 649 320 646T290 632Q275 620 262 598T240 539T225 452T219 329Q219 258 224 206Q227 182 230 162L459 550Q451 578 440 597ZM442 852Q465 852 481 836T497 791Q497 765 477 751T431 731Q399
723 350 715T243 695L237 705Q282 743 311 768T365 815Q388 835 405 843T442 852Z" />
<glyph unicode="&#x1ff;" glyph-name="oslashacute" horiz-adv-x="511" d="M21 221Q21 276 41 319T93 391T168 436T255 452Q294 452 331 440L366 527L386 518L351 433Q387 417 417 391Q450 362 469 319T489 221Q489 166 470 124T418 52T343 7T255 -9Q215 -9 178
3L143 -85L123 -76L157 10Q122 25 93 51Q60 81 41 123T21 221ZM323 221Q323 303 317 348L200 57Q206 35 216 23Q224 14 234 11T255 7Q266 7 276 10T294 23Q310 42 316 87T323 221ZM294 420Q287 428 276 431T255 435Q245 435 235 432T216 420Q200 401 194 356T187
221Q187 141 192 96L309 387Q303 408 294 420ZM403 619Q403 599 390 584T353 557Q326 543 284 527T184 488L177 498Q211 545 233 575T275 630Q293 653 308 666T344 679Q403 679 403 619Z" />
<glyph unicode="&#x218;" glyph-name="Scommaaccent" horiz-adv-x="552" d="M342 -122Q342 -181 303 -216T201 -267L195 -251Q233 -239 256 -225T280 -192Q280 -177 268 -174Q235 -167 215 -152T195 -103Q195 -74 217 -57T264 -39Q297 -39 319 -61T342 -122ZM469
437Q460 472 446 506T412 569Q389 604 358 626T281 648Q229 648 206 623T183 565Q183 533 193 513T222 478T265 452T319 429Q358 412 395 394T462 351T510 289T528 199Q528 146 508 106T454 40T373 0T276 -13Q250 -13 223 -7T172 8T129 30T100 55H96L61 2H48L44
240H59Q71 198 91 157T140 83T202 30T278 9Q334 9 358 36T382 105Q382 126 377 143T357 177T316 208T247 241Q212 254 176 272T109 318T60 384T40 475Q40 520 59 556T112 617T188 656T278 670Q327 670 363 654T418 614H421L458 655H471L482 437H469Z" />
<glyph unicode="&#x219;" glyph-name="scommaaccent" horiz-adv-x="402" d="M270 -112Q270 -171 231 -206T129 -257L123 -241Q161 -229 184 -215T208 -182Q208 -167 196 -164Q163 -157 143 -142T123 -93Q123 -64 145 -47T192 -29Q225 -29 247 -51T270 -112ZM383
145Q383 110 369 82T331 34T275 2T205 -9Q172 -9 137 2T79 34H75L41 2H32L25 165H38Q46 132 62 104T101 53T150 19T205 6Q240 6 252 20T265 64Q265 95 239 113T164 149Q142 157 118 168T73 199T39 245T25 310Q25 342 38 368T74 413T129 442T198 452Q213 452 230
449T263 441T292 428T311 412H314L336 441H347L350 308H339Q332 332 320 355T289 395Q271 413 248 424T199 435Q173 435 157 423T140 382Q140 353 165 335T238 300Q267 289 293 277T339 248T371 205T383 145Z" />
<glyph unicode="&#x21a;" glyph-name="uni021A" horiz-adv-x="622" d="M385 -122Q385 -181 346 -216T244 -267L238 -251Q276 -239 299 -225T323 -192Q323 -177 311 -174Q278 -167 258 -152T238 -103Q238 -74 260 -57T307 -39Q340 -39 362 -61T385 -122ZM399 152Q399
98 408 68Q415 43 426 32T455 16Q471 12 484 12V0H138V12Q151 12 167 16Q184 21 195 32T215 68Q220 83 221 104T223 152V634H205Q176 634 153 618T101 563Q77 532 58 494L22 422H9L29 657H593L613 422H600Q582 456 563 493T523 560Q497 598 472 616T415 634H400L399
152Z" />
<glyph unicode="&#x21b;" glyph-name="uni021B" horiz-adv-x="340" d="M251 -112Q251 -171 212 -206T110 -257L104 -241Q142 -229 165 -215T189 -182Q189 -167 177 -164Q144 -157 124 -142T104 -93Q104 -64 126 -47T173 -29Q206 -29 228 -51T251 -112ZM339 63Q332
51 321 39T292 16T253 -2T203 -9Q167 -9 140 -1T97 21Q74 41 67 66T59 122V146Q59 167 59 196T60 260T60 325T61 381T62 415Q57 415 49 415T33 416H17Q10 416 6 417V435Q81 452 128 500T197 617H222V443H318V414H222L219 110Q219 83 228 63T269 42Q308 42 329 74L339
63Z" />
<glyph unicode="&#x237;" glyph-name="uni0237" horiz-adv-x="273" d="M225 435Q224 423 224 407T223 370V11Q223 -27 215 -55T195 -105T169 -141T141 -167Q134 -173 122 -180T92 -195T51 -208T-1 -213Q-28 -213 -54 -206T-101 -187Q-122 -173 -135 -151T-149
-99Q-149 -67 -127 -43T-68 -19Q-32 -19 -13 -41T7 -96Q7 -105 4 -117T-3 -141Q-7 -149 -9 -157T-12 -171Q-12 -180 -8 -186T8 -193Q25 -193 34 -183T51 -157Q56 -142 60 -118T64 -65V323Q64 338 63 359T60 391Q55 414 41 422Q34 427 26 428T10 431V443H218Q225
443 225 435Z" />
<glyph unicode="&#x2c6;" glyph-name="circumflex" horiz-adv-x="390" d="M328 489L195 576L62 489L51 498Q54 502 63 515T83 547T108 585T133 623T153 653T162 668H227Q229 666 237 654T256 624T281 586T306 548T327 516T339 498L328 489Z" />
<glyph unicode="&#x2c7;" glyph-name="caron" horiz-adv-x="390" d="M339 661Q336 657 327 643L306 612Q294 594 281 574T257 536T237 506T227 491H162Q161 493 153 505T134 535T109 573T84 612T63 643T51 661L62 670L195 582L328 670L339 661Z" />
<glyph unicode="&#x2d8;" glyph-name="breve" horiz-adv-x="364" d="M315 661Q310 591 277 552T187 513Q130 513 98 552T60 661L73 666Q90 630 121 612T187 593Q222 593 253 611T301 666L315 661Z" />
<glyph unicode="&#x2d9;" glyph-name="dotaccent" horiz-adv-x="315" d="M157 506Q122 506 99 529T76 586Q76 620 99 644T157 668Q192 668 215 644T239 586Q239 553 216 530T157 506Z" />
<glyph unicode="&#x2da;" glyph-name="ring" horiz-adv-x="324" d="M254 590Q254 570 247 554T227 525T197 507T162 500Q124 500 97 524T70 590Q70 631 97 655T162 680Q200 680 226 656T254 590ZM222 589Q222 618 205 635T161 652Q135 652 118 636T101 590Q101
561 118 545T161 528Q187 528 204 544T222 589Z" />
<glyph unicode="&#x2db;" glyph-name="ogonek" horiz-adv-x="270" d="M219 -216Q126 -221 81 -199T35 -134Q35 -110 47 -93T81 -61T130 -32T188 0H207Q178 -29 166 -60T153 -132Q153 -169 169 -185T219 -205V-216Z" />
<glyph unicode="&#x2dc;" glyph-name="tilde" horiz-adv-x="397" d="M359 662Q354 639 347 615T327 570T295 538T248 525Q233 525 215 528T180 536T148 545T123 549Q98 549 82 540T56 505L39 506Q44 529 52 553T73 596T105 628T150 641Q163 641 180 637T214 629T246
621T270 617Q299 617 316 627T341 663L359 662Z" />
<glyph unicode="&#x2dd;" glyph-name="hungarumlaut" horiz-adv-x="455" d="M351 671Q375 671 390 657T405 616Q405 598 394 583T364 554Q341 537 311 521T233 478L223 485Q235 509 244 528T259 563T272 592L284 618Q295 641 309 656T351 671ZM172 671Q196 671
211 657T226 616Q226 598 215 583T185 554Q162 537 132 521T55 478L45 485Q56 509 64 528T80 563T93 592T106 618Q117 641 131 656T172 671Z" />
</font>
</defs>
</svg>
